<svg xmlns="http://www.w3.org/2000/svg" width="64" height="64" viewBox="0 0 64 64">
  <g id="Group_5" data-name="Group 5" transform="translate(-18615.5 -1688)">
    <rect id="Rectangle_213" data-name="Rectangle 213" width="64" height="64" rx="32" transform="translate(18615.5 1688)" fill="#f2a356"/>
    <path id="Path_34" data-name="Path 34" d="M283.5,92a12,12,0,1,0-12-12A12,12,0,0,0,283.5,92Z" transform="translate(18364 1640)" fill="none" stroke="#fff" stroke-width="2"/>
    <path id="Path_35" data-name="Path 35" d="M283.5,88.666a.667.667,0,1,0-.667-.667A.666.666,0,0,0,283.5,88.666Z" transform="translate(18364 1640)" fill="#fff" stroke="#fff" stroke-width="1"/>
    <path id="Path_36" data-name="Path 36" d="M283.5,85.333V83.441a2.925,2.925,0,0,1,2-2.775,2.925,2.925,0,0,0,2-2.775v-.684a3.873,3.873,0,0,0-3.875-3.875H283.5a4,4,0,0,0-4,4" transform="translate(18364 1640)" fill="none" stroke="#fff" stroke-width="2"/>
  </g>
</svg>
