<svg id="congrats" xmlns="http://www.w3.org/2000/svg" width="183" height="184" viewBox="0 0 183 184">
  <circle id="Ellipse_136" data-name="Ellipse 136" cx="62" cy="62" r="62" transform="translate(32 25)" fill="#2fb972"/>
  <path id="Path_73920" data-name="Path 73920" d="M109.835,73.477,94.5,67.119a1.567,1.567,0,0,0-1.2,0L77.965,73.477A1.563,1.563,0,0,0,77,74.92v7.729a26.166,26.166,0,0,0,16.309,24.235,1.562,1.562,0,0,0,1.183,0A26.167,26.167,0,0,0,110.8,82.649V74.92A1.563,1.563,0,0,0,109.835,73.477Zm-16.843,15.7L100.9,81.28a1.838,1.838,0,1,1,2.6,2.6l-9.207,9.193a1.841,1.841,0,0,1-2.6,0l-5.141-5.133a1.838,1.838,0,0,1,2.6-2.6Z" fill="#fff" fill-rule="evenodd"/>
  <circle id="Ellipse_137" data-name="Ellipse 137" cx="9" cy="9" r="9" transform="translate(165 26)" fill="#2fb972"/>
  <circle id="Ellipse_138" data-name="Ellipse 138" cx="9" cy="9" r="9" transform="translate(37 166)" fill="#2fb972"/>
  <circle id="Ellipse_139" data-name="Ellipse 139" cx="4.5" cy="4.5" r="4.5" transform="translate(152 149)" fill="#2fb972"/>
  <circle id="Ellipse_140" data-name="Ellipse 140" cx="4.5" cy="4.5" r="4.5" transform="translate(8 90)" fill="#2fb972"/>
  <circle id="Ellipse_141" data-name="Ellipse 141" cx="9" cy="9" r="9" fill="#2fb972"/>
</svg>
