<svg xmlns="http://www.w3.org/2000/svg" width="83.003" height="93" viewBox="0 0 83.003 93">
  <g id="Group_870" data-name="Group 870" transform="translate(-1534.498 -767.279)">
    <path id="Path_71978" data-name="Path 71978" d="M1365.53,103.144h5.75" transform="translate(195.998 668)" fill="rgba(0,0,0,0)" stroke="#bcc2c8" stroke-linecap="round" stroke-linejoin="round" stroke-width="2"/>
    <path id="Path_71979" data-name="Path 71979" d="M1368.4,100.279v5.73" transform="translate(195.998 668)" fill="rgba(0,0,0,0)" stroke="#bcc2c8" stroke-linecap="round" stroke-linejoin="round" stroke-width="2"/>
    <path id="Path_71980" data-name="Path 71980" d="M1339.53,115.144h5.75" transform="translate(195.998 668)" fill="rgba(0,0,0,0)" stroke="#bcc2c8" stroke-linecap="round" stroke-linejoin="round" stroke-width="2"/>
    <path id="Path_71981" data-name="Path 71981" d="M1342.4,112.279v5.73" transform="translate(195.998 668)" fill="rgba(0,0,0,0)" stroke="#bcc2c8" stroke-linecap="round" stroke-linejoin="round" stroke-width="2"/>
    <path id="Path_71982" data-name="Path 71982" d="M1406.53,154.144h5.75" transform="translate(195.998 668)" fill="rgba(0,0,0,0)" stroke="#bcc2c8" stroke-linecap="round" stroke-linejoin="round" stroke-width="2"/>
    <path id="Path_71983" data-name="Path 71983" d="M1409.4,151.279v5.73" transform="translate(195.998 668)" fill="rgba(0,0,0,0)" stroke="#bcc2c8" stroke-linecap="round" stroke-linejoin="round" stroke-width="2"/>
    <g id="Group_838" data-name="Group 838" transform="translate(6840 3023)">
      <path id="Path_76006" data-name="Path 76006" d="M1353,125.279h26" transform="translate(-6637.502 -2360)" fill="rgba(0,0,0,0)" stroke="#2fb972" stroke-linecap="round" stroke-width="2"/>
      <path id="Path_76007" data-name="Path 76007" d="M1350.42,129.826v-8.648" transform="translate(-6637.502 -2360)" fill="rgba(0,0,0,0)" stroke="#2fb972" stroke-linecap="round" stroke-width="2"/>
      <path id="Path_76008" data-name="Path 76008" d="M1381.77,129.826v-8.648" transform="translate(-6637.502 -2360)" fill="rgba(0,0,0,0)" stroke="#2fb972" stroke-linecap="round" stroke-width="2"/>
      <path id="Path_76009" data-name="Path 76009" d="M1365.57,149.63a1.55,1.55,0,0,0-1.56-1.557h-4.53a1.558,1.558,0,0,0-1.57,1.557v4.5a1.558,1.558,0,0,0,1.57,1.557h4.53a1.55,1.55,0,0,0,1.56-1.557Z" transform="translate(-6637.502 -2360)" fill="#95dcb8" fill-rule="evenodd"/>
      <path id="Path_76030" data-name="Path 76030" d="M1365.57,149.63a1.55,1.55,0,0,0-1.56-1.557h-4.53a1.558,1.558,0,0,0-1.57,1.557v4.5a1.558,1.558,0,0,0,1.57,1.557h4.53a1.55,1.55,0,0,0,1.56-1.557Z" transform="translate(-6636.979 -2336.651)" fill="#95dcb8" fill-rule="evenodd"/>
      <path id="Path_76028" data-name="Path 76028" d="M1365.57,149.63a1.55,1.55,0,0,0-1.56-1.557h-4.53a1.558,1.558,0,0,0-1.57,1.557v4.5a1.558,1.558,0,0,0,1.57,1.557h4.53a1.55,1.55,0,0,0,1.56-1.557Z" transform="translate(-6649.692 -2348.751)" fill="#95dcb8" fill-rule="evenodd"/>
      <path id="Path_76025" data-name="Path 76025" d="M1365.57,149.63a1.55,1.55,0,0,0-1.56-1.557h-4.53a1.558,1.558,0,0,0-1.57,1.557v4.5a1.558,1.558,0,0,0,1.57,1.557h4.53a1.55,1.55,0,0,0,1.56-1.557Z" transform="translate(-6637.502 -2348.751)" fill="#95dcb8" fill-rule="evenodd"/>
      <path id="Path_76024" data-name="Path 76024" d="M1365.57,149.63a1.55,1.55,0,0,0-1.56-1.557h-4.53a1.558,1.558,0,0,0-1.57,1.557v4.5a1.558,1.558,0,0,0,1.57,1.557h4.53a1.55,1.55,0,0,0,1.56-1.557Z" transform="translate(-6649.692 -2360)" fill="#95dcb8" fill-rule="evenodd"/>
      <path id="Path_76010" data-name="Path 76010" d="M1377.77,149.63a1.559,1.559,0,0,0-1.57-1.557h-4.53a1.559,1.559,0,0,0-1.57,1.557v4.5a1.559,1.559,0,0,0,1.57,1.557h4.53a1.559,1.559,0,0,0,1.57-1.557Z" transform="translate(-6637.502 -2360)" fill="#95dcb8" fill-rule="evenodd"/>
      <path id="Path_76011" data-name="Path 76011" d="M1377.77,160.872a1.559,1.559,0,0,0-1.57-1.557h-4.53a1.559,1.559,0,0,0-1.57,1.557v4.5a1.558,1.558,0,0,0,1.57,1.556h4.53a1.558,1.558,0,0,0,1.57-1.556Z" transform="translate(-6637.502 -2360)" fill="#95dcb8" fill-rule="evenodd"/>
      <path id="Path_76012" data-name="Path 76012" d="M1389.96,165.369v-4.5a1.558,1.558,0,0,0-1.57-1.557h-4.53a1.55,1.55,0,0,0-1.56,1.557v4.5a1.55,1.55,0,0,0,1.56,1.556h4.53A1.552,1.552,0,0,0,1389.96,165.369Z" transform="translate(-6637.502 -2360)" fill="#95dcb8" fill-rule="evenodd"/>
      <path id="Path_76013" data-name="Path 76013" d="M1376.2,171.422h-4.53a1.559,1.559,0,0,0-1.57,1.557v4.5a1.558,1.558,0,0,0,1.57,1.556h4.53a1.558,1.558,0,0,0,1.57-1.556v-4.5A1.559,1.559,0,0,0,1376.2,171.422Z" transform="translate(-6637.502 -2360)" fill="#95dcb8" fill-rule="evenodd"/>
      <path id="Path_76014" data-name="Path 76014" d="M1363.83,147.9a1.551,1.551,0,0,0-1.57-1.556h-4.52a1.551,1.551,0,0,0-1.57,1.556v4.5a1.552,1.552,0,0,0,1.57,1.557h4.52a1.552,1.552,0,0,0,1.57-1.557Z" transform="translate(-6637.502 -2360)" fill="rgba(0,0,0,0)" stroke="#2fb972" stroke-width="2" fill-rule="evenodd"/>
      <path id="Path_76029" data-name="Path 76029" d="M1363.83,147.9a1.551,1.551,0,0,0-1.57-1.556h-4.52a1.551,1.551,0,0,0-1.57,1.556v4.5a1.552,1.552,0,0,0,1.57,1.557h4.52a1.552,1.552,0,0,0,1.57-1.557Z" transform="translate(-6636.979 -2336.651)" fill="rgba(0,0,0,0)" stroke="#2fb972" stroke-width="2" fill-rule="evenodd"/>
      <path id="Path_76027" data-name="Path 76027" d="M1363.83,147.9a1.551,1.551,0,0,0-1.57-1.556h-4.52a1.551,1.551,0,0,0-1.57,1.556v4.5a1.552,1.552,0,0,0,1.57,1.557h4.52a1.552,1.552,0,0,0,1.57-1.557Z" transform="translate(-6649.692 -2348.751)" fill="rgba(0,0,0,0)" stroke="#2fb972" stroke-width="2" fill-rule="evenodd"/>
      <path id="Path_76026" data-name="Path 76026" d="M1363.83,147.9a1.551,1.551,0,0,0-1.57-1.556h-4.52a1.551,1.551,0,0,0-1.57,1.556v4.5a1.552,1.552,0,0,0,1.57,1.557h4.52a1.552,1.552,0,0,0,1.57-1.557Z" transform="translate(-6637.502 -2348.751)" fill="rgba(0,0,0,0)" stroke="#2fb972" stroke-width="2" fill-rule="evenodd"/>
      <path id="Path_76023" data-name="Path 76023" d="M1363.83,147.9a1.551,1.551,0,0,0-1.57-1.556h-4.52a1.551,1.551,0,0,0-1.57,1.556v4.5a1.552,1.552,0,0,0,1.57,1.557h4.52a1.552,1.552,0,0,0,1.57-1.557Z" transform="translate(-6649.692 -2360)" fill="rgba(0,0,0,0)" stroke="#2fb972" stroke-width="2" fill-rule="evenodd"/>
      <path id="Path_76015" data-name="Path 76015" d="M1376.03,147.9a1.558,1.558,0,0,0-1.57-1.556h-4.53a1.558,1.558,0,0,0-1.57,1.556v4.5a1.559,1.559,0,0,0,1.57,1.557h4.53a1.559,1.559,0,0,0,1.57-1.557Z" transform="translate(-6637.502 -2360)" fill="rgba(0,0,0,0)" stroke="#2fb972" stroke-width="2" fill-rule="evenodd"/>
      <path id="Path_76016" data-name="Path 76016" d="M1376.03,159.142a1.558,1.558,0,0,0-1.57-1.556h-4.53a1.558,1.558,0,0,0-1.57,1.556v4.5a1.559,1.559,0,0,0,1.57,1.557h4.53a1.559,1.559,0,0,0,1.57-1.557Z" transform="translate(-6637.502 -2360)" fill="rgba(0,0,0,0)" stroke="#2fb972" stroke-width="2" fill-rule="evenodd"/>
      <path id="Path_76017" data-name="Path 76017" d="M1388.22,163.639v-4.5a1.558,1.558,0,0,0-1.57-1.556h-4.53a1.558,1.558,0,0,0-1.57,1.556v4.5a1.558,1.558,0,0,0,1.57,1.557h4.53A1.553,1.553,0,0,0,1388.22,163.639Z" transform="translate(-6637.502 -2360)" fill="rgba(0,0,0,0)" stroke="#2fb972" stroke-width="2" fill-rule="evenodd"/>
      <path id="Path_76018" data-name="Path 76018" d="M1374.46,169.693h-4.53a1.558,1.558,0,0,0-1.57,1.556v4.5a1.559,1.559,0,0,0,1.57,1.557h4.53a1.559,1.559,0,0,0,1.57-1.557v-4.5A1.558,1.558,0,0,0,1374.46,169.693Z" transform="translate(-6637.502 -2360)" fill="rgba(0,0,0,0)" stroke="#2fb972" stroke-width="2" fill-rule="evenodd"/>
      <ellipse id="Ellipse_233" data-name="Ellipse 233" cx="16.113" cy="15.998" rx="16.113" ry="15.998" transform="translate(-5254.725 -2194.718)" fill="#2fb972"/>
      <ellipse id="Ellipse_234" data-name="Ellipse 234" cx="16.113" cy="15.998" rx="16.113" ry="15.998" transform="translate(-5257.465 -2196.448)" fill="rgba(0,0,0,0)" stroke="#2fb972" stroke-width="2"/>
      <path id="Path_76019" data-name="Path 76019" d="M1392.77,179.333l2.69,3.606,7.03-6.137" transform="translate(-6637.502 -2360)" fill="rgba(0,0,0,0)" stroke="#fff" stroke-linecap="round" stroke-linejoin="round" stroke-width="2"/>
      <path id="Path_76020" data-name="Path 76020" d="M1348,125.279h-8a7,7,0,0,0-7,7v45a7,7,0,0,0,7,7h34" transform="translate(-6637.502 -2360)" fill="rgba(0,0,0,0)" stroke="#2fb972" stroke-linecap="round" stroke-width="2"/>
      <path id="Path_76021" data-name="Path 76021" d="M1385,125.279h6a7,7,0,0,1,7,7v25" transform="translate(-6637.502 -2360)" fill="rgba(0,0,0,0)" stroke="#2fb972" stroke-linecap="round" stroke-width="2"/>
      <path id="Path_76022" data-name="Path 76022" d="M1333,140.2h65.19" transform="translate(-6638.062 -2360)" fill="rgba(0,0,0,0)" stroke="#2fb972" stroke-width="2"/>
    </g>
  </g>
</svg>
