<svg id="Group_1000005800" data-name="Group 1000005800" xmlns="http://www.w3.org/2000/svg" width="378" height="370.999" viewBox="0 0 378 370.999">
  <path id="Path_73863" data-name="Path 73863" d="M178.725,295.673H9.272L0,55.6H169.453Z" fill="#3f8f66"/>
  <path id="Path_73864" data-name="Path 73864" d="M187.186,288.22H17.733L8.461,48.146H177.914Z" fill="#2fb972"/>
  <path id="Path_73865" data-name="Path 73865" d="M130.422,146.932c18.144-16.259,17.372-42.846-1.724-59.382s-49.284-16.762-67.428-.5S43.9,129.892,62.994,146.429,112.279,163.191,130.422,146.932Z" fill="#98c3ad"/>
  <path id="Path_73866" data-name="Path 73866" d="M135.181,117a30.278,30.278,0,0,1-4.117,16.5,35.3,35.3,0,0,1-14.014,13.311,41.631,41.631,0,0,1-19.865,4.834,45.236,45.236,0,0,1-20.4-4.916A38.8,38.8,0,0,1,61.9,133.507,32.158,32.158,0,0,1,56.5,117a29.7,29.7,0,0,1,2.415-13.218,33.039,33.039,0,0,1,8.135-11.308,38.3,38.3,0,0,1,12.537-7.566,42.225,42.225,0,0,1,14.908-2.6,44.039,44.039,0,0,1,28.228,10.167A34.344,34.344,0,0,1,135.181,117Z" fill="#fff"/>
  <path id="Path_73867" data-name="Path 73867" d="M131.064,133.51a35.309,35.309,0,0,1-14.014,13.311,41.628,41.628,0,0,1-19.865,4.833,45.223,45.223,0,0,1-20.4-4.916A38.8,38.8,0,0,1,61.9,133.51a66.266,66.266,0,0,1,34.225-9.23A70.152,70.152,0,0,1,131.064,133.51Z" fill="#407bff" opacity="0.6"/>
  <path id="Path_73868" data-name="Path 73868" d="M108.1,116.154c6.672-5.979,6.388-15.755-.634-21.835s-18.122-6.164-24.794-.185-6.388,15.754.634,21.835S101.426,122.133,108.1,116.154Z" fill="#407bff" opacity="0.6"/>
  <path id="Path_73869" data-name="Path 73869" d="M153.152,201.282H45.048l-.728-18.923H152.412Z" fill="#fff"/>
  <path id="Path_73870" data-name="Path 73870" d="M154.453,235.1H46.361l-.74-18.922h108.1Z" fill="#fff"/>
  <path id="Path_73871" data-name="Path 73871" d="M112.734,218.787l-26.05,3.154a1.98,1.98,0,0,0-.7.209,1.765,1.765,0,0,0-.55.44,1.519,1.519,0,0,0-.3.6,1.413,1.413,0,0,0-.005.655l3.413,15.38a1.836,1.836,0,0,0,.839,1.116,2.3,2.3,0,0,0,1.476.314L116.9,237.5a1.979,1.979,0,0,0,.7-.209,1.777,1.777,0,0,0,.553-.44,1.528,1.528,0,0,0,.306-.6,1.412,1.412,0,0,0,.011-.656l-3.425-15.38a1.83,1.83,0,0,0-.839-1.115A2.291,2.291,0,0,0,112.734,218.787Zm-7.482,15.579-4.773.557L100,229.962a3.309,3.309,0,0,1-1.26-.842,2.774,2.774,0,0,1-.673-1.261,2.315,2.315,0,0,1-.005-1.085,2.478,2.478,0,0,1,.494-.993,2.881,2.881,0,0,1,.909-.732,3.263,3.263,0,0,1,1.168-.344,3.777,3.777,0,0,1,2.447.514,3.007,3.007,0,0,1,1.383,1.852,2.246,2.246,0,0,1-.084,1.329,2.554,2.554,0,0,1-.835,1.11Z" fill="#407bff"/>
  <path id="Path_73872" data-name="Path 73872" d="M110.168,217.957a2.032,2.032,0,0,1-1.311-.28,1.617,1.617,0,0,1-.741-.992l-.334-1.5a8.6,8.6,0,0,0-3.674-5.15,10.779,10.779,0,0,0-6.613-1.747,9.232,9.232,0,0,0-3.429.837,8.179,8.179,0,0,0-2.723,2.017,7.018,7.018,0,0,0-1.523,2.832,6.5,6.5,0,0,0-.047,3.134l.382,1.735a1.255,1.255,0,0,1-.009.581,1.346,1.346,0,0,1-.272.529,1.567,1.567,0,0,1-.49.389,1.785,1.785,0,0,1-.626.183,2.031,2.031,0,0,1-1.311-.279,1.623,1.623,0,0,1-.742-.993l-.322-1.472a9.138,9.138,0,0,1-.032-4.143,9.725,9.725,0,0,1,1.816-3.822,11.208,11.208,0,0,1,3.373-2.887,12.741,12.741,0,0,1,4.389-1.49,14.832,14.832,0,0,1,9.705,1.86,11.848,11.848,0,0,1,5.57,7.244l.382,1.735a1.248,1.248,0,0,1-.007.586,1.343,1.343,0,0,1-.278.534,1.562,1.562,0,0,1-.5.387A1.745,1.745,0,0,1,110.168,217.957Z" fill="#407bff"/>
  <path id="Path_73873" data-name="Path 73873" d="M136.613,261.6H66.254l-.477-12.321h70.359Z" fill="#3f8f66"/>
  <path id="Path_73874" data-name="Path 73874" d="M102.627,191.82a2.959,2.959,0,0,1-.244,1.318,3.3,3.3,0,0,1-.812,1.128,3.832,3.832,0,0,1-1.252.754,4.223,4.223,0,0,1-1.487.259,4.383,4.383,0,0,1-2.817-1.012,3.417,3.417,0,0,1-1.24-2.447,2.958,2.958,0,0,1,.24-1.32,3.294,3.294,0,0,1,.813-1.129,3.814,3.814,0,0,1,1.253-.753,4.191,4.191,0,0,1,1.489-.256,4.391,4.391,0,0,1,2.813,1.014A3.428,3.428,0,0,1,102.627,191.82Z" fill="#263238"/>
  <path id="Path_73875" data-name="Path 73875" d="M85.753,191.82a2.968,2.968,0,0,1-.243,1.318,3.291,3.291,0,0,1-.813,1.127,3.833,3.833,0,0,1-1.251.755,4.226,4.226,0,0,1-1.487.259,4.4,4.4,0,0,1-2.821-1.011,3.43,3.43,0,0,1-1.248-2.448,2.966,2.966,0,0,1,.243-1.318,3.291,3.291,0,0,1,.813-1.127,3.832,3.832,0,0,1,1.251-.755,4.226,4.226,0,0,1,1.487-.259,4.4,4.4,0,0,1,2.822,1.011A3.43,3.43,0,0,1,85.753,191.82Z" fill="#263238"/>
  <path id="Path_73876" data-name="Path 73876" d="M68.832,191.82a2.955,2.955,0,0,1-.24,1.32,3.292,3.292,0,0,1-.813,1.129,3.834,3.834,0,0,1-1.253.754,4.236,4.236,0,0,1-1.489.256,4.4,4.4,0,0,1-2.814-1.015,3.429,3.429,0,0,1-1.243-2.444,2.966,2.966,0,0,1,.243-1.318,3.288,3.288,0,0,1,.813-1.127,3.832,3.832,0,0,1,1.251-.755,4.226,4.226,0,0,1,1.487-.259,4.389,4.389,0,0,1,2.817,1.012A3.416,3.416,0,0,1,68.832,191.82Z" fill="#263238"/>
  <path id="Path_73877" data-name="Path 73877" d="M119.572,191.82a2.962,2.962,0,0,1-.242,1.325,3.29,3.29,0,0,1-.819,1.132,3.818,3.818,0,0,1-1.261.752,4.231,4.231,0,0,1-1.5.25,4.4,4.4,0,0,1-2.814-1.015,3.43,3.43,0,0,1-1.243-2.444,2.974,2.974,0,0,1,.243-1.318,3.294,3.294,0,0,1,.813-1.127A3.841,3.841,0,0,1,114,188.62a4.23,4.23,0,0,1,1.488-.259,4.392,4.392,0,0,1,2.832,1.005A3.418,3.418,0,0,1,119.572,191.82Z" fill="#263238"/>
  <path id="Path_73878" data-name="Path 73878" d="M136.493,191.82a2.974,2.974,0,0,1-.243,1.318,3.293,3.293,0,0,1-.813,1.127,3.84,3.84,0,0,1-1.251.755,4.23,4.23,0,0,1-1.488.259,4.4,4.4,0,0,1-2.821-1.011,3.43,3.43,0,0,1-1.248-2.448,2.961,2.961,0,0,1,.244-1.318,3.28,3.28,0,0,1,.813-1.127,3.82,3.82,0,0,1,1.251-.755,4.22,4.22,0,0,1,1.487-.259,4.4,4.4,0,0,1,2.821,1.011A3.43,3.43,0,0,1,136.493,191.82Z" fill="#263238"/>
  <path id="Path_73879" data-name="Path 73879" d="M277.7,116.691c1.588,2.24,2.9,4.395,4.273,6.634s2.589,4.489,3.794,6.791a89.948,89.948,0,0,1,6.086,14.434c.2.62.37,1.282.549,1.923l.263.978.131.484.155.8a12.467,12.467,0,0,1-.382,5.414,28.429,28.429,0,0,1-3.711,7.843,64.228,64.228,0,0,1-10.6,12.268l-4.988-3.406a113.232,113.232,0,0,0,6.719-12.615,24.433,24.433,0,0,0,1.825-5.929,4.091,4.091,0,0,0-.1-1.85l-.477-1.283c-.191-.536-.37-1.051-.609-1.587a108.684,108.684,0,0,0-6.289-12.71c-2.387-4.205-4.94-8.41-7.506-12.415Z" fill="#fbaf87"/>
  <path id="Path_73880" data-name="Path 73880" d="M274.467,169.348l-5.478,2.565,6.3,6.5s3.938-2.344,4.1-5.918Z" fill="#fbaf87"/>
  <path id="Path_73881" data-name="Path 73881" d="M261.65,175.917l6.754,4.72,6.922-2.228-6.3-6.5Z" fill="#fbaf87"/>
  <path id="Path_73882" data-name="Path 73882" d="M238.667,82.24c-.132.589-.6,1.051-1.027.914a.955.955,0,0,1-.549-1.2,1.033,1.033,0,0,1,1.039-.915C238.571,81.116,238.738,81.662,238.667,82.24Z" fill="#263238"/>
  <path id="Path_73883" data-name="Path 73883" d="M238.07,83.248a22.455,22.455,0,0,1-4.32,4.426,3.951,3.951,0,0,0,1.39.821,4.366,4.366,0,0,0,1.653.23Z" fill="#fbaf87"/>
  <path id="Path_73884" data-name="Path 73884" d="M235.922,103.866V96.98l10.358,1.051s-.179,5.929-5.967,7.663Z" fill="#fbaf87"/>
  <path id="Path_73885" data-name="Path 73885" d="M238.893,92.016l7.3,1.85.131,4.215-10.358-1.1Z" fill="#fbaf87"/>
  <path id="Path_73886" data-name="Path 73886" d="M246.2,93.866l-7.291-1.85-1.432,2.4a9.422,9.422,0,0,0,1.936,5.295,11.33,11.33,0,0,0,4.795,3.62,9.323,9.323,0,0,0,2.112-5.256Z" fill="#fbaf87" opacity="0.2"/>
  <path id="Path_73887" data-name="Path 73887" d="M241.781,79.433a.452.452,0,0,0,.275-.095.328.328,0,0,0,0-.494,3.975,3.975,0,0,0-1.534-.944,4.415,4.415,0,0,0-1.855-.212.4.4,0,0,0-.243.145.32.32,0,0,0-.062.252.344.344,0,0,0,.153.22.434.434,0,0,0,.283.067,3.609,3.609,0,0,1,1.464.194,3.237,3.237,0,0,1,1.209.752.381.381,0,0,0,.14.09A.426.426,0,0,0,241.781,79.433Z" fill="#263238"/>
  <path id="Path_73888" data-name="Path 73888" d="M257.032,92.879c-1.193,5.414-1.933,12.9,2.387,16.515,0,0-1.683,5.488-13.127,5.488-12.542,0-6.026-4.815-6.026-4.815,5.2-1.43,5.167-6.665,3.973-10.87Z" fill="#fbaf87"/>
  <path id="Path_73889" data-name="Path 73889" d="M261.746,113.01c1.121-1.4,1.074-5.8-.12-6.57-1.921-1.262-10.167-1.545-21.265.7a6.4,6.4,0,0,1-1.36,6.5Z" fill="#2fb972"/>
  <path id="Path_73890" data-name="Path 73890" d="M299.037,362.577a2.987,2.987,0,0,1-2.088-.1.724.724,0,0,1-.241-.384.659.659,0,0,1,.05-.436.82.82,0,0,1,.2-.306.961.961,0,0,1,.318-.209c1.134-.473,3.735.462,3.855.5a.178.178,0,0,1,.089.062.141.141,0,0,1,.03.1.18.18,0,0,1-.035.093.21.21,0,0,1-.084.065A11.345,11.345,0,0,1,299.037,362.577Zm-1.36-1.178-.239.063a.593.593,0,0,0-.185.125.5.5,0,0,0-.113.18c-.107.315,0,.41.072.442.453.347,2.124,0,3.3-.389A7.373,7.373,0,0,0,297.677,361.4Z" fill="#407bff"/>
  <path id="Path_73891" data-name="Path 73891" d="M301.089,361.977h-.107c-.943-.242-2.971-1.514-2.995-2.355a.522.522,0,0,1,.135-.362.659.659,0,0,1,.366-.205,1.338,1.338,0,0,1,.883.063c1.122.5,1.838,2.554,1.862,2.638a.162.162,0,0,1,0,.179.144.144,0,0,1-.065.039A.176.176,0,0,1,301.089,361.977ZM298.7,359.37h-.1c-.238.074-.238.179-.238.221,0,.5,1.36,1.493,2.386,1.9a4.28,4.28,0,0,0-1.527-2.1.779.779,0,0,0-.513-.021Z" fill="#407bff"/>
  <path id="Path_73892" data-name="Path 73892" d="M237.068,363.819c-1.074,0-2.113-.126-2.459-.557a.572.572,0,0,1,0-.757.9.9,0,0,1,.266-.265,1.016,1.016,0,0,1,.367-.145c1.4-.337,4.332,1.135,4.451,1.2a.186.186,0,0,1,.081.076.148.148,0,0,1,.014.1.173.173,0,0,1-.052.1.206.206,0,0,1-.1.052A16.787,16.787,0,0,1,237.068,363.819Zm-1.325-1.43a1.358,1.358,0,0,0-.382,0,.636.636,0,0,0-.226.084.553.553,0,0,0-.168.158c-.143.221-.1.326,0,.389.382.473,2.506.484,4.07.294A9.737,9.737,0,0,0,235.743,362.389Z" fill="#407bff"/>
  <path id="Path_73893" data-name="Path 73893" d="M239.609,363.618h-.083c-1.015-.4-3.02-2-2.864-2.827,0-.2.191-.442.739-.495a1.652,1.652,0,0,1,.586.051,1.5,1.5,0,0,1,.512.254,4.589,4.589,0,0,1,1.3,2.849.146.146,0,0,1-.017.089.182.182,0,0,1-.066.069A.19.19,0,0,1,239.609,363.618Zm-2.052-3.038h-.084c-.358,0-.382.158-.382.2-.1.505,1.265,1.756,2.3,2.3a3.9,3.9,0,0,0-1.11-2.281A1.19,1.19,0,0,0,237.557,360.58Z" fill="#407bff"/>
  <path id="Path_73894" data-name="Path 73894" d="M248.834,363.439h-8.389l-.836-17.125H248Z" fill="#ff8b7b"/>
  <path id="Path_73895" data-name="Path 73895" d="M310.446,360.022l-8.211,1.556L294,345.63l8.211-1.556Z" fill="#ff8b7b"/>
  <path id="Path_73896" data-name="Path 73896" d="M301.448,360.852l9.225-1.755a.8.8,0,0,1,.48.055.67.67,0,0,1,.331.313l3.2,6.107a.941.941,0,0,1,0,.956,1.105,1.105,0,0,1-.364.372,1.285,1.285,0,0,1-.516.186c-3.222.568-4.773.7-8.89,1.472-2.482.473-8.115,1.682-11.564,2.344s-4.63-2.26-3.281-2.8c5.966-2.429,8.532-4.563,10.167-6.549A2.063,2.063,0,0,1,301.448,360.852Z" fill="#263238"/>
  <path id="Path_73897" data-name="Path 73897" d="M240.492,362.588h9.177a.784.784,0,0,1,.452.144.632.632,0,0,1,.252.361l1.659,6.57a.942.942,0,0,1,.012.483,1.007,1.007,0,0,1-.236.437,1.186,1.186,0,0,1-.432.3,1.339,1.339,0,0,1-.537.1c-3.306,0-8.079-.221-12.244-.221-4.857,0-9.045.231-14.75.231-3.448,0-4.4-3.059-2.959-3.343,6.563-1.261,11.933-1.4,17.6-4.478A4.246,4.246,0,0,1,240.492,362.588Z" fill="#263238"/>
  <path id="Path_73898" data-name="Path 73898" d="M274.467,111.063c7.876,1.588,14.32,19.28,14.32,19.28l-15.8,10.607a29.568,29.568,0,0,1-8.353-13.666C261.9,118.012,266.376,109.434,274.467,111.063Z" fill="#2fb972"/>
  <path id="Path_73899" data-name="Path 73899" d="M233.058,132.175c-1.969,1.872-3.926,3.532-5.967,5.257-1.014.851-2.04,1.682-3.091,2.5l-1.587,1.22-.394.3c-.2.147-.429.326-.68.494a10.911,10.911,0,0,1-2.315,1.2,8.488,8.488,0,0,1-2.9.526,8.053,8.053,0,0,1-2.506-.389,7.254,7.254,0,0,1-2.386-1.335,6.424,6.424,0,0,1-1.874-2.723,6.933,6.933,0,0,1-.334-1.566,8.706,8.706,0,0,1,0-1.882,6.535,6.535,0,0,1,.215-1.356,24,24,0,0,1,1.4-4.205,36.3,36.3,0,0,1,1.85-3.795c.752-1.335,1.491-2.313,2.219-3.427a86.775,86.775,0,0,1,10.084-12.047,88.562,88.562,0,0,1,12.232-10.219l4.391,3.985c-3.079,3.637-6.122,7.527-8.926,11.374a119.659,119.659,0,0,0-7.625,11.827c-.526.988-1.194,2.1-1.516,2.9s-.8,1.871-1.122,2.828a17.758,17.758,0,0,0-.668,2.66,2.266,2.266,0,0,0,0,.42v-.105a2.572,2.572,0,0,0-.155-.683,4.469,4.469,0,0,0-1.372-1.956,6.217,6.217,0,0,0-3.974-1.419,5.608,5.608,0,0,0-1.933.326c-.585.221-.6.284-.585.252l.453-.368,1.432-1.156,2.852-2.355c1.9-1.566,3.795-3.238,5.585-4.783Z" fill="#fbaf87"/>
  <path id="Path_73900" data-name="Path 73900" d="M267.688,124.047c4.273,3.721,5.657,10.512,5.967,16.4l-.692.473a29.389,29.389,0,0,1-8.353-13.666,16.717,16.717,0,0,1-.406-1.65Z" opacity="0.2"/>
  <path id="Path_73901" data-name="Path 73901" d="M224.716,118.478c-1.718,7.99-2.792,24.389,2.184,56.883h44.893c.311-6.076-4.021-35.69,2.626-64.294a130.182,130.182,0,0,0-15.024-1.672,186.515,186.515,0,0,0-19.094,0c-2.112.169-4.176.431-5.966.726a12.47,12.47,0,0,0-6.294,2.853A10.117,10.117,0,0,0,224.716,118.478Z" fill="#100773"/>
  <path id="Path_73902" data-name="Path 73902" d="M231.578,130.284l-8.1-1.714a144.574,144.574,0,0,0,.084,16.326C227.294,141.154,232.067,135.319,231.578,130.284Z" opacity="0.2"/>
  <path id="Path_73903" data-name="Path 73903" d="M239.609,346.326l.43,8.82h8.4l-.43-8.82Z" opacity="0.2"/>
  <path id="Path_73904" data-name="Path 73904" d="M302.212,344.074,294,345.641l4.249,8.22,8.21-1.566Z" opacity="0.2"/>
  <path id="Path_73905" data-name="Path 73905" d="M261.018,84.962c-2.148,7.085-3.008,11.332-7.972,14.286-7.47,4.426-16.766-.662-17.065-8.168-.262-6.77,3.318-17.219,11.934-18.649a12.832,12.832,0,0,1,5.71.316,11.62,11.62,0,0,1,4.811,2.728,9.7,9.7,0,0,1,2.692,4.448A8.859,8.859,0,0,1,261.018,84.962Z" fill="#fbaf87"/>
  <path id="Path_73906" data-name="Path 73906" d="M242.246,85.235c-.4-.946-2.267-8.273-.513-10.176s21.611-.536,24.547,2.008c4.869,4.2,1.492,8-3.842,12.867-4.01,3.658-4.165,7.779-6.194,8.41-3.58,1.051-9.045.063-10.143-3.28S242.246,85.235,242.246,85.235Z" fill="#263238"/>
  <path id="Path_73907" data-name="Path 73907" d="M263.81,68.742c-7.017-2.639-20.191.273-27.292-1.23a8.929,8.929,0,0,0,2.441,6.417,11.322,11.322,0,0,0,6.629,3.422,105.627,105.627,0,0,0,17.9,1.451C271.3,78.529,269.777,70.981,263.81,68.742Z" fill="#263238"/>
  <path id="Path_73908" data-name="Path 73908" d="M264.92,77.3a14.817,14.817,0,0,0,7.422-1.261C273.655,78.846,266.435,79.6,264.92,77.3Z" fill="#263238"/>
  <path id="Path_73909" data-name="Path 73909" d="M246.006,85.531a7.837,7.837,0,0,1-2.387,4.9c-1.838,1.777-3.747.673-4.069-1.493-.287-1.945.31-5.256,2.541-6.192A2.693,2.693,0,0,1,246.006,85.531Z" fill="#fbaf87"/>
  <path id="Path_73910" data-name="Path 73910" d="M242.831,175.361s9.547,56.505,14.75,77.677c5.728,23.18,36.432,99.869,36.432,99.869l15.06-2.839s-21.48-62.507-26.253-94.917c-3.688-24.893-10.967-79.779-10.967-79.779Z" fill="#100773"/>
  <path id="Path_73911" data-name="Path 73911" d="M290.422,348.5c-.06,0,2.8,4.783,2.8,4.783l16.9-3.217L308.7,345.6Z" fill="#263238"/>
  <path id="Path_73912" data-name="Path 73912" d="M248.846,195.532c11.014,1.9,9.857,38.087,8.532,56.694-3.186-13.151-7.828-38.465-11-56.431A4.191,4.191,0,0,1,248.846,195.532Z" opacity="0.3"/>
  <path id="Path_73913" data-name="Path 73913" d="M226.9,175.36s-1.193,55.286-.239,77.793c.955,23.453,10.251,100.247,10.251,100.247h14.213s.525-75.427,1.193-98.46c.692-25.114,4.129-79.622,4.129-79.622Z" fill="#100773"/>
  <path id="Path_73914" data-name="Path 73914" d="M234.18,348.449c-.072,0,.8,5.256.8,5.256h17.292l.465-4.646Z" fill="#263238"/>
  <path id="Path_73915" data-name="Path 73915" d="M242.306,120.895c4.022,9.555-19.618,20.8-19.618,20.8l-10.239-11.564s6.826-11.974,15.215-17.377C238.01,106.083,239.239,113.631,242.306,120.895Z" fill="#2fb972"/>
  <path id="Path_73916" data-name="Path 73916" d="M334.932,48.357C358.718,48.357,378,37.532,378,24.179S358.718,0,334.932,0s-43.067,10.825-43.067,24.179S311.147,48.357,334.932,48.357Z" fill="#2fb972"/>
  <path id="Path_73917" data-name="Path 73917" d="M319.383,36.352a13.06,13.06,0,0,1-7.745-2.515,10.4,10.4,0,0,1-4.092-6.316,9.733,9.733,0,0,1,1.9-7.666,12.3,12.3,0,0,1,7.3-4.487,13.445,13.445,0,0,1,7.33.534,11.646,11.646,0,0,1,5.582,4.218l27.65-5.035a4.837,4.837,0,0,1,3.112.443,3.932,3.932,0,0,1,1.947,2.185,3.241,3.241,0,0,1,.094,1.477,3.394,3.394,0,0,1-.576,1.389,3.907,3.907,0,0,1-1.151,1.076,4.47,4.47,0,0,1-1.541.588l-.728.126a.8.8,0,0,0-.286.118.694.694,0,0,0-.206.211.618.618,0,0,0-.089.267.608.608,0,0,0,.044.276l.489,1.114a1.466,1.466,0,0,1,.047,1.128,1.7,1.7,0,0,1-.787.891,2.258,2.258,0,0,0-.723.642,1.954,1.954,0,0,0-.351.851,1.533,1.533,0,0,1-.443.938,1.911,1.911,0,0,1-.989.524l-.572.095a2.05,2.05,0,0,1-1.141-.128,1.744,1.744,0,0,1-.828-.7,2.24,2.24,0,0,0-1.056-.844,2.6,2.6,0,0,0-1.418-.139,2.411,2.411,0,0,0-1.241.619,1.939,1.939,0,0,0-.593,1.142,1.554,1.554,0,0,1-.451.938,1.926,1.926,0,0,1-.993.523l-.549.095a2.075,2.075,0,0,1-1.145-.129,1.768,1.768,0,0,1-.836-.7,2.159,2.159,0,0,0-.7-.661,2.5,2.5,0,0,0-.958-.327,1.978,1.978,0,0,1-1.122-.552A1.565,1.565,0,0,1,341.1,27.5V26.313a.562.562,0,0,0-.08-.271.646.646,0,0,0-.206-.213.733.733,0,0,0-.288-.127.78.78,0,0,0-.321,0l-8.866,1.629a10.156,10.156,0,0,1-3.188,5.742,12.552,12.552,0,0,1-6.359,3.078A13.1,13.1,0,0,1,319.383,36.352ZM317,16.379a11.087,11.087,0,0,0-6.579,4.047,8.773,8.773,0,0,0-1.7,6.907,9.438,9.438,0,0,0,3.852,5.716,11.848,11.848,0,0,0,7.149,2.13,11.7,11.7,0,0,0,7-2.483,9.263,9.263,0,0,0,3.479-5.9v-.378l9.642-1.756a2.147,2.147,0,0,1,.835.005,2.008,2.008,0,0,1,.752.321,1.771,1.771,0,0,1,.529.564,1.54,1.54,0,0,1,.211.708v1.188a.588.588,0,0,0,.164.394.744.744,0,0,0,.409.216,3.766,3.766,0,0,1,1.456.5,3.257,3.257,0,0,1,1.062,1.007.651.651,0,0,0,.291.267.773.773,0,0,0,.413.069l.549-.105a.7.7,0,0,0,.352-.208.568.568,0,0,0,.149-.349,2.945,2.945,0,0,1,.9-1.72,3.652,3.652,0,0,1,1.873-.932,3.946,3.946,0,0,1,2.139.207,3.4,3.4,0,0,1,1.6,1.268.628.628,0,0,0,.291.265.746.746,0,0,0,.413.061l.573-.095a.692.692,0,0,0,.347-.209.56.56,0,0,0,.142-.349,2.837,2.837,0,0,1,.517-1.294,3.311,3.311,0,0,1,1.106-.966.611.611,0,0,0,.281-.333.533.533,0,0,0-.031-.414l-.477-1.114a1.522,1.522,0,0,1-.126-.724,1.553,1.553,0,0,1,.231-.7,1.789,1.789,0,0,1,.545-.553,2.068,2.068,0,0,1,.758-.3l.728-.126a3.2,3.2,0,0,0,1.1-.422,2.8,2.8,0,0,0,.822-.769,2.43,2.43,0,0,0,.411-.992,2.311,2.311,0,0,0-.065-1.055,2.835,2.835,0,0,0-1.418-1.562,3.482,3.482,0,0,0-2.245-.3l-28.485,5.183-.215-.336a10.467,10.467,0,0,0-5.059-4.014,12.182,12.182,0,0,0-6.779-.559Zm2.386,16.074a8.187,8.187,0,0,1-5.237-1.858A6.39,6.39,0,0,1,311.8,26.07a6.226,6.226,0,0,1,1.838-4.7,7.986,7.986,0,0,1,5.009-2.295,8.361,8.361,0,0,1,5.426,1.376,6.6,6.6,0,0,1,2.858,4.289,6.092,6.092,0,0,1-1.281,4.844,7.746,7.746,0,0,1-4.716,2.735,8.589,8.589,0,0,1-1.528.147Zm0-12.415a8.1,8.1,0,0,0-1.324.116,6.479,6.479,0,0,0-3.916,2.486,5.128,5.128,0,0,0-.864,4.183,5.7,5.7,0,0,0,2.669,3.542,7.159,7.159,0,0,0,4.712.921,6.938,6.938,0,0,0,2.321-.863,6.1,6.1,0,0,0,1.767-1.58,5.32,5.32,0,0,0,.946-2.056,5.019,5.019,0,0,0-.022-2.219,5.6,5.6,0,0,0-2.232-3.248A7,7,0,0,0,319.383,20.037Z" fill="#fff"/>
  <path id="Path_73918" data-name="Path 73918" d="M299.872,62.53c7.817,0,14.153-3.558,14.153-7.947s-6.336-7.947-14.153-7.947-14.153,3.558-14.153,7.947S292.056,62.53,299.872,62.53Z" fill="#2fb972" opacity="0.6"/>
  <path id="Path_73919" data-name="Path 73919" d="M277.366,65.785c3.21,0,5.812-1.459,5.812-3.259s-2.6-3.259-5.812-3.259-5.811,1.459-5.811,3.259S274.157,65.785,277.366,65.785Z" fill="#5db490" opacity="0.3"/>
</svg>
