<svg id="Group_1000005796_1_" data-name="Group 1000005796 (1)" xmlns="http://www.w3.org/2000/svg" width="378" height="371" viewBox="0 0 378 371">
  <path id="Path_73136" data-name="Path 73136" d="M333.852,318.141A135.134,135.134,0,0,1,313.1,335.3c-67.707,47.7-147.822,33.794-164.849,30.4-25.143-5.013-73.744-14.705-108.881-55.275-53.16-61.378-44.882-158.078-3.648-221.912C43.262,76.833,83.1,12.028,164.081,1.635c49.006-6.29,106.133,6.4,147.5,40.425C398.421,113.489,392.239,257.79,333.852,318.141Z" transform="translate(0 0)" fill="#dae3fe"/>
  <path id="Path_73137" data-name="Path 73137" d="M185.6,346.264s71.963-180.61,178.869-200.34A2.987,2.987,0,0,1,368,148.995C366.916,171.274,353.221,289.179,185.6,346.264Z" transform="translate(10 10)" fill="#7d97f4"/>
  <path id="Path_73138" data-name="Path 73138" d="M345.257,175.22c-5.459,7.74-11.179,15.276-16.978,22.755-1.448,1.871-2.928,3.717-4.39,5.577s-2.917,3.726-4.416,5.556l-4.483,5.5c-1.5,1.829-2.971,3.684-4.509,5.483-3.054,3.616-6.079,7.256-9.158,10.851l-9.332,10.7c-6.331,7.039-12.658,14.085-19.184,20.95l-4.856,5.183c-1.6,1.747-3.3,3.4-4.938,5.107L253.1,283.074l-10.168,9.933c-1.7,1.652-3.38,3.322-5.112,4.939l-5.245,4.8c-3.5,3.193-6.971,6.426-10.533,9.554l-10.832,9.221-2.72,2.29c-.915.754-1.8,1.539-2.738,2.268l-5.6,4.394c-1.86,1.471-3.746,2.909-5.617,4.364s-3.749,2.9-5.636,4.336a.332.332,0,0,1-.462-.061.327.327,0,0,1,.047-.447l.009-.008q2.7-2.305,5.432-4.577c1.817-1.517,3.62-3.05,5.45-4.55l5.472-4.52c1.8-1.53,3.552-3.125,5.342-4.672l10.715-9.3,10.494-9.549,5.252-4.771c.877-.792,1.713-1.629,2.573-2.44l2.574-2.441,10.3-9.765c6.7-6.679,13.5-13.255,19.971-20.162,3.266-3.422,6.57-6.809,9.725-10.333,3.181-3.5,6.392-6.973,9.55-10.494l9.364-10.659c3.09-3.58,6.127-7.205,9.192-10.806,1.544-1.792,3.019-3.639,4.526-5.461l4.5-5.482c1.505-1.823,2.954-3.692,4.434-5.536s2.954-3.692,4.408-5.556c5.794-7.469,11.506-15.012,16.946-22.731l0-.005a.331.331,0,0,1,.458-.081.327.327,0,0,1,.081.456Z" transform="translate(10 10)" fill="#fff" opacity="0.62"/>
  <g id="Group_630" data-name="Group 630" transform="translate(178.156 0)" opacity="0.79">
    <path id="Path_73139" data-name="Path 73139" d="M168.156,242.683S203.14,83.195,308.749.519a2.414,2.414,0,0,1,3.836,1.295C319.228,28.52,353.816,198.859,168.156,242.683Z" transform="translate(-168.156 0)" fill="#91b3fa"/>
    <path id="Path_73140" data-name="Path 73140" d="M297.536,46.529c-1.213,4.627-2.624,9.185-4.113,13.722S290.365,69.3,288.7,73.774q-5.01,13.422-10.9,26.5c-.972,2.182-2,4.341-2.994,6.513s-2.086,4.3-3.125,6.452-2.146,4.271-3.229,6.4l-1.637,3.19-1.7,3.16c-4.514,8.428-9.27,16.736-14.4,24.818-5.141,8.069-10.484,16.019-16.248,23.667-.713.961-1.413,1.931-2.138,2.884l-2.212,2.829-2.211,2.83c-.741.939-1.46,1.9-2.238,2.808l-4.592,5.525-1.153,1.376-1.194,1.342-2.389,2.684a280.275,280.275,0,0,1-42.2,38.892.288.288,0,0,1-.4-.056.283.283,0,0,1,.048-.392l.006-.005,5.57-4.513,2.788-2.249,2.7-2.355,5.392-4.714,5.213-4.908c.863-.824,1.751-1.62,2.6-2.457l2.525-2.537c1.674-1.7,3.384-3.363,5.029-5.089,3.234-3.506,6.544-6.941,9.623-10.584l2.348-2.7,1.173-1.349,1.133-1.383,4.541-5.523c.77-.91,1.482-1.865,2.217-2.8l2.19-2.824,2.19-2.824c.719-.951,1.412-1.92,2.119-2.879,5.709-7.633,11-15.569,16.087-23.62,5.116-8.038,9.9-16.286,14.422-24.668l1.7-3.142L267,118.9c1.087-2.119,2.206-4.222,3.242-6.366,2.125-4.263,4.177-8.561,6.2-12.875q6.012-12.962,11.172-26.3,2.616-6.649,4.965-13.4,1.184-3.37,2.284-6.769c.746-2.26,1.459-4.536,2.118-6.816l0-.006a.287.287,0,0,1,.553.151Z" transform="translate(-168.156 0)" fill="#fff" opacity="0.62"/>
  </g>
  <g id="Group_631" data-name="Group 631" transform="translate(0 9.697)" opacity="0.76">
    <path id="Path_73141" data-name="Path 73141" d="M113.273,234.122S99.63,92.642,16.932,10.315a2.1,2.1,0,0,0-3.451.725C4.958,33.446-42.677,177.159,113.273,234.122Z" transform="translate(0 -9.697)" fill="#91b3fa"/>
    <path id="Path_73142" data-name="Path 73142" d="M22.369,51.171c1.412,8.158,3.238,16.259,5.326,24.278q3.082,12.045,6.94,23.873c1.3,3.934,2.629,7.859,4.023,11.762.673,1.959,1.422,3.891,2.141,5.835l1.091,2.91,1.144,2.889c3.041,7.709,6.317,15.327,9.9,22.8,3.558,7.482,7.3,14.885,11.44,22.07.511.9,1.009,1.81,1.53,2.706l1.6,2.666,1.6,2.667c.537.886,1.053,1.785,1.623,2.651l3.348,5.241.833,1.312.873,1.287,1.746,2.573c2.279,3.467,4.78,6.778,7.207,10.142,1.241,1.662,2.544,3.277,3.813,4.919l1.916,2.453c.647.811,1.332,1.591,1.99,2.393l3.988,4.783,4.163,4.634,2.085,2.316,2.173,2.233,4.337,4.481.005,0a.284.284,0,0,1-.008.4.288.288,0,0,1-.4,0A242.235,242.235,0,0,1,76.309,189.52l-1.789-2.565-.895-1.283-.855-1.309-3.4-5.248c-.577-.868-1.1-1.77-1.644-2.658l-1.618-2.675-1.619-2.673c-.528-.9-1.032-1.81-1.55-2.714-4.191-7.205-7.985-14.629-11.593-22.135-3.59-7.516-6.835-15.191-9.859-22.945l-1.136-2.907-1.083-2.927c-.714-1.954-1.457-3.9-2.124-5.869s-1.388-3.922-2.029-5.9-1.294-3.954-1.906-5.942A322.6,322.6,0,0,1,21.8,51.25a.287.287,0,0,1,.566-.09Z" transform="translate(0 -9.697)" fill="#fff" opacity="0.62"/>
  </g>
  <path id="Path_73143" data-name="Path 73143" d="M39.939,19.239c-1.184,57.113-5.025,254.117-3.191,323.929.194,7.4,5.153,13.332,11.339,13.574,30.6,1.2,142.755,4.231,192.8,1.721,10.423-.523,18.712-10.617,18.929-23.087,1.04-59.947,3.334-228.556-2.119-305.8-.654-9.254-6.729-16.624-14.459-17.549C209.917,8.046,97.274-1.695,54.04,1.66,46.243,2.265,40.133,9.9,39.939,19.239Z" fill="#09005d"/>
  <path id="Path_73144" data-name="Path 73144" d="M53.59,35.763c-1.647,44.813-6.841,193.894-5.193,249.02.241,8.058,5.705,14.573,12.63,15.044,28.513,1.939,125.793,6.215,167.615,2.323,7.53-.7,13.44-7.779,13.846-16.547,2.12-45.718,8.205-184.533,6.625-239.042-.253-8.7-6.048-15.8-13.5-16.575-30.847-3.219-134.218-10.878-169.757-8.624C59.182,21.785,53.876,28.005,53.59,35.763Z" fill="#3f8f66"/>
  <path id="Path_73145" data-name="Path 73145" d="M130.074,12.652a3.03,3.03,0,0,0,2.606,3.2c7.227.44,27.584,1.684,36.682,2.3,1.793.121,3.2-1.753,2.861-3.8l-.058-.35a2.949,2.949,0,0,0-2.452-2.582c-6.149-.655-24.705-2.471-37-1.961A3.02,3.02,0,0,0,130.074,12.652Z" transform="translate(3.993)" fill="#8480ae"/>
  <path id="Path_73146" data-name="Path 73146" d="M144.294,129.752a42.4,42.4,0,1,0-42.675-42.4A42.537,42.537,0,0,0,144.294,129.752Z" transform="translate(3.595)" fill="#8480ae"/>
  <path id="Path_73147" data-name="Path 73147" d="M157.359,71.334c0,7.179-5.857,14.929-13.083,14.929s-13.084-7.75-13.084-14.929,5.858-12.272,13.084-12.272S157.359,64.156,157.359,71.334Z" transform="translate(3.838 1.769)" fill="#fff"/>
  <path id="Path_73148" data-name="Path 73148" d="M128.039,113.9h31.939a7.726,7.726,0,0,0,7.364-5.34l1.718-5.336a7.659,7.659,0,0,0-4.666-9.547c-13-4.722-26.439-4.116-40.207.436a7.638,7.638,0,0,0-4.933,9.272l1.323,4.847A7.723,7.723,0,0,0,128.039,113.9Z" transform="translate(3.747 2.679)" fill="#fff"/>
  <g id="Group_632" data-name="Group 632" transform="translate(71.96 180.304)" opacity="0.71">
    <path id="Path_73149" data-name="Path 73149" d="M226.144,197.459H70.4a.858.858,0,0,1-.861-.856V174.246a.858.858,0,0,1,.861-.855H226.144a.858.858,0,0,1,.861.855V196.6A.859.859,0,0,1,226.144,197.459Z" transform="translate(-68.685 -173.391)" fill="#fff" opacity="0.65"/>
    <path id="Path_73150" data-name="Path 73150" d="M225.294,236.728H69.546a.858.858,0,0,1-.861-.855V213.516a.858.858,0,0,1,.861-.856H225.294a.858.858,0,0,1,.861.856v22.357A.858.858,0,0,1,225.294,236.728Z" transform="translate(-68.685 -173.391)" fill="#fff" opacity="0.65"/>
    <path id="Path_73151" data-name="Path 73151" d="M194.885,283.566h-99.6a1.06,1.06,0,0,1-1.063-1.056V253.937a1.06,1.06,0,0,1,1.063-1.056h99.6a1.06,1.06,0,0,1,1.063,1.056V282.51A1.06,1.06,0,0,1,194.885,283.566Z" transform="translate(-68.685 -173.391)" fill="#fff" opacity="0.65"/>
  </g>
  <path id="Path_73152" data-name="Path 73152" d="M168.772,192.216H78.041A1.526,1.526,0,0,1,76.51,190.7v-10.33a1.526,1.526,0,0,1,1.531-1.521h90.731a1.526,1.526,0,0,1,1.531,1.521V190.7A1.526,1.526,0,0,1,168.772,192.216Z" transform="translate(2.79 5.145)" fill="#fff" opacity="0.75"/>
  <g id="Group_633" data-name="Group 633" transform="translate(76.883 224.807)" opacity="0.75">
    <path id="Path_73153" data-name="Path 73153" d="M81.89,229.1a5.476,5.476,0,0,0,2.99-7.172,5.538,5.538,0,0,0-7.22-2.971,5.476,5.476,0,0,0-2.991,7.172A5.538,5.538,0,0,0,81.89,229.1Z" transform="translate(-74.248 -218.538)" fill="#fff"/>
    <path id="Path_73154" data-name="Path 73154" d="M94.928,229.8a5.49,5.49,0,1,0-5.526-5.49A5.508,5.508,0,0,0,94.928,229.8Z" transform="translate(-74.248 -218.538)" fill="#fff"/>
    <path id="Path_73155" data-name="Path 73155" d="M114.891,226.294a5.524,5.524,0,1,0-6.647,4.081A5.488,5.488,0,0,0,114.891,226.294Z" transform="translate(-74.248 -218.538)" fill="#fff"/>
    <path id="Path_73156" data-name="Path 73156" d="M124.681,230.782a5.49,5.49,0,1,0-5.526-5.49A5.507,5.507,0,0,0,124.681,230.782Z" transform="translate(-74.248 -218.538)" fill="#fff"/>
    <path id="Path_73157" data-name="Path 73157" d="M139.84,230.641a5.49,5.49,0,1,0-5.526-5.489A5.508,5.508,0,0,0,139.84,230.641Z" transform="translate(-74.248 -218.538)" fill="#fff"/>
    <path id="Path_73158" data-name="Path 73158" d="M155,230.922a5.49,5.49,0,1,0-5.526-5.489A5.507,5.507,0,0,0,155,230.922Z" transform="translate(-74.248 -218.538)" fill="#fff"/>
  </g>
  <path id="Path_73159" data-name="Path 73159" d="M218.1,243.352l16.927,4.2-4.231,31.533s6.348,6.306,8.464,14.715,4.066,43.716,4.066,43.716l4.017,2.412.489,2.014-11.686,15.611,1.938-12.425c.307-1.972-.226-5.972-.058-6.056-6.348-16.817-19.926-64.192-19.926-64.192Z" transform="translate(6.448 10)" fill="#fbaf87"/>
  <path id="Path_73160" data-name="Path 73160" d="M213.153,342.164c.183,0,.363.011.547,0-.818-10.139-4.556-54.759-8.3-71.483-4.232-18.92,6.348-56.759,6.348-56.759l19.044,18.92-10.58,35.737c7.25,10.8-1.183,74.079-1,74.052l-.012.14,2.761,3.771-.336,2.045-16.864,9.887,6.636-10.706A11.975,11.975,0,0,0,213.153,342.164Z" transform="translate(5.984 10)" fill="#fbaf87"/>
  <path id="Path_73161" data-name="Path 73161" d="M234.573,130.01s37.079,41.517,0,62.8l-3.778-2.717s18.408-17.513,0-38.951Z" transform="translate(6.637 4.36)" fill="#fbaf87"/>
  <path id="Path_73162" data-name="Path 73162" d="M203.652,360.023h5.382a3.247,3.247,0,0,0,2.572-1.253c1.677-2.165,5.154-6.391,6.816-6.5,2.237-.149,1.951,7.754,1.951,7.754h1.254l1.589-9.82a5.8,5.8,0,0,0-3.071-6.076s-.511,3.758-3.284,5.42-11.286,7.615-11.286,7.615a7.728,7.728,0,0,0-2.188.058A1.413,1.413,0,0,0,203.652,360.023Z" transform="translate(5.829 10)" fill="#b72222"/>
  <path id="Path_73163" data-name="Path 73163" d="M235.727,359.415l4.961-2.074a3.223,3.223,0,0,0,1.881-2.145c.7-2.643,2.256-7.877,3.745-8.619,2.005-1,4.825,6.4,4.825,6.4l1.156-.483-2.368-9.664a5.842,5.842,0,0,0-5.2-4.418s.995,3.661-.912,6.262-7.431,11.367-7.431,11.367a7.7,7.7,0,0,0-1.993.9A1.416,1.416,0,0,0,235.727,359.415Z" transform="translate(6.689 10)" fill="#b72222"/>
  <path id="Path_73164" data-name="Path 73164" d="M206.9,181.93s.623,3.789-.289,14.206-5.271,34.875-4.383,58.275c0,0,12.39,2.869,33.916,1.51,0,0,9.085-36.535,6.871-50.425S228.8,181.643,228.8,181.643Z" transform="translate(6.186 6.343)" fill="#100773"/>
  <path id="Path_73165" data-name="Path 73165" d="M216.056,112.321l-1.514,17.69h14.387l-3.577-27Z" transform="translate(6.067 3.084)" fill="#fbaf87"/>
  <path id="Path_73166" data-name="Path 73166" d="M233.191,127.565c-4.965-.272-16.067-.775-23.931-.35a9.119,9.119,0,0,0-8.457,7.209l-1.918,9.133a21.845,21.845,0,0,0,.312,10.276l7.7,28.1s6.853,4.091,21.9-.287c0,0,13.212-31.3,7.8-51.324A3.739,3.739,0,0,0,233.191,127.565Z" transform="translate(6.04 4.174)" fill="#2fb972"/>
  <path id="Path_73167" data-name="Path 73167" d="M201.179,132.786c-2.119,5.546-4.033,11.362-6.09,16.808-1.045,2.726-2.106,5.4-3.24,7.853-.574,1.222-1.205,2.345-1.783,3.363a14.867,14.867,0,0,1-1.571,2.233c-.067.057.156.1.231.1.045.006-1.433.241-1.886.317l-1.771-.011a61.925,61.925,0,0,1-8.3-1.131c-5.817-1.077-11.865-2.59-18.075-3.735l-.047-.009a2.174,2.174,0,0,0-1.845,3.77,63.5,63.5,0,0,0,7.911,5.739c1.385.842,2.795,1.667,4.229,2.46,1.461.739,2.927,1.486,4.449,2.175a51.829,51.829,0,0,0,9.878,3.334c.958.159,1.9.326,2.89.458,1.106.038,2.111.135,3.319.066q.963-.095,1.929-.235a8.428,8.428,0,0,0,1.01-.18c.441-.131.88-.278,1.314-.44a13.814,13.814,0,0,0,2.227-1.12c.61-.4,1.168-.819,1.708-1.248a22.989,22.989,0,0,0,4.323-4.969,39.213,39.213,0,0,0,2.725-4.794,65.166,65.166,0,0,0,3.75-9.415,87.394,87.394,0,0,0,3.916-19.067,5.766,5.766,0,0,0-11.127-2.529Z" transform="translate(5.008 4.114)" fill="#fbaf87"/>
  <path id="Path_73168" data-name="Path 73168" d="M160.651,161.413l-2.568-6.054-13.512-3.345s-1.081,2.327,4.594,3.345a4.9,4.9,0,0,0-.946,4.844C149.3,162.82,160.786,165.443,160.651,161.413Z" transform="translate(4.107 4.349)" fill="#fbaf87"/>
  <path id="Path_73169" data-name="Path 73169" d="M209.964,91.89c-.513.3-4.561,14.484-1.169,20.43s13.75-.714,16.557-9.313S223.649,83.872,209.964,91.89Z" transform="translate(5.939 2.654)" fill="#fbaf87"/>
  <path id="Path_73170" data-name="Path 73170" d="M236.81,103.008c2.323,11.308,10.021,8.213,15.474,13.244,8.836,8.155,21.477-.251,33.767,7.476,8.872,5.579,13.146,19.851,8.889,31.374-5.9,15.96-26.049,22.523-36.492,17.662-9.981-4.646-8.56-18.56-21.989-23.937-5.7-2.283-8.515-.8-11.93-4.183-5.977-5.923-4.364-17.417-3.743-21.845,1.349-9.609,4.591-11.348,3.042-15.571-3.015-8.213-17.075-6.519-18.246-12.317-1.067-5.28,9.123-15.289,18.713-13.711C239.133,83.64,235.775,97.969,236.81,103.008Z" transform="translate(7.422 3.027)" fill="#100773"/>
  <path id="Path_73171" data-name="Path 73171" d="M290.509,152.4a.388.388,0,0,0,.378-.295c1.9-7.836,1.037-14.261-2.563-19.1-5.976-8.029-17.589-8.824-17.706-8.831a.394.394,0,0,0-.411.362.386.386,0,0,0,.364.409c.113.006,11.375.783,17.131,8.524,3.455,4.645,4.273,10.855,2.429,18.455a.385.385,0,0,0,.287.465A.4.4,0,0,0,290.509,152.4Z" transform="translate(7.802 3.731)" fill="#fff" opacity="0.6"/>
  <path id="Path_73172" data-name="Path 73172" d="M252.472,159.571a.22.22,0,0,0,.05-.006.194.194,0,0,0,.138-.236c-1.85-7.054-5.1-11.952-9.65-14.561-3.311-1.9-6.413-2.074-9.148-2.23-2.639-.151-4.917-.281-6.751-1.9-3.79-3.349-3.571-11.4.653-23.932a.193.193,0,0,0-.123-.244.2.2,0,0,0-.246.122c-4.278,12.691-4.459,20.881-.542,24.342,1.935,1.709,4.276,1.844,6.986,2,2.693.154,5.745.328,8.977,2.18,4.459,2.554,7.645,7.374,9.468,14.324A.194.194,0,0,0,252.472,159.571Z" transform="translate(6.602 3.663)" fill="#fff" opacity="0.72"/>
  <path id="Path_73173" data-name="Path 73173" d="M231.313,100.2a.2.2,0,0,0,.063-.01.194.194,0,0,0,.122-.245c-1.471-4.348-5.709-3.7-10.2-3.016-2.842.434-5.781.881-8.273.149-1.86-.548-2.964-1.4-3.284-2.524-.545-1.918,1.365-4.057,1.384-4.079a.192.192,0,0,0-.014-.272.2.2,0,0,0-.274.014c-.085.093-2.072,2.316-1.47,4.441.358,1.262,1.551,2.2,3.547,2.789,2.578.758,5.559.3,8.443-.136,4.508-.687,8.4-1.284,9.772,2.758A.194.194,0,0,0,231.313,100.2Z" transform="translate(6.052 2.569)" fill="#fff" opacity="0.72"/>
  <path id="Path_73174" data-name="Path 73174" d="M274.137,56.282c0-19.9,16.97-36.035,37.334-36.032,19.763,0,35.359,15.285,35.359,34.135s-15.6,34.946-35.359,35.981C291.107,91.431,274.137,76.185,274.137,56.282Z" transform="translate(10)" fill="#d5f1e3"/>
  <path id="Path_73175" data-name="Path 73175" d="M277.544,56.192c0-18.037,15.379-32.657,33.835-32.655,17.91,0,32.045,13.852,32.045,30.936s-14.135,31.671-32.045,32.608C292.923,88.047,277.544,74.23,277.544,56.192Z" transform="translate(10)" fill="#3f8f66"/>
  <path id="Path_73176" data-name="Path 73176" d="M300.417,54.147h-3.032v-12a9.367,9.367,0,0,1,8.264-9.269l6.2-.748a9.447,9.447,0,0,1,7.366,2.28,9.317,9.317,0,0,1,3.166,6.989v10.48h-3.032V41.394a6.311,6.311,0,0,0-2.145-4.734,6.4,6.4,0,0,0-4.989-1.544l-6.2.749a6.345,6.345,0,0,0-5.6,6.278Z" transform="translate(10)" fill="#fff"/>
  <path id="Path_73177" data-name="Path 73177" d="M296.488,51.452l26.581-1.463a1.879,1.879,0,0,1,1.988,1.868v20.92a1.878,1.878,0,0,1-1.884,1.871H297.231a1.879,1.879,0,0,1-1.883-1.81l-.638-19.457A1.875,1.875,0,0,1,296.488,51.452Z" transform="translate(10)" fill="#fff"/>
  <path id="Path_73178" data-name="Path 73178" d="M314.216,68.657l-1.609-4.6a1.534,1.534,0,0,1,.352-1.587,4.321,4.321,0,0,0,1.258-3.258,4.381,4.381,0,0,0-8.756.2,4.33,4.33,0,0,0,1.623,3.38,1.546,1.546,0,0,1,.507,1.714l-1.45,4.143a1.552,1.552,0,0,0,1.474,2.06h5.127A1.552,1.552,0,0,0,314.216,68.657Z" transform="translate(10)" fill="#09005d"/>
  <g id="Group_634" data-name="Group 634" transform="translate(2.306 273.081)" opacity="0.3">
    <path id="Path_73179" data-name="Path 73179" d="M90.3,321.314a1.521,1.521,0,0,1-.512,1.914c-1.358.9-2.774,1.747-4.209,2.524a1.4,1.4,0,0,1-1.923-.635l-.012-.026a1.515,1.515,0,0,1,.617-1.978c1.363-.738,2.708-1.545,4-2.4a1.392,1.392,0,0,1,1.967.462C90.25,321.222,90.275,321.268,90.3,321.314Zm-11.153,5.658a1.55,1.55,0,0,1,.066.162,1.5,1.5,0,0,1-.86,1.9c-1.522.565-3.082,1.067-4.637,1.493a1.424,1.424,0,0,1-1.743-1.06,1.49,1.49,0,0,1,1.012-1.815c1.478-.406,2.96-.883,4.406-1.42A1.4,1.4,0,0,1,79.144,326.972Zm-12.075,2.951a1.541,1.541,0,0,1,.139.486,1.471,1.471,0,0,1-1.245,1.65c-1.6.2-3.231.324-4.844.376a1.488,1.488,0,0,1-.1-2.972c1.532-.05,3.079-.17,4.6-.357A1.417,1.417,0,0,1,67.068,329.923Zm-12.414.058a1.54,1.54,0,0,1,.14.819,1.437,1.437,0,0,1-1.567,1.317c-1.605-.182-3.222-.439-4.806-.763a1.49,1.49,0,0,1-1.128-1.745,1.425,1.425,0,0,1,1.67-1.173c1.5.308,3.04.552,4.565.725A1.431,1.431,0,0,1,54.654,329.981ZM42.533,327.15a1.539,1.539,0,0,1,.073,1.143,1.407,1.407,0,0,1-1.809.921c-1.523-.548-3.046-1.171-4.525-1.853a1.515,1.515,0,0,1-.731-1.961,1.4,1.4,0,0,1,1.878-.758c1.406.648,2.853,1.241,4.3,1.761A1.446,1.446,0,0,1,42.533,327.15Zm-11.224-5.558a1.541,1.541,0,0,1-.062,1.444,1.39,1.39,0,0,1-1.961.481c-1.373-.887-2.726-1.846-4.023-2.852a1.53,1.53,0,0,1-.3-2.08,1.385,1.385,0,0,1,1.993-.3c1.232.955,2.518,1.867,3.822,2.709A1.466,1.466,0,0,1,31.309,321.592Zm-26.3-47.26a1.529,1.529,0,0,1,.148.609c.054,1.6.176,3.213.362,4.8A1.47,1.47,0,0,1,4.275,281.4a1.443,1.443,0,0,1-1.587-1.3c-.2-1.675-.324-3.376-.381-5.057a1.458,1.458,0,0,1,1.374-1.535A1.421,1.421,0,0,1,5.007,274.332Zm16.537,39.254a1.534,1.534,0,0,1-.26,1.7,1.383,1.383,0,0,1-2.015.013c-1.15-1.182-2.265-2.432-3.314-3.713a1.534,1.534,0,0,1,.156-2.1,1.386,1.386,0,0,1,2.009.168c1,1.217,2.055,2.4,3.147,3.526A1.489,1.489,0,0,1,21.544,313.586Zm-14.7-26.44a1.542,1.542,0,0,1,.1.279c.4,1.546.86,3.094,1.38,4.6a1.5,1.5,0,0,1-.857,1.9,1.411,1.411,0,0,1-1.824-.9c-.547-1.587-1.036-3.215-1.453-4.841A1.491,1.491,0,0,1,5.2,286.369,1.409,1.409,0,0,1,6.841,287.146Zm6.892,16.363a1.521,1.521,0,0,1-.51,1.912,1.393,1.393,0,0,1-1.968-.458c-.867-1.419-1.687-2.9-2.436-4.391l-.014-.028a1.516,1.516,0,0,1,.614-1.977,1.4,1.4,0,0,1,1.923.631c.712,1.42,1.491,2.823,2.315,4.171A1.552,1.552,0,0,1,13.733,303.509Z" transform="translate(-2.306 -263.08)" fill="#fff"/>
    <path id="Path_73180" data-name="Path 73180" d="M5.56,263.909a1.537,1.537,0,0,1,.134.877c-.107.759-.2,1.532-.278,2.3A1.437,1.437,0,0,1,3.849,268.4a1.475,1.475,0,0,1-1.267-1.638c.081-.807.18-1.62.292-2.417a1.409,1.409,0,0,1,2.686-.439Z" transform="translate(-2.306 -263.08)" fill="#fff"/>
  </g>
  <g id="Group_635" data-name="Group 635" transform="translate(23.626 221.064)" opacity="0.3">
    <path id="Path_73181" data-name="Path 73181" d="M28.154,225.251a1.525,1.525,0,0,1-.448,1.869c-.6.445-1.2.909-1.779,1.382a1.387,1.387,0,0,1-2-.264,1.527,1.527,0,0,1,.248-2.086c.614-.5,1.244-.987,1.873-1.455a1.389,1.389,0,0,1,1.988.35A1.532,1.532,0,0,1,28.154,225.251Z" transform="translate(-23.626 -213.67)" fill="#fff"/>
    <path id="Path_73182" data-name="Path 73182" d="M110.119,246.68q.438.92.85,1.862a1.512,1.512,0,0,1-.705,1.968,1.4,1.4,0,0,1-1.888-.739c-.633-1.45-1.321-2.869-2.054-4.234a1.52,1.52,0,0,1,.546-2.023,1.4,1.4,0,0,1,1.94.575C109.261,244.934,109.7,245.8,110.119,246.68Zm3.5,9.215a1.554,1.554,0,0,1,.09.236c.458,1.59.857,3.217,1.185,4.837a1.483,1.483,0,0,1-1.1,1.759,1.43,1.43,0,0,1-1.689-1.151c-.312-1.538-.691-3.084-1.127-4.594a1.5,1.5,0,0,1,.953-1.85A1.407,1.407,0,0,1,113.617,255.9Zm-8.92-18.359a1.527,1.527,0,0,1-.416,1.845,1.388,1.388,0,0,1-2-.293c-.909-1.255-1.881-2.486-2.891-3.66a1.532,1.532,0,0,1,.106-2.1,1.384,1.384,0,0,1,2.013.116c1.063,1.236,2.087,2.532,3.044,3.854A1.46,1.46,0,0,1,104.7,237.536Zm11.134,30.9a1.533,1.533,0,0,1,.145.557c.112,1.653.159,3.331.137,4.987a1.426,1.426,0,1,1-2.849-.047c.021-1.572-.023-3.166-.131-4.736a1.463,1.463,0,0,1,1.32-1.585A1.42,1.42,0,0,1,115.831,268.439ZM96.3,228.272a1.538,1.538,0,0,1-.187,1.622,1.384,1.384,0,0,1-2.008.172c-1.149-1.016-2.357-1.994-3.589-2.909a1.53,1.53,0,0,1-.338-2.074,1.386,1.386,0,0,1,1.986-.347c1.3.963,2.568,1.993,3.779,3.062A1.475,1.475,0,0,1,96.3,228.272Zm-10.141-7.121a1.543,1.543,0,0,1-.011,1.351,1.394,1.394,0,0,1-1.922.626c-1.338-.732-2.721-1.413-4.111-2.025a1.512,1.512,0,0,1-.763-1.948,1.4,1.4,0,0,1,1.865-.791c1.462.644,2.918,1.361,4.326,2.131A1.454,1.454,0,0,1,86.156,221.151ZM74.774,216.5a1.539,1.539,0,0,1,.1,1.046A1.416,1.416,0,0,1,73.13,218.6c-1.459-.41-2.951-.762-4.433-1.043a1.486,1.486,0,0,1-1.15-1.729,1.427,1.427,0,0,1,1.654-1.2c1.56.3,3.13.665,4.665,1.1A1.439,1.439,0,0,1,74.774,216.5ZM62.7,214.552a1.536,1.536,0,0,1,.147.723,1.446,1.446,0,0,1-1.481,1.421c-1.509-.069-3.036-.07-4.542-.005a1.488,1.488,0,0,1-.125-2.971c1.585-.068,3.194-.067,4.782.005A1.427,1.427,0,0,1,62.7,214.552Zm-12.19.863a1.538,1.538,0,0,1,.126.4,1.479,1.479,0,0,1-1.144,1.727c-1.481.28-2.97.63-4.426,1.04a1.424,1.424,0,0,1-1.749-1.049,1.49,1.49,0,0,1,1-1.822c1.533-.432,3.1-.8,4.66-1.1A1.415,1.415,0,0,1,50.508,215.415Zm-11.7,3.635c.013.027.025.055.037.083a1.508,1.508,0,0,1-.756,1.947c-1.023.45-2.044.938-3.036,1.451q-.539.279-1.069.568a1.4,1.4,0,0,1-1.924-.63,1.5,1.5,0,0,1,.6-2q.558-.3,1.125-.6c1.044-.54,2.119-1.053,3.194-1.526A1.4,1.4,0,0,1,38.812,219.05Z" transform="translate(-23.626 -213.67)" fill="#fff"/>
    <path id="Path_73183" data-name="Path 73183" d="M115.338,281.212a1.53,1.53,0,0,1,.133.885c-.116.8-.25,1.6-.4,2.4a1.425,1.425,0,0,1-1.67,1.172,1.489,1.489,0,0,1-1.127-1.746c.141-.758.269-1.526.379-2.281a1.408,1.408,0,0,1,2.684-.431Z" transform="translate(-23.626 -213.67)" fill="#fff"/>
  </g>
  <path id="Path_73184" data-name="Path 73184" d="M99.686,287.061a.718.718,0,0,0-.15-.792l-5.894-5.82a38.417,38.417,0,0,0,.368-11.929l6.231-5.384a.712.712,0,0,0,.2-.779l-3.433-9.5a.671.671,0,0,0-.642-.451l-8.1.224a36.38,36.38,0,0,0-7.83-8.721l.748-8.419a.7.7,0,0,0-.389-.7l-8.859-4.2a.645.645,0,0,0-.759.154l-5.564,6.136a33.892,33.892,0,0,0-11.433-.412l-5.174-6.516a.65.65,0,0,0-.747-.208l-9.1,3.56a.693.693,0,0,0-.43.669l.233,8.449a35.811,35.811,0,0,0-8.339,8.149l-8.071-.8a.66.66,0,0,0-.668.4l-4,9.234a.717.717,0,0,0,.15.792l5.894,5.82a38.4,38.4,0,0,0-.368,11.929l-6.232,5.383a.714.714,0,0,0-.2.78l3.433,9.5a.668.668,0,0,0,.642.451l8.1-.223a36.393,36.393,0,0,0,7.83,8.721l-.748,8.419a.7.7,0,0,0,.389.7l8.859,4.2a.647.647,0,0,0,.758-.155l5.564-6.136A33.868,33.868,0,0,0,63.39,310l5.174,6.515a.65.65,0,0,0,.748.208l9.1-3.559a.694.694,0,0,0,.431-.669l-.233-8.449a35.859,35.859,0,0,0,8.339-8.149l8.071.8a.659.659,0,0,0,.668-.4Z" transform="translate(0 10)" fill="#2fb972"/>
  <path id="Path_73185" data-name="Path 73185" d="M67.539,268.718a10.469,10.469,0,0,1-3.168,12.9,9.539,9.539,0,0,1-13.6-2.576,10.493,10.493,0,0,1-1.6-7.628,10.148,10.148,0,0,1,4.036-6.561,9.539,9.539,0,0,1,13.6,2.577A10.39,10.39,0,0,1,67.539,268.718ZM52.07,276.687a8.03,8.03,0,0,0,.567,1,7.314,7.314,0,0,0,10.43,1.976,8.035,8.035,0,0,0,1.868-10.879,7.314,7.314,0,0,0-10.43-1.976,7.784,7.784,0,0,0-3.094,5.031A8.07,8.07,0,0,0,52.07,276.687Z" transform="translate(0 7.723)" fill="#fff" opacity="0.7"/>
  <path id="Path_73186" data-name="Path 73186" d="M80.086,262q.547,1.148.987,2.364.138.383.265.77a26.175,26.175,0,0,1,.949,3.894l.009.054q.012.076.024.153c.016.1.03.2.045.3a.6.6,0,0,1-.309.619.562.562,0,0,1-.818-.446,24.889,24.889,0,0,0-1.231-4.924,23.266,23.266,0,0,0-16.755-14.986,21.847,21.847,0,0,0-12.741,1,22.384,22.384,0,0,0-2.159.977,23.2,23.2,0,0,0-10.616,11.5,24.672,24.672,0,0,0-.558,18.269c4.46,12.337,17.689,18.606,29.5,13.986a22.411,22.411,0,0,0,2.131-.965,22.964,22.964,0,0,0,7.719-6.507.562.562,0,0,1,.193-.163.549.549,0,0,1,.608.068.612.612,0,0,1,.093.836,24.088,24.088,0,0,1-8.1,6.831,23.725,23.725,0,0,1-2.237,1.014c-12.4,4.851-26.289-1.74-30.966-14.682a25.9,25.9,0,0,1,.585-19.179A24.362,24.362,0,0,1,47.84,250.707a23.946,23.946,0,0,1,2.266-1.025,22.965,22.965,0,0,1,18.382.656A24.418,24.418,0,0,1,80.086,262Z" transform="translate(0 7.981)" fill="#fff" opacity="0.7"/>
  <g id="Group_636" data-name="Group 636" transform="translate(85.762 341.236)" opacity="0.3">
    <path id="Path_73187" data-name="Path 73187" d="M145.578,349.414a.947.947,0,0,1-.191,1.082c-.548.528-1.118,1.047-1.7,1.54a.856.856,0,0,1-1.239-.13.943.943,0,0,1,.122-1.292c.55-.47,1.1-.964,1.618-1.469a.855.855,0,0,1,1.243.053A.921.921,0,0,1,145.578,349.414Z" transform="translate(-83.043 -331.236)" fill="#fff"/>
    <path id="Path_73188" data-name="Path 73188" d="M140.211,353.7a.941.941,0,0,1-.319,1.184,37.723,37.723,0,0,1-3.373,1.973c-.243.126-.487.248-.733.369a.9.9,0,0,1-1.173-.441.935.935,0,0,1,.421-1.222c.235-.115.469-.232.7-.352a36.108,36.108,0,0,0,3.218-1.881.86.86,0,0,1,1.214.288C140.182,353.65,140.2,353.678,140.211,353.7Zm-8.265,4.047a1,1,0,0,1,.049.122.927.927,0,0,1-.56,1.159,36.83,36.83,0,0,1-4.53,1.234.886.886,0,0,1-1.034-.725.914.914,0,0,1,.691-1.078,34.9,34.9,0,0,0,4.321-1.177A.869.869,0,0,1,131.946,357.752Zm-8.963,1.832a.95.95,0,0,1,.09.343.9.9,0,0,1-.815.98,36.47,36.47,0,0,1-4.687.033.9.9,0,0,1-.832-.967.893.893,0,0,1,.925-.867,34.53,34.53,0,0,0,4.469-.032A.877.877,0,0,1,122.983,359.584Zm-9.126-.525a.946.946,0,0,1,.079.569.882.882,0,0,1-1.021.741,36.8,36.8,0,0,1-4.554-1.164.929.929,0,0,1-.58-1.15.871.871,0,0,1,1.1-.6,35.261,35.261,0,0,0,4.343,1.11A.886.886,0,0,1,113.857,359.059Zm-8.731-2.834a.948.948,0,0,1,.015.786.865.865,0,0,1-1.163.459,38.293,38.293,0,0,1-4.147-2.281.942.942,0,0,1-.3-1.262.858.858,0,0,1,1.209-.307A36.3,36.3,0,0,0,104.7,355.8.894.894,0,0,1,105.126,356.225Zm-7.812-4.957a.951.951,0,0,1-.1.978.855.855,0,0,1-1.236.15,38.741,38.741,0,0,1-3.49-3.266.948.948,0,0,1,.008-1.3.854.854,0,0,1,1.244.012,36.852,36.852,0,0,0,3.327,3.113A.907.907,0,0,1,97.314,351.268Zm-6.416-6.8a.943.943,0,0,1-.252,1.136.857.857,0,0,1-1.234-.172,40.034,40.034,0,0,1-2.619-4.059.946.946,0,0,1,.313-1.257.862.862,0,0,1,1.2.329,38.035,38.035,0,0,0,2.5,3.872A.934.934,0,0,1,90.9,344.473ZM84.71,331.747a.923.923,0,0,1,.057.151,39.33,39.33,0,0,0,1.3,3.826c.074.19.15.376.227.561a.932.932,0,0,1-.456,1.207.86.86,0,0,1-1.158-.479c-.082-.2-.162-.394-.24-.594a41.258,41.258,0,0,1-1.356-4.007.923.923,0,0,1,.6-1.139A.87.87,0,0,1,84.71,331.747Z" transform="translate(-83.043 -331.236)" fill="#fff"/>
  </g>
  <g id="Group_637" data-name="Group 637" transform="translate(122.4 291.662)" opacity="0.3">
    <path id="Path_73189" data-name="Path 73189" d="M153.344,303.26a.936.936,0,0,1-.386,1.225.864.864,0,0,1-1.185-.4,38.652,38.652,0,0,0-2.241-3.949.949.949,0,0,1,.234-1.275.859.859,0,0,1,1.223.248,40.729,40.729,0,0,1,2.35,4.14A.081.081,0,0,0,153.344,303.26Zm1.814,4.3c.014.029.026.059.038.091a41.665,41.665,0,0,1,1.339,4.6.919.919,0,0,1-.651,1.1.883.883,0,0,1-1.061-.682,39.775,39.775,0,0,0-1.278-4.393.929.929,0,0,1,.519-1.179A.869.869,0,0,1,155.158,307.565ZM148.3,295.489a.944.944,0,0,1-.209,1.1.855.855,0,0,1-1.241-.089,37.52,37.52,0,0,0-3.09-3.27.947.947,0,0,1-.068-1.3.855.855,0,0,1,1.243-.068,39.093,39.093,0,0,1,3.239,3.429A.933.933,0,0,1,148.3,295.489Zm8.944,21.206a.947.947,0,0,1,.087.307,41.042,41.042,0,0,1,.235,4.806.9.9,0,0,1-.889.906.905.905,0,0,1-.871-.929,39.388,39.388,0,0,0-.224-4.582.907.907,0,0,1,.776-1.013A.876.876,0,0,1,157.243,316.7Zm-15.636-27.478a.953.953,0,0,1-.066.935.856.856,0,0,1-1.225.225,36.1,36.1,0,0,0-3.75-2.4.94.94,0,0,1-.365-1.243.86.86,0,0,1,1.19-.378,38.181,38.181,0,0,1,3.932,2.516A.923.923,0,0,1,141.607,289.217Zm-7.936-4.418a.949.949,0,0,1,.034.739.867.867,0,0,1-1.137.525,35.811,35.811,0,0,0-4.191-1.4.923.923,0,0,1-.638-1.116.874.874,0,0,1,1.067-.663,37.457,37.457,0,0,1,4.393,1.464A.89.89,0,0,1,133.671,284.8Zm-8.717-2.31a.953.953,0,0,1,.085.524.887.887,0,0,1-.984.794,34.5,34.5,0,0,0-4.387-.308.919.919,0,0,1,.007-1.837,36.4,36.4,0,0,1,4.6.323A.885.885,0,0,1,124.954,282.489Z" transform="translate(-118.792 -281.662)" fill="#fff"/>
    <path id="Path_73190" data-name="Path 73190" d="M157.148,326.117a.95.95,0,0,1,.084.531c-.1.779-.222,1.558-.363,2.316a.881.881,0,0,1-1.032.724.922.922,0,0,1-.7-1.079c.134-.723.251-1.466.347-2.209a.87.87,0,0,1,1.66-.283Z" transform="translate(-118.792 -281.662)" fill="#fff"/>
  </g>
  <path id="Path_73191" data-name="Path 73191" d="M146.645,330.7a.481.481,0,0,0-.1-.53l-3.944-3.9a25.708,25.708,0,0,0,.246-7.982l4.17-3.6a.479.479,0,0,0,.132-.522l-2.3-6.357a.448.448,0,0,0-.43-.3l-5.418.149a24.346,24.346,0,0,0-5.239-5.835l.5-5.634a.47.47,0,0,0-.26-.467l-5.928-2.811a.432.432,0,0,0-.508.1l-3.723,4.106a22.67,22.67,0,0,0-7.651-.276l-3.462-4.36a.433.433,0,0,0-.5-.139l-6.086,2.382a.464.464,0,0,0-.289.448l.157,5.653a23.983,23.983,0,0,0-5.58,5.453l-5.4-.536a.443.443,0,0,0-.447.271l-2.679,6.179a.479.479,0,0,0,.1.529l3.944,3.895a25.691,25.691,0,0,0-.246,7.982l-4.17,3.6a.476.476,0,0,0-.132.521l2.3,6.357a.448.448,0,0,0,.43.3l5.418-.15a24.363,24.363,0,0,0,5.24,5.836l-.5,5.633a.471.471,0,0,0,.26.468l5.928,2.81a.432.432,0,0,0,.508-.1l3.723-4.106a22.67,22.67,0,0,0,7.651.276l3.462,4.36a.433.433,0,0,0,.5.139l6.086-2.382a.464.464,0,0,0,.289-.447l-.157-5.654a23.965,23.965,0,0,0,5.58-5.453l5.4.536a.442.442,0,0,0,.447-.27Z" transform="translate(2.927 10)" fill="#2fb972"/>
  <path id="Path_73192" data-name="Path 73192" d="M125.243,318.377a7.161,7.161,0,0,1,.586,4.308,6.91,6.91,0,0,1-2.749,4.469,6.5,6.5,0,0,1-9.266-1.755,7.14,7.14,0,0,1,1.66-9.665,6.38,6.38,0,0,1,4.976-1.124,6.609,6.609,0,0,1,4.29,2.88A7.01,7.01,0,0,1,125.243,318.377Zm-10.351,5.33a5.126,5.126,0,0,0,.366.647,4.78,4.78,0,0,0,6.816,1.29,5.083,5.083,0,0,0,2.022-3.287,5.264,5.264,0,0,0-.8-3.822,4.863,4.863,0,0,0-3.155-2.118,4.7,4.7,0,0,0-3.661.827A5.244,5.244,0,0,0,114.892,323.707Z" transform="translate(3.175 10)" fill="#fff" opacity="0.7"/>
  <path id="Path_73193" data-name="Path 73193" d="M133.982,313.711q.372.781.674,1.614a17.962,17.962,0,0,1,.867,3.409c.008.052.016.1.023.156a.927.927,0,0,1-.477.957.865.865,0,0,1-.263.086.89.89,0,0,1-1-.775,16.069,16.069,0,0,0-.8-3.188h0c-.02-.057-.042-.113-.062-.169a15.377,15.377,0,0,0-4.21-6.178,14.892,14.892,0,0,0-3.366-2.244l-.03-.015-.092-.043a14.161,14.161,0,0,0-11.335-.405,14.444,14.444,0,0,0-1.4.632,15.032,15.032,0,0,0-6.873,7.445,15.973,15.973,0,0,0-.36,11.826,15.18,15.18,0,0,0,7.76,8.649,14.161,14.161,0,0,0,11.335.4,14.622,14.622,0,0,0,1.38-.624,14.882,14.882,0,0,0,5-4.213.884.884,0,0,1,.3-.251.85.85,0,0,1,.939.1.947.947,0,0,1,.143,1.291,16.644,16.644,0,0,1-5.59,4.714,16.35,16.35,0,0,1-1.544.7,15.845,15.845,0,0,1-12.682-.453,16.954,16.954,0,0,1-8.682-9.677,17.869,17.869,0,0,1,.4-13.231,16.8,16.8,0,0,1,7.689-8.328,16.577,16.577,0,0,1,1.563-.708A16.362,16.362,0,0,1,133.982,313.711Z" transform="translate(3.062 10)" fill="#fff" opacity="0.7"/>
</svg>
