<svg id="Group_1000005797" data-name="Group 1000005797" xmlns="http://www.w3.org/2000/svg" width="378" height="371" viewBox="0 0 378 371">
  <path id="Path_73194" data-name="Path 73194" d="M286.138,18.83C283.661,1.78,261.061-5.918,261.5,5.211l-103.6.705c-7.176.049-12.994,7.549-13,16.761l-.215,316.568c-.007,9.543,5.913,17.345,13.227,17.418l105.761,1.054a9.231,9.231,0,0,0,3.821,4.275c12.129.3,17.946-6.659,20.071-14.526a21.684,21.684,0,0,0,1.052-6.906C288.194,336.438,286.9,22.828,286.138,18.83Z" transform="translate(6.457)" fill="#09005d"/>
  <path id="Path_73195" data-name="Path 73195" d="M266.364,362.039l-121.4-.909c-7.575-.057-13.7-8.07-13.689-17.889l.456-325.561C131.745,8.212,137.775.52,145.2.492L264.245.043c7.488-.028,13.611,7.652,13.674,17.164l2.158,327.066C280.142,354.138,274,362.1,266.364,362.039Z" transform="translate(5.989)" fill="#408bff"/>
  <path id="Path_73196" data-name="Path 73196" d="M268.04,359.734a9.423,9.423,0,0,1-1.534.111l-121.362-1.067c-6.509-.058-11.83-7.085-11.819-15.659l.419-325.315c.011-8.269,5.248-15.017,11.633-15.049l119.033-.6c.186,0,.374,0,.559.014a10.752,10.752,0,0,1,7.887,4.461,17.179,17.179,0,0,1,3.353,10.357l2.129,327.51C278.389,352.258,273.977,358.809,268.04,359.734Z" transform="translate(5.979 0)"/>
  <path id="Path_73197" data-name="Path 73197" d="M272.035,18.172l2.047,327.245-136.719-.954.349-326.291Z" transform="translate(5.939)" fill="#3f8f66"/>
  <path id="Path_73198" data-name="Path 73198" d="M205.87,65.734l-.049-.058c-6.692,8.1-17.37,14.735-28.8,17.562,0,.862-.022,5.638-.109,27.654-.116,29.368,24.624,43.719,28.465,45.922C194.1,105.211,202.937,74,205.87,65.734Z" transform="translate(5.218 2.434)" fill="#f5f9ff"/>
  <path id="Path_73199" data-name="Path 73199" d="M205.87,65.732c-2.933,8.266-11.773,39.477-.489,91.08,3.722-1.935,28.774-16.264,28.89-45.632.087-22.016.106-26.792.11-27.654C223.005,80.59,212.5,73.871,205.87,65.732Z" transform="translate(5.992 2.435)" fill="#e3eeff"/>
  <path id="Path_73200" data-name="Path 73200" d="M205.371,157.42l-.209-.12a63.449,63.449,0,0,1-15.84-12.875c-8.6-9.746-12.939-21.029-12.889-33.537l.11-28.092.379-.094c11.15-2.759,21.821-9.264,28.545-17.4l.356-.43.4.491c6.676,8.2,17.241,14.787,28.262,17.631l.378.1,0,.438c0,.742-.018,4.38-.077,19.4l-.033,8.255c-.119,30.151-26.2,44.581-29.171,46.127ZM177.508,83.675l-.108,27.218c-.1,26.136,19.367,40.319,27.991,45.311,3.761-2,28.282-16.169,28.4-45.026l.033-8.255c.052-13.123.069-17.557.075-18.963-10.9-2.9-21.336-9.4-28.076-17.488C199.028,74.474,188.511,80.867,177.508,83.675Z" transform="translate(5.699 2.417)" fill="#fff"/>
  <path id="Path_73201" data-name="Path 73201" d="M205.419,151.571l-.441-.259a55.331,55.331,0,0,1-12.959-10.705c-7.682-8.636-11.554-18.614-11.51-29.656l.1-24.314.723-.211A54.522,54.522,0,0,0,205.075,72.5l.665-.689.7.749a54.7,54.7,0,0,0,23.583,14.117l.721.218-.1,24.314a43.211,43.211,0,0,1-11.744,29.54A55.574,55.574,0,0,1,206.229,151.1l-.065.038-.3.176ZM182.534,88.329l-.089,22.632c-.042,10.435,3.639,19.888,10.939,28.1a53.592,53.592,0,0,0,12.044,10.051,53.585,53.585,0,0,0,12.125-9.929c7.365-8.134,11.12-17.55,11.161-27.985l.09-22.632a56.756,56.756,0,0,1-23.08-13.785A56.587,56.587,0,0,1,182.534,88.329Z" transform="translate(5.681 2.553)" fill="#296acc"/>
  <path id="Path_73202" data-name="Path 73202" d="M194.193,106.906v19.277c0,2.146,23.2,2.146,23.2,0V106.906Zm12.773,10.237v5.463a1.183,1.183,0,1,1-2.347,0V117.13a3.284,3.284,0,0,1-1.693-2.947,2.887,2.887,0,1,1,5.732,0A3.272,3.272,0,0,1,206.966,117.143Z" transform="translate(5.632 3.143)" fill="#296acc"/>
  <path id="Path_73203" data-name="Path 73203" d="M215.361,105.531h-2.349v-1.3c0-4.5-3.239-8.157-7.219-8.157s-7.22,3.659-7.22,8.157v1.3h-2.348v-1.3c0-5.961,4.292-10.81,9.568-10.81s9.568,4.849,9.568,10.81Z" transform="translate(5.625 2.678)" fill="#296acc"/>
  <path id="Path_73204" data-name="Path 73204" d="M238.222,172.1H171.163v14.973h67.059Z" transform="translate(5.688 4.974)" fill="#fff"/>
  <path id="Path_73205" data-name="Path 73205" d="M184.568,183.369a3.295,3.295,0,1,0-2.895-3.271A3.1,3.1,0,0,0,184.568,183.369Z" transform="translate(5.016 4.989)" fill="#296acc"/>
  <path id="Path_73206" data-name="Path 73206" d="M194.492,183.369A3.295,3.295,0,1,0,191.6,180.1,3.1,3.1,0,0,0,194.492,183.369Z" transform="translate(5.29 4.989)" fill="#296acc"/>
  <path id="Path_73207" data-name="Path 73207" d="M204.417,183.369a3.295,3.295,0,1,0-2.9-3.271A3.1,3.1,0,0,0,204.417,183.369Z" transform="translate(5.564 4.989)" fill="#296acc"/>
  <path id="Path_73208" data-name="Path 73208" d="M214.341,183.369a3.295,3.295,0,1,0-2.894-3.271A3.1,3.1,0,0,0,214.341,183.369Z" transform="translate(5.838 4.989)" fill="#296acc"/>
  <path id="Path_73209" data-name="Path 73209" d="M224.266,183.369a3.295,3.295,0,1,0-2.9-3.271A3.1,3.1,0,0,0,224.266,183.369Z" transform="translate(6.112 4.989)" fill="#296acc"/>
  <path id="Path_73210" data-name="Path 73210" d="M213.393,208.12H195.444c-2.544,0-4.607-2.33-4.607-5.2s2.063-5.205,4.607-5.205h17.949c2.544,0,4.607,2.33,4.607,5.205S215.937,208.12,213.393,208.12Z" transform="translate(5.599 5.64)" fill="#296acc"/>
  <path id="Path_73211" data-name="Path 73211" d="M233.306,226.123H178v4.686h55.307Z" transform="translate(5.692 6.346)" fill="#80d1ff"/>
  <path id="Path_73212" data-name="Path 73212" d="M251.9,236.535H160.178v4.686H251.9Z" transform="translate(5.798 6.639)" fill="#80d1ff"/>
  <path id="Path_73213" data-name="Path 73213" d="M248.054,246.949H164.019v4.686h84.035Z" transform="translate(5.776 6.931)" fill="#80d1ff"/>
  <path id="Path_73214" data-name="Path 73214" d="M96.083,229.964c-6.638,7.59-12.433,15.063-18,28.953-1.543-4.524-1.165-3.531-4.887-13.48-1.712-4.677-12.778-2.033-13.057,2.083,0,0-1.988,28.659,9.728,39.946s44.743-35.839,44.743-35.839C125.157,235.344,107.435,219.786,96.083,229.964Z" transform="translate(1.935 7.595)" fill="#2fb972"/>
  <path id="Path_73215" data-name="Path 73215" d="M181.1,331.074c-12.453,27.45-103.287,17.676-118.922,2.737-11.554-19.161,30.3-28.525,31.228-28.554,20.572-.633,48.918,1.433,59.364,1.433C177.062,310.906,183.837,320.625,181.1,331.074Z" transform="translate(2.441 10)" fill="#100773"/>
  <path id="Path_73216" data-name="Path 73216" d="M93.216,319.555c16.9,4.524,31.887,6.007,50.315,2.815,0,0-28.225,14.094-28.378,14.615S93.216,319.555,93.216,319.555Z" transform="translate(2.934 10)" fill="#051733"/>
  <path id="Path_73217" data-name="Path 73217" d="M178.936,334.256c-18.2,22.759-95.843,20.571-80.907-.123,13.555-1.914,50.8-12.144,54.082-14.153C163.556,309.5,186.337,321.938,178.936,334.256Z" transform="translate(3.388 10)" fill="#100773"/>
  <path id="Path_73218" data-name="Path 73218" d="M167.285,350.519c-.9-4.579-5.574-7.5-10.566-9.333-2.428,3.208-5.735,9.533-5.945,18.983C161.851,362.979,168.833,358.385,167.285,350.519Z" transform="translate(4.292 10)" fill="#b72222"/>
  <path id="Path_73219" data-name="Path 73219" d="M142.665,339.14s-4.644-.9-6,5.373c-.461,2.128-1.811,6.4,2.718,9.723,4.519,2.811,7.644,4.982,11.394,5.934.211-9.451,3.517-15.776,5.945-18.984A41.43,41.43,0,0,0,142.665,339.14Z" transform="translate(3.918 10)" fill="#b72222"/>
  <path id="Path_73220" data-name="Path 73220" d="M141.21,339.863c8.86,2.4,4.309,14.74-.254,14.01,4.97.8-87.989.808-78.921-30.957h.036c3.466-6.689,14.3-12.47,23.071-8.107C105.462,326.994,124.641,335.448,141.21,339.863Z" transform="translate(2.169 10)" fill="#100773"/>
  <path id="Path_73221" data-name="Path 73221" d="M144.529,353.191s-7.905-.7-5.164-7.877,8.3-2.968,8.3-2.968S150.634,349.672,144.529,353.191Z" transform="translate(3.872 10)" fill="#ffb1b1"/>
  <path id="Path_73222" data-name="Path 73222" d="M144.91,353.806a.385.385,0,0,1-.361-.394,17.106,17.106,0,0,1,3.519-10.989.332.332,0,0,1,.51-.01.446.446,0,0,1,.01.577,16.535,16.535,0,0,0-3.317,10.394.391.391,0,0,1-.348.422Z" transform="translate(3.973 10)" fill="#fff"/>
  <path id="Path_73223" data-name="Path 73223" d="M147.144,354.772a.384.384,0,0,1-.36-.393A17.105,17.105,0,0,1,150.3,343.39a.334.334,0,0,1,.511-.011.448.448,0,0,1,.009.577,16.536,16.536,0,0,0-3.317,10.4.389.389,0,0,1-.348.421Z" transform="translate(4.034 10)" fill="#fff"/>
  <path id="Path_73224" data-name="Path 73224" d="M149.511,355.441a.385.385,0,0,1-.361-.394,17.1,17.1,0,0,1,3.519-10.989.333.333,0,0,1,.51-.011.445.445,0,0,1,.009.577,16.532,16.532,0,0,0-3.316,10.4.391.391,0,0,1-.349.422A.048.048,0,0,0,149.511,355.441Z" transform="translate(4.099 10)" fill="#fff"/>
  <path id="Path_73225" data-name="Path 73225" d="M142.147,353.466c-1.9,1.185-49.8,3.7-76.469-15.7-8.679-6.315-4.113-15.377-4.113-15.377S67.777,348.656,142.147,353.466Z" transform="translate(2.109 10)" fill="#051733"/>
  <path id="Path_73226" data-name="Path 73226" d="M136.8,339.617a.5.5,0,0,1-.154-.025c-34.531-11.555-50.437-23.521-50.594-23.641a.662.662,0,0,1-.146-.849.5.5,0,0,1,.752-.165c.156.119,15.948,11.987,50.3,23.482a.627.627,0,0,1,.366.76A.555.555,0,0,1,136.8,339.617Z" transform="translate(2.711 10)" fill="#051733"/>
  <path id="Path_73227" data-name="Path 73227" d="M114.926,330.881a.564.564,0,0,1-.532-.505.61.61,0,0,1,.437-.71c.219-.044,21.991-4.469,30.42-8.55a.521.521,0,0,1,.711.321.643.643,0,0,1-.284.8c-8.544,4.137-29.757,8.449-30.656,8.631A.521.521,0,0,1,114.926,330.881Z" transform="translate(3.4 10)" fill="#051733"/>
  <path id="Path_73228" data-name="Path 73228" d="M154.067,306.661c.757,6.562-40.592,8.127-61.741-1.384-3.163-14.813-14.081-82.234,18.532-82.03C146.07,223.466,150.72,288.778,154.067,306.661Z" transform="translate(2.915 10)" fill="#fff"/>
  <path id="Path_73229" data-name="Path 73229" d="M61.373,247.25l-.487-8.346,7.767-1.322,2.934,7.505C71.919,247.306,61.705,249.47,61.373,247.25Z" transform="translate(0 6.781)" fill="#f7a594"/>
  <path id="Path_73230" data-name="Path 73230" d="M69.008,238.881l1.882-13.527s-2.737-.87-2.993,2.8-5.559,5.99-4.191,9.565S69.008,238.881,69.008,238.881Z" transform="translate(0 6.5)" fill="#f7a594"/>
  <path id="Path_73231" data-name="Path 73231" d="M61.14,239.267s-5.824-10.05-6.329-15.749c-.052-2.088.77-2.706.77-2.706L68.837,235.5s.855,3-.171,4.251A4.811,4.811,0,0,1,61.14,239.267Z" transform="translate(0 6.486)" fill="#f7a594"/>
  <path id="Path_73232" data-name="Path 73232" d="M69.331,235.7s.134,2.38-1.072,1.89c-3.542-1.172-3.751-7.048-3.751-7.048Z" transform="translate(0 6.515)" fill="#cc7767"/>
  <path id="Path_73233" data-name="Path 73233" d="M74.532,238.664,49.872,212.788a2.294,2.294,0,0,0-1.411.355l26.006,26.943A4.025,4.025,0,0,0,74.532,238.664Z" transform="translate(0 6.377)" fill="#404040"/>
  <path id="Path_73234" data-name="Path 73234" d="M48.461,213.143c-.375.291-.614.811-.336,1.77.688,2.37,22.456,25.027,24.659,25.875,1.075.413,1.512-.086,1.683-.7Z" transform="translate(0 6.397)"/>
  <path id="Path_73235" data-name="Path 73235" d="M54.86,222.116s.251-2.326,3.963.529c4.508,3.467,7.536,9.652,6.519,11.236C64.046,235.9,53.877,226.754,54.86,222.116Z" transform="translate(0 6.356)" fill="#f7a594"/>
  <path id="Path_73236" data-name="Path 73236" d="M104.178,224.363c-23.389,5.795-17.084,68.9-15.445,82.574,4.423,1.99,18.706,5.922,24.326,7C101.815,283.887,95.913,227.23,104.178,224.363Z" transform="translate(2.538 10)" fill="#2fb972"/>
  <path id="Path_73237" data-name="Path 73237" d="M117.9,225.261c-2.6,14.316-16.536,13.949-16.717,5.914a3.968,3.968,0,0,1-.036-.652l-1.119-17.376-.144-2.121,1.227-.285,11.084-2.488.4-.081.325,1.1,1.408,4.527Z" transform="translate(2.854 6.262)" fill="#f7a594"/>
  <path id="Path_73238" data-name="Path 73238" d="M117.576,224.17c-4.406,11.7,1.419,72.795,5.454,91.028,10.909,4.165,27.364-1.925,31.762-8.175C151.671,290.349,146.681,232.1,117.576,224.17Z" transform="translate(3.524 10)" fill="#2fb972"/>
  <path id="Path_73239" data-name="Path 73239" d="M116.479,245.424c-1.7,10.52,1.539,28.765,4.057,38.248,6.683,5.555,17.068,2.687,17.068-5.847a128.909,128.909,0,0,0-1.954-26.113C134.033,229.732,117.318,229.935,116.479,245.424Z" transform="translate(3.35 7.589)" fill="#2fb972"/>
  <path id="Path_73240" data-name="Path 73240" d="M106.239,259.587c-6.884-2.8-10.429,8.364-5.417,12.239,11.917,9.085,30.425,21.3,33.718,13.517C139.355,273.958,121.925,265.2,106.239,259.587Z" transform="translate(2.974 7.798)" fill="#2fb972"/>
  <path id="Path_73241" data-name="Path 73241" d="M99.893,268.372l-5.1-3.044c-3.2-2.8,2.437-8.574,4.724-7.644l3.964,2.81C105.493,262.643,102.64,268.134,99.893,268.372Z" transform="translate(2.623 7.355)" fill="#f7a594"/>
  <path id="Path_73242" data-name="Path 73242" d="M95.284,265.453c-4.171-1-2.729-5.762-1.789-11.2C90.138,237.948,108.5,265.888,95.284,265.453Z" transform="translate(2.566 7.228)" fill="#f7a594"/>
  <path id="Path_73243" data-name="Path 73243" d="M97.119,252.165s-1.361-2.4-4.359-7.749c-1.35.289-2.073,2.969-.257,5.314C94.1,251.791,96.407,253.188,97.119,252.165Z" transform="translate(2.523 6.926)" fill="#f7a594"/>
  <path id="Path_73244" data-name="Path 73244" d="M93.02,250.738c-3.012-1.927-5.158,3.684-4.367,8.066,1.211,6.705,5.627,3.394,6.947,1.6C98.015,257.133,96.711,253.1,93.02,250.738Z" transform="translate(2.46 7.183)" fill="#f7a594"/>
  <path id="Path_73245" data-name="Path 73245" d="M116.864,264.269a.379.379,0,0,1-.356-.342c-.022-.149-2.157-15.014.483-25.059a.355.355,0,0,1,.448-.275.418.418,0,0,1,.244.507c-2.592,9.864-.484,24.547-.462,24.694a.406.406,0,0,1-.3.469A.313.313,0,0,1,116.864,264.269Z" transform="translate(3.161 7.115)" fill="#003331"/>
  <path id="Path_73246" data-name="Path 73246" d="M129.417,287.223c-5.947,0-13-4.222-13.409-4.472a.437.437,0,0,1-.147-.552.342.342,0,0,1,.489-.167c.137.083,13.706,8.21,18.668,2.062,4.353-5.394,1.11-28.754,1.077-28.989a.4.4,0,0,1,.3-.467.368.368,0,0,1,.413.338c.138.977,3.329,23.986-1.257,29.667A7.477,7.477,0,0,1,129.417,287.223Z" transform="translate(3.349 7.754)" fill="#003331"/>
  <path id="Path_73247" data-name="Path 73247" d="M124.593,267.8a.327.327,0,0,1-.147-.035c-8.694-4.366-19.58-8.322-19.689-8.361a.421.421,0,0,1-.234-.513.354.354,0,0,1,.454-.264c.109.04,11.032,4.009,19.763,8.393a.43.43,0,0,1,.183.538A.362.362,0,0,1,124.593,267.8Z" transform="translate(3.007 7.351)" fill="#fff"/>
  <path id="Path_73248" data-name="Path 73248" d="M101.143,230.8c-.324-3.839-2.191-18.3-.031-20.056l11.083-2.487C114.736,224.033,105.269,231.911,101.143,230.8Z" transform="translate(2.816 6.155)" fill="#d97661"/>
  <path id="Path_73249" data-name="Path 73249" d="M116.321,205.437c-.538,12.9-10.709,22.915-18.274,22.442S81.183,216.5,81.72,203.6s8.72-22.95,18.274-22.442S116.858,192.534,116.321,205.437Z" transform="translate(2.451 5.764)" fill="#f7a594"/>
  <path id="Path_73250" data-name="Path 73250" d="M106.035,182.978c-9.566-8.867-16.039-2.682-22.013,4-4.192,4.692-7.168,8.067-11.765,8.22,7.33,13.577,25.579,7.835,32.4-3.8-.231,7.13,6.492,14,11.663,14.034C118.828,197.817,115.747,181.276,106.035,182.978Z" transform="translate(2.236 5.345)" fill="#100773"/>
  <path id="Path_73251" data-name="Path 73251" d="M115.549,210.283a4.547,4.547,0,0,0,2.766-5.472,3.914,3.914,0,0,0-4.843-3.125,4.548,4.548,0,0,0-2.766,5.472A3.917,3.917,0,0,0,115.549,210.283Z" transform="translate(3.07 5.724)" fill="#f7a594"/>
  <path id="Path_73252" data-name="Path 73252" d="M93.376,218.5a1.242,1.242,0,0,1-.795-.253c-.99-.789-.018-7.409.3-9.419a.239.239,0,0,1,.271-.213.263.263,0,0,1,.188.307c-.633,3.961-1,8.488-.493,8.894.668.531,2.245-.414,2.8-.824a.218.218,0,0,1,.323.076.285.285,0,0,1-.067.365A5.276,5.276,0,0,1,93.376,218.5Z" transform="translate(2.531 5.942)" fill="#bd4a31"/>
  <path id="Path_73253" data-name="Path 73253" d="M100.362,207.323c.2,1.031.732,1.775,1.184,1.662s.655-1.04.454-2.071-.731-1.775-1.184-1.662S100.161,206.292,100.362,207.323Z" transform="translate(2.738 5.745)" fill="#0e0e0e"/>
  <path id="Path_73254" data-name="Path 73254" d="M85.9,211.352c.188.962.683,1.657,1.1,1.552s.612-.971.424-1.933-.682-1.657-1.1-1.552S85.707,210.39,85.9,211.352Z" transform="translate(2.343 5.858)" fill="#0e0e0e"/>
  <path id="Path_73255" data-name="Path 73255" d="M100.1,221.152a4.533,4.533,0,0,1-.64-.039.259.259,0,0,1-.2-.3.243.243,0,0,1,.262-.227,5.311,5.311,0,0,0,4.078-1.278,6.659,6.659,0,0,0,1.728-4.775.24.24,0,0,1,.242-.255.254.254,0,0,1,.225.273,7.183,7.183,0,0,1-1.9,5.163A5.5,5.5,0,0,1,100.1,221.152Z" transform="translate(2.746 6.051)" fill="#803221"/>
  <path id="Path_73256" data-name="Path 73256" d="M98.672,204.656h-.011a.253.253,0,0,1-.223-.275,2.411,2.411,0,0,1,1.647-2.245,2.114,2.114,0,0,1,2.531.857.285.285,0,0,1-.052.368.216.216,0,0,1-.326-.059,1.683,1.683,0,0,0-2.02-.66,1.905,1.905,0,0,0-1.314,1.763A.249.249,0,0,1,98.672,204.656Z" transform="translate(2.706 5.637)" fill="#803221"/>
  <path id="Path_73257" data-name="Path 73257" d="M84.794,208.414h-.021a.257.257,0,0,1-.212-.286c.124-1.582.954-2.258,1.69-2.361a1.993,1.993,0,0,1,2.071,1.574.275.275,0,0,1-.143.337.228.228,0,0,1-.3-.162,1.53,1.53,0,0,0-1.573-1.226c-.555.079-1.183.615-1.283,1.885A.246.246,0,0,1,84.794,208.414Z" transform="translate(2.322 5.742)" fill="#803221"/>
  <path id="Path_73258" data-name="Path 73258" d="M55,180.306H4.936C2.21,180.306,0,177.81,0,174.73V152.273c0-3.079,2.21-5.576,4.936-5.576H55c2.726,0,4.936,2.5,4.936,5.576V174.73C59.934,177.81,57.724,180.306,55,180.306Z" transform="translate(0 4.481)" fill="#2fb972"/>
  <path id="Path_73259" data-name="Path 73259" d="M50.042,174.875v15.163L36.362,174.584Z" transform="translate(0 5.053)" fill="#2fb972"/>
  <path id="Path_73260" data-name="Path 73260" d="M13.31,165.9a3.228,3.228,0,0,0,0-4.173,2.406,2.406,0,0,0-3.693,0,3.228,3.228,0,0,0,0,4.173A2.406,2.406,0,0,0,13.31,165.9Z" transform="translate(0 4.53)" fill="#fff"/>
  <path id="Path_73261" data-name="Path 73261" d="M22.771,164.488a2.984,2.984,0,0,0-1.945-3.548,2.618,2.618,0,0,0-3.14,2.2,2.984,2.984,0,0,0,1.945,3.547A2.617,2.617,0,0,0,22.771,164.488Z" transform="translate(0 4.53)" fill="#fff"/>
  <path id="Path_73262" data-name="Path 73262" d="M31.528,164.488a2.984,2.984,0,0,0-1.945-3.548,2.618,2.618,0,0,0-3.14,2.2,2.984,2.984,0,0,0,1.945,3.547A2.617,2.617,0,0,0,31.528,164.488Z" transform="translate(0 4.53)" fill="#fff"/>
  <path id="Path_73263" data-name="Path 73263" d="M40.318,164.291a2.928,2.928,0,0,0-2.16-3.385,2.668,2.668,0,0,0-3,2.439,2.928,2.928,0,0,0,2.16,3.385A2.668,2.668,0,0,0,40.318,164.291Z" transform="translate(0 4.53)" fill="#fff"/>
  <path id="Path_73264" data-name="Path 73264" d="M48.337,165.9a3.228,3.228,0,0,0,0-4.173,2.4,2.4,0,0,0-3.693,0,3.228,3.228,0,0,0,0,4.173A2.4,2.4,0,0,0,48.337,165.9Z" transform="translate(0 4.53)" fill="#fff"/>
  <path id="Path_73265" data-name="Path 73265" d="M110.085,133.781H78.323c-3.23,0-5.848-2.958-5.848-6.607V100.567c0-3.648,2.618-6.606,5.848-6.606h31.762c3.23,0,5.848,2.958,5.848,6.606v26.607C115.933,130.823,113.315,133.781,110.085,133.781Z" transform="translate(2.233 2.926)" fill="#2fb972"/>
  <path id="Path_73266" data-name="Path 73266" d="M88.2,132.541l4.979,9.871,5.483-9.871Z" transform="translate(2.467 3.775)" fill="#2fb972"/>
  <path id="Path_73267" data-name="Path 73267" d="M93.265,112.94l-8.674-7.387H101.9Z" transform="translate(2.412 2.985)" fill="#296acc"/>
  <path id="Path_73268" data-name="Path 73268" d="M102.622,107.455v12.82H83.865v-12.82l9.4,7.965Z" transform="translate(2.401 3.086)" fill="#296acc"/>
  <path id="Path_73269" data-name="Path 73269" d="M376.139,355.987H45.886a2.048,2.048,0,0,1,0-4.079H376.139a2.048,2.048,0,0,1,0,4.079Z" transform="translate(0 10)" fill="#2e5b99"/>
</svg>
