<svg xmlns="http://www.w3.org/2000/svg" width="990.952" height="605.21" viewBox="0 0 990.952 605.21">
  <g id="Group_1226" data-name="Group 1226" transform="translate(5481.13 4533.802)">
    <g id="screwdriver" transform="matrix(-1, -0.017, 0.017, -1, -5134.808, -4147.934)">
      <path id="Path_77310" data-name="Path 77310" d="M239.821,244.59V225.532a.077.077,0,0,0-.07-.082h-1.106a.077.077,0,0,0-.07.082v19.059a.155.155,0,0,1,0,.018l-.332,1.747a.091.091,0,0,0,0,.042l.5,1.912a.072.072,0,0,0,.067.058h.776a.072.072,0,0,0,.067-.058l.5-1.912a.1.1,0,0,0,0-.042l-.332-1.747C239.822,244.6,239.821,244.6,239.821,244.59Z" transform="translate(-16.303 -174.045)" fill="#adc8fe"/>
      <g id="Group_1225" data-name="Group 1225" transform="translate(220.49 33.15)">
        <path id="Path_77311" data-name="Path 77311" d="M224.54,47.3a3.74,3.74,0,0,1,.646-2.132.663.663,0,0,0,.115-.377V34.252a.619.619,0,0,0-.3-.544,4.263,4.263,0,0,0-4.218,0,.619.619,0,0,0-.3.544V44.791a.663.663,0,0,0,.115.377,3.839,3.839,0,0,1,0,4.264.663.663,0,0,0-.115.377V51.05a.562.562,0,0,0,.515.6h3.78a.563.563,0,0,0,.515-.6V49.81a.663.663,0,0,0-.115-.377A3.753,3.753,0,0,1,224.54,47.3Z" transform="translate(-220.49 -33.15)" fill="#ee896c"/>
        <g id="Group_1224" data-name="Group 1224" transform="translate(0.793 1.368)">
          <g id="Group_1223" data-name="Group 1223" transform="translate(1.286)">
            <path id="Path_77312" data-name="Path 77312" d="M246.367,57.7h-.082a.312.312,0,0,1-.285-.332V47.892a.312.312,0,0,1,.285-.332h.082a.312.312,0,0,1,.285.332v9.479A.312.312,0,0,1,246.367,57.7Z" transform="translate(-246 -47.56)" fill="#edb400"/>
            <path id="Path_77313" data-name="Path 77313" d="M262.147,57.7h-.082a.312.312,0,0,1-.285-.332V47.892a.313.313,0,0,1,.285-.332h.082a.312.312,0,0,1,.285.332v9.479A.312.312,0,0,1,262.147,57.7Z" transform="translate(-260.494 -47.56)" fill="#edb400"/>
          </g>
          <path id="Path_77314" data-name="Path 77314" d="M230.587,57.7h-.082a.312.312,0,0,1-.285-.332V47.892a.312.312,0,0,1,.285-.332h.082a.312.312,0,0,1,.285.332v9.479A.312.312,0,0,1,230.587,57.7Z" transform="translate(-230.22 -47.56)" fill="#edb400"/>
        </g>
      </g>
    </g>
    <g id="Group_1219" data-name="Group 1219">
      <g id="Group_1217" data-name="Group 1217" transform="translate(-5481.13 -4533.802)">
        <g id="Group_1221" data-name="Group 1221" transform="translate(487.011 101.269)">
          <g id="_169505911_db74fe0f-b82f-4723-99ba-599ee93b73e5" data-name="169505911_db74fe0f-b82f-4723-99ba-599ee93b73e5" transform="translate(0 0)">
            <path id="Path_77305" data-name="Path 77305" d="M179,0A176.192,176.192,0,0,1,356.342,177.347c-.455,98.4-80.594,178.539-178.995,178.995A176.192,176.192,0,0,1,0,179C.457,80.6,80.6.457,179,0Z" transform="translate(0 251.971) rotate(-45)" fill="#054474"/>
            <path id="Path_77306" data-name="Path 77306" d="M160.225,0A157.715,157.715,0,0,1,318.973,158.749c-.408,88.081-72.142,159.816-160.224,160.224A157.715,157.715,0,0,1,0,160.225C.409,72.144,72.144.409,160.225,0Z" transform="translate(29.081 249.289) rotate(-45)" fill="#16203e"/>
            <path id="Path_77278" data-name="Path 77278" d="M149.5,0a147.157,147.157,0,0,1,148.12,148.12c-.38,82.185-67.313,149.117-149.5,149.5A147.157,147.157,0,0,1,0,149.5C.382,67.314,67.314.382,149.5,0Z" transform="translate(41.523 251.971) rotate(-45)" fill="#fff"/>
            <path id="Path_77266" data-name="Path 77266" d="M1038.7,405h0a3.346,3.346,0,0,1-3.321-3.352V381.534a3.321,3.321,0,1,1,6.642,0v20.112A3.346,3.346,0,0,1,1038.7,405Z" transform="translate(-788.723 -271.016)" fill="#054474"/>
            <path id="Path_77267" data-name="Path 77267" d="M1600.955,1041.895h0a3.346,3.346,0,0,1,3.321-3.352H1624.2a3.352,3.352,0,0,1,0,6.7h-19.926A3.346,3.346,0,0,1,1600.955,1041.895Z" transform="translate(-1235.4 -791.265)" fill="#054474"/>
            <path id="Path_77268" data-name="Path 77268" d="M1436.291,591.556h0a3.384,3.384,0,0,1,0-4.741l14.089-14.221a3.31,3.31,0,0,1,4.7,0h0a3.385,3.385,0,0,1,0,4.741l-14.091,14.222A3.309,3.309,0,0,1,1436.291,591.556Z" transform="translate(-1104.586 -423.408)" fill="#054474"/>
            <path id="Path_77269" data-name="Path 77269" d="M522.121,775.345a148.223,148.223,0,0,1-16.605-.941v9.321a3.321,3.321,0,1,1-6.642,0V773.507a147.205,147.205,0,0,1-80.289-40.766l-12.2,12.316a3.309,3.309,0,0,1-4.7,0,3.384,3.384,0,0,1,0-4.74l12.254-12.368a149.555,149.555,0,0,1-38.461-80.983h-12.1a3.352,3.352,0,0,1,0-6.7h11.315c-.45-4.744-.688-9.55-.688-14.413A149.687,149.687,0,0,1,406.078,533a149.7,149.7,0,0,0-50.01,111.957c0,82.565,66.315,149.5,148.12,149.5A147.322,147.322,0,0,0,620.232,737.8,146.755,146.755,0,0,1,522.121,775.345Z" transform="translate(-252.214 -392.983)" fill="#dadada"/>
            <path id="Path_77270" data-name="Path 77270" d="M1436.291,1439.46h0a3.308,3.308,0,0,1,4.7,0l14.091,14.221a3.385,3.385,0,0,1,0,4.74,3.31,3.31,0,0,1-4.7,0l-14.089-14.221A3.383,3.383,0,0,1,1436.291,1439.46Z" transform="translate(-1104.586 -1106.347)" fill="#054474"/>
            <path id="Path_77271" data-name="Path 77271" d="M569.426,572.595h0a3.309,3.309,0,0,1,4.7,0l14.09,14.221a3.384,3.384,0,0,1,0,4.74,3.309,3.309,0,0,1-4.7,0l-14.09-14.221A3.384,3.384,0,0,1,569.426,572.595Z" transform="translate(-419.954 -423.409)" fill="#054474"/>
            <path id="Path_77273" data-name="Path 77273" d="M1038.7,1630.93h0a3.347,3.347,0,0,1-3.321-3.353v-20.111a3.321,3.321,0,1,1,6.642,0v20.111A3.347,3.347,0,0,1,1038.7,1630.93Z" transform="translate(-788.723 -1236.836)" fill="#054474"/>
            <path id="Path_77274" data-name="Path 77274" d="M375.022,1041.895h0a3.346,3.346,0,0,1,3.321-3.352H398.27a3.352,3.352,0,0,1,0,6.7H378.343A3.347,3.347,0,0,1,375.022,1041.895Z" transform="translate(-267.183 -791.265)" fill="#054474"/>
            <path id="Path_77275" data-name="Path 77275" d="M569.426,1458.421h0a3.384,3.384,0,0,1,0-4.741l14.09-14.221a3.309,3.309,0,0,1,4.7,0,3.384,3.384,0,0,1,0,4.74l-14.09,14.222A3.31,3.31,0,0,1,569.426,1458.421Z" transform="translate(-419.954 -1106.346)" fill="#054474"/>
          </g>
          <text id="_24h" data-name="24h" transform="translate(219.119 264.533)" fill="#0d4474" font-size="41" font-family="SegoeUI-BoldItalic, Segoe UI" font-weight="700" font-style="italic"><tspan x="0" y="0">24h</tspan></text>
          <g id="Arrow-Back-Left" transform="translate(179.17 183.617)">
            <path id="Path_77276" data-name="Path 77276" d="M4.273,55.151A69.021,69.021,0,0,1,30.491,16.916a67.9,67.9,0,0,1,86.57,5.727,69.482,69.482,0,0,1,11.324,86.813A68.488,68.488,0,0,1,92.3,138.363a67.779,67.779,0,0,1-46.065-.761A68.545,68.545,0,0,1,11.1,107.519" transform="translate(6.906 -4)" fill="rgba(0,0,0,0)" stroke="#0d4474" stroke-linejoin="round" stroke-width="5"/>
            <path id="Path_77277" data-name="Path 77277" d="M2.965,6.136l8.849,33.331,33.023-8.931" transform="translate(-2.965 12.293)" fill="rgba(0,0,0,0)" stroke="#0d4474" stroke-linejoin="round" stroke-width="5"/>
          </g>
        </g>
        <g id="Group_1216" data-name="Group 1216" transform="translate(0 0)">
          <g id="Group_1214" data-name="Group 1214" transform="translate(0 0)">
            <g id="Group_889" data-name="Group 889" transform="translate(0 0)">
              <g id="Group_5_Copy" data-name="Group 5 Copy" transform="translate(530.37 46.067)">
                <path id="Path_72191" data-name="Path 72191" d="M180.167,255.509s.134,20.643-3,36.5c-1.322,6.686-3.739,19.961-7.058,33.4-3.551,14.37-7.686,29.226-9.334,38.621a40.384,40.384,0,0,0-.732,6.513c0,1.538-.68,3.623,0,4.834a3.692,3.692,0,0,1-1.413,4.74c-1.933,1.195-2.211,6.1-1.526,7.091s-.685,3.817,0,4.7,1.09.85,0,3.181-1.674,7.234-1.674,7.234l-11.987,41.54s-2.69,7.611-2.69,9.243-1.1,9.231-1.693,9.231,0,.909,0,.909l-2.143,10.208s-15.575-.886-22.831-6.276c0,0,1.754-9.859,1.754-11.5s-1.127-2.576,0-2.576a1.279,1.279,0,0,0,1.306-1.017s-.117-5.678,1.266-8.226.938-7.8,1.925-9.006,1.786-9.822,1.786-11.956,2.046-16.652,3.748-21.5,14.882-77.143,14.882-77.143L138.042,292s1.636-2.391,2.708-4.026c5.47-8.346.609-18.186,2.272-25.658,1.254-5.631,2.846-7.761,1.616-10.513-.553-1.238-3.071-1.811-3.888-3.81l36.414-9.538s4.261,4.573,3,9.538S180.167,255.509,180.167,255.509Z" transform="translate(-40.883 1.809)" fill="#3a5971" fill-rule="evenodd"/>
                <path id="Path_72192" data-name="Path 72192" d="M117.23,466.773s-2.085,6.975-3.178,9.4-.92,6.862-.92,9.011l20.167,2.89a10.37,10.37,0,0,1-1.409-3.867v-3.727c0-1.362-.378-1.488-.378-2.9a13.752,13.752,0,0,1,1.053-6.751Z" transform="translate(-40.883 3.932)" fill="#f9c5b4" fill-rule="evenodd"/>
                <path id="Path_72193" data-name="Path 72193" d="M117.23,466.773s-2.085,6.975-3.178,9.4-.994,6.6-.994,8.753-1.915,11.341-.461,13.212a31.812,31.812,0,0,1,.768-5.811c.486-1.984,2.211-4.13,2.716-7.084.368-2.148-.078-4.569.452-7.359.431-2.275,3.44-10.382,3.44-10.382Z" transform="translate(-40.883 3.932)" fill="#ffdfd4" fill-rule="evenodd"/>
                <path id="Path_72194" data-name="Path 72194" d="M116.072,470.522c-.4,1.161-1.709,4.923-2.02,5.612-1.093,2.421-1.228,7.035-1.228,9.183l20.475,2.718a10.37,10.37,0,0,1-1.409-3.867V480.44c0-1.362-.4-4.146-.4-5.56,0,0-7.24.028-10.911-.94C118.8,473.47,116.072,470.522,116.072,470.522Z" transform="translate(-40.883 3.967)" fill="#dfdede" fill-rule="evenodd"/>
                <path id="Path_72195" data-name="Path 72195" d="M155.385,513.3c0,1.718-.1,3.192-3.762,5.3s-12.921,4.617-17.926.827-5.711-9.352-10.933-11.368-13.444-4.479-14.194-6.527a30.083,30.083,0,0,1-.252-5.08Z" transform="translate(-40.883 4.208)" fill="#e0e0e0" fill-rule="evenodd"/>
                <path id="Path_72196" data-name="Path 72196" d="M121.662,485.18c6.912-1.159,10.077-2.455,12.663.483s3.768,7.4,7,10.554,8.6,9,10.514,10.886,6.4,6.259,1.965,8.918-13.8,3.791-18.8,0-7.013-10.12-12.236-12.136-13.656-4.686-14.406-6.734,1.824-20.36,3.6-18.2S114.75,486.338,121.662,485.18Z" transform="translate(-40.883 4.044)" fill="#4b4b4b" fill-rule="evenodd"/>
                <path id="Path_72197" data-name="Path 72197" d="M139.057,461.261l-2.143,10.208s-15.575-.886-22.831-6.276c0,0,1.754-9.859,1.754-11.5s-1.127-2.576,0-2.576c.551,0,4.506,2.7,12.563,6.01C131.338,458.335,139.057,461.261,139.057,461.261Z" transform="translate(-40.883 3.786)" fill="#9d9a91" fill-rule="evenodd"/>
                <path id="Path_72198" data-name="Path 72198" d="M114.863,465.744q-.4-.269-.78-.55s1.754-9.859,1.754-11.5-1.127-2.576,0-2.576a16.373,16.373,0,0,1,2.671,1.342Z" transform="translate(-40.883 3.786)" fill="#716f67" fill-rule="evenodd"/>
                <path id="Path_72199" data-name="Path 72199" d="M87.961,250.264s1.809,20.292,2.9,27.858c3.711,25.809,7.126,39.538,9.055,46.706,3.742,13.9,15.931,45.961,15.931,50.634a14.534,14.534,0,0,0,2.836,8.933c.753.736.076,5.667,1.051,6.437,1.79,1.415.845,2.794,1.79,4.612a26.888,26.888,0,0,0,3.193,4.444c1.048,1.347,34.746,74.222,34.746,74.222v2.745l5.763,12.918s17.919-3.2,21.892-10.886l-6.333-17.961h-1.509s-11.6-36.8-15.705-43.069a129.976,129.976,0,0,1-8.312-15.982s-.658-6.2-3.29-9.421.881-7.332,0-9.446-3.727-2.656-2.754-5.852a11.089,11.089,0,0,0-.812-8.189c-.912-1.291-.9-10.618-.9-12.7s-6.356-21.39-6.356-25.893-2.319-36.472-2.319-37.561c0-.608,2.319-3.187,4.073-8.321s-.428-21.092.961-23.712c3.146-5.939,2.089-9.7-2.715-12.9,0,0,34.385-5.167,35.116-3.2,0,0,4.524,3.2,4.524,0s-3.065-6.107-3.065-6.107Z" transform="translate(-40.883 1.81)" fill="#304d63" fill-rule="evenodd"/>
                <path id="Path_72200" data-name="Path 72200" d="M87.71,248.82s2.061,21.64,3.148,29.206c2.288,15.917,4.465,27.239,6.249,35.262,1.109,4.986,2.067,8.7,2.806,11.444,1.352,5.023-.076.216,0-15.132.018-3.613,1.292-8.03,1.363-12.79.044-3.021,1.6-7,1.77-12.175.107-3.23-3.124-7.942-3.133-14.842,0-2.175-3.471-5.854-2.806-10.153.183-1.182,4.19-2,4.423-3.346.423-2.433,1.517-7.475,1.517-7.475Z" transform="translate(-40.883 2.09)" fill="#254054" fill-rule="evenodd"/>
                <path id="Path_72201" data-name="Path 72201" d="M169.609,486.143s9.694,15.963,12.281,17.229c1.21.592,10.244,2.479,12.778-1.051,2.88-4.01,2.685-9.131,1.839-9.555-1.591-.8-5.071-4.7-6.159-6.038s-5.809-8.009-5.809-8.009Z" transform="translate(-40.883 4.043)" fill="#f9c5b4" fill-rule="evenodd"/>
                <path id="Path_72202" data-name="Path 72202" d="M169.61,486.154s12.556,20.307,15.142,21.573l1.133-2.262c-5.837-3.117-14.82-20.1-14.82-20.1Z" transform="translate(-40.883 4.105)" fill="#efac96" fill-rule="evenodd"/>
                <path id="Path_72203" data-name="Path 72203" d="M171.615,489.4c.329.5,2.219,3.706,2.437,4.072,4.035,6.739,6.477,9.19,7.838,9.856,1.21.592,10.244,2.479,12.778-1.051,2.88-4.01,2.685-9.131,1.839-9.555-1.591-.8-4.831-4.551-5.92-5.888-.335-.413-2.213-2.652-2.95-3.793,0,0,.521,4.813-2.184,6.36C181.333,491.761,171.615,489.4,171.615,489.4Z" transform="translate(-40.883 4.083)" fill="#dfdede" fill-rule="evenodd"/>
                <path id="Path_72204" data-name="Path 72204" d="M179.2,503.473a9.163,9.163,0,0,0,3.877,5.679c3.076,1.908,10.252,13.637,13.21,18.3s10.194,4.834,16.964,2.64,1.748-11.858,0-12.944Z" transform="translate(-40.883 4.273)" fill="#e0e0e0" fill-rule="evenodd"/>
                <path id="Path_72205" data-name="Path 72205" d="M174.689,494.484s4.388,11.194,7.464,13.1,10.124,13.368,13.671,17.845,10.216,3.594,16.482,2.083,3.5-6.794,1.925-10.678-6.9-9.25-10.693-14.39-8.047-12.181-9.024-12.181,2.673,5.324,0,8.02-8.884,4.448-13.027,2.674S174.689,494.484,174.689,494.484Z" transform="translate(-40.883 4.15)" fill="#4b4b4b" fill-rule="evenodd"/>
                <path id="Path_72206" data-name="Path 72206" d="M159.461,472.061l-.691,1.239,6.454,14.424s17.919-3.2,21.892-10.886l-6.333-17.961h-1.509Z" transform="translate(-40.883 3.859)" fill="#9d9a91" fill-rule="evenodd"/>
                <path id="Path_72207" data-name="Path 72207" d="M159.461,471.95l-.691,1.239,6.454,14.424s.9-.165,1.346-.25l-5.451-16.516Z" transform="translate(-40.883 3.97)" fill="#716f67" fill-rule="evenodd"/>
                <path id="Path_72208" data-name="Path 72208" d="M112.226,83.915s-1.425-.785-2.3,0-3.611,3.121-7.158,3.121-28.123,8.8-30.782,12.77-14.463,23.662-16.561,39.036c0,0-6.622,26.8-9.714,29.858s-6.966,16.128-3.414,21.039L85.8,161.97s.108,29.177-1.635,35.3-2.526,15.062-2.678,19.6a51.817,51.817,0,0,0,.4,7.575,22.326,22.326,0,0,1-.952,6.45,12.675,12.675,0,0,0,0,6.916c.517,1.574,2.126,1.589,2.526,3.356,1.084,4.789,1.715,10,5.588,10h38.4c5.24,0,23.2-3.239,26.482-4.594s22.361-5.559,26-8.029l-1.237-4.9s-4.606-14.977-2.3-20.463c.99-2.357,3.448-2.024,5.283-4.557,2.437-3.364,4.22-9.64,4.348-13.081.224-6.033-.109-7.724-.159-10.767-.047-2.842-.689-5.174-.5-7.047a7.216,7.216,0,0,1,2.252-4.532,6.368,6.368,0,0,1,4.752-1.533c1.525-.029,2.891,1.468,4.239,4.492,2.437,5.468,6.077,6.688,6.077,6.688s-3.922,6.788-3.922,8.978-12.743,10.393-12.743,14.436v6.923l-3.75,3.69a53.276,53.276,0,0,1,5.164,2.464,23.855,23.855,0,0,1,4.637,4.015c1.969,1.989,2.379,4.245,1.88,5.238a18.589,18.589,0,0,1-2.352,2.935,2.35,2.35,0,0,0,2.7-.627c1.079-1.336,5.139-5.743,5.139-5.743s5.215,2.12,9.977-2.936a178.4,178.4,0,0,0,12.473-15.267c2.328-3.213,5.7-7.083,5.048-10.325,0,0,7.006-7.88,6.693-15.2s0-18.379,0-21.5-3.731-3.329-5.061-5.049c-.795-1.027-5.62-10.82-12.742-19.753-4.8-6.016-11.6-10.618-15.273-15.759-4.3-6.021-6.809-6.532-9.631-9.984-4.108-5.024-5.973-8.375-15.723-13.186-10.022-4.945-13.472-3.963-17.676-6.38s-6.434-5.906-10.237-5.906Z" transform="translate(-40.883 0.684)" fill="#2fb972" fill-rule="evenodd"/>
                <path id="Path_72209" data-name="Path 72209" d="M112.554,20.29s-9.6,14.427-9.6,17.373c0,.608.243,1.125.32,1.818s-.139.982,0,2.042.862,2.023.89,2.8a5.8,5.8,0,0,1-.72,3.02c-.763,1.34-2.093,3.4-2.184,4.943a2.29,2.29,0,0,0,1.694,2.394,8.094,8.094,0,0,0-.9,1.492,6.027,6.027,0,0,0-.621,2,7.371,7.371,0,0,0,.425,2.617c.476,1.879,2.406,4.168,1.1,7.7s-1.876,9.639,5.222,11.168a27.936,27.936,0,0,0,6.062.79c2.047-.011.256,2.682-1.684,3.814a5.682,5.682,0,0,0-2.2,2.216c-.791,1.66,1.314,5.055,2.474,6.36,1.688,1.9,7.9,5.321,12.357,6.275,4.145.886,11.944,1.912,16.773,1.012s8.237-5.584,8.9-7.911c.669-2.361-2.154-4.908-3.813-8.627-1.159-2.6-1.135-6.268-1.346-8.754a47.31,47.31,0,0,1,.7-13.148c.445-2.944,4.994-5.987,6.269-10.883,1.176-4.511-1.255-8.05-2.415-8.05-3.352,0-15.084-7.287-17.427-8.924,0,0,4.12-3.029,2.983-9.393-.511-2.858-4.255-4.44-9.2-4.941C122.854,19.114,112.554,20.29,112.554,20.29Z" transform="translate(-40.883 0.181)" fill="#f9c5b4" fill-rule="evenodd"/>
                <path id="Path_72210" data-name="Path 72210" d="M112.554,20.282s-9.6,14.427-9.6,17.373c0,.608.243,1.125.32,1.817s-.139.982,0,2.042.862,2.023.89,2.8a5.8,5.8,0,0,1-.72,3.02c-.763,1.34-2.093,3.4-2.184,4.943a2.29,2.29,0,0,0,1.694,2.394,8.094,8.094,0,0,0-.9,1.492,6.026,6.026,0,0,0-.621,2,7.509,7.509,0,0,0,.418,2.645c.476,1.879,2.413,4.14,1.106,7.675a10.061,10.061,0,0,0,1.21-4.377c.093-1.181-1.092-2.328-1.21-3.751-.137-1.646.907-3.709.989-5.431.1-1.995-1.676-.952-1.28-3.346.636-3.84,4.048-7.072,5.073-11.94.357-1.7-1.471-3.655-1.471-3.655,1.294-5.261,8.326-15.7,8.326-15.7Z" transform="translate(-40.883 0.189)" fill="#ffdfd4" fill-rule="evenodd"/>
                <path id="Path_72211" data-name="Path 72211" d="M114.237,79.9c2.048-.012.257,2.682-1.683,3.814a5.682,5.682,0,0,0-2.2,2.216c-.791,1.66,1.313,5.055,2.474,6.36,1.688,1.9,7.9,5.321,12.357,6.275,4.145.886,6.926-23.417-2.268-20.159A26.6,26.6,0,0,1,114.237,79.9Z" transform="translate(-40.883 0.726)" fill="#efac96" fill-rule="evenodd"/>
                <path id="Path_72212" data-name="Path 72212" d="M112.529,20.509S107.255,14.258,114,7.424c0,0-.36,1.893-.36,2.119,0,0,3.778-7.965,8.932-9.265s4.705,2.348,7.207,2.693,5.041-.942,8.808,1.6,6.1,6.04,12.728,5.438a8.094,8.094,0,0,1-3.593,4.133s.036,2.188,3.85,2.638,3.831,4.211,5.057,5.206a10.734,10.734,0,0,1,3.309,6.584c.49,3.288,3.191,7.976,3.191,9.168s-.76,3.5,0,5.789-3.766,4.353-3.766,7.568-3.25,4.985-6.384,9.915c-3.563,5.606-7.195,11.73-7.195,13.629,0,3.57-1.32-11.88,1.938-15.605s5.257-7.152,5.257-10.088-1.485-6.484-3.371-5.952-6.668,3.649-8.576,5.518-2.884,6.6-3.184,8.1a42.681,42.681,0,0,0-.8,5.028c-.266,2.773-.375,5.717-.537,6.812-.295,1.982-8.274,10.156-15.623,11.63a35.241,35.241,0,0,1-9.786.318c-3.828-.405-6.928-1.766-7.923-3.547a8.642,8.642,0,0,1-.989-4.955,18.969,18.969,0,0,1,.864-3.542,10.322,10.322,0,0,1,.615,3.239c0,1.641,1.768,1.46,1.768-.328s-2.05-3.73.295-3.73a16.811,16.811,0,0,0,1.747.286c.623-.065,1.122-.276,1.623-.286,1.1-.022,2.08.54,1,1.6-1.039,1.021-1.514,2.239-1.193,3.057.165.421.778.589,1.71.3a9.838,9.838,0,0,0,3.855-2.1c2.007-1.882,3.419-3.081,3.812-4.455a2.257,2.257,0,0,0-.259-1.729c-1.26-2.4-7.39-3.356-9.777-4.272a5.259,5.259,0,0,0-2.514,0c-1.879.451-3.2,1.838-3.826,1.06a4.8,4.8,0,0,1,0-4.4c.308-.6.521-1.3,1.273-1.5a5.947,5.947,0,0,1,1.45-.279,13.814,13.814,0,0,0,2.2,0c.851-.157,1.5-.373,2.272-.522a4.705,4.705,0,0,1,2.286,0c2.254.8,3.211,3.162,6.417,3.162s2.458,6.054,2.458,6.751.95,1.464,1.63,0,4.886-7.562,8.494-9.112,6.745-12.66,5.827-15.836a11.435,11.435,0,0,0-3.281-5.135,9.534,9.534,0,0,0,2.7-4.255c.564-2.38.564-6.161-1.611-7.9-2.234-1.785-5.919-2.209-9.975-2.3C120.577,19.611,112.529,20.509,112.529,20.509Z" transform="translate(-40.883 0)" fill="#2a150f" fill-rule="evenodd"/>
                <path id="Path_72213" data-name="Path 72213" d="M112.544,20.519S107.255,14.258,114,7.424c0,0-.36,1.893-.36,2.119,0,0,3.778-7.965,8.932-9.265s4.705,2.348,7.207,2.693,5.041-.942,8.808,1.6,6.1,6.04,12.728,5.438c0,0-4.776,1.052-8.608-.984a76.208,76.208,0,0,0-7.457-3.129c-2.06-.831-5.233-.274-6.336-.495C125.1,4.635,125,4,123.377,4.058c-3.232.114-4.744,5.853-5.462,6.2-5.777,2.8-1.432,9.844-1.432,9.844C115.256,20.2,112.544,20.519,112.544,20.519Z" transform="translate(-40.883 0)" fill="#533126" fill-rule="evenodd"/>
                <path id="Path_72214" data-name="Path 72214" d="M103.877,34.619a8.1,8.1,0,0,1,1.882.826c2.242,1.77,2.5,3.727,1.449,5.725-1.944,3.686-4.9,7.984-4.9,7.984s2.043-3.906,1.573-6.121-.635-2.848-.552-3.585-.552-1.9,0-3.364Z" transform="translate(-40.883 0.322)" fill="#efac96" fill-rule="evenodd"/>
                <path id="Path_72215" data-name="Path 72215" d="M112.964,37.712s-1.495-.251-1-1.445,2.314-1.881,3.973-1.3,3.857-.142,4.925.581,3.993,3.488,3.993,4.8c0,.907-1.072-.453-2.937-1.548a5.938,5.938,0,0,0-2.976-.967c-1.1-.017-3.165.017-4.091,0S112.964,37.712,112.964,37.712Z" transform="translate(-40.883 0.323)" fill="#0a1420" fill-rule="evenodd"/>
                <path id="Path_72216" data-name="Path 72216" d="M103.12,38.154s2.363-.39,2.606-.967.548-1.588,0-1.89S104,34.533,104,34.533a7.661,7.661,0,0,0-.88,2.116A5.824,5.824,0,0,0,103.12,38.154Z" transform="translate(-40.883 0.321)" fill="#0a1420" fill-rule="evenodd"/>
                <path id="Path_72217" data-name="Path 72217" d="M139.725,58.515s.2,2.292,1.251,2.292l-1.835.309Z" transform="translate(-40.883 0.544)" fill="#efac96" fill-rule="evenodd"/>
                <path id="Path_72218" data-name="Path 72218" d="M144.26,50.739a.78.78,0,0,0-.97.3c-.373.568.065,1.236-.576,1.94s-1.453,1.643-.81,2.236a.826.826,0,0,0,1.244,0c.19-.181.259-.453.517-.774.769-.957,2.241.538,3.559,0s2.494-2.821,1.942-3.7" transform="translate(-40.883 0.471)" fill="#efac96" fill-rule="evenodd"/>
                <path id="Path_72219" data-name="Path 72219" d="M146.177,46.793s1.866-2.692,3.39-2.405,2.669,2.522,2.358,3.968a12.518,12.518,0,0,1-2.849,6.338s1.212-3.28,1.486-4.488a5.479,5.479,0,0,0,.176-2.96,2.724,2.724,0,0,0-1.021-1.392c-.536-.394-1.436-.585-1.756,0-.513.939-.057,1.4-.921,1.736S146.177,46.793,146.177,46.793Z" transform="translate(-40.883 0.413)" fill="#efac96" fill-rule="evenodd"/>
                <path id="Path_72230" data-name="Path 72230" d="M72.554,154.413h-.781l-6.791,7.435a7.439,7.439,0,0,0-5.782,0c-2.809,1.359-4.154,5.587-5.725,7.745s-7.729,3.12-9.982,9.251a26.9,26.9,0,0,0,.76,20.267s4.036-.573,6.31,1.856,3.6,5.959,6.888,4.194,6.211-.7,8.786-.7,8.383-7.215,9.015-8.322,8.444-16.9,8.444-18.077a17.7,17.7,0,0,0-1.284-4.16l3.187-7.25-1.55-2.569-2.972,4.547s-4.718-1.4-6.78-4.547S72.554,154.413,72.554,154.413Z" transform="translate(-40.883 1.305)" fill="#2fb972" fill-rule="evenodd"/>
                <path id="Path_72231" data-name="Path 72231" d="M59.2,204.277c3.288-1.765,4.462,0,7.037,0s8.383-7.215,9.015-8.322,8.444-16.9,8.444-18.077a17.7,17.7,0,0,0-1.284-4.16S78.418,189,68.853,197.44C66.391,199.612,59.2,204.277,59.2,204.277Z" transform="translate(-40.883 1.474)" fill="#8eb1db" fill-rule="evenodd" opacity="0.2"/>
                <path id="Path_72232" data-name="Path 72232" d="M43.466,179.352c-2.253,6.132-.925,12.619.786,19.535,0,0,4.036-.573,6.31,1.856S45.719,173.22,43.466,179.352Z" transform="translate(-40.883 1.517)" fill="#2fb972" fill-rule="evenodd"/>
                <path id="Path_72233" data-name="Path 72233" d="M72.554,154.413h-.781l-6.791,7.435s.624,5.594,2.813,7.587c7.456,6.788,8.564-2.206,6.5-5.355S72.554,154.413,72.554,154.413Z" transform="translate(-40.883 1.313)" fill="#2fb972" fill-rule="evenodd"/>
                <path id="Path_72234" data-name="Path 72234" d="M72.871,154.413h-1.1l-.852.934s0,7.781,4.241,11.4c.34.291-.077-1.942-.526-2.629C72.573,160.972,72.871,154.413,72.871,154.413Z" transform="translate(-40.883 1.314)" fill="#2fb972" fill-rule="evenodd"/>
                <path id="Path_72235" data-name="Path 72235" d="M55.517,165.933a39.331,39.331,0,0,1-2.043,3.553,7.316,7.316,0,0,1-2.285,1.713c-2.5,1.423-3.69,10.842-.627,17.641,0,0,1.676,5.829,2.324,5.838,2.437.034,1.727-8.444,1.727-18.347C54.613,172.819,55.517,165.933,55.517,165.933Z" transform="translate(-40.883 1.408)" fill="#2fb972" fill-rule="evenodd"/>
                <path id="Path_72236" data-name="Path 72236" d="M180.626,215.859s-3.231-2.832-4.349-3.6-6.654.984-7.525,1.613a4.15,4.15,0,0,0-1.336,2.566c.079.252.383,1.463,2.76.266S180.626,215.859,180.626,215.859Z" transform="translate(-40.883 1.807)" fill="#f3b7a3" fill-rule="evenodd"/>
                <path id="Path_72237" data-name="Path 72237" d="M175.91,214.317c-1.745-.095-5.219.156-6.089.785s-2.27,1.808-1.886,1.992,1.053.187,2.241-.411c1.473-.741,3.952-1.013,8.7-.865A4.723,4.723,0,0,0,175.91,214.317Z" transform="translate(-40.883 1.827)" fill="#e69f87" fill-rule="evenodd"/>
                <path id="Path_72238" data-name="Path 72238" d="M182.624,215.89s-6.038-.421-8.208-.421-2.717-.024-3.894.876-8.886,7.268-9.466,8.478,1.562,3.045,3.088,2.145,7.985-5.478,8.645-5.962,2.495-1.48,3.6-.626a8.219,8.219,0,0,1-1.27.8c-.811.423-6.159,4.7-6.787,5.057s-3.374,1.956-2.741,3.361a2.3,2.3,0,0,0,3.455,1.211c1.474-.873,6.967-4.366,8.121-4.983a5.152,5.152,0,0,1,4.043-.457c1.55.459-.022.834-1.852,1.373s-3.316,1.045-4.944,1.546-2.437,2.359-1.218,3.067,6.908-.546,8.825,0a11.912,11.912,0,0,0,9.53-.863s2.339-2.436,2.606-3.751c.222-1.094-.488-2.556-1.759-4.252a20.477,20.477,0,0,0-6.857-5.379A29.766,29.766,0,0,0,182.624,215.89Z" transform="translate(-40.883 1.833)" fill="#f3b7a3" fill-rule="evenodd"/>
                <path id="Path_72239" data-name="Path 72239" d="M177.173,231.322a18.093,18.093,0,0,1,4.85-.076,11.912,11.912,0,0,0,9.53-.863s2.339-2.436,2.606-3.751a18.948,18.948,0,0,1-4.445,2.758,10.822,10.822,0,0,1-3.5,1.305,24.1,24.1,0,0,1-3.591-.313C180.055,230.156,175.423,231.473,177.173,231.322Z" transform="translate(-40.883 1.931)" fill="#e69f87" fill-rule="evenodd"/>
                <path id="Path_72241" data-name="Path 72241" d="M174.416,215.469c-2.17,0-2.717-.024-3.894.876-.9.688-5.622,4.576-8.052,6.908a1.97,1.97,0,0,1,1.33.52s1.211-.87,1.695-1.295c2.681-2.351,4.079-3.743,4.451-4.017C170.607,217.977,176.586,215.469,174.416,215.469Z" transform="translate(-40.883 1.835)" fill="#ffdfd4" fill-rule="evenodd" opacity="0.5"/>
                <path id="Path_72243" data-name="Path 72243" d="M102.071,182.139s1.438,13.412,5.18,18.441,8.844,23.182,8.844,23.182v7.09s-4.512-17.249-8.844-20.727-7.5-15.479-7.5-15.479Z" transform="translate(-40.883 1.54)" fill="#2fb972" fill-rule="evenodd"/>
                <path id="Path_72252" data-name="Path 72252" d="M47.852,480.272c1.757,1.352,2.892,4.771,3.039,8.931a23.023,23.023,0,0,1-.23,5.066H47.852a19.688,19.688,0,0,0,0-3.524c-.447-1.982-2.192-3.4-2.354-4.284a15.236,15.236,0,0,1,0-6.515C45.572,479.007,47.639,480.109,47.852,480.272Z" transform="translate(-40.883 4.051)" fill="#b1b1b1" fill-rule="evenodd" opacity="0.5"/>
                <path id="Path_72253" data-name="Path 72253" d="M175.677,116.474s7.341,26.1,9.463,31.411,5.113,18.187,5.113,18.187l-2.945-21.343s-4.336-15.412-2.168-19.275c0,0-3.648,5.623-3.648,3.687S175.677,116.474,175.677,116.474Z" transform="translate(-40.883 0.984)" fill="#2fb972" fill-rule="evenodd"/>
                <path id="Path_72254" data-name="Path 72254" d="M92.512,238.714h15.944c8.48,0,24.227-6.229,28.5-8.96s38.155-23.618,41.4-29.012,7.15-23.706,7.15-23.706.4-2.5,3.285-5.641c0,0-8.523,4.5-12.735,16.922S144,221.253,140.48,221.253s-16.079,14.588-32.024,14.588S92.512,238.714,92.512,238.714Z" transform="translate(-40.883 1.443)" fill="#2fb972" fill-rule="evenodd"/>
                <path id="Path_72255" data-name="Path 72255" d="M54.606,141.864l16.6-34.52,3.5-10.017a25.988,25.988,0,0,0-3.5,3.213,69.551,69.551,0,0,0-7.257,13.549,131.272,131.272,0,0,0-6.617,16.07C56.218,133.6,54.606,141.864,54.606,141.864Z" transform="translate(-40.883 0.823)" fill="#2fb972" fill-rule="evenodd"/>
                <path id="Path_72256" data-name="Path 72256" d="M194.04,171.485s10.938-2.755,14.128-4.727,15.054-5.9,17.467-5.9,7.858-3,7.858-1.065-5.661,5.086-7.858,5.086-15.383,5-17.467,7.941-4.279,9.06-6.14,9.06c-.7,0-1.992-1.041-3.592-3.238-.527-.724-1.12-2.312-2.163-4.048C195.677,173.606,194.04,171.485,194.04,171.485Z" transform="translate(-40.883 1.352)" fill="#2fb972" fill-rule="evenodd"/>
                <path id="Path_72257" data-name="Path 72257" d="M198.309,191.933s4.834-2.729,5.82-2.729l.765-1.695s-3.823,2.05-3.823,1.695v-1.223l3.823-1.863v-1.024s-4.236,1.222-4.815,2.1A35.293,35.293,0,0,0,198.309,191.933Z" transform="translate(-40.883 1.577)" fill="#2fb972" fill-rule="evenodd"/>
                <path id="Path_72258" data-name="Path 72258" d="M185.935,211.835l2.929-3.238s-2.6-3.742-2.6-4.248a20.132,20.132,0,0,0-.324,3.728C185.893,209.1,185.935,211.835,185.935,211.835Z" transform="translate(-40.883 1.741)" fill="#2fb972" fill-rule="evenodd"/>
                <path id="Path_72259" data-name="Path 72259" d="M106.167,86.322s1.665,10.556,10.1,13.152,23.9,4.643,27.245,3.07,10.454-5.492,10.454-8.953a6.748,6.748,0,0,1-3.353,5.883c-3.609,2.207-7.016,4.3-9.806,4.568s-21.82-2.18-25.567-3.576a20.98,20.98,0,0,1-6.752-5.107,15.353,15.353,0,0,1-3.156-6.882c-.186-1.017-.247-1.778-.247-1.778Z" transform="translate(-40.883 0.803)" fill="#fff" fill-rule="evenodd"/>
                <path id="Path_72260" data-name="Path 72260" d="M91.145,272.124s10.091-6,11.253-7.294,4.929-6.9,4.158-10.528a4.309,4.309,0,0,1,2.158-.987c.984,0,.956-3.088.956-3.088V254.3a98.359,98.359,0,0,0,10.368.937c3.783,0,9.141-.937,9.86-.937l-8.456,1.68-11.772-.744-.956,2.892s-1.7,6.836-4.719,8.665S91.145,274,91.145,274.9Z" transform="translate(-40.883 2.125)" fill="#1b3549" fill-rule="evenodd"/>
                <path id="Path_72261" data-name="Path 72261" d="M91.753,270.783s-2.221-7.915-1.11-9.372,10.635-3.3,11.323-3.3,0,4.616,0,4.616l1.724-4.616-.5-.768s-4.347.644-6.779,1.228-6.466,2.086-6.466,2.086a10.342,10.342,0,0,0,0,4.381A26.771,26.771,0,0,0,91.753,270.783Z" transform="translate(-40.883 2.19)" fill="#1b3549" fill-rule="evenodd"/>
              </g>
              <g id="Group_887" data-name="Group 887" transform="translate(231.927 0)">
                <g id="Group_8_Copy" data-name="Group 8 Copy" transform="translate(0 164.043)">
                  <path id="Path_72013" data-name="Path 72013" d="M72.91,273.558s7.632-21.4,7.632-23.743a11.427,11.427,0,0,0,4.252-4.925c1.441-3.3,1.407-7.866,2.325-9.4S99.185,201.7,99.185,201.7l.86-39.465s-9.236-1.591-11.081,0-1.3,5.076-4.169,6.6-9.052,21.63-9.052,24.5.376,10.372-.846,12.745-2.731,9.4-2.731,19.406c0,0-.822,4.49-3.034,7.249s-11.974,29.706-11.974,36.656c0,0-3.434,13.708-3.091,16.868.2,1.81,2.368,2.644,3.091,2.881,0,0,.971-2.881,1.4-4.195,0,0,7.254,1.744,10.574,4.625,0,0,2.606-9.776,3.778-14.742A5.838,5.838,0,0,0,72.91,273.558Z" transform="translate(-0.221 -57.699)" fill="#3a5971" fill-rule="evenodd"/>
                  <path id="Path_72014" data-name="Path 72014" d="M114.138,286.534s-10.3-4.7-14.975-4.011c0,0-.8-23.189,0-25.743s-1.294-4.212-.4-6.393.9-7.265.9-9.968.805-11.189,1.692-13.121-.9-17.619-.9-19.558-3.616-14.26-5.369-17.062-2.827-13.224,0-20.15,4.574-8.34,4.574-8.34,10.427,2.448,14.221,3.116,13.3,4.758,14.806,9.475c0,0-1.332,5.451-1.332,6.274a124.382,124.382,0,0,1-1.96,25.795c-2.494,12.877-6.865,36.213-6.865,37.8a11.784,11.784,0,0,1-2.013,5.736c-1,1.226.47,4.479.914,7.757s-3.088,16.554-3.088,19.281S114.138,286.534,114.138,286.534Z" transform="translate(-0.221 -57.693)" fill="#304d63" fill-rule="evenodd"/>
                  <path id="Path_72015" data-name="Path 72015" d="M99.975,176.584v17.183c0,.876,8.207,3.841,8.207,3.841l8.836-.614,2.781-16.26s-9.657-1.838-12.3-2.995S99.975,176.584,99.975,176.584Z" transform="translate(-0.221 -57.559)" fill="#254054" fill-rule="evenodd"/>
                  <path id="Path_72016" data-name="Path 72016" d="M55.712,274.385q-1.9,8.436-1.645,10.828c.2,1.81,2.368,2.644,3.091,2.881,0,0,.971-2.881,1.4-4.195,0,0,7.254,1.744,10.574,4.625,0,0,2.229-8.52,2.66-10.2a39.457,39.457,0,0,0-9.334-3.933C58.489,273.373,55.834,273.844,55.712,274.385Z" transform="translate(-0.221 -56.655)" fill="#9d9a91" fill-rule="evenodd"/>
                  <path id="Path_72017" data-name="Path 72017" d="M70.364,277.466l-2.215,10.255q.529.374.983.768s1.134-4.314,1.583-6.039.816-3.137,1.107-4.27Z" transform="translate(-0.221 -56.621)" fill="#716f67" fill-rule="evenodd"/>
                  <path id="Path_72018" data-name="Path 72018" d="M54.067,285.125c.158,1.453,1.591,2.279,2.523,2.669.228.1.86.289,1,.334,0,0,11.421.819,11.544.3.082-.344-.931-1-2.364-1.572-3.141-1.25-8.284-2.605-8.215-3.043C58.558,283.811,53.724,281.965,54.067,285.125Z" transform="translate(-0.221 -56.567)" fill="#504f4d" fill-rule="evenodd"/>
                  <path id="Path_72019" data-name="Path 72019" d="M100.045,162.24s-9.236-1.591-11.081,0c-1.417,1.222-1.423,3.561-2.65,5.269,0,0,4.141.185,6.209.5,2.42.365,7.258,1.676,7.258,1.676Z" transform="translate(-0.221 -57.699)" fill="#304d63" fill-rule="evenodd"/>
                  <path id="Path_72020" data-name="Path 72020" d="M95.875,168.667a35.558,35.558,0,0,1,3.791-6.479s10.062,2.5,14.673,3.244,12.847,4.63,14.354,9.347c0,0-.894,3.756-1.109,4.825,0,0-8.927-5.7-12.55-6.949-3.514-1.212-7.289-1.277-13.271-2.5C99.863,169.766,95.875,168.667,95.875,168.667Z" transform="translate(-0.221 -57.693)" fill="#304d63" fill-rule="evenodd"/>
                  <path id="Path_72022" data-name="Path 72022" d="M192.948,87.474s-2.462-2.389-2.16-4.071-2.072-2.45-2.786-3.195-6.875-8.134-6.415-9.777,3.347,1.128,4.689,0-4.165-6.486-2.327-8.619,4.218,2.238,4.959,3.314-2.065-6.137-.4-5.808c.251.049,2.012.773,2.277,1.373.742,1.681.865,4.849,1.629,5.471.245.2.243-2.186.4-2.662.229-.688.259-.958.875-1.228s1.255.6,1.387.938c.835,2.13.708,7.48,1.028,7.22.586-.477-.324-5.305,1.134-5.305,1.346,0,3.264,1.646,2.583,4.673s.593,3.579,1.407,5.889.083,3.217-.634,5.272,1.692,4.84-.773,6.515C198.221,88.564,192.948,87.474,192.948,87.474Z" transform="translate(-0.221 -58.649)" fill="#e0e0e0" fill-rule="evenodd"/>
                  <path id="Path_72023" data-name="Path 72023" d="M193.251,88.42a39.6,39.6,0,0,0-1.868-5.549c-.923-1.684-2.541-2.569-2.916-3.123-1.024-1.515-4.883-7.12-6.451-8.645s.862-1.817,2.035-.909a16.25,16.25,0,0,0,3.248,1.721s-3.248-8.555-3.248-10,1.385-1.711,2.431,0A69.55,69.55,0,0,1,189.571,69l-1.1-9.138a1.006,1.006,0,0,1,.237-.811c.43-.471,1.354-.756,1.909.558a37.119,37.119,0,0,1,1.193,5.623c.126.668.829,3.369.829,3.369s.009-1.468,0-1.771c-.086-3.1.235-4.4,1.107-4.4.788,0,1.181,1.7,1.723,5.093.149.936.691,3.19.691,3.19s.109-4.779,1.112-4.779a1.372,1.372,0,0,1,1.075.9c.635,1.619.635,4.74.35,7.127-.368,3.081,1.715,14.464,1.715,14.464Z" transform="translate(-0.221 -58.655)" fill="#edb79f" fill-rule="evenodd"/>
                  <path id="Path_72024" data-name="Path 72024" d="M193.251,88.309a38.071,38.071,0,0,0-1.734-5.4c-1.1-2.028-2.632-2.658-3.05-3.277-1.024-1.516-4.883-7.12-6.451-8.645s3.766,2.085,6.9,7.808c.479.873,2.534,2.07,3.518,3.769a34.457,34.457,0,0,1,1.987,5.741Z" transform="translate(-0.221 -58.544)" fill="#d5987c" fill-rule="evenodd" opacity="0.5"/>
                  <path id="Path_72025" data-name="Path 72025" d="M102.739,109.175s3.226-5.055,5.039-6.2a9.189,9.189,0,0,1,4.357-1.5c.764,0,2.95-2.609,4.2-2.609s0,2.609,0,2.609,1.527-1.441,2.578-1.441,1.277,1.441,1.277,1.441l-3.051,4.541Z" transform="translate(-0.221 -58.282)" fill="#edb79f" fill-rule="evenodd"/>
                  <path id="Path_72026" data-name="Path 72026" d="M90.772,162.373s9.459-10.176,11.827-12.511,5.455-11.076,6.367-13.48,4.879-11.309,3.568-13.055-3.568,0-3.568,0-.826,5.4-2.82,5.4-5.082,1.691-6.451,2.931-4.426,0-7.72,0-11.236,1.629-14.365-2.931S83.516,117.5,87.745,117.5,98.4,113.775,99.7,111.9s12.8-10.274,15.8-10.274,11.188.625,11.971,2.066,22.787,5.436,22.787,5.436,1.656,1.725,2.879,1.725,3.913-.172,3.913,1.047,3.028,2.132,5.57,2.132,7.251,1.036,10.317,1.036a63.775,63.775,0,0,0,11.3-1.036,57.72,57.72,0,0,0,9.992-3.178s.306-16.626-1.27-18.812-.524-4.584,1.27-4.584,7.891-.407,7.891,2.089-.633,6.189.884,8.653,3.108,14.444,3.108,16.868-16.124,10.808-24.156,12.233-19.553,1.158-28.821,16.683-13.956,21.117-13.956,23.94-3.908,3.944-5.151,7.346-1.957,7.255-6.559,6.444l1.291-6.444s-4.3-6.825-11.915-8.472-9.007-2.037-12.956-2.852C93.147,161.729,90.772,162.373,90.772,162.373Z" transform="translate(-0.221 -58.388)" fill="#2fb972" fill-rule="evenodd"/>
                  <path id="Path_72027" data-name="Path 72027" d="M112.534,123.014c-1.644-1.829-3.568,0-3.568,0s-.826,5.4-2.82,5.4-5.082,1.691-6.451,2.931-4.426,0-7.72,0c0,0,5.918-3.021,7.72-4.356,2.56-1.9,5.57-3.349,6.451-3.977.651-.463,2.531-1.973,3.649-1.973S112.534,123.014,112.534,123.014Z" transform="translate(-0.221 -58.075)" fill="#4181d5" fill-rule="evenodd"/>
                  <path id="Path_72028" data-name="Path 72028" d="M90.772,161.7l1.74-1.869a51.053,51.053,0,0,1,12.96.845c4.487,1.024,10.41,1.712,14.5,3.385,8.781,3.587,13.092,13.5,12.421,14.71a4.17,4.17,0,0,1-4.931,2.272l1.291-6.444a37.348,37.348,0,0,0-3.443-3.946,23.15,23.15,0,0,0-8.445-4.568,50.61,50.61,0,0,0-6.5-1.38c-2.345-.459-4.065-.919-6.359-1.394C93.274,161.094,90.772,161.7,90.772,161.7Z" transform="translate(-0.221 -57.716)" fill="#edb79f" fill-rule="evenodd"/>
                  <path id="Path_72029" data-name="Path 72029" d="M132.4,178.662a4.421,4.421,0,0,1-5.094,2.349s.708-4.41,1.163-6.533c.222-1.038.868-2.951.868-2.951a15.668,15.668,0,0,1,1.962,2.951C132.147,176.48,132.688,178.138,132.4,178.662Z" transform="translate(-0.221 -57.606)" fill="#2a538a" fill-rule="evenodd"/>
                  <path id="Path_72030" data-name="Path 72030" d="M159.877,97.534s-6.289,12.569-8.641,11.8-2.85-1.376-2.85-1.376l5.885-10.424Z" transform="translate(-0.221 -58.294)" fill="#edb79f" fill-rule="evenodd"/>
                  <path id="Path_72031" data-name="Path 72031" d="M131.321,112.291c-2.1,0-3.791-1.4-2.276-4.131s1.686-3.234,3.056-5.972a50.063,50.063,0,0,0,2.748-6.659c.74-2.113,1.176-3.831,1.665-5.714a23.885,23.885,0,0,1,3.893-8.225c2.214-2.849,3.66-3.412,5.888-5.167s7.124-3.631,11.188-1.815,9.471,7.869,7.6,14.659-3.521,6.791-4.054,7.327a10.3,10.3,0,0,1-3.541,2.423s-2.871,2.013-3.851,4.3-1.464,5.621-4.474,5.621-2.7.244-6.122,2.115-3.78,0-5.878,0S133.425,112.291,131.321,112.291Z" transform="translate(-0.221 -58.514)" fill="#4f3737" fill-rule="evenodd"/>
                  <path id="Path_72032" data-name="Path 72032" d="M133.822,98.4a61.916,61.916,0,0,0,2.517-7.975,24.418,24.418,0,0,1,3.233-7.7c2.233-3.671,4.495-4.551,6.723-6.307s7.124-3.631,11.188-1.815a14.885,14.885,0,0,1,6.068,5.56c.447.719-2.468-3.745-7.7-3.745-3.977,0-5.179,2.534-7.172,3.745s-3.631,1.133-6.22,2.045c-3.08,1.085-2.126,4.506-4.255,7.327-1.035,1.372-1.3,4.13-2.269,5.115A24.926,24.926,0,0,0,133.822,98.4Z" transform="translate(-0.221 -58.514)" fill="#685353" fill-rule="evenodd"/>
                  <path id="Path_72033" data-name="Path 72033" d="M115.487,127.087c.438-3.024,4.058-8.275,7.262-11.5a56.98,56.98,0,0,0,4.74-5.534,20.4,20.4,0,0,0,3.5-5.77,11.286,11.286,0,0,0,3.022.361c3.147,0,4.136-4.236,6.573-5.765,1.847-1.159,6.54,1.145,8.574,0,2.445-1.376,4.015-4.791,6.085-6.272,1.75-1.253,4.168.779,5.591,0,3.4-1.858,4.581-5.348,4.244-3.478a12.086,12.086,0,0,1-3.738,7.2,11.15,11.15,0,0,1-3.857,2.548s-2.986,2.106-3.851,4.3a21.13,21.13,0,0,0-1.938,7.468,31.149,31.149,0,0,0,.193,6.932c.639,4.591,4.921,8.386,1.745,16.489-2.613,6.664-11.638,7.709-16.325,8.251-10.97,1.268-16.643-2.42-19.174-4.151S114.718,132.4,115.487,127.087Z" transform="translate(-0.221 -58.377)" fill="#3f2727" fill-rule="evenodd"/>
                  <path id="Path_72035" data-name="Path 72035" d="M19.92,443.689s-1.572,4.824-5.824,3.217S13.137,440,13.137,440L78.358,288.184l3.1-6.395h4.282l2.075,4.712Z" transform="translate(-0.221 -56.581)" fill="#c6c6c6" fill-rule="evenodd"/>
                  <path id="Path_72036" data-name="Path 72036" d="M58.547,283.8s-1.781,8.486-4.375,11.833c-1.069,1.379-.223,2.863.965,4.329,1.7,2.093,4.555,3.992,5.322,4.885,1.3,1.52,1.74,3.675,4.068,4.79s7.142.364,7.142.364,2.74-1.5.681-3.9-4.75-7.254-4.75-8.256a12.486,12.486,0,0,1-.951-4.036,58.582,58.582,0,0,1,.951-6.6,26.153,26.153,0,0,0-4.324-2.01A41.6,41.6,0,0,0,58.547,283.8Z" transform="translate(-0.221 -56.562)" fill="#dfdede" fill-rule="evenodd"/>
                  <path id="Path_72037" data-name="Path 72037" d="M58.539,283.8s-.239,1.156-.345,1.6a6.045,6.045,0,0,1,2.278.364c.858.411,2.386,2.13,3.74,3.131a8.418,8.418,0,0,0,2.882,1.009c.1-.573.506-2.7.506-2.7a26.153,26.153,0,0,0-4.324-2.01A41.433,41.433,0,0,0,58.539,283.8Z" transform="translate(-0.221 -56.562)" fill="#edb79f" fill-rule="evenodd"/>
                  <path id="Path_72038" data-name="Path 72038" d="M54.21,298.411c1.242,2.618,5.311,5.215,6.249,6.308,1.3,1.52,1.457,3.5,3.784,4.617s6.49.936,6.49.936c-.914-.459-2.545-.845-3.24-1.656a32.95,32.95,0,0,1-3.477-4.69c-1.175-1.937-2.306-4.611-4.505-5.514C55.453,296.747,54.023,298.017,54.21,298.411Z" transform="translate(-0.221 -56.434)" fill="#d5987c" fill-rule="evenodd"/>
                  <path id="Path_72039" data-name="Path 72039" d="M53,296.982,53.846,295a11.144,11.144,0,0,0,.706-1.2c.147-.359,1.979-5.014,2.219-6.08s.528-.258,1.287-.258,1.065-.374,1.873.258c.49.385,2.4,3.216,5.262,5.072,1.123.73,1.66-.344,2.36-.344,1.781,0,.521,6.678,1.908,8.819s5.792,6.107,5.792,7.543-.637,2.611-1.094,2.611H68.8Z" transform="translate(-0.221 -56.531)" fill="#868686" fill-rule="evenodd"/>
                  <path id="Path_72040" data-name="Path 72040" d="M53,296.912l.838-2a10.526,10.526,0,0,1,2.758-.149,7.277,7.277,0,0,1,4.427,2.39,16.305,16.305,0,0,1,2.11,3.066,60.066,60.066,0,0,0,5.669,7.9c1.695,1.8,5.359,3.229,5.359,3.229H68.8Z" transform="translate(-0.221 -56.461)" fill="#d9d9d9" fill-rule="evenodd"/>
                  <path id="Path_72041" data-name="Path 72041" d="M53.361,299a2.643,2.643,0,0,1-.2-2.493c.5-.836,2.1-1,3.8-.433,4.125,1.38,5.529,5.142,6.41,6.763s5.154,6.713,6.639,7.578a6.524,6.524,0,0,0,2.236.942H63.775a29.526,29.526,0,0,1-3.049-5.061c-.494-1.113-3.067-2.7-4.921-4.376A12.585,12.585,0,0,1,53.361,299Z" transform="translate(-0.221 -56.451)" fill="#9da0a3" fill-rule="evenodd"/>
                  <path id="Path_72042" data-name="Path 72042" d="M19.92,442.231s-1.572,4.824-5.824,3.217-.959-6.908-.959-6.908Z" transform="translate(-0.221 -55.123)" fill="#2f2f2f" fill-rule="evenodd"/>
                  <path id="Path_72043" data-name="Path 72043" d="M156.67,448.238s1.4,4.876,5.708,3.419,1.2-6.869,1.2-6.869L100.232,281.534H94.945l-.7,7.222Z" transform="translate(-0.221 -56.583)" fill="#c6c6c6" fill-rule="evenodd"/>
                  <path id="Path_72044" data-name="Path 72044" d="M100.72,294.8s-.742,8.537-1.13,10.852c-.574,3.424-1.91,4.537-.211,5.594,1.048.652,19.17.58,19.17.58s1.62.4,1.62-1.606-8.912-4.493-9.909-5.593-1.072-6.618-1.072-6.618l-.172-3.878-8.1-2.318Z" transform="translate(-0.221 -56.487)" fill="#dfdede" fill-rule="evenodd"/>
                  <path id="Path_72045" data-name="Path 72045" d="M100.72,294.8a4.771,4.771,0,0,0,3.189,2.426c2.257.452,5.29,1.153,5.29,1.153l-.137-4.336-8.142-2.23Z" transform="translate(-0.221 -56.487)" fill="#edb79f" fill-rule="evenodd"/>
                  <path id="Path_72046" data-name="Path 72046" d="M99.339,299.805s-.542,2.152-.826,3.437A31.742,31.742,0,0,0,97.49,309.3c.069.942,1.051,2.29,1.628,2.29,1.815,0,21.4.279,21.4.279s1.432-2.2,0-3.6-9.167-4.029-9.167-5.02.144-2.36-.97-2.36-.931,1.83-2.664,1.83-2.278-1.183-4.643-2.524a6.532,6.532,0,0,0-3-.824C99.732,299.37,99.339,299.805,99.339,299.805Z" transform="translate(-0.221 -56.417)" fill="#868686" fill-rule="evenodd"/>
                  <path id="Path_72047" data-name="Path 72047" d="M97.652,309.857c.316.809,1.015,1.633,1.466,1.633,1.816,0,21.4.279,21.4.279a9.541,9.541,0,0,0,.557-1.107Z" transform="translate(-0.221 -56.32)" fill="#d9d9d9" fill-rule="evenodd"/>
                  <path id="Path_72048" data-name="Path 72048" d="M98.844,281.277l-1.094,12,14.585,4.582c.671-5.664,1.4-9.776,1.931-12.422a40.242,40.242,0,0,0-12.449-4.6A3.834,3.834,0,0,0,98.844,281.277Z" transform="translate(-0.221 -56.59)" fill="#9d9a91" fill-rule="evenodd"/>
                  <path id="Path_72049" data-name="Path 72049" d="M112.335,297.828c.671-5.663,1.481-9.8,1.939-12.42,0,0-1.32-.75-1.876-1.045L110.862,297.4Z" transform="translate(-0.221 -56.557)" fill="#716f67" fill-rule="evenodd"/>
                  <path id="Path_72050" data-name="Path 72050" d="M156.667,446.733s1.4,4.876,5.708,3.419,1.2-6.868,1.2-6.868Z" transform="translate(-0.221 -55.079)" fill="#2f2f2f" fill-rule="evenodd"/>
                  <path id="Path_72052" data-name="Path 72052" d="M10.116,417.38a1.177,1.177,0,0,1,1.1-1.179l11.646-.7h4.616a1.182,1.182,0,0,1,.251,2.335l-3.449.764a1.166,1.166,0,0,1-.251.027H11.286a1.175,1.175,0,0,1-1.17-1.181Z" transform="translate(-0.221 -55.337)" fill="#dcdcdc" fill-rule="evenodd"/>
                  <rect id="Rectangle_466" data-name="Rectangle 466" width="14.04" height="2.359" rx="1.169" transform="translate(9.895 360.931)" fill="#2c2a2b"/>
                  <path id="Path_72053" data-name="Path 72053" d="M25.325,383.485a1.177,1.177,0,0,1,1.1-1.179l11.646-.7h4.616a1.182,1.182,0,0,1,.251,2.333l-3.449.765a1.167,1.167,0,0,1-.251.027H26.5a1.176,1.176,0,0,1-1.17-1.181Z" transform="translate(-0.221 -55.653)" fill="#dcdcdc" fill-rule="evenodd"/>
                  <rect id="Rectangle_467" data-name="Rectangle 467" width="14.04" height="2.359" rx="1.169" transform="translate(25.104 326.721)" fill="#2c2a2b"/>
                  <path id="Path_72054" data-name="Path 72054" d="M39.365,349.59a1.177,1.177,0,0,1,1.1-1.179l11.646-.7h4.616a1.182,1.182,0,0,1,.251,2.334l-3.45.765a1.167,1.167,0,0,1-.251.027H40.535a1.176,1.176,0,0,1-1.17-1.181Z" transform="translate(-0.221 -55.968)" fill="#dcdcdc" fill-rule="evenodd"/>
                  <rect id="Rectangle_468" data-name="Rectangle 468" width="14.04" height="2.359" rx="1.169" transform="translate(39.144 292.509)" fill="#2c2a2b"/>
                  <path id="Path_72055" data-name="Path 72055" d="M54.482,312.977a1.177,1.177,0,0,1,1.1-1.179l11.646-.7h4.616a1.182,1.182,0,0,1,.251,2.335l-3.45.764a1.164,1.164,0,0,1-.251.027H55.652a1.175,1.175,0,0,1-1.17-1.181Z" transform="translate(-0.221 -56.308)" fill="#eae7e7" fill-rule="evenodd"/>
                  <path id="Path_72056" data-name="Path 72056" d="M54.482,313.038a1.174,1.174,0,0,1,1.169-1.18h11.7a1.174,1.174,0,0,1,1.169,1.18h0a1.174,1.174,0,0,1-1.169,1.179h-11.7a1.174,1.174,0,0,1-1.169-1.179Z" transform="translate(-0.221 -56.301)" fill="#2c2a2b" fill-rule="evenodd"/>
                  <path id="Path_72057" data-name="Path 72057" d="M95.505,313.54a1.177,1.177,0,0,1,1.1-1.179l11.646-.7h4.615a1.181,1.181,0,0,1,.251,2.333l-3.449.765a1.173,1.173,0,0,1-.251.027H96.675a1.176,1.176,0,0,1-1.17-1.181Z" transform="translate(-0.221 -56.303)" fill="#eae7e7" fill-rule="evenodd"/>
                  <path id="Path_72058" data-name="Path 72058" d="M95.505,313.6a1.174,1.174,0,0,1,1.169-1.179h11.7a1.174,1.174,0,0,1,1.169,1.179h0a1.175,1.175,0,0,1-1.169,1.18h-11.7a1.174,1.174,0,0,1-1.169-1.18Z" transform="translate(-0.221 -56.296)" fill="#2c2a2b" fill-rule="evenodd"/>
                  <path id="Path_72059" data-name="Path 72059" d="M107.224,350.759a1.176,1.176,0,0,1,1.1-1.179l11.646-.7h4.616a1.182,1.182,0,0,1,.251,2.335l-3.45.765a1.162,1.162,0,0,1-.251.027H108.394a1.175,1.175,0,0,1-1.17-1.181Z" transform="translate(-0.221 -55.957)" fill="#eae7e7" fill-rule="evenodd"/>
                  <rect id="Rectangle_469" data-name="Rectangle 469" width="14.04" height="2.359" rx="1.169" transform="translate(107.003 293.689)" fill="#2c2a2b"/>
                  <path id="Path_72060" data-name="Path 72060" d="M121.263,385.822a1.175,1.175,0,0,1,1.1-1.178l11.646-.7h4.615a1.182,1.182,0,0,1,.251,2.335l-3.449.765a1.172,1.172,0,0,1-.251.027H122.433a1.176,1.176,0,0,1-1.17-1.181Z" transform="translate(-0.221 -55.631)" fill="#dcdcdc" fill-rule="evenodd"/>
                  <rect id="Rectangle_470" data-name="Rectangle 470" width="14.04" height="2.359" rx="1.169" transform="translate(121.042 329.079)" fill="#2c2a2b"/>
                  <path id="Path_72061" data-name="Path 72061" d="M134.133,419.718a1.176,1.176,0,0,1,1.1-1.179l11.646-.7h4.616a1.182,1.182,0,0,1,.251,2.335l-3.45.765a1.157,1.157,0,0,1-.25.027H135.3a1.176,1.176,0,0,1-1.17-1.181Z" transform="translate(-0.221 -55.316)" fill="#dcdcdc" fill-rule="evenodd"/>
                  <rect id="Rectangle_471" data-name="Rectangle 471" width="14.04" height="2.359" rx="1.169" transform="translate(133.912 363.289)" fill="#2c2a2b"/>
                  <path id="Path_72062" data-name="Path 72062" d="M150.44,453.569s1.32,4.9,5.649,3.519,1.316-6.847,1.316-6.847L96.376,284.983l-1.578-2.4-9.051-.479,3.259,6.485Z" transform="translate(-0.221 -56.578)" fill="#d2d1d6" fill-rule="evenodd"/>
                  <path id="Path_72063" data-name="Path 72063" d="M96.38,284.987l-1.459-3.146H85.727l3.284,6.754Z" transform="translate(-0.221 -56.58)" fill="#2c2a2b" fill-rule="evenodd"/>
                  <path id="Path_72064" data-name="Path 72064" d="M150.436,452.018s1.319,4.9,5.649,3.519,1.316-6.847,1.316-6.847Z" transform="translate(-0.221 -55.029)" fill="#2f2f2f" fill-rule="evenodd"/>
                  <path id="Path_72065" data-name="Path 72065" d="M8.22,449.587S6.648,454.411,2.4,452.8s-.959-6.908-.959-6.908L70.952,284.088l1.7-2.312h9.064l-3.591,6.3Z" transform="translate(-0.221 -56.581)" fill="#d2d1d6" fill-rule="evenodd"/>
                  <path id="Path_72066" data-name="Path 72066" d="M70.952,284.088l1.7-2.312h9.064l-3.591,6.3Z" transform="translate(-0.221 -56.581)" fill="#2c2a2b" fill-rule="evenodd"/>
                  <path id="Path_72067" data-name="Path 72067" d="M8.22,448.075S6.648,452.9,2.4,451.292s-.959-6.908-.959-6.908Z" transform="translate(-0.221 -55.069)" fill="#2f2f2f" fill-rule="evenodd"/>
                  <rect id="Rectangle_472" data-name="Rectangle 472" width="29.249" height="3.539" transform="translate(70.733 221.73)" fill="#d8d8d8"/>
                </g>
                <g id="Group_592" data-name="Group 592" transform="translate(176.761 0)">
                  <g id="Group_229" data-name="Group 229" transform="translate(10.704 149.473)">
                    <rect id="Rectangle_134" data-name="Rectangle 134" width="2.92" height="0.999" transform="translate(7.718 1.002) rotate(-179.943)" fill="#fdcf03" stroke="#b7b7b7" stroke-width="1"/>
                    <path id="Path_656" data-name="Path 656" d="M272.86,181.333a6.16,6.16,0,0,0,12.211,1.221,6.264,6.264,0,0,0-.819-4.5,12.39,12.39,0,0,1-1.289-2.711c-.345-1.067-.607-2.094-.749-2.684a1.4,1.4,0,0,0-.557-.818l-.371-.261-1.323-1.074a1.474,1.474,0,0,0-1.856,0l-1.326,1.071-.372.26a1.4,1.4,0,0,0-.559.817c-.143.589-.409,1.619-.757,2.687a10.8,10.8,0,0,1-1.216,2.584A6.221,6.221,0,0,0,272.86,181.333Z" transform="translate(-272.86 -167.979)" fill="#fdcf03" stroke="#b7b7b7" stroke-width="1"/>
                    <path id="Path_657" data-name="Path 657" d="M277.576,168.767l3.094,0a.8.8,0,0,1,.791.8l0,1.711a.857.857,0,0,1-.855.861l-2.969,0a.858.858,0,0,1-.853-.863l0-1.711A.794.794,0,0,1,277.576,168.767Z" transform="translate(-272.86 -167.992)" fill="#fdcf03" stroke="#b7b7b7" stroke-width="1"/>
                  </g>
                  <g id="Group_230" data-name="Group 230">
                    <path id="Path_658" data-name="Path 658" d="M280.15,69.379V209.746H277.9V70.511C278.657,70.117,279.4,69.74,280.15,69.379Z" transform="translate(-262.156 -69.379)" fill="#d3745e"/>
                    <path id="Path_659" data-name="Path 659" d="M285.163,156.977a3.459,3.459,0,0,0-3.14-2.023h-6a3.461,3.461,0,0,0-3.14,2.023L262.157,180.3h33.734Z" transform="translate(-262.156 -21.652)" fill="#ee896c"/>
                    <path id="Path_660" data-name="Path 660" d="M279.023,180.064H262.156L264.708,183h28.615l2.552-2.939Z" transform="translate(-262.156 -21.419)" fill="#d3745e"/>
                  </g>
                </g>
              </g>
              <g id="Group_886" data-name="Group 886" transform="translate(0 225.773)">
                <g id="Group_591" data-name="Group 591">
                  <g id="Group_586" data-name="Group 586">
                    <g id="Group_545" data-name="Group 545" transform="translate(25.395 53.952)">
                      <path id="Path_72791" data-name="Path 72791" d="M633.677,1487.586s5.3-8.149,9.032-10.4,12.64-.38,12.894.357c.787,2.285-7.945,4.506-9.161,6.344s2.784,2.172-.718,5.179c-2.958,2.538-9.488,4.459-9.488,4.459Z" transform="translate(-526.676 -1476.112)" fill="#f9c5b4"/>
                      <path id="Path_72792" data-name="Path 72792" d="M628.52,1487.017c-1.6-3.724-2.186-3.991-2.186-3.991s-35.223,9.686-38.564,10.437-51.433-3.122-51.433-3.122l-18.618,32.416s65.523-6.576,73.952-8.659c13.929-3.442,37.791-21.384,37.791-21.384A12.392,12.392,0,0,0,628.52,1487.017Z" transform="translate(-517.719 -1476.048)" fill="#cee5e3"/>
                      <path id="Path_72793" data-name="Path 72793" d="M643.007,1486.253c.048-.033,2.121-1.966,4.159-3.835,1.5-1.375,2.567-3.274,3.211-3.8,1.52-1.235,2.232,2.106-.272,5.868a21.209,21.209,0,0,1-6.778,6.155C642.144,1491.239,643.007,1486.253,643.007,1486.253Z" transform="translate(-526.676 -1476.091)" fill="#ffb27d"/>
                    </g>
                    <path id="Path_72819" data-name="Path 72819" d="M543.055,1800.708s.793,12.912,3.169,15.949h36.557c-.231-1.287-1.266-4.466-5.836-5.273-5.777-1.014-15.446-5.11-18.941-12.815C554.321,1790.464,543.055,1800.708,543.055,1800.708Z" transform="translate(-488.673 -1477.632)" fill="#163560"/>
                    <path id="Path_72820" data-name="Path 72820" d="M478.182,1798.917s-2.41,16.075.719,16.365c.416.038,15.059.012,19.04.613,6.5.983,17.346.126,17.346.126a1.734,1.734,0,0,0,1.557-2.609,6.93,6.93,0,0,0-4.966-3.217c-5.757-1.117-15.351-5.386-18.714-13.151C489.623,1788.884,478.182,1798.917,478.182,1798.917Z" transform="translate(-477.296 -1477.647)" fill="#163560"/>
                    <path id="Path_72821" data-name="Path 72821" d="M560.249,1630.693s-9.2,32.467-35.538,88.834a487.565,487.565,0,0,0-18.7,45.279c-.5,1.4-.961,2.746-1.4,4.057q-1.049,3.119-1.922,5.934c-.437,1.386-.836,2.721-1.223,4.007-4.556,15.446-5.143,22.791-5.143,22.791a24.573,24.573,0,0,1-9.549,1.323,31.658,31.658,0,0,1-8.6-2.179s.262-10.469,1.36-24.908c.1-1.31.2-2.645.312-4.018.15-1.865.325-3.78.5-5.745.125-1.323.262-2.671.387-4.018,2.022-19.982,5.53-43,11.6-56.859,12.445-28.448,14.979-106.307,14.979-106.307Z" transform="translate(-477.296 -1479.459)" fill="#2fb972"/>
                    <path id="Path_72822" data-name="Path 72822" d="M567.114,1714.712c-3.17,22.767-4.781,40.694-5.542,54.263-.087,1.411-.15,2.772-.212,4.1-.1,2.116-.175,4.106-.249,5.971-.038,1.411-.075,2.759-.1,4.031a168.773,168.773,0,0,0,.412,19.554,30.525,30.525,0,0,1-9.786,1.688,52.85,52.85,0,0,1-10.86-.994s-1.6-8.013-3.482-19.7v-.013q-.318-1.965-.637-4.044-.43-2.8-.861-5.77c-.2-1.323-.387-2.671-.586-4.044-2.709-19.516-5.031-43.29-3.221-59.05,3.533-30.892-16.889-106.006-16.889-106.006l59.9-1.965A818.776,818.776,0,0,1,567.114,1714.712Z" transform="translate(-484.952 -1479.424)" fill="#2fb872"/>
                    <path id="Path_72823" data-name="Path 72823" d="M534.277,1486.409l9.734,7.276,14.068-2.989c-.2-1.295-1.123-6.662-1.969-11.523-.051-.287-.1-.572-.15-.854-.725-4.136-1.35-7.689-1.35-7.689l-13.14-6.61-4.9-2.464c.013.087.38,4.59.431,5.247C537.922,1478.476,534.277,1486.409,534.277,1486.409Z" transform="translate(-486.138 -1422.296)" fill="#ffb27d"/>
                    <path id="Path_72824" data-name="Path 72824" d="M557.1,1482.587c-.309-.131-19.138-5.74-21.183-5.058s-3.256,4.676-3.256,4.676l29.07,8.357S561.029,1484.252,557.1,1482.587Z" transform="translate(-486.19 -1422.148)" fill="#77a4e5"/>
                    <path id="Path_72825" data-name="Path 72825" d="M506.394,1610.05c3.187,14.694,69.727-31.413,68.841-40.381-.1-.985-.2-1.977-.293-2.962-1.228-12.487-2.406-24.7-2.487-32.677a113.429,113.429,0,0,0-2.268-20.413c-1.154-5.932-2.577-11.313-3.813-15.5a17.134,17.134,0,0,0-4.649-7.6,16.805,16.805,0,0,0-5.308-3.413,14.607,14.607,0,0,0-1.65-.582c-8.015-2.346-19.1-5.25-22.11-4.364-8.145,2.419-14.193,16.885-18.477,35.328C506.166,1552.005,504.313,1600.482,506.394,1610.05Z" transform="translate(-483.541 -1429.34)" fill="#cee5e3"/>
                    <path id="Path_72826" data-name="Path 72826" d="M537.989,1466.988c2.885,5.572,13.637,10.392,18.122,12.163-.051-.287-.1-.572-.15-.854-.725-4.136-1.35-7.689-1.35-7.689l-13.14-6.61C538.566,1463.95,536.8,1464.686,537.989,1466.988Z" transform="translate(-486.346 -1422.273)" fill="#f9c5b4"/>
                    <path id="Path_72827" data-name="Path 72827" d="M561,1470.133s-23.706,7.464-28.083-7.507-10.386-24.091,4.564-29.49,19.575-.566,22.24,4.073S567.049,1467.811,561,1470.133Z" transform="translate(-485.829 -1422.583)" fill="#f9c5b4"/>
                    <path id="Path_72828" data-name="Path 72828" d="M558.786,1435.841s-1.512,17.422-5.081,16.666-6.063-1.338-6.285,3.934c-.229,5.468.965,11.764-10.036,12.694s-22.309-28.155-19.287-33.578C526.817,1419.915,571.39,1416.766,558.786,1435.841Z" transform="translate(-484.46 -1422.658)" fill="#163560"/>
                    <path id="Path_72829" data-name="Path 72829" d="M573.227,1603.3c-6.591,2.4.114-6.609,0-8.488-.512-8.262,2.7-18.705,1.715-28.649L534.7,1541.877C534.7,1541.87,525.146,1602.9,573.227,1603.3Z" transform="translate(-487.199 -1442.5)" fill="#77a4e5"/>
                    <path id="Path_72830" data-name="Path 72830" d="M506.394,1599.81c17.181,28.7,19.917,39.655,19.917,39.655,14.954-1.536,40.577-28.031,48.7-35.1,0,0,1.1-32.6.219-40.61l-12.421-.322s-22.451,5.127-28.271-1.831-3.3-41.119-3.3-41.119l-17.062-3.325C506.166,1547.981,501.782,1592.114,506.394,1599.81Z" transform="translate(-483.381 -1428.509)" fill="#2fb972"/>
                    <path id="Path_72831" data-name="Path 72831" d="M608.34,1547.913s8.179-5.583,9.73-6.071,6.637-1.013,6.873-.61.933,1.642.044,2.062-1.995.273-1.663.565,3.675-1.313,4.446.408,1.45,7.615-2.473,9.4-13.606.173-14.3.378C605.072,1555.785,608.34,1547.913,608.34,1547.913Z" transform="translate(-497.123 -1439.746)" fill="#f9c5b4"/>
                    <path id="Path_72832" data-name="Path 72832" d="M608.416,1546.823s-39.917,6.848-43.454,5.11c-5.646-2.775,2.19-43.65,2.19-43.65s.336-9.264-10.385-11.45c-9.316-1.9-18.3,5.146-18.3,5.146s-8.175,7.383-7.131,15.572c2.315,18.151,5.917,55.07,17.946,60.729,15.515,7.3,60.411-20.24,60.411-20.24a7.973,7.973,0,0,0,1.282-5.279A12.323,12.323,0,0,0,608.416,1546.823Z" transform="translate(-490.417 -1435.823)" fill="#cee5e3"/>
                    <path id="Path_72833" data-name="Path 72833" d="M527.935,1520.438l3.309.723s6.991-30.544,30.482-30.692a16.805,16.805,0,0,0-5.308-3.413C547.809,1489.391,532.861,1496.81,527.935,1520.438Z" transform="translate(-485.697 -1432.513)" fill="#2fb972"/>
                    <g id="Group_559" data-name="Group 559" transform="translate(48.775 289.558)">
                      <path id="Path_72834" data-name="Path 72834" d="M561.572,1767.45c-.087,1.411-.15,2.771-.212,4.1a89.271,89.271,0,0,1-21.944,1.032c-1.311-.089-2.521-.2-3.62-.316-.2-1.323-.387-2.671-.586-4.044C541.138,1768.853,551.374,1769.529,561.572,1767.45Z" transform="translate(-535.21 -1767.45)" fill="#fff"/>
                    </g>
                    <g id="Group_560" data-name="Group 560" transform="translate(50.109 299.621)">
                      <path id="Path_72835" data-name="Path 72835" d="M561.11,1777.42c-.038,1.411-.075,2.76-.1,4.031a89.442,89.442,0,0,1-20.559.794c-1.136-.076-2.185-.164-3.158-.252v-.013q-.318-1.965-.637-4.044A90.247,90.247,0,0,0,561.11,1777.42Z" transform="translate(-536.656 -1777.42)" fill="#fff"/>
                    </g>
                    <g id="Group_561" data-name="Group 561" transform="translate(3.052 282.591)" opacity="0.5">
                      <path id="Path_72836" data-name="Path 72836" d="M506.012,1763.305c-.5,1.4-.961,2.746-1.4,4.057a89.208,89.208,0,0,1-20.634-1.978c-1.323-.277-2.534-.555-3.632-.82.125-1.323.262-2.671.387-4.018A88.594,88.594,0,0,0,506.012,1763.305Z" transform="translate(-480.348 -1760.547)" fill="#fff"/>
                    </g>
                    <g id="Group_562" data-name="Group 562" transform="translate(2.24 292.357)" opacity="0.5">
                      <path id="Path_72837" data-name="Path 72837" d="M502.691,1773.208c-.437,1.386-.836,2.721-1.223,4.007a92.941,92.941,0,0,1-17.763-2.016c-1.548-.327-2.946-.655-4.169-.958.1-1.31.2-2.645.312-4.018A93.358,93.358,0,0,0,502.691,1773.208Z" transform="translate(-479.536 -1770.223)" fill="#fff"/>
                    </g>
                  </g>
                </g>
              </g>
            </g>
          </g>
        </g>
      </g>
    </g>
    <g id="Group_1218" data-name="Group 1218" transform="translate(-168 47)">
      <g id="_146541179_78d17417-360b-471b-95d6-b390b91e98a9" data-name="146541179_78d17417-360b-471b-95d6-b390b91e98a9" transform="translate(-5440.549 -4375.731) rotate(-14)">
        <path id="Path_77279" data-name="Path 77279" d="M817.425,1298.91l-.017-.066a.552.552,0,0,1-.025-.167l-.039-12.958a.027.027,0,0,0,0-.015.008.008,0,0,0-.009,0,6.254,6.254,0,0,1-2.287.066c-.113-.018-.23-.04-.348-.066a.009.009,0,0,0-.009,0,.026.026,0,0,0,0,.015l-.039,12.958a.561.561,0,0,1-.026.169l-.733,2.911a3.307,3.307,0,0,0-.116,1.442l.952,6.875a.022.022,0,0,0,0,.009.763.763,0,0,0,.7.538h0a1.634,1.634,0,0,0,1.285-1.109c.814-1.982,1.12-6.538.711-10.6Z" transform="translate(-109.885 -1133.328)" fill="#adc8fe"/>
        <path id="Path_77280" data-name="Path 77280" d="M875.433,1750.836c0-.009-.008-.014-.014-.011a.023.023,0,0,0-.008.022c.408,4.05.1,8.594-.707,10.568a1.61,1.61,0,0,1-1.266,1.092h0a.742.742,0,0,1-.683-.524c0-.008-.009-.01-.014-.006a.026.026,0,0,0-.007.023l.206,1.49a2.9,2.9,0,0,0,.17.665c.2.511.543.816.915.816s.714-.3.915-.816a2.9,2.9,0,0,0,.17-.665l1.159-8.364a3.3,3.3,0,0,0-.115-1.44Z" transform="translate(-167.893 -1585.254)" fill="#adc8fe"/>
        <path id="Path_77281" data-name="Path 77281" d="M706.129,118.742a3.5,3.5,0,0,0-2.869,2.03,9.781,9.781,0,0,0-1.193,4.881v11.187a28.826,28.826,0,0,0,.7,6.383l.406,1.787c-.092.228-1.351,3.374-1.165,4.651a.024.024,0,0,0,0,.01,3.651,3.651,0,0,0,2.1,1.617,2.968,2.968,0,0,0,.767.1,2.91,2.91,0,0,0,1.5-.419h0a3.475,3.475,0,0,0,1.411-2.187,3.342,3.342,0,0,0-.1-1.793,2.029,2.029,0,0,0-2.066-1.578,2.836,2.836,0,0,1-1.417-.445h.052c3.456,0,4.523-5.938,5.464-11.183.16-.89.311-1.731.471-2.532a.024.024,0,0,0,0-.006v-5.593A9.781,9.781,0,0,0,709,120.772,3.5,3.5,0,0,0,706.129,118.742Z" transform="translate(0 0)" fill="#ee896c"/>
        <path id="Path_77282" data-name="Path 77282" d="M710.45,573.205l-.05-.137,0-.009c-.034-.093-.066-.178-.095-.253-.072-.19-.123-.316-.136-.349l.406-1.787c.144-.632.267-1.286.368-1.943.02-.131.039-.264.058-.4a29.583,29.583,0,0,0,.264-3.227c.007-.272.011-.547.011-.818v-5.595c0-.01,0-.018-.01-.02s-.011,0-.013.013c-.16.8-.311,1.643-.471,2.533-.94,5.232-2,11.155-5.443,11.155l-.108,0s-.01.006-.012.015a.026.026,0,0,0,.006.022,2.767,2.767,0,0,0,1.477.488,2.009,2.009,0,0,1,2.048,1.559,3.279,3.279,0,0,1,.1,1.76,3.438,3.438,0,0,1-1.4,2.163,3.178,3.178,0,0,1-4.344-1.291.008.008,0,0,0-.014,0,.027.027,0,0,0-.005.022s0,.006,0,.013c.007.044.014.08.022.112a.868.868,0,0,0,.036.111,3.636,3.636,0,0,0,2.74,2c.118.026.236.048.349.066a6.258,6.258,0,0,0,.971.075,6.182,6.182,0,0,0,1.321-.141,3.636,3.636,0,0,0,2.74-2,1.44,1.44,0,0,0,.079-.53c0-.051,0-.106,0-.162A14.8,14.8,0,0,0,710.45,573.205Z" transform="translate(-1.082 -427.284)" fill="#ee896c"/>
        <path id="Path_77283" data-name="Path 77283" d="M865.232,1156.585c-.1,0-.146.129-.146.257a.4.4,0,0,0,.036.176.125.125,0,0,0,.11.081c.1,0,.146-.129.146-.257a.4.4,0,0,0-.036-.176A.125.125,0,0,0,865.232,1156.585Z" transform="translate(-160.376 -1008.139)" fill="#77c5cc"/>
        <path id="Path_77284" data-name="Path 77284" d="M760.023,888.6c-.1,0-.146.129-.146.257a.4.4,0,0,0,.036.176.125.125,0,0,0,.11.081c.1,0,.146-.129.146-.257a.4.4,0,0,0-.036-.176A.125.125,0,0,0,760.023,888.6Z" transform="translate(-56.922 -747.822)" fill="#77c5cc"/>
        <path id="Path_77285" data-name="Path 77285" d="M1014.111,862.791c-.1,0-.146.129-.146.257a.4.4,0,0,0,.036.176.125.125,0,0,0,.11.081c.1,0,.146-.129.146-.257a.4.4,0,0,0-.036-.176A.125.125,0,0,0,1014.111,862.791Z" transform="translate(-306.772 -722.753)" fill="#77c5cc"/>
        <path id="Path_77286" data-name="Path 77286" d="M924.783,700.016c-.1,0-.146.129-.146.257a.4.4,0,0,0,.036.176.125.125,0,0,0,.11.081c.1,0,.146-.129.146-.257a.4.4,0,0,0-.036-.176A.125.125,0,0,0,924.783,700.016Z" transform="translate(-218.934 -564.637)" fill="#77c5cc"/>
        <path id="Path_77287" data-name="Path 77287" d="M795.752,501.508c-.1,0-.146.129-.146.257a.4.4,0,0,0,.036.176.125.125,0,0,0,.11.081c.1,0,.146-.129.146-.257a.4.4,0,0,0-.036-.176A.125.125,0,0,0,795.752,501.508Z" transform="translate(-92.055 -371.904)" fill="#77c5cc"/>
        <path id="Path_77288" data-name="Path 77288" d="M1097.486,572.973c-.1,0-.146.129-.146.257a.4.4,0,0,0,.036.176.125.125,0,0,0,.11.081c.1,0,.146-.129.146-.257a.4.4,0,0,0-.036-.176A.125.125,0,0,0,1097.486,572.973Z" transform="translate(-388.756 -441.23)" fill="#77c5cc"/>
        <path id="Path_77289" data-name="Path 77289" d="M982.349,374.465c-.1,0-.146.129-.146.257a.4.4,0,0,0,.036.176.125.125,0,0,0,.11.081c.1,0,.146-.129.146-.257a.4.4,0,0,0-.036-.176A.125.125,0,0,0,982.349,374.465Z" transform="translate(-275.539 -248.466)" fill="#77c5cc"/>
        <path id="Path_77290" data-name="Path 77290" d="M863.246,176.471c.1,0,.146-.129.146-.257a.4.4,0,0,0-.036-.176.125.125,0,0,0-.11-.081c-.1,0-.146.129-.146.257a.4.4,0,0,0,.036.176A.125.125,0,0,0,863.246,176.471Z" transform="translate(-158.423 -55.591)" fill="#77c5cc"/>
        <path id="Path_77291" data-name="Path 77291" d="M1111.382,275.209c-.1,0-.146.129-.146.257a.4.4,0,0,0,.036.176.125.125,0,0,0,.11.081c.1,0,.146-.129.146-.257a.4.4,0,0,0-.036-.176A.125.125,0,0,0,1111.382,275.209Z" transform="translate(-402.421 -152.027)" fill="#77c5cc"/>
        <path id="Path_77292" data-name="Path 77292" d="M728.259,310.941c-.1,0-.146.129-.146.257a.4.4,0,0,0,.036.176.125.125,0,0,0,.11.081c.1,0,.146-.129.146-.257a.4.4,0,0,0-.036-.176A.125.125,0,0,0,728.259,310.941Z" transform="translate(-25.687 -186.745)" fill="#77c5cc"/>
        <path id="Path_77293" data-name="Path 77293" d="M1083.591,1210.184c-.1,0-.146.13-.146.257a.4.4,0,0,0,.036.176.125.125,0,0,0,.11.081c.1,0,.146-.13.146-.257a.4.4,0,0,0-.036-.176A.125.125,0,0,0,1083.591,1210.184Z" transform="translate(-375.093 -1060.204)" fill="#77c5cc"/>
        <path id="Path_77294" data-name="Path 77294" d="M1083.591,1021.6c-.1,0-.146.129-.146.257a.4.4,0,0,0,.036.176.125.125,0,0,0,.11.081c.1,0,.146-.129.146-.257a.4.4,0,0,0-.036-.176A.125.125,0,0,0,1083.591,1021.6Z" transform="translate(-375.093 -877.013)" fill="#77c5cc"/>
        <path id="Path_77295" data-name="Path 77295" d="M1159.02,731.778c-.1,0-.146.129-.146.257a.4.4,0,0,0,.036.176.125.125,0,0,0,.11.081c.1,0,.146-.129.146-.257a.4.4,0,0,0-.036-.176A.125.125,0,0,0,1159.02,731.778Z" transform="translate(-449.264 -595.49)" fill="#77c5cc"/>
        <path id="Path_77296" data-name="Path 77296" d="M933.9,139.54a2.827,2.827,0,0,0-.8-.408c-.125-.04-.237-.068-.328-.09-.074-.018-.138-.034-.186-.051a.07.07,0,0,0-.078.025.207.207,0,0,0-.045.113.282.282,0,0,0,.015.134.122.122,0,0,0,.066.076c.058.02.127.037.206.057s.195.048.311.086a2.816,2.816,0,0,1,1.2.77,7.188,7.188,0,0,1,1.407,2.407.123.123,0,0,0,.066.077.065.065,0,0,0,.021,0,.077.077,0,0,0,.057-.029.207.207,0,0,0,.045-.113.282.282,0,0,0-.015-.133A6.362,6.362,0,0,0,933.9,139.54Z" transform="translate(-226.627 -19.671)" fill="#42979e"/>
        <path id="Path_77297" data-name="Path 77297" d="M1138.985,871.01a.072.072,0,0,0-.078.028.211.211,0,0,0-.044.114,11.873,11.873,0,0,1-.21,1.278.231.231,0,0,0,.061.229.068.068,0,0,0,.037.012.07.07,0,0,0,.043-.016.17.17,0,0,0,.055-.1,12.464,12.464,0,0,0,.22-1.338.281.281,0,0,0-.017-.133A.119.119,0,0,0,1138.985,871.01Z" transform="translate(-429.375 -730.731)" fill="#42979e"/>
        <path id="Path_77298" data-name="Path 77298" d="M721.032,567.811h0a.093.093,0,0,0-.073.056.257.257,0,0,0-.028.127c.015.9.023,1.816.023,2.716,0,.414,0,.822-.006,1.238q0,.069,0,.137c0,.055,0,.109,0,.164v.055a.255.255,0,0,0,.029.127.092.092,0,0,0,.073.054h0c.057,0,.1-.078.1-.175V572.3c0-.074,0-.148,0-.222,0-.056,0-.113,0-.169,0-.392.006-.8.006-1.2,0-.906-.008-1.823-.023-2.727C721.134,567.887,721.088,567.811,721.032,567.811Z" transform="translate(-18.621 -436.208)" fill="#42979e"/>
        <path id="Path_77299" data-name="Path 77299" d="M767.388,1000.5c-.017-.094-.075-.147-.13-.118a.218.218,0,0,0-.07.222l.179,1.006a2.139,2.139,0,0,1,.044.367.687.687,0,0,1-.01.121,1.244,1.244,0,0,1-.108.29,1.974,1.974,0,0,0-.077.187,1.079,1.079,0,0,0-.054.245.277.277,0,0,0,.018.133.116.116,0,0,0,.068.073l.018,0a.079.079,0,0,0,.06-.033.215.215,0,0,0,.043-.115.56.56,0,0,1,.029-.127,1.827,1.827,0,0,1,.072-.172l.027-.059a1.368,1.368,0,0,0,.1-.321,1.275,1.275,0,0,0,.019-.224,2.648,2.648,0,0,0-.052-.465Z" transform="translate(-64.084 -856.393)" fill="#42979e"/>
        <path id="Path_77300" data-name="Path 77300" d="M1005.253,1265.018a.067.067,0,0,0-.08-.015,6.019,6.019,0,0,1-.564.249c-.056.021-.092.117-.079.212s.054.139.1.139a.062.062,0,0,0,.023,0,6.24,6.24,0,0,0,.578-.255.139.139,0,0,0,.062-.086.289.289,0,0,0,.008-.135A.187.187,0,0,0,1005.253,1265.018Z" transform="translate(-297.492 -1113.446)" fill="#42979e"/>
        <path id="Path_77301" data-name="Path 77301" d="M835.837,1789.589a.067.067,0,0,0-.079-.017.135.135,0,0,0-.063.083l-.214.64,0,.009c-.085.255-.173.518-.245.8-.047.186-.09.392-.135.647a.288.288,0,0,0,.008.136.139.139,0,0,0,.062.086.066.066,0,0,0,.03.008.072.072,0,0,0,.049-.021.187.187,0,0,0,.051-.105c.043-.243.083-.436.127-.609.068-.267.154-.525.238-.774l.214-.641a.288.288,0,0,0,.01-.135A.19.19,0,0,0,835.837,1789.589Z" transform="translate(-130.882 -1622.989)" fill="#ab9f9b"/>
        <path id="Path_77302" data-name="Path 77302" d="M946.978,2185.646a.084.084,0,0,0-.075.047.245.245,0,0,0-.033.124.693.693,0,0,1-.025.162,1.62,1.62,0,0,1-.063.183,2.4,2.4,0,0,1-.292.557.589.589,0,0,1-.375.259.1.1,0,0,0-.072.06.263.263,0,0,0-.026.129.24.24,0,0,0,.035.122.086.086,0,0,0,.069.045h.006a.755.755,0,0,0,.491-.333,2.693,2.693,0,0,0,.338-.639,2.069,2.069,0,0,0,.08-.234,1.235,1.235,0,0,0,.044-.3C947.08,2185.733,947.035,2185.65,946.978,2185.646Z" transform="translate(-239.955 -2007.736)" fill="#ab9f9b"/>
        <path id="Path_77303" data-name="Path 77303" d="M1013.6,1412.849a.085.085,0,0,0-.076-.046c-.057.005-.1.089-.1.187,0,.064,0,.13,0,.195,0,.108,0,.218-.008.325a.266.266,0,0,0,.024.13.1.1,0,0,0,.071.063h.009c.054,0,.1-.07.1-.162.006-.119.009-.238.009-.356,0-.071,0-.143,0-.214A.241.241,0,0,0,1013.6,1412.849Z" transform="translate(-306.233 -1257.022)" fill="#ab9f9b"/>
        <path id="Path_77304" data-name="Path 77304" d="M1007.329,1614.005a.086.086,0,0,0-.076-.045.1.1,0,0,0-.072.059.261.261,0,0,0-.026.126v0c.008.241.012.486.012.728v.069c0,.1.047.178.1.178h0c.057,0,.1-.079.1-.177v-.07c0-.248,0-.5-.013-.748A.241.241,0,0,0,1007.329,1614.005Z" transform="translate(-300.075 -1452.42)" fill="#ab9f9b"/>
      </g>
      <path id="Path_72221" data-name="Path 72221" d="M72.954,154.508s-.881,12.47,8.1,13.853c0,0,2-2.9,4.2-6.068s3.42-5.67,4.66-5.67,7.306-2.846,8.5-4.53,5.132-4.035,7.453-4.035,4.017.721,4.017-4.313c0,0,2.705-2.5,1.353-5.367,0,0,2.286-3.188,0-5.48,0,0,1.492-4.265-.757-5.526,0,0-6.389-2.187-8.833-2.187a29.124,29.124,0,0,0-9.016,1.614v-4.527s3.4-4.353,3.4-6.506-2.169-2.953-2.786-2.083a34.657,34.657,0,0,1-4.961,5.343,4.229,4.229,0,0,0-.742.968,3.9,3.9,0,0,0-.352,1.1q-.5,6.8-1.186,8.275c-.75,1.626.332,7.758-.75,10.172s-4.986,3.865-6.192,5.766S72.954,154.508,72.954,154.508Z" transform="translate(-4822.382 -4550.741)" fill="#f3b7a3" fill-rule="evenodd"/>
      <path id="Path_72222" data-name="Path 72222" d="M72.955,154.508s-.1,3.285.058,4.69c.093.813,1.7,2.343,4.106.9A19.31,19.31,0,0,0,82.89,154.9a10.842,10.842,0,0,1,2.791-2.9c1.6-.839,2.337-.839,3.9-2.02,1.892-1.429,4.916-3.562,5.993-5.035,3.219-4.4-.624-4.263.451-8.345.719-2.729-1.238-3.763-1.527-5.473-.219-1.3-.7-3.361-3.932-3.361-2.368,0-1.8-3.27-1.32-5.424a9.92,9.92,0,0,1,.334-1.7s.54-.617.795-.91q5.051-5.823,4.467-6.153a1.218,1.218,0,0,0-1.6.1,38.356,38.356,0,0,1-4.049,4.552c-.191.177-.426.371-.665.559a3.459,3.459,0,0,0-1.354,2.449c0,.062-.009.12-.013.172q-.5,6.505-1.162,7.95c-.75,1.626.332,7.758-.75,10.172s-4.986,3.865-6.192,5.766S72.955,154.508,72.955,154.508Z" transform="translate(-4822.382 -4550.741)" fill="#f9c5b4" fill-rule="evenodd"/>
      <path id="Path_72223" data-name="Path 72223" d="M92.625,126.8v-4.527s3.4-4.353,3.4-6.506a2.576,2.576,0,0,0-.542-1.639s-.2,1.254-.343,1.815a10.475,10.475,0,0,1-1.318,2.953c-1.037,1.807-2.723,1.877-3.065,2.618-.382.828.278,3.572-.352,6.291C92.49,126.949,94.182,126.255,92.625,126.8Z" transform="translate(-4822.459 -4550.937)" fill="#db967e" fill-rule="evenodd"/>
      <path id="Path_72224" data-name="Path 72224" d="M96.775,130.719a6.251,6.251,0,0,1,3.445.108c1.064.355,3.183.64,5.847,1.177s5.2,1.05,5.2,1.05l.242-1.05a11.673,11.673,0,0,1-3.723-.422c-1.449-.534-3.626-.606-4.644-1.137s-2.561-1.766-4.137-1.766a5.117,5.117,0,0,0-3.548,1.685C94.724,131.112,95.773,131.011,96.775,130.719Z" transform="translate(-4821.643 -4550.937)" fill="#db967e" fill-rule="evenodd"/>
      <path id="Path_72225" data-name="Path 72225" d="M98.229,136.571s-1.475.757-.774-.572,2.053-1.3,3.179-.827a11.53,11.53,0,0,0,3.986,1.1,7.842,7.842,0,0,1,3.782.608,14.151,14.151,0,0,0,2.915,1.088v.459a25.687,25.687,0,0,0-3.777-1,31.707,31.707,0,0,1-5.814-.544A13.142,13.142,0,0,0,98.229,136.571Z" transform="translate(-4821.643 -4550.937)" fill="#db967e" fill-rule="evenodd"/>
      <path id="Path_72228" data-name="Path 72228" d="M73.173,159.9s2.163,3.542,3.832,3.542,2.733-2.581,4.041-4.03,3.113-1.78,3.873-2.39,2.834-2.733,3.631-2.2a4.826,4.826,0,0,0,3.843,0,19.752,19.752,0,0,0,4.843-4.428,3.9,3.9,0,0,0,.2-.339c.818-1.555,1.844-1.958,3.57-2.894s3.981-.323,5.513-.39,3.059-.17,3.059-.17.006,1.883-3.225,1.537a7.045,7.045,0,0,0-3.619.821,34.6,34.6,0,0,0-3.759,2.433,11.759,11.759,0,0,1-1.094,1.244,19.419,19.419,0,0,1-5.241,3.079,14.666,14.666,0,0,1-2.973,1.006,2.379,2.379,0,0,0-1.189.881,17.183,17.183,0,0,0-1.6,2.3c-1.291,2.07-5.833,8.7-5.833,8.7s-4.521-.95-5.834-3.243A23.579,23.579,0,0,1,73.173,159.9Z" transform="translate(-4822.563 -4551.335)" fill="#e69f87" fill-rule="evenodd"/>
      <path id="Path_72229" data-name="Path 72229" d="M97.508,141.378a2.351,2.351,0,0,1,2.97-.514c1.857.927,1.318,1.315,2.509,1.315H106.3a5.731,5.731,0,0,1,3.085.789c.691.529.657.7.657.7a5.075,5.075,0,0,1-2.068-.416,10.981,10.981,0,0,0-3.709-.523c-.964,0-1.8.269-2.328-.285a3.709,3.709,0,0,0-3.038-.532A1.158,1.158,0,0,1,97.508,141.378Z" transform="translate(-4821.643 -4550.937)" fill="#db967e" fill-rule="evenodd"/>
    </g>
    <path id="Path_77308" data-name="Path 77308" d="M41.337,22.923l-.028-.082a7.106,7.106,0,0,1-.43-3.95,4.473,4.473,0,0,1,.552-1.345h0a.272.272,0,0,0,.038-.144V16.073c0-.1-.046-.185-.107-.2a1.275,1.275,0,0,1-.677-.5,2.141,2.141,0,0,1-.354-1.173c0-.111-.058-.2-.127-.2h-.331l-.7-1.928a3.071,3.071,0,0,0,.064-.619,3.03,3.03,0,0,0-.14-.931h.438c.062,0,.114-.074.125-.172a15.644,15.644,0,0,0-.407-5.488,12.816,12.816,0,0,0-1.659-3.806.093.093,0,0,0-.137-.041.287.287,0,0,0-.038.049h0a12.754,12.754,0,0,0-1.659,3.806,15.65,15.65,0,0,0-.407,5.488l.018.172h.738a3.04,3.04,0,0,0-.153.956,3.317,3.317,0,0,0,.051.554L35.262,14h-.328c-.069,0-.125.09-.127.2a2.141,2.141,0,0,1-.354,1.173,1.275,1.275,0,0,1-.677.5c-.061.016-.106.1-.107.2v1.333a.272.272,0,0,0,.038.144h0a4.457,4.457,0,0,1,.555,1.341,7.148,7.148,0,0,1-.427,3.95l-.031.082c-.837,2.326-.572,8.253.809,18.117l.023.16h1.605a.116.116,0,0,0,.1-.072.3.3,0,0,0,.028-.17c-.226-2.174-.407-4.393-.539-6.608a52.893,52.893,0,0,1-.17-8.273,26.59,26.59,0,0,1,.529-3.175,33.987,33.987,0,0,0,.692-4.344c.134-1.372.209-2.758.224-4.147h.936c.015,1.389.09,2.775.224,4.147a34,34,0,0,0,.689,4.344,26.59,26.59,0,0,1,.529,3.175,53.6,53.6,0,0,1-.17,8.277c-.132,2.211-.313,4.43-.539,6.6a.3.3,0,0,0,.028.17.116.116,0,0,0,.1.072h1.605l.023-.16C41.91,31.175,42.174,25.249,41.337,22.923ZM36.2,11.463c0-1.038.626-1.879,1.392-1.879s1.394.841,1.394,1.879-.626,1.874-1.394,1.874S36.2,12.484,36.2,11.463Zm1.427-9.774A12.4,12.4,0,0,1,39.01,5.019a15.018,15.018,0,0,1,.412,5.029A4.3,4.3,0,0,0,38.587,8.2a2.724,2.724,0,0,0-.972-.771Zm-2.05,8.417a14.947,14.947,0,0,1,.407-5.086,12.438,12.438,0,0,1,1.389-3.331v5.9a.216.216,0,0,0,.1.2,2.433,2.433,0,0,1,.977.742,3.772,3.772,0,0,1,.728,1.583h-.254A1.617,1.617,0,0,0,37.6,9.17a1.594,1.594,0,0,0-1.326.919ZM34.021,23.148l.031-.078a7.567,7.567,0,0,0,.448-4.3,5.034,5.034,0,0,0-.338-.976,1.7,1.7,0,0,1,.679.664c.733,1.272.084,3.589-.13,4.352l-.031.111c-.873,3.154-.687,9.175.549,17.867h-.392C33.5,31.257,33.245,25.318,34.021,23.148ZM36.626,18.5a34.148,34.148,0,0,1-.679,4.274A26.51,26.51,0,0,0,35.4,26.02a54.252,54.252,0,0,0,.168,8.388c.127,2.137.3,4.286.509,6.394h-.593c-1.226-8.671-1.43-14.635-.577-17.736l.031-.111c.232-.82.934-3.326.084-4.8a2,2,0,0,0-1.1-.923v-.993a1.514,1.514,0,0,0,.7-.558,2.585,2.585,0,0,0,.43-1.272h1.8c-.016,1.368-.091,2.733-.224,4.085Zm1.526-4.512H35.56l.557-1.5a1.768,1.768,0,0,0,1.455,1.258,1.72,1.72,0,0,0,1.471-1.209L39.579,14Zm1.5,26.8h-.6c.214-2.108.389-4.258.509-6.4A53.871,53.871,0,0,0,39.727,26a26.5,26.5,0,0,0-.542-3.236,34.149,34.149,0,0,1-.679-4.274c-.133-1.357-.208-2.728-.224-4.1h1.806a2.585,2.585,0,0,0,.43,1.272,1.514,1.514,0,0,0,.7.558v.993a2.028,2.028,0,0,0-1.1.943c-.85,1.473-.148,3.975.084,4.8l.031.111C41.08,26.167,40.877,32.131,39.651,40.786Zm.651,0H39.91c1.236-8.7,1.422-14.717.549-17.891l-.031-.111c-.214-.763-.862-3.08-.13-4.352a1.7,1.7,0,0,1,.679-.664,5.034,5.034,0,0,0-.338.976,7.567,7.567,0,0,0,.448,4.3l.043.1C41.894,25.318,41.64,31.257,40.3,40.786Z" transform="matrix(0.951, -0.309, 0.309, 0.951, -5376.086, -4261.025)" fill="#1d1d1b" stroke="#adc8fe" stroke-width="1"/>
  </g>
</svg>
