<svg xmlns="http://www.w3.org/2000/svg" xmlns:xlink="http://www.w3.org/1999/xlink" width="74.755" height="74" viewBox="0 0 74.755 74">
  <defs>
    <clipPath id="clip-path">
      <rect id="Rectangle_513" data-name="Rectangle 513" width="60" height="60" fill="#fff"/>
    </clipPath>
  </defs>
  <g id="Group_864" data-name="Group 864" transform="translate(-314.524 -767)">
    <path id="Path_71947" data-name="Path 71947" d="M145.526,102.865h5.755" transform="translate(195.998 668)" fill="rgba(0,0,0,0)" stroke="#bcc2c8" stroke-linecap="round" stroke-linejoin="round" stroke-width="2"/>
    <path id="Path_71948" data-name="Path 71948" d="M148.4,100v5.73" transform="translate(195.998 668)" fill="rgba(0,0,0,0)" stroke="#bcc2c8" stroke-linecap="round" stroke-linejoin="round" stroke-width="2"/>
    <path id="Path_71949" data-name="Path 71949" d="M119.526,114.865h5.755" transform="translate(195.998 668)" fill="rgba(0,0,0,0)" stroke="#bcc2c8" stroke-linecap="round" stroke-linejoin="round" stroke-width="2"/>
    <path id="Path_71950" data-name="Path 71950" d="M122.4,112v5.73" transform="translate(195.998 668)" fill="rgba(0,0,0,0)" stroke="#bcc2c8" stroke-linecap="round" stroke-linejoin="round" stroke-width="2"/>
    <path id="Path_71951" data-name="Path 71951" d="M186.526,153.865h5.755" transform="translate(195.998 668)" fill="rgba(0,0,0,0)" stroke="#bcc2c8" stroke-linecap="round" stroke-linejoin="round" stroke-width="2"/>
    <path id="Path_71952" data-name="Path 71952" d="M189.4,151v5.73" transform="translate(195.998 668)" fill="rgba(0,0,0,0)" stroke="#bcc2c8" stroke-linecap="round" stroke-linejoin="round" stroke-width="2"/>
    <g id="Frame" transform="translate(318 781)" clip-path="url(#clip-path)">
      <path id="Path_72470" data-name="Path 72470" d="M29.744,38.625a5.652,5.652,0,0,0-3.3,3.656,5.85,5.85,0,0,0,.019,3.675.516.516,0,0,1-.149.612c-3.822,3.787-7.632,7.588-11.463,11.366A6.813,6.813,0,0,1,10.994,59.9c-.047.007-.086.068-.129.1H8.624a12.612,12.612,0,0,1-2.631-1.055,6.954,6.954,0,0,1-2.563-2.814c.244-.14.245-.144.6.054a7.1,7.1,0,0,0,3.426.959,7.237,7.237,0,0,0,5.329-2.252q5.468-5.422,10.932-10.848a.962.962,0,0,0,.293-1.039,6.185,6.185,0,0,1,4.6-7.66,6.5,6.5,0,0,1,3.1.059.9.9,0,0,0,1-.284c.427-.458.884-.889,1.329-1.329a2.75,2.75,0,0,0,1.008-2.217.524.524,0,0,1,.135-.435c.058-.012.127-.028.172.009A5.479,5.479,0,0,1,37.5,33.835a2.713,2.713,0,0,1-.751,2.582c-.569.642-1.207,1.222-1.819,1.826a.768.768,0,0,1-.8.254,6.728,6.728,0,0,0-4.158.12A2.04,2.04,0,0,1,29.744,38.625Z" fill="#388f63"/>
      <path id="Path_72471" data-name="Path 72471" d="M26.587,18.155c-.047.245-.231.458.07.723,2.459,2.167,4.9,4.355,7.346,6.537a.223.223,0,0,1,0,.317A12.934,12.934,0,0,1,31.828,27.8c-.3-.049-.458-.288-.654-.474a11.927,11.927,0,0,0-1.439-1.3,2.3,2.3,0,0,0-2.892.112c-.727.627-1.368,1.347-2.06,2.012-.284.273-.164.563-.1.87a6.075,6.075,0,0,1-.046,3.233c-.053.162-.019.42-.313.416q-2.56-2.77-5.121-5.538a3.832,3.832,0,0,0-.782-.777c-.625-.3-.9-.961-1.408-1.384a.559.559,0,0,1-.111-.137,1.818,1.818,0,0,0-2.321-.793A13.482,13.482,0,0,1,3.231,22.077c-.228-.154-.374-.4-.634-.51A12.9,12.9,0,0,1,.245,16.15a13.951,13.951,0,0,1,.148-5.864c.08-.358.206-.686.6-.8a.952.952,0,0,1,1,.319q3.032,3.032,6.083,6.047c1.257,1.246,2.373,1.25,3.615.016q2.191-2.173,4.377-4.349a2.137,2.137,0,0,0,.01-3.377Q13.038,5.11,9.989,2.093c-.3-.3-.6-.58-.464-1.059s.529-.579.946-.668a13.763,13.763,0,0,1,12.1,2.842,1.065,1.065,0,0,1,.115.128,12.641,12.641,0,0,1,2.258,8.233,10.693,10.693,0,0,1-.7,3.486.9.9,0,0,0,.259,1.133A20.093,20.093,0,0,1,26.587,18.155Z" fill="#2fb972"/>
      <path id="Path_72472" data-name="Path 72472" d="M39.195,30.1,56.438,45.536a1.4,1.4,0,0,1,.114.131,6.926,6.926,0,0,1,.1,7.132,7.26,7.26,0,0,1-5.261,3.947,7.827,7.827,0,0,1-5.462-.852c-.331-.184-.509-.546-.866-.69q-2.564-2.776-5.128-5.551-4.015-4.354-8.023-8.714c-.185-.2-.353-.414-.531-.621.084-.239.308-.289.509-.35a5.906,5.906,0,0,1,2.713-.314,2.963,2.963,0,0,0,2.87-.956c.3-.335.611-.657.89-1.009a2.331,2.331,0,0,0,.032-3.014,6.715,6.715,0,0,1-.429-.555,2.327,2.327,0,0,1-.089-2.543A5.33,5.33,0,0,1,39.195,30.1Z" fill="#2fb972"/>
      <path id="Path_72473" data-name="Path 72473" d="M24.328,32.674a5.445,5.445,0,0,0,.164-3.754.808.808,0,0,1,.244-.961c.606-.551,1.162-1.158,1.755-1.725a2.512,2.512,0,0,1,3.59-.119c.608.517,1.164,1.1,1.745,1.647.389.05.556.391.8.618.411.379.8.784,1.195,1.175a19.607,19.607,0,0,1,1.4,1.467.145.145,0,0,1-.044.147,3.127,3.127,0,0,1-1.195,2.886c-.48.43-.933.9-1.375,1.366a.61.61,0,0,1-.714.191A6.1,6.1,0,0,0,24,40.433a5.323,5.323,0,0,0,.215,2.77.586.586,0,0,1-.169.718C20.264,47.67,16.5,51.441,12.7,55.175a7.221,7.221,0,0,1-8.815,1.1c-.14-.082-.248-.263-.454-.147a6.911,6.911,0,0,1,1.115-8.073c3.834-3.868,7.72-7.685,11.571-11.535a.658.658,0,0,1,.781-.147,6.092,6.092,0,0,0,7.41-3.587A.488.488,0,0,0,24.328,32.674Z" fill="#40bb60"/>
      <path id="Path_72474" data-name="Path 72474" d="M33.749,29.662l-1.924-1.9c.62-.626,1.244-1.25,1.859-1.88.132-.135.33-.232.318-.466.25,0,.373-.2.522-.348q8.6-8.534,17.19-17.072a2.2,2.2,0,0,0,.424-.555c.59-1.146,1.193-2.286,1.785-3.433C54.471,2.941,55,2.848,55.84,3.669c.978.959,1.962,1.911,2.944,2.866a1.327,1.327,0,0,1-.736.99c-1.09.626-2.224,1.168-3.33,1.763a5.207,5.207,0,0,0-1.233.886Q43.96,19.648,34.424,29.111A1.666,1.666,0,0,1,33.749,29.662Z" fill="#e8eaf1"/>
      <path id="Path_72475" data-name="Path 72475" d="M33.749,29.662c.167-.19.325-.388.5-.567,6.109-6.073,12.235-12.127,18.315-18.228A12.491,12.491,0,0,1,55.885,8.5c.578-.289,1.128-.635,1.717-.9a2.4,2.4,0,0,0,1.181-1.074c.228.242.45.489.683.726.679.69.612,1.172-.254,1.639q-1.735.934-3.482,1.843a2.869,2.869,0,0,0-.71.511q-8.506,8.456-17.014,16.909c-.148.147-.358.261-.341.517-.694.765-1.458,1.462-2.186,2.195a.435.435,0,0,1-.358.169Q34.435,30.352,33.749,29.662Z" fill="#c6c9d2"/>
      <path id="Path_72476" data-name="Path 72476" d="M45.064,55.2a21.706,21.706,0,0,0,2.066,1.065,7.5,7.5,0,0,0,7.6-1.328A7.283,7.283,0,0,0,57.358,48.5a5.839,5.839,0,0,0-.612-2.294,1.044,1.044,0,0,1-.194-.543,7.8,7.8,0,0,1,3.407,7.381A7.636,7.636,0,0,1,54.171,59.4a7.552,7.552,0,0,1-7.5-2.413C46.124,56.405,45.6,55.8,45.064,55.2Z" fill="#2fb972"/>
      <path id="Path_72477" data-name="Path 72477" d="M2.6,21.566c.136-.154.2.009.277.069a13.141,13.141,0,0,0,6.153,2.581,13.52,13.52,0,0,0,6.425-.548.637.637,0,0,1,.766.193q1.16,1.2,2.206,2.5a13.5,13.5,0,0,1-11.4-.851A12.287,12.287,0,0,1,2.6,21.566Z" fill="#2fb972"/>
      <path id="Path_72478" data-name="Path 72478" d="M35.121,31.044l2.147-2.158c.111-.11.214-.233.4-.2q.765.709,1.529,1.417c-.043.375-.373.536-.6.765a2.4,2.4,0,0,0-.148,3.615,2.46,2.46,0,0,1,0,3.354,16.318,16.318,0,0,1-1.331,1.4,2.805,2.805,0,0,1-2.486.582,6.423,6.423,0,0,0-3.25.5c-.615-.5-1.063-1.153-1.637-1.689a5.48,5.48,0,0,1,4.109-.338.941.941,0,0,0,1.118-.3c.492-.557,1.054-1.052,1.575-1.585a2.583,2.583,0,0,0-.013-3.938c-.439-.444-.9-.864-1.356-1.294C35.159,31.128,35.14,31.085,35.121,31.044Z" fill="#2fb972"/>
      <path id="Path_72479" data-name="Path 72479" d="M26.587,18.155c-.68-.264-1.023-.936-1.618-1.312-.976-.618-1.108-1.366-.7-2.51a11.255,11.255,0,0,0,.344-5.8,13.269,13.269,0,0,0-1.9-4.969.609.609,0,0,1-.041-.225,12.951,12.951,0,0,1,4.46,7.6A12.676,12.676,0,0,1,26.587,18.155Z" fill="#2fb972"/>
      <path id="Path_72480" data-name="Path 72480" d="M52.278,54.261a2.238,2.238,0,0,1-.055-4.476,2.238,2.238,0,1,1,.055,4.476Z" fill="#fefefe"/>
      <path id="Path_72481" data-name="Path 72481" d="M12.182,54.831a.967.967,0,0,1-.847-1.272,1.917,1.917,0,0,1,.445-.612q4.259-4.224,8.514-8.452c.365-.363.753-.721,1.34-.436a.9.9,0,0,1,.353,1.419,2.832,2.832,0,0,1-.281.3q-4.318,4.29-8.633,8.583A1.443,1.443,0,0,1,12.182,54.831Z" fill="#086e2d"/>
      <path id="Path_72482" data-name="Path 72482" d="M8.863,51.452a.892.892,0,0,1-.744-1.441,1.964,1.964,0,0,1,.2-.217q4.436-4.407,8.869-8.818a.947.947,0,0,1,1.012-.288.911.911,0,0,1,.634.774,1.073,1.073,0,0,1-.452.955q-3.855,3.825-7.709,7.654c-.376.373-.754.74-1.125,1.118A.785.785,0,0,1,8.863,51.452Z" fill="#086e2d"/>
    </g>
  </g>
</svg>
