<svg xmlns="http://www.w3.org/2000/svg" xmlns:xlink="http://www.w3.org/1999/xlink" width="504.446" height="522" viewBox="0 0 504.446 522">
  <defs>
    <clipPath id="clip-path">
      <rect id="Rectangle_1795" data-name="Rectangle 1795" width="504.446" height="522" fill="#fbaf87"/>
    </clipPath>
  </defs>
  <g id="Group_622_3_" data-name="Group 622 (3)" clip-path="url(#clip-path)">
    <path id="Path_76035" data-name="Path 76035" d="M485.544,303.839c-14.081,48.751-44.423,102.2-89.087,119.594-67.473,26.3-73.525,89.5-195.952,89.072a217.842,217.842,0,0,1-53.172-6.521,186.649,186.649,0,0,1-25.176-8.348C49.613,467.749,9.9,396.666,4.208,320.708-3.255,220.8,56.262,170.4,95.018,140.68S178.031.651,298.424,0a210.3,210.3,0,0,1,54.641,6.66c40.875,10.73,82.941,36.566,108.211,75.946,1.889,2.957,3.7,5.961,5.459,9.085C500.857,152.292,504.75,237.36,485.544,303.839Z" transform="translate(3.401 -0.019)" fill="#e6fde8"/>
    <path id="Path_76036" data-name="Path 76036" d="M32.584,23.313H18.294V39.635h14.29Z" transform="translate(17.435 28.693)" fill="#100773" stroke="#000" stroke-linecap="round" stroke-linejoin="round" stroke-width="0.534"/>
    <path id="Path_76037" data-name="Path 76037" d="M28.54,26.969H91.429" transform="translate(27.199 33.192)" fill="#100773" stroke="#000" stroke-linecap="round" stroke-linejoin="round" stroke-width="0.534"/>
    <path id="Path_76038" data-name="Path 76038" d="M32.584,33.558H18.294V49.88h14.29Z" transform="translate(17.435 41.303)" fill="#100773" stroke="#000" stroke-linecap="round" stroke-linejoin="round" stroke-width="0.534"/>
    <path id="Path_76039" data-name="Path 76039" d="M28.54,37.219H91.429" transform="translate(27.199 45.808)" fill="#100773" stroke="#000" stroke-linecap="round" stroke-linejoin="round" stroke-width="0.534"/>
    <path id="Path_76040" data-name="Path 76040" d="M32.584,43.8H18.294V60.126h14.29Z" transform="translate(17.435 53.912)" fill="#100773" stroke="#000" stroke-linecap="round" stroke-linejoin="round" stroke-width="0.534"/>
    <path id="Path_76041" data-name="Path 76041" d="M28.54,47.465H91.429" transform="translate(27.199 58.418)" fill="#100773" stroke="#000" stroke-linecap="round" stroke-linejoin="round" stroke-width="0.534"/>
    <path id="Path_76042" data-name="Path 76042" d="M32.584,54.049H18.294V70.371h14.29Z" transform="translate(17.435 66.522)" fill="#100773" stroke="#000" stroke-linecap="round" stroke-linejoin="round" stroke-width="0.534"/>
    <path id="Path_76043" data-name="Path 76043" d="M28.54,57.71H91.429" transform="translate(27.199 71.028)" fill="#100773" stroke="#000" stroke-linecap="round" stroke-linejoin="round" stroke-width="0.534"/>
    <path id="Path_76044" data-name="Path 76044" d="M32.584,64.295H18.294V80.617h14.29Z" transform="translate(17.435 79.132)" fill="#100773" stroke="#000" stroke-linecap="round" stroke-linejoin="round" stroke-width="0.534"/>
    <path id="Path_76045" data-name="Path 76045" d="M28.54,67.956H91.429" transform="translate(27.199 83.638)" fill="#100773" stroke="#000" stroke-linecap="round" stroke-linejoin="round" stroke-width="0.534"/>
    <path id="Path_76046" data-name="Path 76046" d="M32.584,74.54H18.294V90.862h14.29Z" transform="translate(17.435 91.742)" fill="#100773" stroke="#000" stroke-linecap="round" stroke-linejoin="round" stroke-width="0.534"/>
    <path id="Path_76047" data-name="Path 76047" d="M28.54,78.2H91.429" transform="translate(27.199 96.248)" fill="#100773" stroke="#000" stroke-linecap="round" stroke-linejoin="round" stroke-width="0.534"/>
    <path id="Path_76048" data-name="Path 76048" d="M235.44,152.448h-9.831v11.23h9.831Z" transform="translate(215.008 187.628)" fill="#100773" stroke="#000" stroke-linecap="round" stroke-linejoin="round" stroke-width="0.534"/>
    <path id="Path_76049" data-name="Path 76049" d="M232.658,154.965h43.265" transform="translate(221.726 190.726)" fill="none" stroke="#000" stroke-linecap="round" stroke-linejoin="round" stroke-width="0.534"/>
    <path id="Path_76050" data-name="Path 76050" d="M235.44,159.492h-9.831v11.23h9.831Z" transform="translate(215.008 196.298)" fill="#100773" stroke="#000" stroke-linecap="round" stroke-linejoin="round" stroke-width="0.534"/>
    <path id="Path_76051" data-name="Path 76051" d="M232.658,162.009h43.265" transform="translate(221.726 199.396)" fill="none" stroke="#000" stroke-linecap="round" stroke-linejoin="round" stroke-width="0.534"/>
    <path id="Path_76052" data-name="Path 76052" d="M235.44,166.541h-9.831v11.232h9.831Z" transform="translate(215.008 204.974)" fill="#100773" stroke="#000" stroke-linecap="round" stroke-linejoin="round" stroke-width="0.534"/>
    <path id="Path_76053" data-name="Path 76053" d="M232.658,169.058h43.265" transform="translate(221.726 208.071)" fill="none" stroke="#000" stroke-linecap="round" stroke-linejoin="round" stroke-width="0.534"/>
    <path id="Path_76054" data-name="Path 76054" d="M235.44,173.591h-9.831v11.23h9.831Z" transform="translate(215.008 213.65)" fill="#100773" stroke="#000" stroke-linecap="round" stroke-linejoin="round" stroke-width="0.534"/>
    <path id="Path_76055" data-name="Path 76055" d="M232.658,176.108h43.265" transform="translate(221.726 216.748)" fill="none" stroke="#000" stroke-linecap="round" stroke-linejoin="round" stroke-width="0.534"/>
    <path id="Path_76056" data-name="Path 76056" d="M235.44,180.64h-9.831v11.232h9.831Z" transform="translate(215.008 222.326)" fill="#100773" stroke="#000" stroke-linecap="round" stroke-linejoin="round" stroke-width="0.534"/>
    <path id="Path_76057" data-name="Path 76057" d="M232.658,183.157h43.265" transform="translate(221.726 225.424)" fill="none" stroke="#000" stroke-linecap="round" stroke-linejoin="round" stroke-width="0.534"/>
    <path id="Path_76058" data-name="Path 76058" d="M235.44,187.69h-9.831v11.23h9.831Z" transform="translate(215.008 231.003)" fill="#100773" stroke="#000" stroke-linecap="round" stroke-linejoin="round" stroke-width="0.534"/>
    <path id="Path_76059" data-name="Path 76059" d="M232.658,190.2h43.265" transform="translate(221.726 234.095)" fill="none" stroke="#000" stroke-linecap="round" stroke-linejoin="round" stroke-width="0.534"/>
    <path id="Path_76060" data-name="Path 76060" d="M169.087,22.607h-61.9V73.218h61.9Z" transform="translate(102.154 27.824)" fill="none" stroke="#000" stroke-linecap="round" stroke-linejoin="round" stroke-width="0.534"/>
    <path id="Path_76061" data-name="Path 76061" d="M107.19,22.607l30.949,25.3,30.957-25.3" transform="translate(102.154 27.824)" fill="#100773" stroke="#000" stroke-linecap="round" stroke-linejoin="round" stroke-width="0.534"/>
    <path id="Path_76062" data-name="Path 76062" d="M179.358,15.654H141.427v31.01h37.931Z" transform="translate(134.782 19.267)" fill="none" stroke="#000" stroke-linecap="round" stroke-linejoin="round" stroke-width="0.534"/>
    <path id="Path_76063" data-name="Path 76063" d="M141.427,15.654l18.966,15.5,18.966-15.5" transform="translate(134.782 19.267)" fill="#100773" stroke="#000" stroke-linecap="round" stroke-linejoin="round" stroke-width="0.534"/>
    <path id="Path_76064" data-name="Path 76064" d="M55.75,202.3H17.819v31.01H55.75Z" transform="translate(16.981 248.98)" fill="#fff" stroke="#100773" stroke-linecap="round" stroke-linejoin="round" stroke-width="0.534"/>
    <path id="Path_76065" data-name="Path 76065" d="M17.819,202.3l18.966,15.51L55.75,202.3" transform="translate(16.981 248.98)" fill="#100773" stroke="#000" stroke-linecap="round" stroke-linejoin="round" stroke-width="0.534"/>
    <path id="Path_76066" data-name="Path 76066" d="M6.4,233.679H490.985" transform="translate(6.102 287.605)" fill="none" stroke="#000" stroke-miterlimit="10" stroke-width="0.534"/>
    <path id="Path_76067" data-name="Path 76067" d="M10.722,172.652c3.4-.634,9.8-5.593,9.812-5.593s-4.175-3.826-4.436-4.029c-3.351-2.385-11.033-4.651-14.373-1.383A5.984,5.984,0,0,0,.45,163.652a6.739,6.739,0,0,0,0,4.847A6.007,6.007,0,0,0,1.725,170.5C4,172.962,7.82,173.187,10.722,172.652Z" transform="translate(-0.002 196.944)" fill="#2fb972"/>
    <path id="Path_76068" data-name="Path 76068" d="M23.431,234.362c3.017-1.575,7.724-7.763,8.1-8.252a94.4,94.4,0,0,0,9.791,8.513c1.983,1.515,4.029,2.98,6.1,4.412-1.044-.489-1.952-.93-2.088-.966-3.768-1.265-11.711-1.193-14.185,2.991a6.531,6.531,0,0,0-.757,2.324,6.79,6.79,0,0,0,.136,2.476,6.3,6.3,0,0,0,1.006,2.2,5.4,5.4,0,0,0,1.7,1.539c2.735,1.693,6.482.763,9.144-.631s6.827-6.6,7.891-7.988l2.39,1.622c3.841,2.588,7.672,5.137,11.367,7.772,1.3.93,2.557,1.9,3.82,2.862-.919-.428-1.691-.8-1.816-.834-3.768-1.265-11.711-1.191-14.185,3a6.5,6.5,0,0,0-.757,2.325,6.781,6.781,0,0,0,.137,2.474,6.277,6.277,0,0,0,1.006,2.2,5.41,5.41,0,0,0,1.7,1.541c2.735,1.68,6.472.75,9.144-.645s6.419-6.092,7.7-7.739c1.263,1.026,2.526,2.063,3.705,3.125.793.75,1.6,1.4,2.359,2.2l2.255,2.266c1.4,1.526,2.85,3.087,4.175,4.613.929,1.062,1.806,2.075,2.683,3.112-1.284-.941-3.841-2.73-4.061-2.849-3.57-1.9-11.482-3.172-14.425.513a6.221,6.221,0,0,0-1.059,2.164,6.756,6.756,0,0,0-.2,2.467,6.535,6.535,0,0,0,.7,2.347,5.736,5.736,0,0,0,1.475,1.82c2.484,2.133,6.263,1.872,9.123.953,3.131-1.013,8.351-6.079,9.05-6.724,1.461,1.718,2.86,3.4,4.175,4.995,2.881,3.578,5.365,6.784,7.432,9.539l2.432-1.789c-2.2-2.824-4.864-6.15-7.964-9.8-1.472-1.753-3.069-3.576-4.728-5.436a68.67,68.67,0,0,0,3.518-6.449c3.215.953,9.613.118,10.438,0,.386,2.385.741,4.624,1.044,6.784.658,4.517,1.148,8.584,1.524,12.064l2.63-1.93c-.428-3.161-.939-6.737-1.576-10.647-.386-2.385-.845-4.923-1.326-7.511.783-.346,7.223-3.232,9.488-5.867,2.088-2.385,4.092-6.1,3.643-9.621a6.541,6.541,0,0,0-.694-2.347,5.732,5.732,0,0,0-1.47-1.825,4.935,4.935,0,0,0-1.992-.982,4.575,4.575,0,0,0-2.17.027c-4.269,1.193-7.046,9.742-7.307,14.223,0,.263.1,3.148.209,4.972-.2-1.062-.386-2.088-.605-3.183-.428-2.146-.908-4.292-1.419-6.581L101,246.867c-.261-1.12-.668-2.264-1.044-3.422-.814-2.635-1.754-5.258-2.756-7.893,1.649-.428,7.494-2.05,9.854-4.064s4.854-5.329,4.864-8.872a6.726,6.726,0,0,0-.37-2.443,6.067,6.067,0,0,0-1.208-2.059,5.175,5.175,0,0,0-1.837-1.321,4.632,4.632,0,0,0-2.149-.352c-4.384.489-8.256,8.406-9.1,12.793,0,.272-.334,3.5-.47,5.28-.605-1.573-1.211-3.148-1.879-4.709-1.91-4.531-3.966-9.037-6-13.556-.626-1.383-1.232-2.766-1.848-4.149.585-.143,7.568-1.907,10.219-4.172,2.349-2,4.854-5.318,4.864-8.87a6.718,6.718,0,0,0-.374-2.443,6.08,6.08,0,0,0-1.211-2.059,5.2,5.2,0,0,0-1.839-1.316,4.662,4.662,0,0,0-2.149-.348c-4.373.491-8.256,8.406-9.091,12.793-.062.335-.48,4.972-.532,6.164-1.347-3.052-2.672-6.1-3.862-9.168A116.012,116.012,0,0,1,78.9,189.949c.271-.071,7.568-1.872,10.281-4.185,2.349-2.014,4.854-5.329,4.864-8.87a6.729,6.729,0,0,0-.374-2.443,6.089,6.089,0,0,0-1.211-2.057,5.148,5.148,0,0,0-1.84-1.316,4.6,4.6,0,0,0-2.149-.348c-4.374.489-8.256,8.406-9.091,12.793-.063.332-.512,5.329-.532,6.246-.062-.25-.156-.5-.219-.763a87.2,87.2,0,0,1-2.088-13.414c-.219-2.492-.313-4.9-.345-7.248,1.388-.167,7.724-1.048,10.365-2.826s5.334-4.685,5.689-8.214a6.775,6.775,0,0,0-.139-2.472,6.275,6.275,0,0,0-1.007-2.2,5.4,5.4,0,0,0-1.7-1.537,4.675,4.675,0,0,0-2.1-.616c-4.394-.071-9.008,7.308-10.271,11.564-.063.239-.532,2.67-.845,4.459v-3.159c0-3.8.282-7.286.522-10.362.146-1.751.313-3.326.48-4.769,1.284-.988,6.419-5.03,8.016-7.939s2.839-6.962,1.733-10.277a6.184,6.184,0,0,0-1.119-2.124,5.283,5.283,0,0,0-1.778-1.419,4.624,4.624,0,0,0-2.13-.473,4.707,4.707,0,0,0-2.114.558c-3.935,2.253-5.052,11.232-4.447,15.678,0,.381,1.472,6.271,1.545,6.224l.073-.06c-.188,1.419-.365,2.933-.543,4.6-.3,3.076-.605,6.558-.72,10.373A120.363,120.363,0,0,0,75.84,175.7a86.869,86.869,0,0,0,1.868,13.639v.154c-.678-1.251-2.693-4.685-2.871-4.923-2.536-3.433-9.206-8.345-13.277-6.438a5.31,5.31,0,0,0-1.755,1.459,6.188,6.188,0,0,0-1.084,2.148A6.763,6.763,0,0,0,58.5,184.2a6.563,6.563,0,0,0,.673,2.356C60.63,189.7,64.2,191.329,67.1,191.8c3.267.584,10.188-1.611,10.741-1.789a116.536,116.536,0,0,0,4.05,13.282c.929,2.516,1.931,5.019,2.964,7.522-.626-1.06-1.179-2-1.273-2.133-2.537-3.422-9.217-8.348-13.288-6.427a5.314,5.314,0,0,0-1.734,1.479,6.237,6.237,0,0,0-1.06,2.157,6.765,6.765,0,0,0-.2,2.461,6.565,6.565,0,0,0,.689,2.345c1.472,3.134,5.042,4.769,7.943,5.245s8.872-1.191,10.438-1.7c.407.955.793,1.921,1.2,2.873,1.952,4.566,3.925,9.108,5.73,13.639.637,1.6,1.221,3.2,1.8,4.769-.543-.941-1.044-1.729-1.044-1.836-2.547-3.433-9.217-8.345-13.288-6.438a5.288,5.288,0,0,0-1.789,1.452,6.189,6.189,0,0,0-1.108,2.164,6.759,6.759,0,0,0-.232,2.492,6.556,6.556,0,0,0,.686,2.38c1.472,3.125,5.042,4.709,7.943,5.236s8.288-1.051,10.156-1.611c.551,1.642,1.1,3.313,1.574,4.942.3,1.12.658,2.171.908,3.326l.783,3.351c.428,2.157.887,4.375,1.263,6.485.261,1.479.5,2.873.741,4.292-.626-1.6-1.889-4.7-2.025-4.934a21.437,21.437,0,0,0-7.62-7.774,8.42,8.42,0,0,0-.678-1.06,5.388,5.388,0,0,0-1.714-1.524,4.712,4.712,0,0,0-2.108-.593,4.66,4.66,0,0,0-2.137.437,5.243,5.243,0,0,0-1.8,1.392c-2.964,3.721-1.179,12.555.783,16.454.115.225,1.618,2.563,2.578,4.018-.678-.763-1.336-1.5-2.088-2.266-1.388-1.537-2.829-3.016-4.363-4.613l-2.317-2.242c-.762-.774-1.649-1.477-2.474-2.229-1.962-1.682-4.008-3.279-6.117-4.841,1.179-1.408,5.219-6.438,6.263-9.61s1.482-7.5-.219-10.467a5.687,5.687,0,0,0-1.49-1.8,4.878,4.878,0,0,0-2-.953,4.6,4.6,0,0,0-2.168.058,4.986,4.986,0,0,0-1.96,1.062c-3.424,3.17-2.839,12.22-1.409,16.405.084.261,1.4,3.134,2.15,4.7-1.273-.928-2.526-1.858-3.841-2.753-3.779-2.563-7.682-5.033-11.555-7.511l-3.549-2.3c.428-.489,5.4-6.353,6.513-9.907,1.044-3.159,1.472-7.5-.23-10.469a5.7,5.7,0,0,0-1.49-1.8,4.911,4.911,0,0,0-2-.955,4.571,4.571,0,0,0-2.168.06,4.95,4.95,0,0,0-1.96,1.06c-3.424,3.172-2.829,12.209-1.409,16.394.1.321,2,4.446,2.536,5.472-2.6-1.693-5.219-3.4-7.651-5.209a93.55,93.55,0,0,1-9.634-7.988c.2-.228,5.417-6.331,6.555-9.967.981-3.161,1.472-7.5-.23-10.469a5.733,5.733,0,0,0-1.49-1.8,4.906,4.906,0,0,0-2-.953,4.57,4.57,0,0,0-2.168.06,4.95,4.95,0,0,0-1.96,1.06c-3.424,3.172-2.829,12.22-1.409,16.4.115.321,2.15,4.769,2.578,5.543l-.553-.489a73.328,73.328,0,0,1-8.225-9.871c-1.4-1.943-2.63-3.886-3.8-5.818,1.044-1.026,5.939-5.76,7.307-8.894s2.182-7.272.772-10.433a5.941,5.941,0,0,0-1.306-1.974,5.045,5.045,0,0,0-1.9-1.2,4.592,4.592,0,0,0-2.159-.216,4.8,4.8,0,0,0-2.05.8c-3.706,2.719-3.987,11.792-2.985,16.133.063.236.846,2.563,1.451,4.243-.522-.87-1.044-1.765-1.545-2.623-1.8-3.194-3.278-6.257-4.561-8.977-.72-1.55-1.347-2.969-1.921-4.3.6-1.635,2.923-8.238,2.85-11.674s-.992-7.6-3.518-9.668a4.992,4.992,0,0,0-1.959-1.071,4.609,4.609,0,0,0-2.17-.065,4.885,4.885,0,0,0-2.006.946,5.715,5.715,0,0,0-1.5,1.8c-2.182,4.366,1.221,12.568,3.872,15.881.23.288,4.259,4.3,4.29,4.221a.447.447,0,0,0,0-.094c.532,1.3,1.106,2.681,1.774,4.183,1.232,2.755,2.662,5.856,4.4,9.11a106.513,106.513,0,0,0,6.117,10.17,75.489,75.489,0,0,0,8.142,10.192l.115.107c-1.179-.62-4.5-2.217-4.77-2.3-3.778-1.265-11.711-1.193-14.185,3a6.5,6.5,0,0,0-.757,2.324,6.778,6.778,0,0,0,.136,2.474,6.277,6.277,0,0,0,1.006,2.2A5.376,5.376,0,0,0,14.3,235C17.022,236.686,20.759,235.731,23.431,234.362Z" transform="translate(1.672 155.062)" fill="#2fb972"/>
    <path id="Path_76069" data-name="Path 76069" d="M48.131,153.772c.073,0-1.607-5.8-1.754-6.15-1.659-4.078-6.952-10.839-11.325-10.219a4.857,4.857,0,0,0-2.026.881,5.62,5.62,0,0,0-1.539,1.742,6.5,6.5,0,0,0-.786,2.309,6.772,6.772,0,0,0,.1,2.472c.689,3.471,3.768,6.07,6.44,7.453C40.365,153.833,48.12,153.772,48.131,153.772Z" transform="translate(29.194 169.062)" fill="#2fb972"/>
    <path id="Path_76070" data-name="Path 76070" d="M200.885,34.656c2.349,2.671,9.312,5.58,9.312,5.592s.281-5.83.26-6.2c-.271-4.292-3.015-12.411-7.119-13.556a4.375,4.375,0,0,0-2.08,0,4.7,4.7,0,0,0-1.9.967,5.5,5.5,0,0,0-1.391,1.769,6.272,6.272,0,0,0-.639,2.264C196.909,28.861,198.872,32.39,200.885,34.656Z" transform="translate(188.001 25.064)" fill="#2fb972"/>
    <path id="Path_76071" data-name="Path 76071" d="M199.079,67.09c2.756,1.8,9.613,2.516,10.156,2.563a115.475,115.475,0,0,0-.3,13.484c.074,2.623.23,5.258.408,7.893-.24-1.192-.461-2.253-.512-2.384-1.254-4.066-5.773-11.064-10-10.933a4.529,4.529,0,0,0-2.008.628,5.214,5.214,0,0,0-1.607,1.505,6.038,6.038,0,0,0-.934,2.123,6.508,6.508,0,0,0-.1,2.373c.387,3.386,3.133,6.188,5.564,7.785s8.351,2.384,9.865,2.527c.082,1.013.145,2.027.229,3.04.4,4.852.8,9.693,1.045,14.45.1,1.681.145,3.338.187,5-.209-1.049-.4-1.943-.439-2.074-1.262-4.066-5.783-11.064-10-10.921a4.532,4.532,0,0,0-2.01.624,5.213,5.213,0,0,0-1.611,1.5,6.081,6.081,0,0,0-.937,2.124,6.478,6.478,0,0,0-.1,2.376c.385,3.374,3.131,6.176,5.562,7.774s7.755,2.277,9.593,2.492c0,1.7,0,3.41-.053,5.055-.062,1.121-.062,2.206-.188,3.338s-.187,2.218-.293,3.314c-.25,2.1-.5,4.268-.793,6.307-.2,1.419-.406,2.766-.615,4.125-.084-1.669-.293-4.936-.346-5.21-.7-4.232-4.236-11.922-8.433-12.53a4.406,4.406,0,0,0-2.066.269,4.909,4.909,0,0,0-1.793,1.209,5.756,5.756,0,0,0-1.2,1.938,6.442,6.442,0,0,0-.408,2.33c-.072,3.41,2.256,6.653,4.459,8.656,2.432,2.194,8.851,4.042,9.654,4.268-.353,2.253-.709,4.435-1.043,6.5-.8,4.543-1.607,8.572-2.338,11.923l2.578,1.192c.689-3.577,1.461-7.773,2.213-12.578.365-2.289.709-4.769,1.043-7.249a49.815,49.815,0,0,0,6.367-.489c1.16,3.386,5.314,8.608,5.857,9.276-1.379,1.669-2.736,3.255-4.029,4.769-2.715,3.112-5.22,5.83-7.371,8.119l2.787,1.192c1.922-2.146,4.06-4.614,6.369-7.38,1.408-1.669,2.881-3.493,4.373-5.389.678.513,6.263,4.626,9.322,5.162,2.787.477,6.451.215,8.589-2.17a5.771,5.771,0,0,0,1.211-1.931,6.454,6.454,0,0,0-.029-4.646,5.7,5.7,0,0,0-1.234-1.911c-3.234-3.1-10.583-.811-13.777,1.49-.188.131-2.088,1.86-3.267,2.969.6-.775,1.211-1.514,1.826-2.384,1.232-1.586,2.412-3.207,3.7-4.948L233.993,143c.617-.87,1.17-1.86,1.766-2.8,1.346-2.206,2.609-4.507,3.84-6.867,1.211,1.192,5.6,5.508,8.3,6.474s6.347,1.335,8.769-.644a5.474,5.474,0,0,0,1.426-1.7,6.231,6.231,0,0,0,.705-2.211,6.464,6.464,0,0,0-.135-2.349,6.029,6.029,0,0,0-.953-2.087c-2.8-3.577-10.355-2.635-13.82-.918-.209.107-2.578,1.657-3.851,2.54.721-1.431,1.461-2.838,2.15-4.316,2.013-4.232,3.935-8.6,5.865-12.936.6-1.323,1.191-2.647,1.8-3.958.428.441,5.543,5.663,8.57,6.736,2.681.966,6.345,1.335,8.767-.644a5.449,5.449,0,0,0,1.426-1.7,6.271,6.271,0,0,0,.707-2.211,6.506,6.506,0,0,0-.137-2.349,5.992,5.992,0,0,0-.953-2.087c-2.787-3.577-10.353-2.635-13.808-.918-.262.131-3.654,2.384-4.5,2.981,1.326-2.909,2.662-5.794,4.082-8.572a104.888,104.888,0,0,1,6.336-10.849c.2.215,5.511,5.687,8.611,6.8,2.693.954,6.347,1.324,8.779-.656a5.45,5.45,0,0,0,1.426-1.7,6.269,6.269,0,0,0,.707-2.211,6.506,6.506,0,0,0-.137-2.349,5.993,5.993,0,0,0-.953-2.087c-2.787-3.577-10.353-2.623-13.82-.906-.271.131-3.914,2.54-4.55,3.028.137-.2.25-.417.4-.62a69.949,69.949,0,0,1,7.955-9.383c1.586-1.6,3.131-3.028,4.738-4.376.908,1.192,5.062,6.283,7.746,7.63s6.189,2.11,8.789.453a5.236,5.236,0,0,0,1.609-1.51,6.053,6.053,0,0,0,.932-2.126,6.48,6.48,0,0,0,.1-2.376,6.223,6.223,0,0,0-.758-2.215c-2.422-3.946-10.042-3.911-13.642-2.635-.2.072-2.088,1.025-3.519,1.741.721-.6,1.451-1.192,2.15-1.776,2.621-2.1,5.127-3.827,7.359-5.341,1.273-.858,2.443-1.6,3.539-2.277,1.389.6,7.015,2.885,9.9,2.67s6.345-1.371,7.984-4.22a6.166,6.166,0,0,0,.818-2.183,6.552,6.552,0,0,0-.029-2.374,6.123,6.123,0,0,0-.873-2.155,5.28,5.28,0,0,0-1.564-1.563c-3.748-2.229-10.49,1.812-13.173,4.769-.228.262-3.455,4.769-3.383,4.864h.084c-1.043.632-2.2,1.311-3.433,2.1-2.266,1.454-4.812,3.136-7.484,5.174a91.185,91.185,0,0,0-8.351,7.034,69.508,69.508,0,0,0-8.246,9.3,1.1,1.1,0,0,1-.084.131c.471-1.311,1.682-5.007,1.744-5.305.918-4.185.531-12.864-3.058-15.416a4.6,4.6,0,0,0-1.978-.747,4.416,4.416,0,0,0-2.074.24,4.892,4.892,0,0,0-1.807,1.184,5.742,5.742,0,0,0-1.228,1.922c-1.3,3.052-.387,7.153.887,9.991,1.441,3.231,6.816,8.155,7.244,8.549a101.167,101.167,0,0,0-6.773,11.04c-1.2,2.23-2.349,4.531-3.467,6.844.377-1.192.7-2.17.73-2.384.908-4.173.523-12.864-3.058-15.4a4.579,4.579,0,0,0-1.978-.746,4.408,4.408,0,0,0-2.072.239,4.9,4.9,0,0,0-1.808,1.184,5.736,5.736,0,0,0-1.226,1.922c-1.307,3.052-.387,7.154.887,9.979s5.8,7.153,7,8.346c-.418.894-.855,1.776-1.273,2.682-2.016,4.292-4.008,8.584-6.086,12.733-.73,1.467-1.492,2.873-2.254,4.28.334-1.013.6-1.872.637-2,.908-4.185.521-12.876-3.058-15.416a4.6,4.6,0,0,0-1.978-.746,4.413,4.413,0,0,0-2.074.239,4.892,4.892,0,0,0-1.807,1.184,5.74,5.74,0,0,0-1.228,1.922c-1.3,3.052-.387,7.153.887,9.991s5.365,6.784,6.785,8.119c-.814,1.419-1.629,2.849-2.474,4.185-.6.894-1.127,1.8-1.764,2.671s-1.242,1.717-1.848,2.575c-1.23,1.586-2.484,3.243-3.715,4.769-.846,1.061-1.682,2.051-2.506,3.064.74-1.455,2.139-4.316,2.234-4.566a25.087,25.087,0,0,0,1.043-11.124,7.969,7.969,0,0,0,.344-1.192,6.483,6.483,0,0,0,.078-2.384,6.216,6.216,0,0,0-.781-2.212,5.385,5.385,0,0,0-1.506-1.654,4.618,4.618,0,0,0-1.965-.808c-4.176-.536-9.218,5.961-10.773,9.92-.094.238-.836,2.873-1.283,4.543.125-1.025.271-2.027.4-3.088.25-2.1.459-4.2.687-6.462.074-1.1.158-2.194.23-3.314s.084-2.289.125-3.446c.053-2.682,0-5.413-.125-8.155,1.607.262,7.306,1.073,10.052.179s5.939-2.9,7-6.068a6.445,6.445,0,0,0-.064-4.643,5.68,5.68,0,0,0-1.25-1.9,4.839,4.839,0,0,0-1.816-1.151c-4.072-1.264-9.906,4.328-11.962,7.94-.125.226-1.348,3-1.994,4.543-.072-1.645-.146-3.291-.281-4.948-.365-4.769-.867-9.645-1.357-14.486-.146-1.479-.281-2.957-.418-4.435.574.1,7.306,1.192,10.439.226,2.7-.894,5.927-2.9,6.994-6.068a6.476,6.476,0,0,0,.4-2.329,6.406,6.406,0,0,0-.465-2.314,5.74,5.74,0,0,0-1.25-1.9,4.862,4.862,0,0,0-1.818-1.151c-4.082-1.264-9.906,4.328-11.962,7.94-.156.274-1.91,4.28-2.307,5.317-.3-3.255-.584-6.51-.74-9.729a115.1,115.1,0,0,1,0-13.031c.271,0,7.306,1.264,10.437.238,2.715-.894,5.939-2.9,7-6.068a6.438,6.438,0,0,0-.068-4.64,5.709,5.709,0,0,0-1.248-1.9A4.857,4.857,0,0,0,224.4,56.49c-4.082-1.264-9.916,4.328-11.962,7.94-.166.286-2.088,4.59-2.338,5.4v-.763a83.233,83.233,0,0,1,2.088-12.852c.543-2.384,1.18-4.519,1.838-6.629,1.293.382,7.244,2.051,10.134,1.479s6.179-2.134,7.546-5.151a6.352,6.352,0,0,0,.615-2.272,6.5,6.5,0,0,0-.248-2.361A5.944,5.944,0,0,0,231,39.238a5.073,5.073,0,0,0-1.7-1.371c-3.926-1.765-10.261,3.064-12.652,6.4-.135.179-1.273,2.182-2.086,3.66.313-.954.615-1.932.928-2.838,1.17-3.4,2.422-6.426,3.549-9.085.658-1.514,1.273-2.873,1.859-4.125,1.451-.394,7.253-2.015,9.55-4.018s4.625-5.139,4.613-8.536a6.451,6.451,0,0,0-.367-2.342,5.829,5.829,0,0,0-1.172-1.967,4.958,4.958,0,0,0-1.771-1.251,4.431,4.431,0,0,0-2.064-.318c-4.176.5-7.871,8.119-8.654,12.34-.062.358-.543,6.2-.469,6.176h.094c-.6,1.192-1.211,2.492-1.859,3.923-1.18,2.647-2.494,5.651-3.736,9.025A112.733,112.733,0,0,0,211.5,56.026a84.967,84.967,0,0,0-2.223,13.019,1.017,1.017,0,0,1,0,.155c-.24-1.383-1.045-5.234-1.107-5.532-1.252-4.054-5.773-11.064-10-10.921a4.532,4.532,0,0,0-2.006.627,5.2,5.2,0,0,0-1.609,1.505A6.075,6.075,0,0,0,193.623,57a6.463,6.463,0,0,0-.1,2.373C193.9,62.69,196.626,65.468,199.079,67.09Z" transform="translate(184.37 16.534)" fill="#2fb972"/>
    <path id="Path_76072" data-name="Path 76072" d="M237.192,53.987c0,.071,3.049-4.674,3.2-5.008,1.848-3.756,3.486-12.244.615-15.785a5,5,0,0,0-1.734-1.315,4.443,4.443,0,0,0-2.053-.393,4.51,4.51,0,0,0-2.016.6,5.161,5.161,0,0,0-1.629,1.482c-1.973,2.551-2.025,6.748-1.461,9.908C232.757,47.12,237.183,53.987,237.192,53.987Z" transform="translate(220.918 38.746)" fill="#2fb972"/>
    <path id="Path_76073" data-name="Path 76073" d="M220.676,106.428c1.17,2.791,5.845,7.154,5.845,7.154s1.607-4.4,1.68-4.7c.8-3.386.627-10.492-2.264-12.65a3.775,3.775,0,0,0-1.6-.649,3.6,3.6,0,0,0-1.7.154,3.962,3.962,0,0,0-1.492.93,4.662,4.662,0,0,0-1.033,1.545C218.994,100.729,219.684,104.056,220.676,106.428Z" transform="translate(209.222 117.595)" fill="#2fb972"/>
    <path id="Path_76074" data-name="Path 76074" d="M224.191,125.647c1.7,2.242,6.816,4.912,7.224,5.126a91.269,91.269,0,0,0-3.445,10.291c-.553,2.039-1.045,4.125-1.555,6.21.094-.988.176-1.883.176-2,0-3.576-1.826-10.313-5.1-11.515a3.591,3.591,0,0,0-1.7-.147,3.765,3.765,0,0,0-1.6.658,4.358,4.358,0,0,0-1.225,1.347,4.987,4.987,0,0,0-.637,1.8c-.512,2.719.928,5.735,2.432,7.714s5.855,4.4,7,5.008c-.178.81-.365,1.608-.543,2.385-.855,3.864-1.691,7.714-2.609,11.468-.324,1.325-.678,2.612-1.043,3.911.094-.881.156-1.633.156-1.74,0-3.576-1.826-10.313-5.1-11.517a3.587,3.587,0,0,0-1.7-.145,3.747,3.747,0,0,0-1.6.658A4.382,4.382,0,0,0,212.1,156.5a5.061,5.061,0,0,0-.637,1.8c-.512,2.73.93,5.735,2.432,7.714s5.429,4.16,6.8,4.9c-.4,1.309-.8,2.621-1.242,3.873-.314.848-.574,1.682-.93,2.516s-.678,1.646-1.043,2.456c-.7,1.539-1.41,3.136-2.088,4.615-.49,1.035-.971,2.014-1.451,2.991.334-1.312.939-3.9.971-4.114.469-3.48-.428-10.516-3.517-12.267a3.609,3.609,0,0,0-3.326-.058,4.11,4.11,0,0,0-1.389,1.118,4.871,4.871,0,0,0-.871,1.669c-.865,2.6.158,5.82,1.389,8.049,1.348,2.445,5.845,5.867,6.42,6.284-.8,1.62-1.607,3.2-2.369,4.673-1.7,3.241-3.277,6.092-4.644,8.488l1.711,1.682c1.367-2.505,2.974-5.532,4.7-9,.824-1.644,1.67-3.42,2.527-5.256a42.488,42.488,0,0,0,5.019,1.6c.084,2.967,2.088,8.285,2.307,8.965-1.449.845-2.881,1.657-4.226,2.385-2.828,1.562-5.4,2.884-7.609,3.982l1.848,1.823c1.994-1.06,4.238-2.289,6.67-3.708,1.482-.857,3.047-1.8,4.644-2.8.408.609,3.717,5.5,5.961,6.869,2.025,1.191,4.916,2.157,7.129.988a4.077,4.077,0,0,0,1.394-1.109,4.81,4.81,0,0,0,.877-1.664,5.307,5.307,0,0,0,.205-1.93,5.137,5.137,0,0,0-.5-1.854c-1.754-3.386-7.964-3.9-10.958-3.123a34.548,34.548,0,0,0-3.226,1.287l1.953-1.193c1.324-.845,2.619-1.729,4.029-2.67l2-1.466c.678-.477,1.346-1.073,2.025-1.611,1.555-1.287,3.078-2.67,4.592-4.1.646,1.323,3,5.961,4.853,7.558s4.572,2.994,6.91,2.217a3.9,3.9,0,0,0,1.529-.852,4.593,4.593,0,0,0,1.09-1.495,5.153,5.153,0,0,0,.461-1.869,5.277,5.277,0,0,0-.25-1.923c-1.285-3.661-7.359-5.233-10.439-4.984-.188,0-2.379.477-3.57.752.9-.872,1.8-1.729,2.683-2.648,2.556-2.635,5.072-5.4,7.587-8.156l2.328-2.492c.221.466,2.924,6.081,5,7.846,1.838,1.575,4.572,2.994,6.91,2.217a3.9,3.9,0,0,0,1.527-.857,4.583,4.583,0,0,0,1.088-1.492,5.2,5.2,0,0,0,.461-1.869,5.266,5.266,0,0,0-.246-1.921c-1.295-3.65-7.359-5.233-10.439-4.984-.228,0-3.381.692-4.176.906,1.713-1.836,3.435-3.576,5.22-5.34a73.869,73.869,0,0,1,7.453-6.391c.1.214,2.9,6.081,5.019,7.892,1.848,1.573,4.572,2.991,6.921,2.217a3.91,3.91,0,0,0,1.521-.859,4.582,4.582,0,0,0,1.086-1.495,5.137,5.137,0,0,0,.457-1.867,5.255,5.255,0,0,0-.246-1.918c-1.285-3.65-7.306-5.236-10.439-4.984-.25,0-3.633.738-4.238.928l.449-.357a50.4,50.4,0,0,1,8.351-4.769c1.6-.738,3.131-1.347,4.687-1.894.428,1.191,2.4,6.4,4.174,8.274s4.26,3.576,6.66,3.076a3.8,3.8,0,0,0,1.6-.665,4.416,4.416,0,0,0,1.225-1.35,5.092,5.092,0,0,0,.639-1.8,5.327,5.327,0,0,0-.059-1.943c-.93-3.79-6.806-6.117-9.886-6.26-.166,0-1.879.132-3.131.25l2.088-.7c2.516-.8,4.853-1.359,6.931-1.836,1.189-.261,2.264-.464,3.265-.642.939.881,4.728,4.4,6.994,5.113s5.22.919,7.15-.774a4.482,4.482,0,0,0,1.156-1.425,5.136,5.136,0,0,0,.545-1.84,5.255,5.255,0,0,0-.162-1.936,4.833,4.833,0,0,0-.84-1.689c-2.348-2.873-8.505-1.86-11.292-.359-.24.132-3.81,2.648-3.758,2.7-.973.156-2.015.323-3.133.549-2.088.417-4.457.93-6.994,1.669a66.928,66.928,0,0,0-8.089,2.838,51.538,51.538,0,0,0-8.558,4.615l-.094.071c.678-.859,2.484-3.339,2.609-3.578,1.691-2.945,3.455-9.751,1.3-12.827a4.2,4.2,0,0,0-1.348-1.189,3.664,3.664,0,0,0-1.652-.455,3.618,3.618,0,0,0-1.674.352,4.113,4.113,0,0,0-1.4,1.1c-1.742,1.943-1.992,5.365-1.689,7.964.334,2.945,3.308,8.348,3.537,8.836a74.338,74.338,0,0,0-7.837,6.4q-2.183,2.038-4.3,4.207l1.127-1.562c1.691-2.945,3.455-9.753,1.295-12.829a4.216,4.216,0,0,0-1.346-1.187,3.656,3.656,0,0,0-1.65-.455,3.608,3.608,0,0,0-1.67.352,4.106,4.106,0,0,0-1.4,1.1c-1.742,1.943-1.992,5.365-1.7,7.964s2.756,7.357,3.424,8.6l-1.617,1.671c-2.578,2.681-5.136,5.376-7.714,7.928-.908.9-1.836,1.74-2.756,2.6.5-.68.908-1.265.971-1.359,1.691-2.933,3.455-9.742,1.295-12.818a4.209,4.209,0,0,0-1.346-1.191,3.706,3.706,0,0,0-1.654-.46,3.648,3.648,0,0,0-1.674.355,4.089,4.089,0,0,0-1.4,1.106c-1.734,1.943-1.984,5.365-1.691,7.964s2.525,6.891,3.308,8.345c-.971.834-1.941,1.682-2.912,2.445-.668.513-1.285,1.048-1.984,1.512l-2.035,1.419c-1.326.837-2.693,1.718-4,2.505-.908.56-1.773,1.073-2.65,1.586.908-.883,2.672-2.659,2.8-2.826a19.254,19.254,0,0,0,3.433-8.249,5.271,5.271,0,0,0,.543-.823,5.046,5.046,0,0,0,.629-1.807,5.316,5.316,0,0,0-.07-1.941,4.908,4.908,0,0,0-.758-1.74,4.241,4.241,0,0,0-1.314-1.236c-3.131-1.718-8.527,1.765-10.656,4.3-.127.154-1.338,1.954-2.088,3.112.344-.763.687-1.479,1.043-2.266.7-1.537,1.357-3.087,2.088-4.767l.971-2.492c.334-.823.6-1.742.908-2.612.678-2.05,1.283-4.174,1.848-6.32,1.18.692,5.4,3.1,7.7,3.244s5.22-.381,6.837-2.5a4.877,4.877,0,0,0,.859-1.675,5.319,5.319,0,0,0,.186-1.932,5.131,5.131,0,0,0-.518-1.849,4.552,4.552,0,0,0-1.133-1.448c-2.849-2.24-8.664.263-11.107,2.385-.156.143-1.754,1.907-2.619,2.887.334-1.289.668-2.577.961-3.9.855-3.815,1.617-7.7,2.4-11.578.229-1.191.48-2.382.73-3.576.418.25,5.375,3.23,7.953,3.4,2.3.156,5.22-.381,6.838-2.5a4.845,4.845,0,0,0,.859-1.675,5.271,5.271,0,0,0,.186-1.93,5.13,5.13,0,0,0-.518-1.852,4.525,4.525,0,0,0-1.133-1.448c-2.84-2.24-8.664.263-11.1,2.385-.178.167-2.484,2.708-3.039,3.386.543-2.61,1.1-5.2,1.744-7.725a87.259,87.259,0,0,1,3.131-10.027c.187.12,5.355,3.244,8.005,3.422,2.3.154,5.22-.381,6.837-2.5a4.849,4.849,0,0,0,.857-1.678,5.275,5.275,0,0,0,.184-1.932,5.162,5.162,0,0,0-.521-1.849,4.524,4.524,0,0,0-1.135-1.446c-2.84-2.242-8.664.263-11.1,2.385-.2.167-2.674,2.909-3.133,3.433.074-.178.137-.393.209-.571a62.827,62.827,0,0,1,4.675-9.24c.973-1.633,1.984-3.125,3-4.544.908.692,5.093,3.828,7.464,4.281s5.218.274,7.035-1.633a4.672,4.672,0,0,0,1.014-1.559,5.244,5.244,0,0,0,.367-1.9,5.182,5.182,0,0,0-.34-1.9,4.722,4.722,0,0,0-.988-1.582c-2.6-2.574-8.632-.821-11.263,1-.146.107-1.5,1.3-2.484,2.182.469-.631.939-1.3,1.389-1.894,1.711-2.253,3.4-4.2,4.906-5.9.855-.966,1.658-1.824,2.41-2.611,1.2.155,6.064.7,8.351-.131s4.781-2.528,5.584-5.151a5.287,5.287,0,0,0,.267-1.916,5.228,5.228,0,0,0-.435-1.875,4.64,4.64,0,0,0-1.066-1.511,3.941,3.941,0,0,0-1.51-.887c-3.361-.918-8,3.815-9.6,6.82-.137.262-1.891,4.614-1.828,4.614h.074c-.742.739-1.525,1.55-2.359,2.444-1.545,1.668-3.267,3.577-5.021,5.795a82.339,82.339,0,0,0-5.375,7.462,63.068,63.068,0,0,0-4.918,9.253v.118c.146-1.191.461-4.352.461-4.6,0-3.576-1.816-10.313-5.1-11.517a3.588,3.588,0,0,0-1.7-.145,3.764,3.764,0,0,0-1.6.658A4.382,4.382,0,0,0,222.4,115.9a4.988,4.988,0,0,0-.637,1.8C221.247,120.7,222.689,123.669,224.191,125.647Z" transform="translate(195.832 115.102)" fill="#2fb972"/>
    <path id="Path_76075" data-name="Path 76075" d="M244.141,131.1c0,.06,3.465-2.659,3.664-2.862,2.316-2.385,5.6-8.345,4.176-11.981a4.7,4.7,0,0,0-1.023-1.546,3.971,3.971,0,0,0-1.486-.937,3.578,3.578,0,0,0-1.691-.165,3.767,3.767,0,0,0-1.6.634c-2.088,1.359-3.131,4.577-3.476,7.152C242.365,124.469,244.141,131.087,244.141,131.1Z" transform="translate(231.256 139.779)" fill="#2fb972"/>
    <path id="Path_76076" data-name="Path 76076" d="M386.6,56.877H45.942V429.715H386.6Z" transform="translate(43.783 70.002)" stroke="#000" stroke-linecap="round" stroke-linejoin="round" stroke-width="0.534"/>
    <path id="Path_76077" data-name="Path 76077" d="M389.492,54.621H48.838V427.46H389.492Z" transform="translate(46.544 67.226)" fill="#fff" stroke="#000" stroke-linecap="round" stroke-linejoin="round" stroke-width="0.534"/>
    <path id="Path_76078" data-name="Path 76078" d="M134.522,62.692V397.736" transform="translate(128.201 77.159)" fill="none" stroke="#000" stroke-linecap="round" stroke-linejoin="round" stroke-width="0.534"/>
    <g id="Group_883" data-name="Group 883" transform="translate(281.052 137.787)" opacity="0.2">
      <path id="Path_76082" data-name="Path 76082" d="M166.119,85.983H143.907V97.512h22.212Z" transform="translate(-143.907 -31.962)"/>
      <path id="Path_76083" data-name="Path 76083" d="M172.479,79.553H150.267V91.082h22.212Z" transform="translate(-137.846 -39.875)"/>
      <path id="Path_76084" data-name="Path 76084" d="M179.4,85.983H157.188V97.512H179.4Z" transform="translate(-131.25 -31.962)"/>
      <path id="Path_76085" data-name="Path 76085" d="M199.2,68.191H176.984V79.72H199.2Z" transform="translate(-112.384 -53.86)"/>
      <path id="Path_76086" data-name="Path 76086" d="M205.556,61.767H183.344V73.3h22.212Z" transform="translate(-106.323 -61.767)"/>
      <path id="Path_76087" data-name="Path 76087" d="M212.483,68.191H190.271V79.72h22.212Z" transform="translate(-99.721 -53.86)"/>
      <path id="Path_76088" data-name="Path 76088" d="M179.4,102.476H157.188V114H179.4Z" transform="translate(-131.25 -11.663)"/>
      <path id="Path_76089" data-name="Path 76089" d="M185.76,96.052H163.548V107.58H185.76Z" transform="translate(-125.189 -19.569)"/>
      <path id="Path_76090" data-name="Path 76090" d="M192.687,102.476H170.475V114h22.212Z" transform="translate(-118.587 -11.663)"/>
      <path id="Path_76091" data-name="Path 76091" d="M214.963,151.106H192.751v11.529h22.212Z" transform="translate(-97.358 48.189)"/>
      <path id="Path_76092" data-name="Path 76092" d="M221.323,144.682H199.111v11.529h22.212Z" transform="translate(-91.297 40.283)"/>
      <path id="Path_76093" data-name="Path 76093" d="M228.249,151.106H206.037v11.529h22.212Z" transform="translate(-84.696 48.189)"/>
      <path id="Path_76094" data-name="Path 76094" d="M214.963,204.664H192.751v11.529h22.212Z" transform="translate(-97.358 114.107)"/>
      <path id="Path_76095" data-name="Path 76095" d="M221.323,198.24H199.111v11.529h22.212Z" transform="translate(-91.297 106.2)"/>
      <path id="Path_76096" data-name="Path 76096" d="M228.249,204.664H206.037v11.529h22.212Z" transform="translate(-84.696 114.107)"/>
      <path id="Path_76097" data-name="Path 76097" d="M169.117,162.891H146.9V174.42h22.212Z" transform="translate(-141.05 62.694)"/>
      <path id="Path_76098" data-name="Path 76098" d="M175.477,156.461H153.265v11.531h22.212Z" transform="translate(-134.989 54.78)"/>
      <path id="Path_76099" data-name="Path 76099" d="M182.4,162.891H160.192V174.42H182.4Z" transform="translate(-128.387 62.694)"/>
      <path id="Path_76100" data-name="Path 76100" d="M169.117,181.527H146.9v11.529h22.212Z" transform="translate(-141.05 85.63)"/>
      <path id="Path_76101" data-name="Path 76101" d="M175.477,175.1H153.265v11.529h22.212Z" transform="translate(-134.989 77.724)"/>
      <path id="Path_76102" data-name="Path 76102" d="M182.4,181.527H160.192v11.529H182.4Z" transform="translate(-128.387 85.63)"/>
      <path id="Path_76103" data-name="Path 76103" d="M195.9,181.527H173.687v11.529H195.9Z" transform="translate(-115.526 85.63)"/>
      <path id="Path_76104" data-name="Path 76104" d="M202.259,175.1H180.047v11.529h22.212Z" transform="translate(-109.465 77.724)"/>
      <path id="Path_76105" data-name="Path 76105" d="M209.18,181.527H186.968v11.529H209.18Z" transform="translate(-102.869 85.63)"/>
    </g>
    <g id="Group_1002" data-name="Group 1002" transform="translate(100.841 139.85)" opacity="0.2">
      <path id="Path_76082-2" data-name="Path 76082" d="M166.119,85.983H143.907V97.512h22.212Z" transform="translate(-143.907 -31.962)"/>
      <path id="Path_76083-2" data-name="Path 76083" d="M172.479,79.553H150.267V91.082h22.212Z" transform="translate(-137.846 -39.875)"/>
      <path id="Path_76084-2" data-name="Path 76084" d="M179.4,85.983H157.188V97.512H179.4Z" transform="translate(-131.25 -31.962)"/>
      <path id="Path_76085-2" data-name="Path 76085" d="M199.2,68.191H176.984V79.72H199.2Z" transform="translate(-112.384 -53.86)"/>
      <path id="Path_76086-2" data-name="Path 76086" d="M205.556,61.767H183.344V73.3h22.212Z" transform="translate(-106.323 -61.767)"/>
      <path id="Path_76087-2" data-name="Path 76087" d="M212.483,68.191H190.271V79.72h22.212Z" transform="translate(-99.721 -53.86)"/>
      <path id="Path_76088-2" data-name="Path 76088" d="M179.4,102.476H157.188V114H179.4Z" transform="translate(-131.25 -11.663)"/>
      <path id="Path_76089-2" data-name="Path 76089" d="M185.76,96.052H163.548V107.58H185.76Z" transform="translate(-125.189 -19.569)"/>
      <path id="Path_76090-2" data-name="Path 76090" d="M192.687,102.476H170.475V114h22.212Z" transform="translate(-118.587 -11.663)"/>
      <path id="Path_76091-2" data-name="Path 76091" d="M214.963,151.106H192.751v11.529h22.212Z" transform="translate(-97.358 48.189)"/>
      <path id="Path_76092-2" data-name="Path 76092" d="M221.323,144.682H199.111v11.529h22.212Z" transform="translate(-91.297 40.283)"/>
      <path id="Path_76093-2" data-name="Path 76093" d="M228.249,151.106H206.037v11.529h22.212Z" transform="translate(-84.696 48.189)"/>
      <path id="Path_76094-2" data-name="Path 76094" d="M214.963,204.664H192.751v11.529h22.212Z" transform="translate(-97.358 114.107)"/>
      <path id="Path_76095-2" data-name="Path 76095" d="M221.323,198.24H199.111v11.529h22.212Z" transform="translate(-91.297 106.2)"/>
      <path id="Path_76096-2" data-name="Path 76096" d="M228.249,204.664H206.037v11.529h22.212Z" transform="translate(-84.696 114.107)"/>
      <path id="Path_76097-2" data-name="Path 76097" d="M169.117,162.891H146.9V174.42h22.212Z" transform="translate(-141.05 62.694)"/>
      <path id="Path_76098-2" data-name="Path 76098" d="M175.477,156.461H153.265v11.531h22.212Z" transform="translate(-134.989 54.78)"/>
      <path id="Path_76099-2" data-name="Path 76099" d="M182.4,162.891H160.192V174.42H182.4Z" transform="translate(-128.387 62.694)"/>
      <path id="Path_76100-2" data-name="Path 76100" d="M169.117,181.527H146.9v11.529h22.212Z" transform="translate(-141.05 85.63)"/>
      <path id="Path_76101-2" data-name="Path 76101" d="M175.477,175.1H153.265v11.529h22.212Z" transform="translate(-134.989 77.724)"/>
      <path id="Path_76102-2" data-name="Path 76102" d="M182.4,181.527H160.192v11.529H182.4Z" transform="translate(-128.387 85.63)"/>
      <path id="Path_76103-2" data-name="Path 76103" d="M195.9,181.527H173.687v11.529H195.9Z" transform="translate(-115.526 85.63)"/>
      <path id="Path_76104-2" data-name="Path 76104" d="M202.259,175.1H180.047v11.529h22.212Z" transform="translate(-109.465 77.724)"/>
      <path id="Path_76105-2" data-name="Path 76105" d="M209.18,181.527H186.968v11.529H209.18Z" transform="translate(-102.869 85.63)"/>
    </g>
    <g id="Group_1003" data-name="Group 1003" transform="translate(142.48 260.866)">
      <path id="Path_76106" data-name="Path 76106" d="M128.372,78.885H75.128v47.642h53.244Z" transform="translate(-75.128 -61.991)" fill="#2fb972" stroke="#000" stroke-linecap="round" stroke-linejoin="round" stroke-width="0.534"/>
      <path id="Path_76107" data-name="Path 76107" d="M128.372,78.885,101.75,102.718,75.128,78.885Z" transform="translate(-75.128 -58.371)" stroke="#000" stroke-linecap="round" stroke-linejoin="round" stroke-width="0.534"/>
      <path id="Path_76108" data-name="Path 76108" d="M79.393,98.813V68.041h36.534V98.575l-18.246,17.49Z" transform="translate(-71.064 -68.041)" fill="#fff" stroke="#000" stroke-linecap="round" stroke-linejoin="round" stroke-width="0.534"/>
      <path id="Path_76109" data-name="Path 76109" d="M83.85,72.819h27.8" transform="translate(-71.449 -62.161)" fill="none" stroke="#000" stroke-linecap="round" stroke-linejoin="round" stroke-width="0.534"/>
      <path id="Path_76110" data-name="Path 76110" d="M83.85,76.406h27.8" transform="translate(-71.449 -59.642)" fill="none" stroke="#000" stroke-linecap="round" stroke-linejoin="round" stroke-width="0.534"/>
      <path id="Path_76111" data-name="Path 76111" d="M83.85,79.992h27.8" transform="translate(-71.449 -56.041)" fill="none" stroke="#000" stroke-linecap="round" stroke-linejoin="round" stroke-width="0.534"/>
      <path id="Path_76112" data-name="Path 76112" d="M75.128,116.759l26.693-29.926,26.551,29.926Z" transform="translate(-75.128 -52.21)" fill="#197747" stroke="#000" stroke-linecap="round" stroke-linejoin="round" stroke-width="0.534"/>
    </g>
    <path id="Path_76144" data-name="Path 76144" d="M82.722,208.427a3.618,3.618,0,0,1-1.941-.489A3.022,3.022,0,0,1,79.6,206.46a7.584,7.584,0,0,1-.459-2.527l2.213-.417A8.9,8.9,0,0,0,81.511,205a2.028,2.028,0,0,0,.407.9.914.914,0,0,0,.678.3.626.626,0,0,0,.384-.069.743.743,0,0,0,.295-.288,1.741,1.741,0,0,0,.178-.823,2.9,2.9,0,0,0-.376-1.526,7.3,7.3,0,0,0-1.044-1.191l-1.263-1.336a6.015,6.015,0,0,1-1.148-1.539,4.539,4.539,0,0,1-.438-2.1,3.961,3.961,0,0,1,.193-1.479,3.6,3.6,0,0,1,.715-1.251,3.3,3.3,0,0,1,2.5-.955,3.057,3.057,0,0,1,1.555.359,2.433,2.433,0,0,1,.939.953,3.891,3.891,0,0,1,.47,1.3,9.079,9.079,0,0,1,.167,1.394l-2.2.37a4.826,4.826,0,0,0-.094-1.193,1.831,1.831,0,0,0-.282-.785.807.807,0,0,0-.292-.216.735.735,0,0,0-.344-.058.653.653,0,0,0-.38.085.771.771,0,0,0-.288.3,1.656,1.656,0,0,0-.219.845,2.419,2.419,0,0,0,.3,1.193,6.4,6.4,0,0,0,.835,1.024l1.284,1.276a8.349,8.349,0,0,1,1.357,1.789,4.953,4.953,0,0,1,.574,2.492,3.992,3.992,0,0,1-.407,1.825,3.318,3.318,0,0,1-2.849,1.847Z" transform="translate(75.423 238.307)" fill="#fff"/>
    <path id="Path_76145" data-name="Path 76145" d="M83.241,208.121V193.708H85.8v14.413Z" transform="translate(79.33 238.41)" fill="#fff"/>
    <path id="Path_76146" data-name="Path 76146" d="M88.847,208.438a3.125,3.125,0,0,1-2.025-.607,3.35,3.35,0,0,1-1.044-1.753,9.8,9.8,0,0,1-.324-2.623v-4.827a9.454,9.454,0,0,1,.334-2.659,3.192,3.192,0,0,1,1.138-1.729,3.68,3.68,0,0,1,2.223-.609,3.832,3.832,0,0,1,2.088.513,2.841,2.841,0,0,1,1.138,1.468,6.48,6.48,0,0,1,.345,2.24v.834H90.2v-1.013a7.3,7.3,0,0,0-.063-1.013,1.274,1.274,0,0,0-.282-.68,1.14,1.14,0,0,0-1.482.049,1.7,1.7,0,0,0-.292.774,7.823,7.823,0,0,0-.063,1.013v6.391a5.665,5.665,0,0,0,.094,1.084,1.426,1.426,0,0,0,.355.752,1.138,1.138,0,0,0,1.482,0,1.55,1.55,0,0,0,.365-.774,5.06,5.06,0,0,0,.1-1.109v-1.6H89.191v-1.776H92.75v7.4H91.06l-.156-1.3a2.583,2.583,0,0,1-.741,1.086,2,2,0,0,1-1.316.468Z" transform="translate(81.438 238.307)" fill="#fff"/>
    <path id="Path_76147" data-name="Path 76147" d="M90.13,208.121V193.708h1.8l2.808,7.511v-7.511h2.088v14.413H95.109L92.3,200.146v7.975Z" transform="translate(85.895 238.41)" fill="#fff"/>
    <path id="Path_76148" data-name="Path 76148" d="M100.128,208.324a3.8,3.8,0,0,1-2.223-.56,2.968,2.968,0,0,1-1.117-1.622,8.814,8.814,0,0,1-.323-2.577v-9.858h2.547v10.264a8.533,8.533,0,0,0,.063,1.048,1.911,1.911,0,0,0,.313.848,1.053,1.053,0,0,0,1.493,0,1.7,1.7,0,0,0,.313-.848,8.53,8.53,0,0,0,.063-1.048V193.708h2.536v9.858a8.852,8.852,0,0,1-.322,2.577,3.009,3.009,0,0,1-1.107,1.622,3.87,3.87,0,0,1-2.236.559Z" transform="translate(91.93 238.41)" fill="#fff"/>
    <path id="Path_76149" data-name="Path 76149" d="M101.135,208.123V193.71h4a3.239,3.239,0,0,1,1.857.489,2.837,2.837,0,0,1,1.043,1.419,6.111,6.111,0,0,1,.355,2.24,5.326,5.326,0,0,1-.459,2.385,2.659,2.659,0,0,1-1.252,1.193,4.228,4.228,0,0,1-1.828.368h-1.168v6.248Zm2.566-8.345h.908a1.573,1.573,0,0,0,.857-.2.991.991,0,0,0,.266-.279,1.107,1.107,0,0,0,.15-.377,4.7,4.7,0,0,0,.115-1.133,5.554,5.554,0,0,0-.094-1.109,1.114,1.114,0,0,0-.375-.691,1.442,1.442,0,0,0-.939-.25H103.7Z" transform="translate(96.383 238.408)" fill="#fff"/>
    <path id="Path_76150" data-name="Path 76150" d="M172.231,141.513s-3.433,21.389-3.955,27.72-1.045,32.083,2.9,49.55a179.548,179.548,0,0,0,9.738,30.437s2.631,12.352,4.176,15.667,14.77,28.923,14.77,28.923-.793,10.538-1.314,12.352-2.381,12.947-1.848,16.262,1.314,5.425.521,9.646-1.848,8.428,0,12.053,6.336,3.911,7.652,1.8a17.453,17.453,0,0,0,2.547-5.84,18.709,18.709,0,0,0,.355-6.512c-.795-5.961-3.435-13.853-2.9-17.168a38.727,38.727,0,0,1,2.369-7.536s10.031,23.5,10.552,25.313,1.588,9.334,2.088,11.743,3.435-.906,4.488-2.385,5.011-7.832,4.176-12.053-3.131-11.745-3.131-11.745l3.935,5.963a.6.6,0,0,0,.334.286.528.528,0,0,0,.418-.042.645.645,0,0,0,.283-.35.754.754,0,0,0,.008-.477c-.74-2.9-1.742-6.737-2.088-7.464-.531-1.191-.793-5.126-2.9-8.43s-7.914-.31-7.914-.31L213,292.652s8.183-30.722,6.6-40.977-2.369-17.764-1.848-19.874S228.3,197.9,228.3,191.266s.262-22.593-2.9-31.333a160.117,160.117,0,0,0-7.39-16.858Z" transform="translate(160.029 174.17)" fill="#fbaf87" stroke="#000" stroke-miterlimit="10" stroke-width="0.534"/>
    <path id="Path_76151" data-name="Path 76151" d="M216.665,305.41l-3.537-12.8s8.183-30.724,6.6-40.977-2.369-17.764-1.848-19.874,9.624-33.979,10.554-40.538a64.143,64.143,0,0,0-2.9-31.331,159.734,159.734,0,0,0-7.39-16.858l-45.927-1.515s-3.433,21.389-3.957,27.72-1.043,32.083,2.9,49.55a179.552,179.552,0,0,0,9.781,30.437s2.631,12.352,4.176,15.667,14.769,28.924,14.769,28.924-.459,6.057-.908,9.775a12.949,12.949,0,0,0,6.179,2.873l2.088,2.385a6.927,6.927,0,0,0,9.42-3.438Z" transform="translate(160.009 174.17)" fill="#100773" stroke="#000" stroke-miterlimit="10" stroke-width="0.534"/>
    <path id="Path_76152" data-name="Path 76152" d="M201.679,260.693c-1.262-5.555-2.849-12.434-3.84-16.3-1.848-7.225-7.652-25.609-7.652-25.609l-4.75-54.975-8.966-6.628" transform="translate(168.179 193.456)" fill="none" stroke="#fff" stroke-linecap="round" stroke-linejoin="round" stroke-width="0.534"/>
    <path id="Path_76153" data-name="Path 76153" d="M190.867,209.913l-.992-4.4" transform="translate(180.953 252.94)" fill="none" stroke="#fff" stroke-linecap="round" stroke-linejoin="round" stroke-width="0.534"/>
    <path id="Path_76154" data-name="Path 76154" d="M189.006,154.34c-2.547,4.566-5.384,10.146-6.576,14.223" transform="translate(173.858 189.957)" fill="none" stroke="#fff" stroke-linecap="round" stroke-linejoin="round" stroke-width="0.534"/>
    <path id="Path_76155" data-name="Path 76155" d="M189.477,150.7s-1.045,1.693-2.568,4.245" transform="translate(178.127 185.477)" fill="none" stroke="#fff" stroke-linecap="round" stroke-linejoin="round" stroke-width="0.534"/>
    <path id="Path_76156" data-name="Path 76156" d="M203.69,225.945c-.533-1.193-.795-5.129-2.9-8.43a3.627,3.627,0,0,0-1.166-1.1,3.14,3.14,0,0,0-1.465-.426c1.795,5.187.125,9.336,1.043,13.269,1.045,4.52,1.848,8.43.271,11.745s-5.543,5.126-5.543,5.126h-.072c.49,2.909,1.045,6.57,1.389,8.12.531,2.382,3.433-.908,4.488-2.385s5.009-7.834,4.176-12.055-3.133-11.743-3.133-11.743l4.572,6.891a.384.384,0,0,0,.219.158.348.348,0,0,0,.258-.033.429.429,0,0,0,.18-.212.5.5,0,0,0,.023-.294C205.255,231.642,204.056,226.779,203.69,225.945Z" transform="translate(184.748 265.833)" fill="#de2323" stroke="#000" stroke-miterlimit="10" stroke-width="0.534"/>
    <path id="Path_76157" data-name="Path 76157" d="M194.072,229.092c-.387,1.43-.889,3.194-1.379,4.769-1.043,3.313-4.488,3.576-6.857.607a13.739,13.739,0,0,1-2.381-7.533c-.793,4.218-1.848,8.428,0,12.053s6.336,3.911,7.652,1.8A18.2,18.2,0,0,0,194.072,229.092Z" transform="translate(173.857 279.305)" fill="#de2323" stroke="#000" stroke-miterlimit="10" stroke-width="0.534"/>
    <path id="Path_76158" data-name="Path 76158" d="M175.163,112.925s-4.008,1.6-3.84,2.2-6.4,38.151-6.4,38.151-4.666,13.831-4.174,18.765,4.174,10.862,8.3,10.862a6.607,6.607,0,0,0,3.816-1.12,7.942,7.942,0,0,0,2.75-3.219c.867-1.383,3.81-7.906,3.81-7.906s-1.043,12.448-1.389,13.628-2.088,4.341-1.211,5.329a14.211,14.211,0,0,0,4.5,2.969,98.543,98.543,0,0,0,26.45,2.563c11.763-.787,18.85-4.339,18.85-4.339a43.409,43.409,0,0,1,1.389-4.352c.344-.6,1.043-1.575,1.043-1.575s11.064-1.383,11.753-2.182,2.6-4.136,2.422-9.479,1.555-51.54.7-52.53a34.686,34.686,0,0,0-4.916-3.337l-20.03-12.793-29.873,4.484Z" transform="translate(153.162 128.683)" fill="#2fb972" stroke="#000" stroke-linecap="round" stroke-linejoin="round" stroke-width="0.534"/>
    <path id="Path_76159" data-name="Path 76159" d="M168.219,112.716s3.623,7.571,4.519,12.4" transform="translate(160.315 138.727)" fill="none" stroke="#000" stroke-miterlimit="10" stroke-width="0.534"/>
    <path id="Path_76160" data-name="Path 76160" d="M164.254,127.7s4.728.68,6.533,3.578" transform="translate(156.536 157.172)" fill="none" stroke="#000" stroke-linecap="round" stroke-linejoin="round" stroke-width="0.534"/>
    <path id="Path_76161" data-name="Path 76161" d="M166.878,127.547s2.316,1.372,2.818,2.637" transform="translate(159.037 156.981)" fill="none" stroke="#000" stroke-linecap="round" stroke-linejoin="round" stroke-width="0.534"/>
    <path id="Path_76162" data-name="Path 76162" d="M161.9,133.658s1.9-4.339,4.843-4.937,7.087,2.565,7.087,2.565l2.42-.99,3.133,7.308-1.045,3.362" transform="translate(154.29 158.334)" fill="none" stroke="#000" stroke-linecap="round" stroke-linejoin="round" stroke-width="0.534"/>
    <path id="Path_76163" data-name="Path 76163" d="M200.947,113.8s-2.6,6.712-3.424,8.907" transform="translate(188.242 140.063)" fill="none" stroke="#000" stroke-linecap="round" stroke-linejoin="round" stroke-width="0.534"/>
    <path id="Path_76164" data-name="Path 76164" d="M200.627,146.525l-10.062-10.848" transform="translate(181.611 166.987)" fill="none" stroke="#000" stroke-linecap="round" stroke-linejoin="round" stroke-width="0.534"/>
    <path id="Path_76165" data-name="Path 76165" d="M198.617,143.113l-10.083-5.961" transform="translate(179.675 168.802)" fill="none" stroke="#000" stroke-linecap="round" stroke-linejoin="round" stroke-width="0.534"/>
    <path id="Path_76166" data-name="Path 76166" d="M173.788,146.064l26.639-3.29" transform="translate(165.622 175.722)" fill="none" stroke="#000" stroke-linecap="round" stroke-linejoin="round" stroke-width="0.534"/>
    <path id="Path_76167" data-name="Path 76167" d="M186.715,111.99s-3.07,34.336-3.248,36.183" transform="translate(174.847 137.834)" fill="none" stroke="#000" stroke-linecap="round" stroke-linejoin="round" stroke-width="0.534"/>
    <path id="Path_76168" data-name="Path 76168" d="M183.072,134.2l-.9,11.3" transform="translate(173.614 165.17)" fill="none" stroke="#000" stroke-linecap="round" stroke-linejoin="round" stroke-width="0.534"/>
    <path id="Path_76169" data-name="Path 76169" d="M200.882,106.149l-2.65,7.654-8.738,11.408-7.806-11.767.646-14.843,9.812,10.218Z" transform="translate(173.151 121.356)" fill="#fbaf87" stroke="#000" stroke-miterlimit="10" stroke-width="0.534"/>
    <path id="Path_76170" data-name="Path 76170" d="M206.094,81.153s-15.376,6.355-17.5,11.35a85.431,85.431,0,0,0-4.1,14.676c0,.608-7.306,3.946-8.748,6.51s.125,10.145,0,12.269-6.888,4.542-7.556,9.226a17.349,17.349,0,0,0,.135,7.154l11.8-2.121s7.681,3.48,11.794,1.669,4.5-10.9,4.238-13.924-.668-7.273-.668-7.273l5.437-17.574,12.318-4.244,7.818,8.346-7.181,21.556s-2.265,5.233-1.869,6.594,4.019,2.73,4.019,2.73l16.169,8.631a11.5,11.5,0,0,0,.4-4.388c-.262-2.385-3.717-7.571-3.717-9.084s4.509-7.417,2.39-12.71-4.373-8.179-5.564-10.9,1.045-7.881-1.324-14.533S214.173,82.7,212.054,81.343,206.094,81.153,206.094,81.153Z" transform="translate(159.997 99.305)" stroke="#000" stroke-miterlimit="10" stroke-width="0.534"/>
    <path id="Path_76171" data-name="Path 76171" d="M198.188,86.389s-11.919,6.057-12.849,8.93-3.443,16.2-3.318,18.313,8.089,13.02,9.675,13.33,9.759-5.1,11.222-6.32,6.261-19.422,6.136-22.295S199.514,86.556,198.188,86.389Z" transform="translate(173.464 106.325)" fill="#fbaf87" stroke="#000" stroke-miterlimit="10" stroke-width="0.534"/>
    <path id="Path_76172" data-name="Path 76172" d="M183.66,97.68c8.121-2.48,12.974-11.29,12.974-11.29s5.98,12.22,11.4,14.08" transform="translate(175.03 106.325)" fill="none" stroke="#000" stroke-miterlimit="10" stroke-width="0.534"/>
    <path id="Path_76173" data-name="Path 76173" d="M198.081,86.389s-11.89,11.29-15.95,12.22" transform="translate(173.573 106.325)" fill="none" stroke="#000" stroke-miterlimit="10" stroke-width="0.534"/>
    <path id="Path_76180" data-name="Path 76180" d="M179.453,111.86l4.677,9.443,5.929-6.773-6.242-9.276Z" transform="translate(171.021 129.545)" fill="#2fb972" stroke="#000" stroke-linecap="round" stroke-linejoin="round" stroke-width="0.534"/>
    <path id="Path_76181" data-name="Path 76181" d="M186.8,115.771l4.217,6.951L198,108.7l-3.863-4.16Z" transform="translate(178.025 128.663)" fill="#2fb972" stroke="#000" stroke-linecap="round" stroke-linejoin="round" stroke-width="0.534"/>
    <path id="Path_76182" data-name="Path 76182" d="M181.722,144.059h-9.164l-1.148-24.24h11.46Z" transform="translate(163.356 147.47)" fill="#fff" stroke="#000" stroke-miterlimit="10" stroke-width="0.534"/>
    <path id="Path_76183" data-name="Path 76183" d="M184.475,118.889H170.79v3.672h13.685Z" transform="translate(162.765 146.325)" stroke="#000" stroke-miterlimit="10" stroke-width="0.534"/>
    <path id="Path_76184" data-name="Path 76184" d="M181.83,118.12H171.768v1.729H181.83Z" transform="translate(163.697 145.378)" stroke="#000" stroke-miterlimit="10" stroke-width="0.534"/>
    <path id="Path_76185" data-name="Path 76185" d="M174.791,142.283v.143a4.955,4.955,0,0,1-1.435,2.275,4,4,0,0,1-2.291,1,2.907,2.907,0,0,1-1.344-.163,3.216,3.216,0,0,1-1.174-.767,4.9,4.9,0,0,1-1.043-2.826,6.708,6.708,0,0,1,.133-2.922,6.06,6.06,0,0,1,1.35-2.49c.438-.6,2.088-2.135,2.213-2.9l.93-8.345s9.1-2.385,9.884-2.253a.966.966,0,0,1,.449.2,1.173,1.173,0,0,1,.322.413,1.348,1.348,0,0,1,.021,1.077c-.2.678-1.576,1.013-1.879,1.12s-4.75,1.359-4.75,1.359L174.6,129.35a17.977,17.977,0,0,1,2.371-1.131c.3,0,5.218-.787,5.834-.895a.927.927,0,0,1,.518.127,1.091,1.091,0,0,1,.4.4,1.318,1.318,0,0,1,.174.571,1.37,1.37,0,0,1-.094.6c-.4.906-.689,1.12-.992,1.12s-5.218,1.026-5.218,1.026l-2.765,2.706s3.758-1.359,4.174-1.359,3.853-.109,3.957.571a1.6,1.6,0,0,1-.107,1.024,1.313,1.313,0,0,1-.686.669c-.689.228-3.361.68-3.361.68l-2.974,1.8H178.7s2.777,1.024,3.361,1.191,1.045.453.2,1.468-6.941.2-6.941.2S174.9,141.734,174.791,142.283Z" transform="translate(159.537 151.427)" fill="#fbaf87" stroke="#000" stroke-miterlimit="10" stroke-width="0.534"/>
    <path id="Path_76186" data-name="Path 76186" d="M196.707,132.014l-1.963,2.994s0,17.882.617,19.374S200.767,160,203.345,160s7.63-6.737,7.871-7.857-6.388-22.892-6.263-23.452-.6-1.263-1.471-1.263S196.707,132.014,196.707,132.014Z" transform="translate(185.594 156.831)" fill="#2fb972" stroke="#000" stroke-linecap="round" stroke-linejoin="round" stroke-width="0.534"/>
    <path id="Path_76187" data-name="Path 76187" d="M203.462,124.709l.312,7.56s-.365,3.087-2.088,4.352a7.776,7.776,0,0,1-4.06,1.263l-1.1-2.527-1.713-1.968Z" transform="translate(185.655 153.488)" fill="#fbaf87" stroke="#000" stroke-miterlimit="10" stroke-width="0.534"/>
    <path id="Path_76188" data-name="Path 76188" d="M210.135,121.741l-12.452-2.969-7.8,23.749,10.533,2.193Z" transform="translate(180.964 146.181)" stroke="#000" stroke-miterlimit="10" stroke-width="0.534"/>
    <path id="Path_76189" data-name="Path 76189" d="M203.512,122.809s-8.349.428-8.443,1.191.187,1.693.469,1.8,7.693,1.276,7.693,1.276,2.088-.535,1.941-2.443a2.055,2.055,0,0,0-.117-.723,1.856,1.856,0,0,0-.363-.607,1.543,1.543,0,0,0-.543-.388,1.363,1.363,0,0,0-.637-.106Z" transform="translate(185.886 151.145)" fill="#fbaf87" stroke="#000" stroke-miterlimit="10" stroke-width="0.534"/>
    <path id="Path_76190" data-name="Path 76190" d="M200.9,124.79s-7.306-.955-7.693-.417-.74,1.263.365,1.8a76.759,76.759,0,0,0,8.351,2.646,3.182,3.182,0,0,0,1.453-.464,3.7,3.7,0,0,0,1.146-1.12,2.28,2.28,0,0,0,.258-.83,2.367,2.367,0,0,0-.07-.877Z" transform="translate(183.77 152.872)" fill="#fbaf87" stroke="#000" stroke-miterlimit="10" stroke-width="0.534"/>
    <path id="Path_76191" data-name="Path 76191" d="M197.977,126.151s-5.564-1.265-5.845-.634-.365,1.693.187,2.124,7.974,2.742,8.433,2.956,1.576-.417,1.943-1.263a3.329,3.329,0,0,0,.094-1.91Z" transform="translate(182.894 154.266)" fill="#fbaf87" stroke="#000" stroke-miterlimit="10" stroke-width="0.534"/>
    <path id="Path_76192" data-name="Path 76192" d="M197.292,127.687s-4.176-.955-4.353-.417-.281,1.693.553,2,5.658,2.539,6.494,1.907.553-2.324.553-2.324Z" transform="translate(183.756 156.437)" fill="#fbaf87" stroke="#000" stroke-miterlimit="10" stroke-width="0.534"/>
    <path id="Path_76193" data-name="Path 76193" d="M210.993,64.909H248.85a6.035,6.035,0,0,1,4.533,2.144,7.884,7.884,0,0,1,1.877,5.176v29.3a7.885,7.885,0,0,1-1.877,5.176,6.035,6.035,0,0,1-4.533,2.144H226.619l-10.167,16.358V108.856h-5.459a5.725,5.725,0,0,1-2.457-.554,6.432,6.432,0,0,1-2.082-1.586,7.468,7.468,0,0,1-1.393-2.376,8.246,8.246,0,0,1-.488-2.8V72.23a8.247,8.247,0,0,1,.488-2.8,7.469,7.469,0,0,1,1.393-2.376,6.431,6.431,0,0,1,2.082-1.586,5.725,5.725,0,0,1,2.457-.559Z" transform="translate(194.961 79.888)" fill="#2fb972" stroke="#000" stroke-linecap="round" stroke-linejoin="round" stroke-width="0.534"/>
    <path id="Path_76194" data-name="Path 76194" d="M221.769,101.249a4.289,4.289,0,0,1-2.066-.663,5.026,5.026,0,0,1-1.6-1.638l-6.879-11.267a5.989,5.989,0,0,1-.732-3.988,5.483,5.483,0,0,1,1.932-3.426,4.24,4.24,0,0,1,3.48-.888,4.671,4.671,0,0,1,3.025,2.162l3.34,5.472,13.57-18.885a4.906,4.906,0,0,1,1.42-1.337,4.3,4.3,0,0,1,1.76-.615,4.163,4.163,0,0,1,1.834.2,4.576,4.576,0,0,1,1.625.987,5.315,5.315,0,0,1,1.17,1.622,5.979,5.979,0,0,1,.54,2.015,6.083,6.083,0,0,1-.178,2.093,5.645,5.645,0,0,1-.863,1.856L230.794,92.076l-5.205,7.218a4.853,4.853,0,0,1-1.623,1.442,4.232,4.232,0,0,1-2.01.513Z" transform="translate(200.529 81.415)" fill="#2fb972"/>
    <path id="Path_76195" data-name="Path 76195" d="M239.871,68a3.329,3.329,0,0,1,2.316.954,4.1,4.1,0,0,1,.908,1.255,4.594,4.594,0,0,1,.414,1.556,4.657,4.657,0,0,1-.139,1.619,4.365,4.365,0,0,1-.672,1.435L225.175,99.17a3.774,3.774,0,0,1-1.266,1.125,3.288,3.288,0,0,1-1.564.4h-.125a3.313,3.313,0,0,1-1.607-.512,3.884,3.884,0,0,1-1.242-1.276L212.492,87.64a4.471,4.471,0,0,1-.621-1.5,4.789,4.789,0,0,1-.057-1.66,4.526,4.526,0,0,1,.514-1.555,3.97,3.97,0,0,1,1-1.2,3.429,3.429,0,0,1,1.334-.66,3.212,3.212,0,0,1,1.455-.012,3.428,3.428,0,0,1,1.344.637,3.977,3.977,0,0,1,1.019,1.186l4.176,6.76,14.466-20.089a3.725,3.725,0,0,1,1.258-1.129,3.244,3.244,0,0,1,1.56-.4m0-2.384a5.136,5.136,0,0,0-2.453.622,5.9,5.9,0,0,0-1.982,1.763L222.794,85.674,220.248,81.5a5.632,5.632,0,0,0-3.668-2.416,5.2,5.2,0,0,0-4.121,1.113,6.671,6.671,0,0,0-2.33,4.037A7.358,7.358,0,0,0,210.854,89l6.879,11.279a6.143,6.143,0,0,0,1.953,2,5.254,5.254,0,0,0,2.525.806h.23a5.149,5.149,0,0,0,2.451-.624,5.909,5.909,0,0,0,1.984-1.76L244.307,76.35a7.053,7.053,0,0,0,1.269-3.36,7.4,7.4,0,0,0-.506-3.613,6.363,6.363,0,0,0-2.121-2.741,5.234,5.234,0,0,0-3.078-1.016Z" transform="translate(200.141 80.763)" fill="#fff"/>
  </g>
</svg>
