<svg xmlns="http://www.w3.org/2000/svg" width="378" height="371" viewBox="0 0 378 371">
  <g id="Group_973" data-name="Group 973" transform="translate(353 4106)">
    <path id="Path_73061" data-name="Path 73061" d="M362.227,250.623c-37.959,87.068-138.159,124.466-216.666,118.09-21.436-1.741-64.565-5.244-98.241-36.5C-17.353,272.2-7.393,146.75,54.517,72.891,62.49,63.38,117.675-.347,203.672.507c62.961.625,107.154,35.527,112.528,39.875a171.234,171.234,0,0,1,35.254,39.253C383.159,128.291,385.947,196.215,362.227,250.623Z" transform="translate(-353 -4106)" fill="#dae3fe"/>
    <path id="Path_73062" data-name="Path 73062" d="M.569,5.88C-.584,3.4,2.692.885,5.3,2.236c26.481,13.719,92.394,57.65,99.072,157.526,8.377,125.308,46.684,163.528,88.49,182.914,0,0-52.314-2.166-92.951-40.57C.138,207.811,21.055,50.041.569,5.88Z" transform="translate(-353 -4106)" fill="#91b3fa"/>
    <path id="Path_73063" data-name="Path 73063" d="M25.7,39.135c5.654,13,11.008,26.105,15.8,39.4q7.311,19.892,13.206,40.209c3.863,13.553,7.434,27.184,10.337,40.964,2.974,13.764,5.269,27.661,7.518,41.624,2.336,13.939,4.6,28,8.508,41.808A127.4,127.4,0,0,0,99.3,282.421c2.125,2.99,4.322,5.955,6.7,8.763,2.319,2.853,4.788,5.608,7.314,8.319a151.257,151.257,0,0,0,16.548,15.167,164.745,164.745,0,0,0,40.009,22.778,3.432,3.432,0,0,0,4.175-1.408,2.5,2.5,0,0,0-1.26-3.593l-.01,0c-3.469-1.507-6.911-3.05-10.255-4.727-1.689-.814-3.329-1.7-4.989-2.548-1.617-.908-3.279-1.76-4.861-2.715a149.262,149.262,0,0,1-18.149-12.37,151.44,151.44,0,0,1-29.365-31.066A123.941,123.941,0,0,1,94.722,260.9a137.157,137.157,0,0,1-7.275-19.523c-3.913-13.379-6.284-27.27-8.735-41.188-2.471-13.917-5.064-27.881-8.307-41.695q-2.4-10.366-5.224-20.626c-.918-3.424-1.912-6.829-2.9-10.236q-1.537-5.093-3.147-10.164Q52.627,97.2,44.7,77.417C39.339,64.262,33.578,51.258,27.247,38.5a.841.841,0,0,0-1.092-.33A.747.747,0,0,0,25.7,39.135Z" transform="translate(-353 -4106)" fill="#fff"/>
    <path id="Path_73064" data-name="Path 73064" d="M134.211,267.419a5.868,5.868,0,0,1-9.371,2.3c-16.963-14.943-61.028-61.446-57.148-138.555,3.277-65.116-1.255-100.729-4.454-116.757a3.644,3.644,0,0,1,6.047-3.323C97.929,36.819,184.435,129.063,134.211,267.419Z" transform="translate(-350.757 -4106)" fill="#bdd0fb"/>
    <path id="Path_73065" data-name="Path 73065" d="M128.617,267.481a1.634,1.634,0,0,1-2.388-.7c-.392-.913-39.175-92.352-38.789-183.093a1.614,1.614,0,0,1,3.227.013c-.384,90.08,38.147,180.944,38.536,181.851A1.565,1.565,0,0,1,128.617,267.481Z" transform="translate(-350.319 -4101.318)" fill="#fff"/>
    <path id="Path_73066" data-name="Path 73066" d="M90.667,40.375c-.329,53.833-1.232,239.52,1.492,305.275.288,6.966,5.1,12.488,10.991,12.627,29.16.685,136.042,1.923,183.677-1.166,9.922-.643,17.676-10.274,17.707-22.027.152-56.5-.021-215.411-6.3-288.113C297.486,38.26,291.6,31.4,284.22,30.645c-31.795-3.274-139.23-10.825-180.367-7.039C96.434,24.289,90.721,31.572,90.667,40.375Z" transform="translate(-347.128 -4106)" fill="#09005d"/>
    <path id="Path_73067" data-name="Path 73067" d="M103.916,55.675c-.923,42.17-3.726,182.455-1.363,234.28.346,7.574,5.645,13.625,12.248,13.971,27.189,1.424,119.916,4.082,159.7-.166,7.163-.764,12.69-7.5,12.951-15.757,1.361-43.028,5.16-173.671,2.87-224.915-.365-8.175-5.988-14.773-13.1-15.4-29.43-2.595-128.007-8.349-161.828-5.73C109.041,42.45,104.076,48.375,103.916,55.675Z" transform="translate(-347.31 -4106)" fill="#3f8f66"/>
    <path id="Path_73068" data-name="Path 73068" d="M162.587,31.836a2.862,2.862,0,0,0,2.528,2.971c6.891.313,26.3,1.2,34.975,1.647,1.71.088,3.024-1.694,2.67-3.618l-.06-.328a2.792,2.792,0,0,0-2.373-2.394c-5.867-.53-23.569-1.977-35.273-1.325A2.849,2.849,0,0,0,162.587,31.836Z" transform="translate(-348.04 -4106)" fill="#fff" opacity="0.5"/>
    <path id="Path_73069" data-name="Path 73069" d="M328.649,109.523a.458.458,0,0,1-.272-.277.449.449,0,0,1,.289-.57q.864-.284,1.714-.6a.46.46,0,0,1,.589.264.447.447,0,0,1-.269.579q-.864.315-1.742.6A.467.467,0,0,1,328.649,109.523Z" transform="translate(-343 -4102.995)" fill="#bdd0fb"/>
    <path id="Path_73070" data-name="Path 73070" d="M291.979,109.384a.446.446,0,0,1-.269-.566.46.46,0,0,1,.583-.279c1.105.374,2.238.718,3.367,1.023a.449.449,0,0,1,.321.553.459.459,0,0,1-.564.314c-1.148-.31-2.3-.66-3.423-1.04Zm-5.356-2.117-.03-.012c-1.08-.491-2.157-1.022-3.2-1.578a.446.446,0,0,1-.184-.61.457.457,0,0,1,.622-.181c1.028.547,2.089,1.07,3.151,1.553a.445.445,0,0,1,.223.6A.461.461,0,0,1,286.623,107.267Zm14.39,4.372a.448.448,0,0,1-.288-.494.457.457,0,0,1,.528-.369c1.151.19,2.327.347,3.494.467a.453.453,0,0,1,.409.494.458.458,0,0,1-.5.4c-1.187-.122-2.381-.282-3.552-.475A.431.431,0,0,1,301.013,111.639Zm-22.5-8.888a.463.463,0,0,1-.094-.048c-.981-.657-1.956-1.353-2.9-2.07a.445.445,0,0,1-.08-.631.464.464,0,0,1,.644-.079c.925.705,1.884,1.391,2.849,2.037a.443.443,0,0,1,.121.624A.464.464,0,0,1,278.514,102.751Zm31.789,9.665a.449.449,0,0,1,.166-.87h.328c1.062,0,2.138-.034,3.2-.094a.45.45,0,1,1,.053.9c-1.076.061-2.169.093-3.248.1h-.333A.49.49,0,0,1,310.3,112.416ZM271.266,97a.46.46,0,0,1-.152-.095c-.862-.806-1.708-1.649-2.515-2.5a.443.443,0,0,1,.026-.635.464.464,0,0,1,.647.024c.794.841,1.626,1.67,2.475,2.464a.444.444,0,0,1,.015.636A.465.465,0,0,1,271.266,97ZM319.6,111.709a.448.448,0,0,1,.091-.864c1.157-.182,2.322-.4,3.462-.654a.458.458,0,0,1,.548.339.449.449,0,0,1-.346.538c-1.159.256-2.343.48-3.519.665A.468.468,0,0,1,319.6,111.709Zm-54.53-21.537a.455.455,0,0,1-.2-.149c-.718-.934-1.413-1.9-2.066-2.87a.444.444,0,0,1,.13-.623.463.463,0,0,1,.635.128c.643.955,1.327,1.905,2.033,2.825a.444.444,0,0,1-.09.63A.466.466,0,0,1,265.068,90.172Zm-4.981-7.724a.451.451,0,0,1-.242-.211c-.552-1.034-1.077-2.1-1.56-3.162a.447.447,0,0,1,.232-.594.462.462,0,0,1,.605.228c.476,1.047.992,2.094,1.535,3.112a.446.446,0,0,1-.194.607A.464.464,0,0,1,260.087,82.448Zm-3.624-8.417a.455.455,0,0,1-.272-.28c-.369-1.105-.709-2.239-1.008-3.369a.449.449,0,0,1,.328-.549.459.459,0,0,1,.559.322c.295,1.112.628,2.227.992,3.315a.448.448,0,0,1-.292.568A.465.465,0,0,1,256.463,74.03ZM254.3,65.141a.453.453,0,0,1-.289-.352c-.18-1.153-.325-2.326-.432-3.488a.458.458,0,0,1,.913-.08c.1,1.143.248,2.3.425,3.432a.45.45,0,0,1-.383.512A.464.464,0,0,1,254.3,65.141Zm-.657-9.12a.451.451,0,0,1-.294-.425c.013-1.172.063-2.354.149-3.512a.458.458,0,0,1,.914.065c-.084,1.14-.134,2.3-.146,3.457a.454.454,0,0,1-.463.445A.47.47,0,0,1,253.641,56.021Zm.855-9.107a.448.448,0,0,1-.287-.5c.205-1.144.45-2.3.729-3.442a.459.459,0,0,1,.553-.332.451.451,0,0,1,.339.542c-.275,1.122-.516,2.261-.718,3.387a.458.458,0,0,1-.531.365A.452.452,0,0,1,254.5,46.914Zm2.362-8.846a.449.449,0,0,1-.268-.569q.256-.714.533-1.419c.244-.626.5-1.251.765-1.858a.462.462,0,0,1,.586-.244l.015.006a.447.447,0,0,1,.243.59c-.26.6-.513,1.212-.753,1.828q-.271.693-.524,1.4a.461.461,0,0,1-.585.275Z" transform="translate(-343 -4106)" fill="#bdd0fb"/>
    <path id="Path_73071" data-name="Path 73071" d="M260.689,29.695a.43.43,0,0,1-.058-.026.445.445,0,0,1-.18-.611q.447-.794.919-1.572a.463.463,0,0,1,.628-.157.445.445,0,0,1,.16.617q-.465.765-.9,1.547A.463.463,0,0,1,260.689,29.695Z" transform="translate(-345.889 -4106)" fill="#bdd0fb"/>
    <path id="Path_73072" data-name="Path 73072" d="M295.242,2.859a.447.447,0,0,1,.041-.853q.888-.242,1.788-.457a.459.459,0,0,1,.554.331.449.449,0,0,1-.337.543q-.885.211-1.759.45A.466.466,0,0,1,295.242,2.859Z" transform="translate(-343 -4106)" fill="#bdd0fb"/>
    <path id="Path_73073" data-name="Path 73073" d="M361.948,80.491l-.033-.014a.447.447,0,0,1-.218-.6c.53-1.095,1.028-2.222,1.483-3.351a.461.461,0,0,1,.59-.255l.005,0a.447.447,0,0,1,.258.583c-.462,1.148-.97,2.294-1.507,3.406A.462.462,0,0,1,361.948,80.491Zm3.426-9.054a.448.448,0,0,1-.278-.539c.327-1.167.619-2.363.867-3.553A.458.458,0,0,1,366.5,67a.45.45,0,0,1,.357.531c-.252,1.21-.549,2.425-.881,3.611a.459.459,0,0,1-.563.315Zm1.773-9.5a.448.448,0,0,1-.292-.462c.116-1.2.192-2.432.228-3.647a.459.459,0,0,1,.917.026c-.037,1.235-.115,2.482-.232,3.706a.457.457,0,0,1-.5.406A.468.468,0,0,1,367.147,61.937Zm.085-9.658a.451.451,0,0,1-.293-.386c-.1-1.21-.232-2.431-.408-3.631a.451.451,0,0,1,.389-.509.458.458,0,0,1,.519.381c.179,1.219.318,2.46.414,3.69a.452.452,0,0,1-.422.483A.472.472,0,0,1,367.232,52.28Zm-1.6-9.527a.451.451,0,0,1-.28-.309c-.307-1.175-.658-2.354-1.042-3.5a.448.448,0,0,1,.292-.568.461.461,0,0,1,.579.287c.391,1.169.747,2.367,1.059,3.562a.45.45,0,0,1-.331.547A.466.466,0,0,1,365.632,42.753Zm-3.259-9.1a.454.454,0,0,1-.254-.234c-.509-1.1-1.062-2.205-1.646-3.275a.446.446,0,0,1,.188-.609.464.464,0,0,1,.621.184c.593,1.088,1.156,2.208,1.672,3.329a.446.446,0,0,1-.228.6A.465.465,0,0,1,362.373,33.648Zm-4.819-8.417a.451.451,0,0,1-.214-.166c-.7-1-1.437-1.995-2.2-2.949a.444.444,0,0,1,.078-.631.464.464,0,0,1,.644.077c.774.969,1.525,1.978,2.234,3a.445.445,0,0,1-.121.625A.465.465,0,0,1,357.554,25.231ZM303.011,1.306a.448.448,0,0,1,.1-.866c1.243-.161,2.511-.283,3.766-.364a.454.454,0,0,1,.487.419.452.452,0,0,1-.427.478c-1.235.08-2.482.2-3.707.358A.461.461,0,0,1,303.011,1.306Zm48.318,16.445a.457.457,0,0,1-.164-.107c-.862-.87-1.764-1.723-2.682-2.536a.444.444,0,0,1-.032-.635.465.465,0,0,1,.647-.033c.933.826,1.849,1.693,2.725,2.577a.443.443,0,0,1-.01.636A.465.465,0,0,1,351.329,17.751ZM312.847.87a.448.448,0,0,1-.294-.438A.454.454,0,0,1,313.029,0c1.257.05,2.528.141,3.775.27a.454.454,0,0,1,.408.495.457.457,0,0,1-.505.4C315.48,1.037,314.23.948,312.992.9A.46.46,0,0,1,312.847.87Zm31.042,10.559a.47.47,0,0,1-.106-.056c-1-.712-2.038-1.4-3.085-2.047a.446.446,0,0,1-.144-.62.462.462,0,0,1,.632-.141c1.064.657,2.119,1.357,3.136,2.08a.445.445,0,0,1,.1.628A.462.462,0,0,1,343.889,11.429ZM322.614,2.087a.449.449,0,0,1-.284-.515.458.458,0,0,1,.545-.344c1.228.261,2.463.566,3.671.906a.442.442,0,0,1,.314.556.46.46,0,0,1-.567.308c-1.188-.335-2.4-.634-3.612-.891A.514.514,0,0,1,322.614,2.087Zm12.835,4.366-.037-.016c-1.112-.532-2.255-1.035-3.4-1.493a.446.446,0,0,1-.251-.587.467.467,0,0,1,.6-.246c1.164.467,2.327.977,3.456,1.518a.445.445,0,0,1,.21.6A.461.461,0,0,1,335.449,6.453Z" transform="translate(-343 -4106)" fill="#bdd0fb"/>
    <path id="Path_73074" data-name="Path 73074" d="M358.041,87.3a.5.5,0,0,1-.089-.045.444.444,0,0,1-.13-.623q.5-.743.977-1.5a.463.463,0,0,1,.63-.147.445.445,0,0,1,.151.619q-.484.772-.993,1.528A.463.463,0,0,1,358.041,87.3Z" transform="translate(-343 -4103.632)" fill="#bdd0fb"/>
    <path id="Path_73075" data-name="Path 73075" d="M343.867,84.089a.66.66,0,0,0,.154-.763L340.607,75.9a35.152,35.152,0,0,0,4.813-10.49l7.928-2.424a.672.672,0,0,0,.479-.619l.3-9.772a.669.669,0,0,0-.441-.646l-7.765-2.884a35.126,35.126,0,0,0-4.166-10.753l3.861-7.217a.66.66,0,0,0-.108-.77L338.673,23.2a.693.693,0,0,0-.778-.151L330.32,26.4a36.549,36.549,0,0,0-10.694-4.721L317.155,13.9a.681.681,0,0,0-.631-.47l-9.963-.292a.684.684,0,0,0-.659.432l-2.94,7.618A36.617,36.617,0,0,0,292,25.277l-7.358-3.787a.693.693,0,0,0-.785.106L276.6,28.3a.66.66,0,0,0-.154.763l3.414,7.431a35.151,35.151,0,0,0-4.813,10.489l-7.928,2.424a.67.67,0,0,0-.479.619l-.3,9.772a.669.669,0,0,0,.441.646l7.765,2.884a35.074,35.074,0,0,0,4.166,10.753L274.855,81.3a.66.66,0,0,0,.108.77l6.834,7.117a.691.691,0,0,0,.777.151l7.575-3.349a36.544,36.544,0,0,0,10.694,4.721l2.471,7.776a.681.681,0,0,0,.631.47l9.963.292a.683.683,0,0,0,.659-.432l2.94-7.618a36.626,36.626,0,0,0,10.962-4.086l7.358,3.787a.692.692,0,0,0,.785-.105Z" transform="translate(-343 -4106)" fill="#bdd0fb"/>
    <path id="Path_73076" data-name="Path 73076" d="M306.918,64.723a9.185,9.185,0,0,1-5.773-6.559,8.929,8.929,0,0,1,1.242-6.881,9.25,9.25,0,0,1,5.84-4,9.4,9.4,0,0,1,7.015,1.219,9.07,9.07,0,0,1-3,16.613A9.422,9.422,0,0,1,306.918,64.723Zm6.3-16.223a8.485,8.485,0,0,0-4.8-.343,8.339,8.339,0,0,0-5.265,3.61,8.048,8.048,0,0,0-1.119,6.2,8.4,8.4,0,0,0,10,6.262,8.178,8.178,0,0,0,2.7-14.977A8.55,8.55,0,0,0,313.222,48.5Z" transform="translate(-343 -4106)" fill="#fff"/>
    <path id="Path_73077" data-name="Path 73077" d="M301.327,78.512a24.087,24.087,0,0,1-15.748-23.177,23.555,23.555,0,0,1,1.6-7.867,24.745,24.745,0,0,1,40.734-7.9,23.723,23.723,0,0,1,6.055,21.846c-.033.143-.068.285-.1.427,0,.019-.011.036-.017.054a.461.461,0,0,1-.538.275.452.452,0,0,1-.335-.544,22.835,22.835,0,0,0-5.729-21.441,23.819,23.819,0,0,0-39.21,7.6,22.684,22.684,0,0,0-1.544,7.573,23.365,23.365,0,0,0,22.876,23.822,23.924,23.924,0,0,0,12.208-2.923.464.464,0,0,1,.624.173.441.441,0,0,1,.028.38.453.453,0,0,1-.2.232,24.967,24.967,0,0,1-20.7,1.465Z" transform="translate(-343 -4106)" fill="#fff"/>
    <path id="Path_73078" data-name="Path 73078" d="M3.659,50.65,171.61,49.93a2.851,2.851,0,0,1,2.9,2.84l-.358,57.666a2.85,2.85,0,0,1-2.961,2.806c-14.81-.433-166.6-2.344-169.506-2.225-2.868.118-1.31-45.421-.882-57.641A2.852,2.852,0,0,1,3.659,50.65Z" transform="translate(-353 -4106)" fill="#2fb972"/>
    <path id="Path_73079" data-name="Path 73079" d="M171.282,110.96h-.017c-9.46-.277-100.111-1.387-143.676-1.92-12.792-.157-21.876-.268-24.293-.3l-.183,0-.032-.176c-1.03-5.7-1.011-24.753.052-55.107a.546.546,0,0,1,.547-.522l167.952-.72a.557.557,0,0,1,.4.16.524.524,0,0,1,.159.384l-.358,57.667A.546.546,0,0,1,171.282,110.96Zm-167.8-2.653c2.668.037,11.622.146,24.108.3,43.566.533,134.221,1.643,143.684,1.92h.013a.106.106,0,0,0,.1-.108l.359-57.666a.1.1,0,0,0-.032-.077.108.108,0,0,0-.081-.032l-167.95.72a.107.107,0,0,0-.108.1C2.524,83.485,2.493,102.43,3.486,108.307Z" transform="translate(-353 -4106)" fill="#fff" opacity="0.54"/>
    <path id="Path_73080" data-name="Path 73080" d="M10.845,65.542c0,1.559.531,2.824,1.185,2.824H76.363c.654,0,1.185-1.264,1.185-2.824s-.53-2.824-1.185-2.824H12.029C11.375,62.719,10.845,63.983,10.845,65.542Z" transform="translate(-353 -4106)" fill="#fff" opacity="0.8"/>
    <path id="Path_73081" data-name="Path 73081" d="M10.845,75.167c0,1.559.531,2.824,1.185,2.824H76.363c.654,0,1.185-1.264,1.185-2.824s-.53-2.823-1.185-2.823H12.029C11.375,72.344,10.845,73.608,10.845,75.167Z" transform="translate(-353 -4103.964)" fill="#fff" opacity="0.8"/>
    <path id="Path_73082" data-name="Path 73082" d="M10.845,84.794c0,1.559.531,2.824,1.185,2.824H76.363c.654,0,1.185-1.264,1.185-2.824s-.53-2.823-1.185-2.823H12.029C11.375,81.971,10.845,83.235,10.845,84.794Z" transform="translate(-353 -4103.693)" fill="#fff" opacity="0.8"/>
    <path id="Path_73083" data-name="Path 73083" d="M10.845,94.419c0,1.559.531,2.823,1.185,2.823H76.363c.654,0,1.185-1.264,1.185-2.823s-.53-2.824-1.185-2.824H12.029C11.375,91.6,10.845,92.86,10.845,94.419Z" transform="translate(-353 -4103.423)" fill="#fff" opacity="0.8"/>
    <path id="Path_73084" data-name="Path 73084" d="M101.759,75.3a10.83,10.83,0,0,0,0-15.524,11.345,11.345,0,0,0-15.826,0,10.83,10.83,0,0,0,0,15.524A11.345,11.345,0,0,0,101.759,75.3Z" transform="translate(-350.609 -4104.332)" fill="#fff"/>
    <path id="Path_73085" data-name="Path 73085" d="M129.571,75.3a10.829,10.829,0,0,0,0-15.524,11.345,11.345,0,0,0-15.826,0,10.83,10.83,0,0,0,0,15.524A11.345,11.345,0,0,0,129.571,75.3Z" transform="translate(-349.804 -4104.332)" fill="#fff"/>
    <path id="Path_73086" data-name="Path 73086" d="M157.384,75.655a10.83,10.83,0,0,0,0-15.524,11.345,11.345,0,0,0-15.826,0,10.829,10.829,0,0,0,0,15.524A11.345,11.345,0,0,0,157.384,75.655Z" transform="translate(-348.999 -4104.321)" fill="#fff"/>
    <path id="Path_73087" data-name="Path 73087" d="M100.5,65.213a6.919,6.919,0,0,1,.539,2.679,7.19,7.19,0,1,1-7.188-7.051q.182,0,.362.009V59.062c-.12,0-.241-.008-.362-.008a8.839,8.839,0,1,0,9.009,8.837,8.664,8.664,0,0,0-.688-3.392Z" transform="translate(-350.576 -4104.28)" fill="#fff"/>
    <path id="Path_73088" data-name="Path 73088" d="M125.369,73.857a7.259,7.259,0,0,1-3.831,1.085,7.052,7.052,0,1,1,0-14.1q.183,0,.363.009V59.062c-.12,0-.241-.008-.363-.008a8.839,8.839,0,1,0,0,17.674,9.1,9.1,0,0,0,4.734-1.317Z" transform="translate(-349.824 -4104.28)" fill="#fff"/>
    <path id="Path_73089" data-name="Path 73089" d="M155.472,71.856a7.219,7.219,0,0,1-5.945,3.087,7.052,7.052,0,1,1,0-14.1q.183,0,.363.009V59.062c-.121,0-.241-.008-.363-.008a8.839,8.839,0,1,0,0,17.674,9.049,9.049,0,0,0,7.42-3.825Z" transform="translate(-349.003 -4104.28)" fill="#fff"/>
    <g id="Group_628" data-name="Group 628" transform="translate(-267.493 -4020.384)" opacity="0.28">
      <path id="Path_73090" data-name="Path 73090" d="M102.966,83.16H84.729a2.033,2.033,0,1,0,0,4.066h18.237a2.033,2.033,0,1,0,0-4.066Z" transform="translate(-82.657 -83.16)" fill="#fff"/>
      <path id="Path_73091" data-name="Path 73091" d="M130.779,83.16H112.542a2.033,2.033,0,1,0,0,4.066h18.237a2.033,2.033,0,1,0,0-4.066Z" transform="translate(-82.657 -83.16)" fill="#fff"/>
      <path id="Path_73092" data-name="Path 73092" d="M140.355,87.226h18.237a2.033,2.033,0,1,0,0-4.066H140.355a2.033,2.033,0,1,0,0,4.066Z" transform="translate(-82.657 -83.16)" fill="#fff"/>
      <path id="Path_73093" data-name="Path 73093" d="M102.966,89.486H84.729a2.053,2.053,0,0,0-2.073,2.033v11.973a2.053,2.053,0,0,0,2.073,2.033h18.237a2.053,2.053,0,0,0,2.073-2.033V91.519A2.053,2.053,0,0,0,102.966,89.486Z" transform="translate(-82.657 -83.16)" fill="#fff"/>
      <path id="Path_73094" data-name="Path 73094" d="M130.779,89.486H112.542a2.053,2.053,0,0,0-2.073,2.033v11.973a2.053,2.053,0,0,0,2.073,2.033h18.237a2.053,2.053,0,0,0,2.072-2.033V91.519A2.053,2.053,0,0,0,130.779,89.486Z" transform="translate(-82.657 -83.16)" fill="#fff"/>
      <path id="Path_73095" data-name="Path 73095" d="M158.592,89.486H140.355a2.053,2.053,0,0,0-2.073,2.033v11.973a2.053,2.053,0,0,0,2.073,2.033h18.237a2.053,2.053,0,0,0,2.072-2.033V91.519A2.053,2.053,0,0,0,158.592,89.486Z" transform="translate(-82.657 -83.16)" fill="#fff"/>
    </g>
    <path id="Path_73096" data-name="Path 73096" d="M57.765,146.4l84.494-.9c1.657-.017,3.01,1.017,3.005,2.3l-.173,50.159c-.005,1.291-1.379,2.327-3.046,2.295-15.279-.295-83.113-1.594-86.106-1.486-2.958.107-1.508-40.192-1.106-50.135C54.883,147.4,56.176,146.413,57.765,146.4Z" transform="translate(-353 -4101.25)" fill="#2fb972"/>
    <path id="Path_73097" data-name="Path 73097" d="M57.367,197l-.05-.212c-1.08-4.63-1.134-23.515-.138-48.112a.587.587,0,0,1,.615-.519l84.494-.9a.682.682,0,0,1,.421.135.5.5,0,0,1,.208.4l-.173,50.16a.584.584,0,0,1-.615.538h-.019c-12.16-.234-73.382-1.409-84.521-1.489Zm84.942-49.2h-.017l-84.492.9a.11.11,0,0,0-.069.021c-.971,24.16-.938,42.794.087,47.725,11.715.093,72.222,1.254,84.3,1.487h.018a.085.085,0,0,0,.051-.02l.166-50.13C142.349,147.8,142.331,147.8,142.309,147.8Z" transform="translate(-350.994 -4101.247)" fill="#fff" opacity="0.54"/>
    <path id="Path_73098" data-name="Path 73098" d="M112.64,154.389c0,1.269.44,2.295.971,2.294l23.479-.089c.531,0,.958-1.032.953-2.3s-.44-2.3-.971-2.294l-23.479.088C113.062,152.09,112.635,153.12,112.64,154.389Z" transform="translate(-349.712 -4101.734)" fill="#fff" opacity="0.8"/>
    <path id="Path_73099" data-name="Path 73099" d="M112.483,160.631a1.068,1.068,0,0,0,.966,1.145l23.479-.088a1.167,1.167,0,0,0-.008-2.3l-23.479.088A1.068,1.068,0,0,0,112.483,160.631Z" transform="translate(-349.717 -4101.556)" fill="#fff" opacity="0.8"/>
    <path id="Path_73100" data-name="Path 73100" d="M112.285,165.406a1.067,1.067,0,0,0,.966,1.145l23.479-.088a1.167,1.167,0,0,0-.009-2.3l-23.479.088A1.067,1.067,0,0,0,112.285,165.406Z" transform="translate(-349.723 -4101.423)" fill="#fff" opacity="0.8"/>
    <path id="Path_73101" data-name="Path 73101" d="M79.016,191.911l-.936-.039a1.115,1.115,0,0,1-1.071-1.019l-1.325-17.34a1.089,1.089,0,0,1,.272-.805,1.133,1.133,0,0,1,.772-.377,8.035,8.035,0,0,0,3.12-.972c.476-.282,1.068-1.649,1.591-2.855a19.4,19.4,0,0,1,3.553-5.979c2.826-2.917,2.564-7.478,2.525-7.99a3.5,3.5,0,0,1,2.257-3.194c.853-.286,2.541-.384,4.269,2.175,2.159,3.2.987,7.341.211,10.083a14.946,14.946,0,0,0-.515,2.158.429.429,0,0,0,0,.05c.558.376,3.169.087,4.743-.089.831-.093,1.69-.188,2.526-.249,2.918-.215,6.328.044,6.805,3.989a4.215,4.215,0,0,1-1.3,3.558,4.782,4.782,0,0,1,1.833,3.588,4.242,4.242,0,0,1-1.123,2.69,4.046,4.046,0,0,1,1.129,3.965,4.837,4.837,0,0,1-1.651,2.574,2.429,2.429,0,0,1,.571,1.724c-.133,1.911-2.565,3.727-5.781,4.319C97.591,192.592,82.924,192.067,79.016,191.911ZM78,174.366l1.173,15.344c3.928.154,18.3.662,21.9,0,2.558-.471,3.913-1.731,3.953-2.3.016-.22-.4-.506-1.022-.711a1.1,1.1,0,0,1,.3-2.146,2.373,2.373,0,0,0,1.861-1.811,2.074,2.074,0,0,0-1.244-2.417,1.09,1.09,0,0,1-.051-1.874c.006-.005,1.214-.832,1.225-1.889.01-1.025-1.1-2.007-2.034-2.649a1.091,1.091,0,0,1,.125-1.879,2.551,2.551,0,0,0,1.392-2.313c-.133-1.1-.281-2.355-4.406-2.052-.791.058-1.629.152-2.439.242-3.017.337-5.4.6-6.6-.549a2.123,2.123,0,0,1-.632-1.8,15.636,15.636,0,0,1,.587-2.548c.706-2.5,1.674-5.917.081-8.277-.618-.915-1.244-1.424-1.637-1.315a1.4,1.4,0,0,0-.773.978c.046.585.355,6.041-3.137,9.647a17.413,17.413,0,0,0-3.114,5.323c-.781,1.8-1.4,3.228-2.5,3.879A9.867,9.867,0,0,1,78,174.366Z" transform="translate(-350.742 -4101.275)" fill="#fff" opacity="0.8"/>
    <path id="Path_73102" data-name="Path 73102" d="M360.256,158.373l-2.753-2.219a3.392,3.392,0,0,0-4.363.12L223.781,273.407l-69.166-55.748a3.386,3.386,0,0,0-4.494.246L14.313,355.757a3.01,3.01,0,0,0,.147,4.4,3.382,3.382,0,0,0,4.619-.139l133.684-135.7L221.8,279.965a3.391,3.391,0,0,0,4.363-.12L355.518,162.712l5.255,4.235Z" transform="translate(-353 -4096.001)" fill="#fff"/>
    <path id="Path_73103" data-name="Path 73103" d="M147.888,240.951c8.647-.488,15.274-7.414,14.8-15.47s-7.865-14.191-16.512-13.7-15.275,7.414-14.8,15.47S139.24,241.438,147.888,240.951Z" transform="translate(-349.098 -4099.618)" fill="#fff"/>
    <path id="Path_73104" data-name="Path 73104" d="M218.345,290.351c8.647-.487,15.275-7.414,14.8-15.47s-7.864-14.191-16.512-13.7-15.274,7.413-14.8,15.469S209.7,290.839,218.345,290.351Z" transform="translate(-347.005 -4098.129)" fill="#fff"/>
    <path id="Path_73105" data-name="Path 73105" d="M346.325,173.138c8.647-.487,15.275-7.413,14.8-15.47s-7.864-14.191-16.512-13.7-15.274,7.413-14.8,15.469S337.678,173.626,346.325,173.138Z" transform="translate(-343 -4101.662)" fill="#fff"/>
    <path id="Path_73106" data-name="Path 73106" d="M262.37,222.655l100.517-.622a3.973,3.973,0,0,1,4.153,3.83l-.423,51.152a3.988,3.988,0,0,1-4.249,3.77l-99.429-2.753a3.967,3.967,0,0,1-4-3.751l-.665-47.777A3.964,3.964,0,0,1,262.37,222.655Z" transform="translate(-343 -4098.655)" fill="#2fb972"/>
    <path id="Path_73107" data-name="Path 73107" d="M362.494,277.658,263.042,274.9a.691.691,0,0,1-.688-.663l-.665-47.778a.64.64,0,0,1,.21-.487.715.715,0,0,1,.494-.2l100.517-.622a.717.717,0,0,1,.5.192.645.645,0,0,1,.214.486L363.2,276.99A.693.693,0,0,1,362.494,277.658Zm.418-52.177,0,.32-100.517.622.61,47.809.054.032,99.442,2.753.468-51.183Z" transform="translate(-343 -4098.702)" fill="#fff" opacity="0.54"/>
    <path id="Path_73108" data-name="Path 73108" d="M268.168,232.856c0,1.65,1.043,2.987,2.33,2.987h85.493c1.286,0,2.329-1.337,2.329-2.987s-1.043-2.987-2.329-2.987H270.5C269.211,229.869,268.168,231.206,268.168,232.856Z" transform="translate(-343 -4099.526)" fill="#fff" opacity="0.8"/>
    <path id="Path_73109" data-name="Path 73109" d="M268.587,239h35.995a2.222,2.222,0,0,1,2.307,2.126V268.5a2.228,2.228,0,0,1-2.371,2.125l-35.258-.9a2.221,2.221,0,0,1-2.242-2.07l-.737-26.48A2.216,2.216,0,0,1,268.587,239Z" transform="translate(-344.867 -4098.745)" fill="#fff" opacity="0.8"/>
    <path id="Path_73110" data-name="Path 73110" d="M314.4,239.67H354.58a1.805,1.805,0,0,1,0,3.583H314.4a1.805,1.805,0,0,1,0-3.583Z" transform="translate(-343 -4099.295)" fill="#fff" opacity="0.8"/>
    <path id="Path_73111" data-name="Path 73111" d="M312.818,249.132a1.694,1.694,0,0,0,1.58,1.788h40.185a1.694,1.694,0,0,0,1.58-1.788v-1.106a1.687,1.687,0,0,0-1.619-1.787l-40.185,1.1A1.7,1.7,0,0,0,312.818,249.132Z" transform="translate(-343 -4099.09)" fill="#fff" opacity="0.8"/>
    <path id="Path_73112" data-name="Path 73112" d="M108.321,318.155H31.206a5.372,5.372,0,0,1-5.637-5.059v-45.06a5.332,5.332,0,0,1,5.323-5.051l80.091-4.006c3.353-.168,6.125,2.316,5.943,5.325l-2.976,49.067A5.411,5.411,0,0,1,108.321,318.155Z" transform="translate(-353 -4096.001)" fill="#2fb972"/>
    <path id="Path_73113" data-name="Path 73113" d="M71.564,290.965l42.154-31.5a6.158,6.158,0,0,0-2.735-.482l-80.091,4.006a5.943,5.943,0,0,0-3.551,1.369L58.89,290.683A10.672,10.672,0,0,0,71.564,290.965Z" transform="translate(-353 -4098.083)" fill="#2fb972"/>
    <path id="Path_73114" data-name="Path 73114" d="M65.7,289.4a9.437,9.437,0,0,1-5.858-2l-11.887-9.417a.7.7,0,0,1-.074-1.067.91.91,0,0,1,1.189-.066l11.887,9.417a7.78,7.78,0,0,0,8.935.4l6.16-3.973a.906.906,0,0,1,1.176.173.707.707,0,0,1-.192,1.055l-6.16,3.973A9.555,9.555,0,0,1,65.7,289.4Z" transform="translate(-353 -4098.057)" fill="#fff" opacity="0.8"/>
    <path id="Path_73115" data-name="Path 73115" d="M44.094,274.67a.9.9,0,0,1-.557-.189l-1.6-1.267a.7.7,0,0,1-.074-1.068.911.911,0,0,1,1.189-.066l1.6,1.268a.7.7,0,0,1,.074,1.067A.886.886,0,0,1,44.094,274.67Z" transform="translate(-353 -4098.411)" fill="#fff" opacity="0.8"/>
    <path id="Path_73116" data-name="Path 73116" d="M214.48,340.152s.966,5.363,1.439,10.671a3.683,3.683,0,0,1-3.567,3.962c-7.206.294-22.621.867-28.152.625a1.192,1.192,0,0,1-1.068-1.63,2.689,2.689,0,0,1,1.39-1.436l25.462-11.479Z" transform="translate(-347.538 -4096.001)" fill="#b72222"/>
    <path id="Path_73117" data-name="Path 73117" d="M215.271,337l-.776,6.414s-4.46,2.037-7.506-.256l1.847-7.148Z" transform="translate(-347.246 -4096.001)" fill="#fff"/>
    <path id="Path_73118" data-name="Path 73118" d="M214.688,216.416c.335,1.674,1.8,83.585-7.127,120.292a1.24,1.24,0,0,0,.745,1.449,22.477,22.477,0,0,0,7.269,1.449,2.184,2.184,0,0,0,2.17-1.54c2.552-8.517,14.778-51.187,16.373-91.948,1.782-45.548,0-1.551,0-1.551l-1.046-28.155Z" transform="translate(-346.908 -4096.001)" fill="#100773"/>
    <path id="Path_73119" data-name="Path 73119" d="M243.77,342.949s1.537,2.707,3.025,9.9a2.238,2.238,0,0,1-2,2.672c-2.379.229-6.042.524-8.977.505a2.241,2.241,0,0,1-2.245-2.482,18.574,18.574,0,0,1,4.466-10.291Z" transform="translate(-346.416 -4096.001)" fill="#b72222"/>
    <path id="Path_73120" data-name="Path 73120" d="M245.12,334.7l-1.813,9.7s-1.792,1.308-5.338.36l.865-10.437Z" transform="translate(-346.405 -4096.001)" fill="#fff"/>
    <path id="Path_73121" data-name="Path 73121" d="M250.017,218.93c7.3,43.217-1.583,106.813-4.58,119.261a1.962,1.962,0,0,1-1.6,1.474,13.561,13.561,0,0,1-5.711-.224,1.786,1.786,0,0,1-1.3-1.638c-.4-10.064.321-71.843-6.481-96.258a5.547,5.547,0,0,0-2.181-3.06l-13.2-9.207L213.949,214.4Z" transform="translate(-346.5 -4096.001)" fill="#100773"/>
    <path id="Path_73122" data-name="Path 73122" d="M203.5,137.043c21.877-.354,46.016,5.635,46.016,5.635,6.522,37.325,1.141,80.376,1.141,80.376-16.937,4.357-36.043-2.663-36.043-2.663-2.815-15.6-15.95-59.507-15.95-59.507a73.081,73.081,0,0,1-26.746-8.326c5.531-6.29,8.139-14.292,9.271-19.023A74.7,74.7,0,0,0,203.5,137.043Z" transform="translate(-347.014 -4101.056)" fill="#2fb972"/>
    <path id="Path_73123" data-name="Path 73123" d="M138.877,105.434c2.15-2.547,4.04-2.741,4.04-2.741,3.219,13.34,20.93,25.555,38.273,30.842-1.133,4.73-3.741,12.733-9.272,19.022C143.136,136.683,138.877,105.434,138.877,105.434Z" transform="translate(-348.736 -4102.7)" fill="#fbaf87"/>
    <path id="Path_73124" data-name="Path 73124" d="M139.4,106.08c-.225.7,2.379,1.769,3.912-1.1.054-1.374.906-7.263.069-8.383-4.46-5.964-13.106-13.44-13.106-13.44a1.991,1.991,0,0,0-.257,2.8l4.194,4.286A19.8,19.8,0,0,0,131.762,95a5.671,5.671,0,0,0,.586,4.243c.737,1.3,1.741,2.992,2.691,4.316A5.839,5.839,0,0,0,139.4,106.08Z" transform="translate(-349.338 -4103.535)" fill="#fbaf87"/>
    <path id="Path_73125" data-name="Path 73125" d="M136.046,93.029l3.822,3.178,1.2,3.164-3.408,3.709s-1.146-6.279-2-7.638S135.253,93.427,136.046,93.029Z" transform="translate(-349.267 -4103.35)" fill="#fbaf87"/>
    <path id="Path_73126" data-name="Path 73126" d="M241.125,163.457l8.392-20.779s20.434,13.619,23.8,30.887a49.1,49.1,0,0,0-17.764,4.671C254.036,170.082,241.125,163.457,241.125,163.457Z" transform="translate(-345.82 -4101.616)" fill="#2fb972"/>
    <path id="Path_73127" data-name="Path 73127" d="M223.267,183.009s22.943,12.719,30.685,1.859a8.412,8.412,0,0,0,1.6-6.633,49.129,49.129,0,0,1,17.765-4.671,23.443,23.443,0,0,1-2.641,16.339c-13.56,24.332-50.44-1.345-50.44-1.345Z" transform="translate(-345.997 -4100.807)" fill="#fbaf87"/>
    <path id="Path_73128" data-name="Path 73128" d="M226.024,199.1,213.5,156.208a1.268,1.268,0,0,0-1.079-.9c-2.268-.26-8.842-.989-16.432-1.619-9.143-.758-19.76-1.373-26.1-.85a1.254,1.254,0,0,0-1.046,1.806c3.608,7.16,18.448,36.284,25.88,45.825a1.291,1.291,0,0,0,1.032.5l29.052-.265A1.26,1.26,0,0,0,226.024,199.1Z" transform="translate(-347.569 -4101.119)" fill="#09005d"/>
    <path id="Path_73129" data-name="Path 73129" d="M194.693,149.969l-9.078-1.483a.643.643,0,0,0-.726.83l.9,2.672a.651.651,0,0,0,.533.433l8.736,1.144a.643.643,0,0,0,.72-.779l-.556-2.332A.648.648,0,0,0,194.693,149.969Z" transform="translate(-347.823 -4101.829)" fill="#df7272"/>
    <path id="Path_73130" data-name="Path 73130" d="M201.49,157.508l-.747-3.821a.9.9,0,0,0-.794-.713l-18.336-1.825a.89.89,0,0,0-.967,1.085L181.812,157a.9.9,0,0,0,.831.675l17.918.885A.889.889,0,0,0,201.49,157.508Z" transform="translate(-347.797 -4101.726)" fill="#df7272"/>
    <path id="Path_73131" data-name="Path 73131" d="M223,188.738s1.744-7.036,1.041-9.532-2.067-5.7-6.611-4.992a67.475,67.475,0,0,0-9.9,2.591s.271,3.251,3.724,2.2l-2.141,1.626s.306,2.6,3.223,1.212L210.339,184a2.342,2.342,0,0,0,3.4.767C215.884,183.4,216.913,189.585,223,188.738Z" transform="translate(-347.093 -4100.973)" fill="#fbaf87"/>
    <path id="Path_73132" data-name="Path 73132" d="M225.66,119.621l6.961,19.747a.706.706,0,0,1-.331.857c-1.9,1.029-8.734,4-16.972-1.12a3.346,3.346,0,0,1-1.573-2.393l-2.254-17.091Z" transform="translate(-346.902 -4102.468)" fill="#fbaf87"/>
    <path id="Path_73133" data-name="Path 73133" d="M209.292,98.477s-5.562,10.241-6.327,15.783-2.279,9.06,4.193,10.69,12.258-1.147,15.7-6.46c0,0,5.381-8.181,4.611-11.762S209.292,98.477,209.292,98.477Z" transform="translate(-347.099 -4103.052)" fill="#fbaf87"/>
    <path id="Path_73134" data-name="Path 73134" d="M220.937,114.33l-.36-.19a.878.878,0,0,1-.343-1.248c1.067-1.682,3.2-5.561.94-6.679-2.906-1.442-14.61-4.744-16.843-9.084a7.671,7.671,0,0,1,3.856-10.345.457.457,0,0,1,.577.235l.233.529a.45.45,0,0,0,.829-.019.449.449,0,0,1,.812-.051c.689,1.3,2.657,3.474,8.27,4.947,7.978,2.094,13.071,5.723,12.762,11.22a.447.447,0,0,0,.661.414c.626-.311,1.6-.4,2.79.749,2.075,2.007.782,6.693-4.408,10.228a.431.431,0,0,0-.035.7c.838.633,2.047,2.077-1.51,3.6a11.737,11.737,0,0,1-7.3.978.435.435,0,0,1-.318-.554l1.472-4.739a.44.44,0,0,0-.392-.565Z" transform="translate(-346.933 -4103.349)" fill="#09005d"/>
    <path id="Path_73135" data-name="Path 73135" d="M220.651,115.331s2.342-6.636,5.286-4.5-2.219,7.467-4.729,7.527Z" transform="translate(-346.902 -4102.873)" fill="#fbaf87"/>
  </g>
</svg>
