<svg xmlns="http://www.w3.org/2000/svg" width="67.279" height="81" viewBox="0 0 67.279 81">
  <g id="Group_868" data-name="Group 868" transform="translate(-1111 -765)">
    <path id="Path_71936" data-name="Path 71936" d="M951.526,100.865h5.755" transform="translate(195.998 668)" fill="rgba(0,0,0,0)" stroke="#bcc2c8" stroke-linecap="round" stroke-linejoin="round" stroke-width="2"/>
    <path id="Path_71937" data-name="Path 71937" d="M954.4,98v5.73" transform="translate(195.998 668)" fill="rgba(0,0,0,0)" stroke="#bcc2c8" stroke-linecap="round" stroke-linejoin="round" stroke-width="2"/>
    <path id="Path_71938" data-name="Path 71938" d="M975.526,124.865h5.755" transform="translate(195.998 668)" fill="rgba(0,0,0,0)" stroke="#bcc2c8" stroke-linecap="round" stroke-linejoin="round" stroke-width="2"/>
    <path id="Path_71939" data-name="Path 71939" d="M978.4,122v5.73" transform="translate(195.998 668)" fill="rgba(0,0,0,0)" stroke="#bcc2c8" stroke-linecap="round" stroke-linejoin="round" stroke-width="2"/>
    <path id="Path_71940" data-name="Path 71940" d="M954.526,148.865h5.755" transform="translate(195.998 668)" fill="rgba(0,0,0,0)" stroke="#bcc2c8" stroke-linecap="round" stroke-linejoin="round" stroke-width="2"/>
    <path id="Path_71941" data-name="Path 71941" d="M957.4,146v5.73" transform="translate(195.998 668)" fill="rgba(0,0,0,0)" stroke="#bcc2c8" stroke-linecap="round" stroke-linejoin="round" stroke-width="2"/>
    <g id="solar-battery-1-svgrepo-com" transform="translate(1111 768.978)">
      <path id="Path_798" data-name="Path 798" d="M60,58.326l-.167-2.456L57.2,17.022H11.217L0,58.326H33.516l.615,12.592-9.056,1.526v4.579H52.858V72.443L43.7,70.917,41.068,58.326H60ZM46.175,21.6h7.045l.559,8.235H46.035Zm-.2,11.669h8.036l.6,8.808H45.828ZM14.425,21.6h6.931l-1.537,8.235h-7.63Zm.929,32.146H5.7l2.236-8.235h8.96ZM8.864,42.078l2.392-8.808h7.921l-1.645,8.808ZM28.9,53.747H18.623l1.537-8.235h9.574Zm1.189-11.669H20.8l1.644-8.808h8.535Zm-7-12.242L24.625,21.6h7.545l-.839,8.235ZM42.424,53.747h-10.3l.839-8.235h9.6Zm.2-11.669H33.309l.9-8.808h8.565Zm.208-12.242H34.556l.839-8.235h7.575Zm2.8,23.911.14-8.235h9.075l.559,8.235Z" fill="#2fb972"/>
    </g>
  </g>
</svg>
