<svg xmlns="http://www.w3.org/2000/svg" width="34.599" height="33.554" viewBox="0 0 34.599 33.554">
  <g id="Group_739" data-name="Group 739" transform="translate(-1725.701 -152.721)">
    <g id="Group_738" data-name="Group 738" transform="translate(42.701)">
      <path id="Path_76211" data-name="Path 76211" d="M3.25,20.027A17.044,17.044,0,0,1,20.549,3.25a17.044,17.044,0,0,1,17.3,16.777A17.044,17.044,0,0,1,20.549,36.8,17.044,17.044,0,0,1,3.25,20.027Zm17.3-13.9a14.122,14.122,0,0,0-14.333,13.9,14.122,14.122,0,0,0,14.333,13.9,14.122,14.122,0,0,0,14.333-13.9,14.122,14.122,0,0,0-14.334-13.9Z" transform="translate(1679.75 149.473)" fill="rgba(255,223,0,0.92)" fill-rule="evenodd"/>
      <path id="Path_76212" data-name="Path 76212" d="M21.244,17.187l4.721-6.64c.467-.654-.419-1.365-1.1-.9l-5.092,3.412a1.071,1.071,0,0,1-1.16,0l-3.77-2.5a2.646,2.646,0,0,0-3.5.569L6.631,17.77c-.467.654.419,1.365,1.1.9l5.091-3.412a1.071,1.071,0,0,1,1.16,0l3.77,2.46a2.594,2.594,0,0,0,3.492-.531Z" transform="matrix(-0.515, 0.857, -0.857, -0.515, 1720.829, 162.822)" fill="rgba(255,223,0,0.92)"/>
    </g>
  </g>
</svg>
