<svg xmlns="http://www.w3.org/2000/svg" width="157.201" height="190.458" viewBox="0 0 157.201 190.458">
  <g id="Group_932" data-name="Group 932" transform="translate(-71 -681.542)">
    <g id="Group" transform="translate(71 681.542)">
      <g id="Group_17169" data-name="Group 17169" opacity="0.2">
        <path id="Path_78210" data-name="Path 78210" d="M67.4,190.458c37.046,0,67.079-2.468,67.079-5.512s-30.033-5.512-67.079-5.512S.322,181.9.322,184.946,30.354,190.458,67.4,190.458Z" fill="#369fff"/>
      </g>
      <path id="Path_78211" data-name="Path 78211" d="M77.517,187.521C48.252,186.492,17.98,182.5,2.308,128.566-2.353,112.532.677,100.393,5.792,91.241A55.166,55.166,0,0,1,9.878,85q.808-1.074,1.632-2.086A42.588,42.588,0,0,1,59.128,70.057a186.568,186.568,0,0,1,32.67,15.3c21.908,13.43,27.051,28.733,34.209,55,.618,2.256,1.228,4.781,1.7,7.47.248,1.433.454,2.916.6,4.42C129.889,169.04,123.412,189.132,77.517,187.521Z" fill="#369fff"/>
      <path id="Path_78212" data-name="Path 78212" d="M128.3,152.247a34.41,34.41,0,0,1-4.2,8.152c-5.534,7.931-17.062,17.509-40.531,18.133-1.036.029-2.05.043-3.058.043A81.811,81.811,0,0,1,56.4,175.283a58.886,58.886,0,0,1-20.177-10.649c-10.053-8.116-18.346-19.985-26.867-38.481A53.694,53.694,0,0,1,4.17,104.139,47.926,47.926,0,0,1,5.8,91.255a55.148,55.148,0,0,1,4.086-6.243c-.362.837-.717,1.717-1.05,2.632-3.065,8.407-5.179,21.788,2.178,37.75,14.962,32.472,32.309,52.379,72.513,51.329,22.717-.6,33.8-9.769,39.091-17.353a31.851,31.851,0,0,0,5.094-11.536C127.952,149.26,128.158,150.736,128.3,152.247Z" fill="#2a76bc"/>
      <path id="Path_78213" data-name="Path 78213" d="M86.435,52.718S104.809,77.648,109,90.071s-5.98,21.241-5.98,21.241l-9.45,3.547C93.572,114.852,83.859,71,86.435,52.718Z" fill="#8ac53e"/>
      <path id="Path_78214" data-name="Path 78214" d="M84.809,122.549c-8.031,2.661-27.654,9.642-36.175,6.818a8.25,8.25,0,0,1-1.014-.411,5.4,5.4,0,0,1-2.2-1.859c-3.341-5.087-6.655-26.434-5.165-38.978a50.617,50.617,0,0,0,.305-5.058c.043-2.632-.042-5.448-.156-8.279-.419-10.656-2.1-18.013,2.462-20.6a53.115,53.115,0,0,1,12.571-4.931c2.043-.49,5.392-1.511,7.74-1.469l10.159,1.845s8.769,1.461,10.791,2.958,3.058,8.067,6.711,14.09,4.448,12.068.958,18.68c-3.036,5.754-2.5,3.569-2.9,13C88.413,109.921,100.5,117.356,84.809,122.549Z" fill="#fff"/>
      <g id="Group_17171" data-name="Group 17171" opacity="0.8">
        <g id="Group_17170" data-name="Group 17170" opacity="0.8">
          <path id="Path_78215" data-name="Path 78215" d="M57.836,68.369a63.51,63.51,0,0,1,25.065-.22l.34,9.712s-15.452-1.717-25.186.759Z" fill="#ced3e6" opacity="0.8"/>
        </g>
      </g>
      <g id="Group_17172" data-name="Group 17172" opacity="0.8">
        <path id="Path_78216" data-name="Path 78216" d="M70.487,60.167c-.149,0-.3-.007-.454-.014-6.016-.312-11.536-5.619-11.763-5.846a.412.412,0,1,1,.575-.589c.057.05,5.527,5.321,11.231,5.612,5.463.291,6.122-5.129,6.151-5.363a.411.411,0,0,1,.816.092C77.042,54.123,76.318,60.167,70.487,60.167Z" fill="#ced3e6" opacity="0.8"/>
      </g>
      <g id="Group_17173" data-name="Group 17173" opacity="0.8">
        <path id="Path_78217" data-name="Path 78217" d="M53.43,108.793a.594.594,0,0,1-.114-.121.431.431,0,0,1,.142-.588,50.515,50.515,0,0,1,20.248-6.974,36.446,36.446,0,0,1,8.925-.093.431.431,0,0,1-.128.852,36.886,36.886,0,0,0-8.733.106,49.757,49.757,0,0,0-19.87,6.854A.449.449,0,0,1,53.43,108.793Z" fill="#ced3e6" opacity="0.8"/>
      </g>
      <path id="Path_78218" data-name="Path 78218" d="M63.661,126.416A51.1,51.1,0,0,1,45.429,115.4c-.355-.326-.7-.645-1.022-.965-2.313-2.248-3.945-1.092-4.654-2.383-2.7-4.945-1.171-24.349,0-31.479s-3.746-20.177-1.1-24.845,11.763-6.3,11.763-6.3-1.291-1.5,1.156-3.228,8.96-1.007,8.96-1.007C60.845,76.038,65.215,104.678,63.661,126.416Z" fill="#8ac53e"/>
      <path id="Path_78219" data-name="Path 78219" d="M56.552,117.576a.4.4,0,0,1-.4-.34c-3.292-21.39-.035-61.63,0-62.035a.409.409,0,0,1,.433-.369.4.4,0,0,1,.369.433c-.035.4-3.278,40.545,0,61.843a.406.406,0,0,1-.34.461.2.2,0,0,1-.062.007Z" fill="#fff"/>
      <path id="Path_78220" data-name="Path 78220" d="M63.171,120.783a.4.4,0,0,1-.4-.333c-4.306-24.569-4.647-66.966-4.647-67.391a.4.4,0,1,1,.8-.007c0,.426.348,42.752,4.64,67.256a.407.407,0,0,1-.326.468.27.27,0,0,1-.067.007Z" fill="#53a03b"/>
      <path id="Path_78221" data-name="Path 78221" d="M56.027,52.818a.548.548,0,0,1-.107-.014,13.658,13.658,0,0,1-5.583-3,.4.4,0,0,1,.56-.575,12.959,12.959,0,0,0,5.222,2.8.4.4,0,0,1,.284.5.382.382,0,0,1-.376.289Z" fill="#53a03b"/>
      <path id="Path_78222" data-name="Path 78222" d="M94.984,112.951a22.19,22.19,0,0,1-12.167,12.812c-1.192-23.525-3.888-50.392-7.371-78.969,0,0,3.668-.646,5.193,1.454a5.812,5.812,0,0,1,.8,2.433A18.805,18.805,0,0,1,85.363,52c2.05.958,1.816,2.27,2.306,5.6s5.64,8.492,7.314,15.48-2.766,11.45-4.15,17.32S94.984,112.951,94.984,112.951Z" fill="#8ac53e"/>
      <path id="Path_78223" data-name="Path 78223" d="M86.746,116.59a.4.4,0,0,1-.4-.39A399.111,399.111,0,0,0,79.51,55.315a.4.4,0,0,1,.787-.163,399.792,399.792,0,0,1,6.846,61.028.4.4,0,0,1-.39.411Z" fill="#fff"/>
      <path id="Path_78224" data-name="Path 78224" d="M77.922,53.7a.4.4,0,1,1-.071-.8c.028-.007,2.611-.475,3.2-2.341a.4.4,0,0,1,.763.237c-.745,2.341-3.71,2.873-3.831,2.9A.137.137,0,0,1,77.922,53.7Z" fill="#53a03b"/>
      <path id="Path_78225" data-name="Path 78225" d="M85.81,116.59a.4.4,0,0,1-.4-.355c-2.838-23.6-7.322-61.3-7.364-61.679a.4.4,0,1,1,.8-.092c.043.376,4.526,38.09,7.364,61.68a.4.4,0,0,1-.355.447Z" fill="#53a03b"/>
      <path id="Path_78226" data-name="Path 78226" d="M61.98,133.532a22.16,22.16,0,0,0,6.059,2.717c16.459,5.236,31.549-3.214,31.549-3.214.915-4.505.348-9.627-1.171-11.5a1.664,1.664,0,0,0,.163-1.461l15.147-15.722c-8.613,7.137-19.269,9.471-27.562,14.487h-.007c-2.391,1.447-4.54,2.717-6.116,3.6-2.4,1.348-5.47,1.483-8.478,1.064a41.3,41.3,0,0,1-11.479-3.7s-18.864-8.549-22.4-8.265C34.943,111.759,49.742,127.2,61.98,133.532Z" fill="#304d63"/>
      <path id="Path_78227" data-name="Path 78227" d="M91.131,146.714s-4.853-1.4-6.35-2.973L81.4,151.687l11.49,3.583C92.9,155.27,93.053,148.289,91.131,146.714Z" fill="#ea9b7a"/>
      <path id="Path_78228" data-name="Path 78228" d="M118.849,169.664,104,136.71a5.13,5.13,0,0,0-2.029.391c-2.881,1.049-6.932,3.944-9.535,5.64-.305.2-.589.383-.851.546-.44.27-.816.482-1.1.617-2.292,1.029-1.086,2.263-1.086,2.263,4.271,2.136,1.667,8.464,4.271,9.94,0,0,1.107.645,4.64,2.2s7.087,5.307,10.379,8.379c4.25,3.973,6.917,4.434,8.443,4.072A2.806,2.806,0,0,0,118.849,169.664Z" fill="#d34f00"/>
      <path id="Path_78229" data-name="Path 78229" d="M118.849,169.664,104,136.71a5.13,5.13,0,0,0-2.029.391l15.161,33.656a2.806,2.806,0,0,0,1.717-1.093Z" fill="#653213"/>
      <path id="Path_78230" data-name="Path 78230" d="M105.518,140.073l-.44-.979a7.937,7.937,0,0,1-4.476,4.151,10.229,10.229,0,0,1-8.159-.5c-.305.2-.589.383-.851.546a11.093,11.093,0,0,0,9.322.759,8.823,8.823,0,0,0,4.6-3.977Z" fill="#8ac53e"/>
      <path id="Path_78231" data-name="Path 78231" d="M100.006,156.873a.6.6,0,0,0-1.135.355l.419,2.291a.6.6,0,1,0,1.178-.213l-.419-2.291A.477.477,0,0,0,100.006,156.873Z" fill="#fff"/>
      <path id="Path_78232" data-name="Path 78232" d="M97.373,155.6a.6.6,0,0,0-1.135.355l.418,2.291a.6.6,0,1,0,1.178-.213l-.419-2.291A.418.418,0,0,0,97.373,155.6Z" fill="#fff"/>
      <path id="Path_78233" data-name="Path 78233" d="M102.135,158.391a.6.6,0,0,0-1.136.355l.419,2.291a.6.6,0,1,0,1.178-.212l-.419-2.292a.477.477,0,0,0-.042-.142Z" fill="#fff"/>
      <path id="Path_78234" data-name="Path 78234" d="M104.213,159.931a.6.6,0,0,0-1.135.354l.418,2.292a.6.6,0,0,0,1.178-.213l-.419-2.291C104.241,160.023,104.227,159.973,104.213,159.931Z" fill="#fff"/>
      <path id="Path_78235" data-name="Path 78235" d="M106.285,161.7a.6.6,0,0,0-1.135.355l.418,2.291a.6.6,0,1,0,1.178-.212l-.419-2.292a.477.477,0,0,0-.042-.142Z" fill="#fff"/>
      <path id="Path_78236" data-name="Path 78236" d="M108.293,163.726a.6.6,0,0,0-1.135.355l.418,2.291a.6.6,0,1,0,1.178-.213l-.419-2.291C108.321,163.811,108.307,163.769,108.293,163.726Z" fill="#fff"/>
      <path id="Path_78237" data-name="Path 78237" d="M37.7,111.539s-11.94-6.442-18.85-1.461C6.2,119.187,27.656,136.7,52.2,145.259s32.514,7.386,32.514,7.386,5.335-1.469,3.441-10.11c0,0-14.146-5.378-21.511-11.011S54.261,118.981,37.7,111.539Z" fill="#304d63"/>
      <path id="Path_78238" data-name="Path 78238" d="M87.193,145.046c-5.151-1.234-15.636-6.051-28.059-12.869-9.294-5.1-20.007-11.621-21.581-13.884-.851-1.22-1.064-2.221-.639-2.973.639-1.121,2.483-1.234,3.32-1.227a.373.373,0,1,1-.007.745c-.823-.007-2.263.135-2.667.851-.34.6.142,1.511.6,2.171,1.27,1.824,10.237,7.57,21.326,13.657,9.549,5.243,21.887,11.359,27.874,12.8Z" fill="#304d63"/>
      <path id="Path_78239" data-name="Path 78239" d="M86.221,141.386c-.582,4.54-1.759,8.669-4.321,11.84,0,0,2.2,1.583,4.207.447,1.533-.865,4.491-7.96,3.363-11.748C88.186,141.223,87.079,140.974,86.221,141.386Z" fill="#304d63"/>
      <path id="Path_78240" data-name="Path 78240" d="M55.077,145.813s4.881-.944,6.265-2.618l3.9,7.7L54.02,155.234C54.013,155.241,53.261,147.515,55.077,145.813Z" fill="#ea9b7a"/>
      <path id="Path_78241" data-name="Path 78241" d="M29.082,171.339,41.7,137.47a4.961,4.961,0,0,1,2.05.255c2.944.858,7.18,3.469,9.89,4.994.319.178.61.341.887.483a9.99,9.99,0,0,0,1.142.539c2.355.873,1.376,1.54,1.376,1.54-4.64,2.178-1.242,9.2-3.739,10.854,0,0-1.064.717-4.484,2.505s-6.719,5.767-9.8,9.052c-3.973,4.243-6.6,4.888-8.152,4.626a2.837,2.837,0,0,1-1.788-.979Z" fill="#d34f00"/>
      <path id="Path_78242" data-name="Path 78242" d="M29.082,171.339,41.7,137.47a4.961,4.961,0,0,1,2.05.255L30.863,172.318A2.833,2.833,0,0,1,29.082,171.339Z" fill="#653213"/>
      <path id="Path_78243" data-name="Path 78243" d="M40.4,140.924l.376-1.007a7.911,7.911,0,0,0,4.746,3.838,10.187,10.187,0,0,0,8.109-1.043c.319.178.61.341.887.483a11.06,11.06,0,0,1-9.251,1.376,8.738,8.738,0,0,1-4.867-3.647Z" fill="#8ac53e"/>
      <path id="Path_78244" data-name="Path 78244" d="M47.024,157.32a.6.6,0,0,1,1.149.277l-.263,2.312a.6.6,0,0,1-1.185-.134l.263-2.313a.809.809,0,0,1,.036-.142Z" fill="#fff"/>
      <path id="Path_78245" data-name="Path 78245" d="M49.571,155.873a.59.59,0,0,1,.624-.383.6.6,0,0,1,.525.659l-.263,2.313a.6.6,0,1,1-1.185-.135l.262-2.312A.81.81,0,0,1,49.571,155.873Z" fill="#fff"/>
      <path id="Path_78246" data-name="Path 78246" d="M45.009,158.98a.6.6,0,0,1,1.149.277L45.9,161.57a.6.6,0,1,1-1.185-.135l.262-2.313a.834.834,0,0,1,.032-.142Z" fill="#fff"/>
      <path id="Path_78247" data-name="Path 78247" d="M43.038,160.654a.6.6,0,0,1,1.149.277l-.262,2.313a.6.6,0,1,1-1.185-.135L43,160.8a.857.857,0,0,1,.038-.146Z" fill="#fff"/>
      <path id="Path_78248" data-name="Path 78248" d="M41.087,162.556a.6.6,0,0,1,1.149.276l-.263,2.313a.6.6,0,1,1-1.185-.135l.263-2.312A.81.81,0,0,1,41.087,162.556Z" fill="#fff"/>
      <path id="Path_78249" data-name="Path 78249" d="M39.22,164.705a.6.6,0,0,1,1.149.277l-.263,2.313a.6.6,0,1,1-1.185-.135l.262-2.313a1.038,1.038,0,0,1,.037-.142Z" fill="#fff"/>
      <path id="Path_78250" data-name="Path 78250" d="M108.859,106.3s11.295-7.513,18.638-3.185c13.43,7.91-6.329,27.321-29.989,38.09s-31.7,10.337-31.7,10.337-5.441-.972-4.356-9.755c0,0,13.593-6.655,20.411-12.94S93.046,115.235,108.859,106.3Z" fill="#304d63"/>
      <path id="Path_78251" data-name="Path 78251" d="M88.2,145.259c-1.305.426-2.625.859-3.994,1.291-5.293,1.668-11.337,3.413-16.807,4.754l-.021.78c4.945-1.206,10.741-2.838,17.048-4.824,1.234-.39,2.49-.795,3.753-1.213Z" fill="#304d63"/>
      <path id="Path_78252" data-name="Path 78252" d="M62.646,144.209c5.016-1.7,15.019-7.456,26.761-15.388,8.783-5.931,18.857-13.409,20.212-15.806.731-1.292.859-2.306.362-3.016-.738-1.057-2.582-1.007-3.419-.922a.377.377,0,0,0-.334.433.382.382,0,0,0,.4.312c.823-.078,2.263-.071,2.738.6.39.561,0,1.518-.4,2.221-1.093,1.929-9.5,8.47-19.985,15.558-9.024,6.094-20.752,13.316-26.583,15.3Z" fill="#304d63"/>
      <path id="Path_78253" data-name="Path 78253" d="M63.27,140.478c.993,4.469,2.547,8.471,5.392,11.394,0,0-2.043,1.78-4.143.83-1.6-.724-5.2-7.521-4.427-11.394C61.305,140.492,62.383,140.151,63.27,140.478Z" fill="#304d63"/>
      <path id="Path_78254" data-name="Path 78254" d="M61.745,104.643,60.837,117.6s-15.416-2.2-22.979-4.129a31.073,31.073,0,0,1-6.945-2.49c-4.179-2.221-7.641-6.088-7.385-13.622a34.341,34.341,0,0,1,1.5-8.464A174.845,174.845,0,0,1,39.752,54.272c11.869,5.08,10.869,13.536,10.869,13.536C47.237,76.84,39.752,96.073,39.752,96.073,44.1,101.387,61.745,104.643,61.745,104.643Z" fill="#8ac53e"/>
      <path id="Path_78255" data-name="Path 78255" d="M39.753,96.477a.392.392,0,0,1-.213-.064,24.5,24.5,0,0,0-4.917-1.66.394.394,0,0,1-.3-.482.4.4,0,0,1,.482-.3A31.079,31.079,0,0,1,39.093,95.3a7.209,7.209,0,0,0-1.185-1.738.4.4,0,0,1,.6-.532,6.173,6.173,0,0,1,1.639,2.987.4.4,0,0,1-.17.4.44.44,0,0,1-.224.06Z" fill="#53a03b"/>
      <path id="Path_78256" data-name="Path 78256" d="M30.92,110.986c-4.179-2.221-7.641-6.087-7.385-13.622C26.841,99.1,32.609,103.295,30.92,110.986Z" fill="#8ac53e"/>
      <path id="Path_78257" data-name="Path 78257" d="M52.055,102.649a.485.485,0,0,1-.1-.014A31.774,31.774,0,0,1,39.49,96.371a.411.411,0,0,1-.092-.482c5.449-10.706,8.889-19.2,10.84-26.753a.4.4,0,1,1,.78.2c-1.951,7.541-5.371,16-10.762,26.633a32.12,32.12,0,0,0,11.9,5.882.407.407,0,0,1-.1.8Z" fill="#53a03b"/>
      <path id="Path_78258" data-name="Path 78258" d="M49,75.144a.405.405,0,0,1-.248-.085.4.4,0,0,1-.064-.568l2.831-3.554a.4.4,0,1,1,.631.5l-2.831,3.554a.438.438,0,0,1-.319.153Z" fill="#53a03b"/>
      <path id="Path_78259" data-name="Path 78259" d="M62.193,42.474l13.692,1.958c8.9-.887,11.727-4.427,13.182-11.9a20.3,20.3,0,0,0-.468-9.549c-.185-2.809-.83-5.236-2.157-6.839-6.009-7.243-11.3-6.96-11.3-6.96C72.451,7.945,63.569,7.1,57.709,14.216c-.184.156-3.76,3.944-4.583,11.89C52.331,33.684,57.39,43.361,62.193,42.474Z" fill="#39393b"/>
      <path id="Path_78260" data-name="Path 78260" d="M69.84,11.166S71.266-1.463,60.057.141C52.735,1.184,48.2,11.109,54.9,15.614S69.84,11.166,69.84,11.166Z" fill="#39393b"/>
      <path id="Path_78261" data-name="Path 78261" d="M56.028,16.912a.378.378,0,0,1-.17-.042.359.359,0,0,1-.142-.483,16.218,16.218,0,0,1,8.946-7.726,14.933,14.933,0,0,1,5.2-.873.355.355,0,1,1-.043.709,15.343,15.343,0,0,0-13.48,8.23.379.379,0,0,1-.311.185Z" fill="#8ac53e"/>
      <path id="Path_78262" data-name="Path 78262" d="M63.264,39.621S54.53,34.733,56.247,24.56s8.414-16.3,18.68-13.345C74.934,11.215,73.934,40.622,63.264,39.621Z" fill="#39393b"/>
      <path id="Path_78263" data-name="Path 78263" d="M87.555,20.913s.894,8.733-.7,10-3.15-2.192-3.15-2.192S85.874,21.012,87.555,20.913Z" fill="#39393b"/>
      <path id="Path_78264" data-name="Path 78264" d="M83.533,31.7s2.6-2.284,3.469.518-.887,7.96-4.129,6.591Z" fill="#d46a43"/>
      <path id="Path_78265" data-name="Path 78265" d="M86.741,38.174a5.884,5.884,0,0,1-1.185.844c-1.639.88-3.774.986-6.342-.362,0,0-3.285-4.271,1.568-11.805,0,0,4.448-1.171,7,1.518a5.308,5.308,0,0,1,.766,1.036,5.777,5.777,0,0,1,.376.788C89.82,32.484,88.983,36.138,86.741,38.174Z" fill="#ff993a"/>
      <path id="Path_78266" data-name="Path 78266" d="M86.628,27.454a35.678,35.678,0,0,0,.546-3.639.483.483,0,0,1-.2.05,1.229,1.229,0,0,1-.816-.291c-.121,1.291-.3,2.462-.49,3.434Z" fill="#fff"/>
      <path id="Path_78267" data-name="Path 78267" d="M86.741,38.174a5.881,5.881,0,0,1-1.185.844A22.4,22.4,0,0,0,87.777,28.37a5.3,5.3,0,0,1,.766,1.036,22.831,22.831,0,0,1-1.8,8.768Z" fill="#ff7e07"/>
      <path id="Path_78268" data-name="Path 78268" d="M75.942,44.3l-1.071,7.222s-4.42,5.668-14.65-3.576c1.164-2.937,2.951-6.719,2.49-9.613a15.358,15.358,0,0,0,2.036,1.5c.262.17.546.348.844.525C68.245,41.984,72.3,44.049,75.942,44.3Z" fill="#ea9b7a"/>
      <path id="Path_78269" data-name="Path 78269" d="M75.942,44.3l-.5,3.377c-2.987-1.149-8.152-3.639-10.7-7.847.263.17.546.348.844.525C68.245,41.984,72.3,44.049,75.942,44.3Z" fill="#39393b"/>
      <path id="Path_78270" data-name="Path 78270" d="M85.755,32.023c-.114.745-.22,1.447-.333,2.114-.823,4.98-1.575,7.662-2.958,8.726-7,5.37-19.347-4.122-19.744-4.427l-.007-.007c-.042-.582-.071-1.156-.085-1.717a44.285,44.285,0,0,1,1.518-13.189,10.038,10.038,0,0,1,7.91-8.918c4.463-.908,7.981,1.518,10.159,2.554C85.5,18.735,87,23.51,86.081,29.852,85.967,30.611,85.861,31.342,85.755,32.023Z" fill="#ea9b7a"/>
      <path id="Path_78271" data-name="Path 78271" d="M79.5,37.827c-3.916,0-5.484-3.746-5.5-3.789a.355.355,0,1,1,.66-.263A5.371,5.371,0,0,0,80.638,37a.361.361,0,0,1,.419.284.365.365,0,0,1-.284.419,6.913,6.913,0,0,1-1.273.124Z" fill="#39393b"/>
      <path id="Path_78272" data-name="Path 78272" d="M76.482,24.3a.979.979,0,0,0-.262-1.9c-1.809-.121-4.718-.071-4.959,1.391-.355,2.135,3.022,1.249,5.158.532Z" fill="#39393b"/>
      <path id="Path_78273" data-name="Path 78273" d="M81.824,24.936A.978.978,0,0,1,82.832,23.3c1.7.624,4.349,1.837,3.98,3.271-.532,2.1-3.271-.078-4.938-1.589Z" fill="#39393b"/>
      <path id="Path_78274" data-name="Path 78274" d="M76.609,39.579a3.045,3.045,0,0,0,1.362.028.237.237,0,0,0-.106-.461,2.55,2.55,0,0,1-2.072-.518.236.236,0,1,0-.312.355,2.61,2.61,0,0,0,1.128.6Z" fill="#d46a43"/>
      <path id="Path_78275" data-name="Path 78275" d="M79.063,34.712a.278.278,0,0,1-.135-.149.259.259,0,0,1,.163-.326l1.71-.561-1.015-1.029a.24.24,0,0,1-.071-.213l.312-2.831a.254.254,0,0,1,.291-.227.251.251,0,0,1,.227.284l-.3,2.7L81.46,33.6a.257.257,0,0,1,.071.241.262.262,0,0,1-.17.184l-2.107.7a.227.227,0,0,1-.191-.008Z" fill="#39393b"/>
      <path id="Path_78276" data-name="Path 78276" d="M74.637,32c-.085.589-1.369.88-2.859.66s-2.632-.88-2.54-1.468,1.369-.88,2.859-.66S74.722,31.42,74.637,32Z" fill="#d46a43"/>
      <g id="Group_17184" data-name="Group 17184" opacity="0.8">
        <g id="Group_17183" data-name="Group 17183" opacity="0.8">
          <g id="Group_17182" data-name="Group 17182" opacity="0.8">
            <g id="Group_17181" data-name="Group 17181" opacity="0.8">
              <g id="Group_17180" data-name="Group 17180" opacity="0.8">
                <g id="Group_17179" data-name="Group 17179" opacity="0.8">
                  <g id="Group_17178" data-name="Group 17178" opacity="0.8">
                    <g id="Group_17177" data-name="Group 17177" opacity="0.8">
                      <g id="Group_17176" data-name="Group 17176" opacity="0.8">
                        <g id="Group_17175" data-name="Group 17175" opacity="0.8">
                          <g id="Group_17174" data-name="Group 17174" opacity="0.8">
                            <path id="Path_78277" data-name="Path 78277" d="M85.755,32.712c-.114.745-.22,1.447-.333,2.114-1.362-.255-2.362-.873-2.277-1.419S84.371,32.556,85.755,32.712Z" fill="#d46a43" opacity="0.8"/>
                          </g>
                        </g>
                      </g>
                    </g>
                  </g>
                </g>
              </g>
            </g>
          </g>
        </g>
      </g>
      <path id="Path_78278" data-name="Path 78278" d="M76.091,29.9c-.121.809-.582,1.4-1.036,1.341s-.717-.773-.6-1.582.582-1.4,1.036-1.341S76.212,29.093,76.091,29.9Z" fill="#39393b"/>
      <path id="Path_78279" data-name="Path 78279" d="M84.072,31.087c-.121.809-.582,1.4-1.036,1.341s-.717-.773-.6-1.582.582-1.4,1.036-1.341S84.185,30.285,84.072,31.087Z" fill="#39393b"/>
      <path id="Path_78280" data-name="Path 78280" d="M65.832,35.557c-.05.085-1.476,2.384-3.115,2.88l-.007-.007c-.042-.582-.071-1.156-.085-1.717A6.336,6.336,0,0,0,65.832,35.557Z" fill="#39393b"/>
      <path id="Path_78281" data-name="Path 78281" d="M65.187,29.732s-2.582-4.81-5.449-1.759c-2.362,2.511.192,10.528,4.541,8.386Z" fill="#ea9b7a"/>
      <path id="Path_78282" data-name="Path 78282" d="M63.946,35.046a.333.333,0,0,1-.284-.348,5.6,5.6,0,0,0-2.554-4.945.342.342,0,0,1-.121-.461.335.335,0,0,1,.461-.121,6.275,6.275,0,0,1,2.888,5.555.333.333,0,0,1-.348.319Z" fill="#39393b"/>
      <path id="Path_78283" data-name="Path 78283" d="M61.151,32.576a.337.337,0,0,1-.121-.624,3.231,3.231,0,0,1,2.433-.447.335.335,0,0,1-.262.617c-.553-.234-1.532.227-1.83.4A.359.359,0,0,1,61.151,32.576Z" fill="#39393b"/>
      <path id="Path_78284" data-name="Path 78284" d="M73.183,34.137a4.9,4.9,0,1,1,6.328-2.831A4.9,4.9,0,0,1,73.183,34.137Zm3.242-8.492a4.188,4.188,0,1,0,2.419,5.406,4.188,4.188,0,0,0-2.419-5.406Z" fill="#fff"/>
      <path id="Path_78285" data-name="Path 78285" d="M70.507,28.462a.289.289,0,0,1-.128-.035,7.265,7.265,0,0,0-5.172-.277.357.357,0,0,1-.255-.667,7.916,7.916,0,0,1,5.725.3.367.367,0,0,1,.177.475.373.373,0,0,1-.347.2Z" fill="#fff"/>
      <path id="Path_78286" data-name="Path 78286" d="M84.031,35.365a4.9,4.9,0,1,1,6.328-2.831,4.9,4.9,0,0,1-6.328,2.831Zm3.249-8.492a4.188,4.188,0,1,0,2.42,5.406,4.188,4.188,0,0,0-2.42-5.406Z" fill="#fff"/>
      <path id="Path_78287" data-name="Path 78287" d="M79.285,29.228a.332.332,0,0,1-.135-.128.358.358,0,0,1,.114-.5,2.216,2.216,0,0,1,2.483.191.359.359,0,1,1-.44.568A1.515,1.515,0,0,0,79.64,29.2a.338.338,0,0,1-.355.025Z" fill="#fff"/>
      <path id="Path_78288" data-name="Path 78288" d="M81.909,12.762a11.765,11.765,0,0,1,6.364,6.917c.653,1.937,1.2,4.5-1.525,4.164-7.435-.9-11.415-8.62-11.415-8.62s-1.447,7.109-7.286,6.243-5.654-5.271-2.334-7.761C68.415,11.669,75.3,9.782,81.909,12.762Z" fill="#39393b"/>
      <path id="Path_78289" data-name="Path 78289" d="M68.273,20.643s-3.32,3.569-2.128,7.407,1.27,6.917.028,8.982a23.313,23.313,0,0,0-1.8-7.109C63.16,27.4,62.025,25.489,62.9,22.587,63.505,20.6,64.96,18.685,68.273,20.643Z" fill="#39393b"/>
      <path id="Path_78290" data-name="Path 78290" d="M62.874,38.061a6.9,6.9,0,0,1-6.711-1.149c-3.093-2.59-3.32-7.96-1.426-10.592a6.006,6.006,0,0,1,2.256-1.951,4.7,4.7,0,0,1,.745-.305c3.2-1.05,6.669.873,6.669.873C68.039,34.911,62.874,38.061,62.874,38.061Z" fill="#ff993a"/>
      <path id="Path_78291" data-name="Path 78291" d="M71.935,42.424A16.674,16.674,0,0,1,61.059,35.2a.437.437,0,1,1,.759-.433A16.472,16.472,0,0,0,74.9,41.92a.437.437,0,0,1-.05.873,20.185,20.185,0,0,1-2.915-.369Z" fill="#fff"/>
      <path id="Path_78292" data-name="Path 78292" d="M77.3,42.679a1.394,1.394,0,1,1-1.085-1.646A1.394,1.394,0,0,1,77.3,42.679Z" fill="#243434"/>
      <path id="Path_78293" data-name="Path 78293" d="M56.829,37.394a7.62,7.62,0,0,1-.667-.482,17.9,17.9,0,0,0,.823-12.543,4.7,4.7,0,0,1,.745-.305,18.73,18.73,0,0,1-.9,13.33Z" fill="#ff7e07"/>
      <path id="Path_78294" data-name="Path 78294" d="M87.385,17.657A11.723,11.723,0,0,0,85.7,15.294a11.067,11.067,0,0,0-1.071-2.377,10.119,10.119,0,0,0-7.41-4.547A11.784,11.784,0,0,0,67.9,10.491a13.335,13.335,0,0,0-2.15,2.093,18.6,18.6,0,0,0-2.206,3.441,28.539,28.539,0,0,0-2.575,8.457l-.986-.107c.043-.4,1.156-9.968,7.307-14.679A12.744,12.744,0,0,1,77.368,7.384a11.048,11.048,0,0,1,8.1,5A14.08,14.08,0,0,1,87.385,17.657Z" fill="#fff"/>
      <path id="Path_78295" data-name="Path 78295" d="M49.955,126.835l-3.434-6.527a2.433,2.433,0,0,1,2.178-3.562l53.94.582-1.589,8.357Z" fill="#585859"/>
      <path id="Path_78296" data-name="Path 78296" d="M100.113,125H51.842a1.847,1.847,0,0,1-1.873-2.107l3.292-29.825A2.415,2.415,0,0,1,55.6,90.957h48.271a1.846,1.846,0,0,1,1.873,2.107l-3.292,29.825A2.414,2.414,0,0,1,100.113,125Z" fill="#ebebeb"/>
      <path id="Path_78297" data-name="Path 78297" d="M51.126,126.281h-.05a.411.411,0,0,1-.355-.454L54.73,93.888a.408.408,0,0,1,.809.1l-4.008,31.94a.411.411,0,0,1-.405.353Z" fill="#564c54"/>
      <path id="Path_78298" data-name="Path 78298" d="M74.609,108.509a4.25,4.25,0,0,0,3.938,4.612,4.388,4.388,0,0,0,4.611-4.065,4.25,4.25,0,0,0-3.937-4.612A4.387,4.387,0,0,0,74.609,108.509Z" fill="#585859"/>
      <path id="Path_78299" data-name="Path 78299" d="M100.348,127.593H51.41a1.776,1.776,0,0,1-1.759-2.015l.468-3.412H102.64l-.532,3.888a1.774,1.774,0,0,1-1.76,1.539Z" fill="#585859"/>
      <path id="Path_78300" data-name="Path 78300" d="M114.055,62.574A21.573,21.573,0,1,0,135.628,41a21.573,21.573,0,0,0-21.573,21.574Z" fill="#8ac53e"/>
      <path id="Path_78302" data-name="Path 78302" d="M124.593,80.216,113,82.664l5.023-9.988Z" fill="#8ac53e"/>
    </g>
    <text id="Hello_" data-name="Hello," transform="translate(194 748)" fill="#fff" font-size="11" font-family="Helvetica"><tspan x="0" y="0">Hello,</tspan></text>
  </g>
</svg>
